<svg width="108" height="106" viewBox="0 0 108 106" fill="none" xmlns="http://www.w3.org/2000/svg">
  <g>
    <path
      d="M40 42C40 32.0589 48.0589 24 58 24H70C79.9411 24 88 32.0589 88 42V54C88 63.9411 79.9411 72 70 72H58C48.0589 72 40 63.9411 40 54V42Z"
      fill="#FF3939" />
    <path fill-rule="evenodd" clip-rule="evenodd"
      d="M54.7401 38.252L56.1051 47.807L56.8769 47.9999L56.1051 48.1929L54.7401 57.7479L74.236 47.9999L54.7401 38.252ZM57.8948 46.1929L57.2598 41.7479L69.7639 47.9999L57.2598 54.252L57.8948 49.807L65.1231 47.9999L57.8948 46.1929Z"
      fill="white" />
  </g>
</svg>
