<svg preserveAspectRatio="none" fill="none" xmlns="http://www.w3.org/2000/svg" viewBox="0 0 20 20">
  <path fill-rule="evenodd" clip-rule="evenodd" d="M16 2C16 3.10457 16.8954 4 18 4C19.1046 4 20 3.10457 20 2C20 0.89543 19.1046 0 18 0C16.8954 0 16 0.89543 16 2ZM18 12C16.8954 12 16 11.1046 16 10C16 8.89543 16.8954 8 18 8C19.1046 8 20 8.89543 20 10C20 11.1046 19.1046 12 18 12ZM18 20C16.8954 20 16 19.1046 16 18C16 16.8954 16.8954 16 18 16C19.1046 16 20 16.8954 20 18C20 19.1046 19.1046 20 18 20ZM10 20C8.89543 20 8 19.1046 8 18C8 16.8954 8.89543 16 10 16C11.1046 16 12 16.8954 12 18C12 19.1046 11.1046 20 10 20ZM8 10C8 11.1046 8.89543 12 10 12C11.1046 12 12 11.1046 12 10C12 8.89543 11.1046 8 10 8C8.89543 8 8 8.89543 8 10ZM10 4C8.89543 4 8 3.10457 8 2C8 0.89543 8.89543 0 10 0C11.1046 0 12 0.89543 12 2C12 3.10457 11.1046 4 10 4ZM0 18C0 19.1046 0.89543 20 2 20C3.10457 20 4 19.1046 4 18C4 16.8954 3.10457 16 2 16C0.89543 16 0 16.8954 0 18ZM2 12C0.89543 12 0 11.1046 0 10C0 8.89543 0.89543 8 2 8C3.10457 8 4 8.89543 4 10C4 11.1046 3.10457 12 2 12ZM0 2C0 3.10457 0.89543 4 2 4C3.10457 4 4 3.10457 4 2C4 0.89543 3.10457 0 2 0C0.89543 0 0 0.89543 0 2Z" fill="white"/>
</svg>
