<svg width="48" height="48" viewBox="0 0 48 48" fill="none" xmlns="http://www.w3.org/2000/svg">
<rect opacity="0.18" width="48" height="48" rx="18" fill="#1EE0CC"/>
<path fill-rule="evenodd" clip-rule="evenodd" d="M22.4754 19.1638C23.1662 18.3371 23.414 17.4658 22.6327 16.6967C20.8794 14.518 19.7003 13.1707 18.9607 12.5219C17.5546 11.2884 15.2416 11.4552 14.0238 12.5208C13.3697 13.0932 13.1483 13.2897 12.4767 13.8955C8.73584 17.2194 11.0172 24.246 17.0819 29.6371C23.1453 35.027 31.0568 37.0541 34.8056 33.7232C35.4253 33.1926 35.95 32.7264 36.3638 32.338C37.5572 31.2178 37.7384 29.2543 36.356 27.9787C35.6472 27.3247 34.2005 26.3282 31.644 24.7042C30.861 24.0824 29.9326 24.2172 29.0815 24.7131C28.672 24.9516 28.3741 25.1929 27.8115 25.693L26.7898 26.6008C26.6553 26.7204 24.8281 25.9078 23.0544 24.3311C21.2797 22.7535 20.3653 21.1308 20.4992 21.0118C20.7754 20.7666 21.1162 20.4638 21.5216 20.1034C21.7001 19.9447 21.7854 19.8679 21.8949 19.7658C22.1229 19.553 22.3117 19.3598 22.4754 19.1638ZM28.6744 28.2754L29.6963 27.3674C30.0059 27.0921 30.2066 26.9229 30.3698 26.8062C32.6094 28.2344 33.9064 29.1325 34.4362 29.6214C34.7542 29.9149 34.7048 30.4504 34.4283 30.7099C34.0457 31.0691 33.5485 31.5109 32.9384 32.0335C30.5144 34.1871 24.1279 32.5508 18.9669 27.963C13.8043 23.3737 11.9626 17.7013 14.3683 15.5637C15.0372 14.9604 15.2492 14.7723 15.8939 14.2082C16.1356 13.9966 16.7941 13.9491 17.0882 14.2071C17.6576 14.7066 18.7139 15.9077 20.2677 17.8299C20.1873 17.9186 20.0868 18.0188 19.9645 18.1329C19.8748 18.2166 19.8 18.2839 19.6366 18.4292C19.2315 18.7893 18.8911 19.0918 18.6152 19.3368C16.8777 20.8797 18.3574 23.5056 21.1694 26.0052C23.9794 28.5031 26.9375 29.8187 28.6744 28.2754ZM26.2068 11.7415C31.9712 12.362 36.5419 16.421 37.2406 21.5402L34.6067 21.93C34.0982 17.8066 30.4109 14.5322 25.7678 14.0805L26.2068 11.7415ZM25.3284 16.4216C28.8505 16.7014 31.6555 19.1925 31.9705 22.3202L29.3282 22.7113C29.216 20.5789 27.2892 18.8678 24.888 18.7682L25.3284 16.4216Z" fill="#1EE0CC"/>
</svg>
