<svg width="75" height="43" viewBox="0 0 75 43" fill="none" xmlns="http://www.w3.org/2000/svg">
<g clip-path="url(#clip0)">
<path d="M5.64273 42.9786L5.5638 42.8301C6.62211 42.2475 7.93923 41.5226 8.62718 40.3329C9.30534 39.1602 9.32056 37.5677 8.66689 36.1768C8.11061 34.9931 7.08875 33.9327 5.7118 33.11C5.4402 32.9477 5.15509 32.7939 4.87936 32.6452C4.21289 32.2857 3.52373 31.914 2.95547 31.3866C2.17281 30.6602 1.58063 29.4412 2.022 28.3554C2.16716 28.0088 2.40489 27.7106 2.70819 27.4946C3.01149 27.2787 3.36822 27.1536 3.73787 27.1335L3.74723 27.3022C3.40859 27.3205 3.08176 27.435 2.80384 27.6328C2.52592 27.8306 2.30803 28.1036 2.1749 28.4211C1.76475 29.4301 2.32747 30.5751 3.0673 31.2618C3.62002 31.7747 4.29974 32.1414 4.95708 32.496C5.23437 32.6455 5.52112 32.8002 5.79583 32.9643C7.20143 33.8041 8.246 34.8897 8.81661 36.1039C9.49378 37.5448 9.47601 39.1981 8.77021 40.4186C8.05883 41.6488 6.71918 42.3862 5.64273 42.9786Z" fill="#F1F1F1"/>
<path d="M4.78974 28.0236C5.59176 28.0236 6.24193 27.7022 6.24193 27.3058C6.24193 26.9093 5.59176 26.5879 4.78974 26.5879C3.98772 26.5879 3.33755 26.9093 3.33755 27.3058C3.33755 27.7022 3.98772 28.0236 4.78974 28.0236Z" fill="#F1F1F1"/>
<path d="M5.95148 32.7531C6.7535 32.7531 7.40367 32.4317 7.40367 32.0353C7.40367 31.6388 6.7535 31.3174 5.95148 31.3174C5.14946 31.3174 4.49929 31.6388 4.49929 32.0353C4.49929 32.4317 5.14946 32.7531 5.95148 32.7531Z" fill="#F1F1F1"/>
<path d="M3.29606 33.5134C4.09808 33.5134 4.74825 33.192 4.74825 32.7955C4.74825 32.399 4.09808 32.0776 3.29606 32.0776C2.49403 32.0776 1.84386 32.399 1.84386 32.7955C1.84386 33.192 2.49403 33.5134 3.29606 33.5134Z" fill="#F1F1F1"/>
<path d="M7.44517 37.4829C8.24719 37.4829 8.89736 37.1615 8.89736 36.765C8.89736 36.3685 8.24719 36.0471 7.44517 36.0471C6.64315 36.0471 5.99298 36.3685 5.99298 36.765C5.99298 37.1615 6.64315 37.4829 7.44517 37.4829Z" fill="#F1F1F1"/>
<path d="M10.3495 37.4829C11.1516 37.4829 11.8017 37.1615 11.8017 36.765C11.8017 36.3685 11.1516 36.0471 10.3495 36.0471C9.54752 36.0471 8.89735 36.3685 8.89735 36.765C8.89735 37.1615 9.54752 37.4829 10.3495 37.4829Z" fill="#F1F1F1"/>
<path d="M75 1.30322H28.2979V23.8575H75V1.30322Z" fill="#E6E6E6"/>
<path d="M73.6646 3.23706H29.6334V22.0548H73.6646V3.23706Z" fill="white"/>
<path d="M74.9801 0H28.278V2.01926H74.9801V0Z" fill="#FF3939"/>
<path d="M29.7524 1.30834C29.9555 1.30834 30.1201 1.14078 30.1201 0.934077C30.1201 0.727378 29.9555 0.559814 29.7524 0.559814C29.5493 0.559814 29.3846 0.727378 29.3846 0.934077C29.3846 1.14078 29.5493 1.30834 29.7524 1.30834Z" fill="white"/>
<path d="M31.1482 1.30834C31.3513 1.30834 31.5159 1.14078 31.5159 0.934077C31.5159 0.727378 31.3513 0.559814 31.1482 0.559814C30.9451 0.559814 30.7804 0.727378 30.7804 0.934077C30.7804 1.14078 30.9451 1.30834 31.1482 1.30834Z" fill="white"/>
<path d="M32.5441 1.30834C32.7471 1.30834 32.9118 1.14078 32.9118 0.934077C32.9118 0.727378 32.7471 0.559814 32.5441 0.559814C32.341 0.559814 32.1763 0.727378 32.1763 0.934077C32.1763 1.14078 32.341 1.30834 32.5441 1.30834Z" fill="white"/>
<path d="M49.3274 7.70288C49.2801 7.70288 49.2348 7.72198 49.2014 7.75599C49.168 7.78999 49.1492 7.83611 49.1492 7.8842C49.1492 7.93228 49.168 7.9784 49.2014 8.0124C49.2348 8.04641 49.2801 8.06551 49.3274 8.06551H59.103C59.1503 8.06551 59.1956 8.04641 59.229 8.0124C59.2624 7.9784 59.2812 7.93228 59.2812 7.8842C59.2812 7.83611 59.2624 7.78999 59.229 7.75599C59.1956 7.72198 59.1503 7.70288 59.103 7.70288H49.3274Z" fill="#E6E6E6"/>
<path d="M49.3274 8.79102C49.2802 8.79112 49.235 8.81027 49.2017 8.84426C49.1683 8.87825 49.1496 8.92431 49.1496 8.97233C49.1496 9.02035 49.1683 9.06641 49.2017 9.1004C49.235 9.13439 49.2802 9.15354 49.3274 9.15364H54.318C54.3652 9.15354 54.4104 9.13439 54.4438 9.1004C54.4771 9.06641 54.4958 9.02035 54.4958 8.97233C54.4958 8.92431 54.4771 8.87825 54.4438 8.84426C54.4104 8.81027 54.3652 8.79112 54.318 8.79102H49.3274Z" fill="#E6E6E6"/>
<path d="M49.0814 14.0571C49.0341 14.0571 48.9888 14.0762 48.9554 14.1102C48.922 14.1442 48.9032 14.1904 48.9032 14.2384C48.9032 14.2865 48.922 14.3326 48.9554 14.3667C48.9888 14.4007 49.0341 14.4198 49.0814 14.4198H67.4108C67.458 14.4198 67.5033 14.4007 67.5367 14.3667C67.5701 14.3326 67.5889 14.2865 67.5889 14.2384C67.5889 14.1904 67.5701 14.1442 67.5367 14.1102C67.5033 14.0762 67.458 14.0571 67.4108 14.0571H49.0814Z" fill="#E6E6E6"/>
<path d="M49.0814 15.145C49.0342 15.1451 48.989 15.1643 48.9557 15.1983C48.9223 15.2323 48.9036 15.2783 48.9036 15.3263C48.9036 15.3744 48.9223 15.4204 48.9557 15.4544C48.989 15.4884 49.0342 15.5075 49.0814 15.5077H62.6258C62.673 15.5075 62.7182 15.4884 62.7515 15.4544C62.7848 15.4204 62.8036 15.3744 62.8036 15.3263C62.8036 15.2783 62.7848 15.2323 62.7515 15.1983C62.7182 15.1643 62.673 15.1451 62.6258 15.145H49.0814Z" fill="#E6E6E6"/>
<path d="M49.0814 16.2085C49.0342 16.2086 48.989 16.2277 48.9557 16.2617C48.9223 16.2957 48.9036 16.3418 48.9036 16.3898C48.9036 16.4378 48.9223 16.4839 48.9557 16.5179C48.989 16.5519 49.0342 16.571 49.0814 16.5711H67.4108C67.4579 16.571 67.5032 16.5519 67.5365 16.5179C67.5698 16.4839 67.5885 16.4378 67.5885 16.3898C67.5885 16.3418 67.5698 16.2957 67.5365 16.2617C67.5032 16.2277 67.4579 16.2086 67.4108 16.2085H49.0814Z" fill="#E6E6E6"/>
<path d="M49.0814 17.2964C49.0342 17.2965 48.989 17.3156 48.9557 17.3496C48.9223 17.3836 48.9036 17.4297 48.9036 17.4777C48.9036 17.5257 48.9223 17.5718 48.9557 17.6058C48.989 17.6398 49.0342 17.6589 49.0814 17.659H62.6258C62.673 17.6589 62.7182 17.6398 62.7515 17.6058C62.7848 17.5718 62.8036 17.5257 62.8036 17.4777C62.8036 17.4297 62.7848 17.3836 62.7515 17.3496C62.7182 17.3156 62.673 17.2965 62.6258 17.2964H49.0814Z" fill="#E6E6E6"/>
<path d="M39.4987 14.7929C40.3554 14.7929 41.05 14.0861 41.05 13.2141C41.05 12.3421 40.3554 11.6353 39.4987 11.6353C38.6419 11.6353 37.9474 12.3421 37.9474 13.2141C37.9474 14.0861 38.6419 14.7929 39.4987 14.7929Z" fill="#A0616A"/>
<path d="M39.0074 11.9511C39.0074 11.9511 39.7314 12.1485 40.1063 12.2274C40.4811 12.3064 40.4424 12.0827 40.4424 12.0827C40.4424 12.0827 40.9336 12.1485 40.9078 12.0958C40.8819 12.0432 41.1146 11.7669 40.8431 11.4512C40.5716 11.1354 40.6492 10.8986 40.6492 10.8986H40.4165L40.3519 10.8065H39.9899C39.9899 10.8065 39.5897 10.4493 38.8787 10.5546C38.1677 10.6598 37.3268 10.938 37.2493 11.3722C37.2388 11.4311 37.2249 11.4965 37.2088 11.5656C37.0144 12.401 37.4275 13.1826 37.856 13.9222C37.9613 14.1039 38.4706 14.5002 38.4576 14.2283C38.4445 13.9564 37.9991 13.3457 38.3093 13.3063C38.6196 13.2668 39.1496 12.4642 39.0074 11.9511Z" fill="#2F2E41"/>
<path d="M38.6186 18.3182C38.3192 18.2938 38.0222 18.2442 37.7308 18.1698L37.7471 17.8549L37.883 15.3515L37.8842 15.3323H40.6169L41.0457 17.6373L41.1035 17.9483C40.9904 17.9931 40.8759 18.0354 40.759 18.0725C40.7577 18.0725 40.7577 18.0738 40.7565 18.0738C40.5943 18.125 40.4295 18.1698 40.2635 18.2069C40.0427 18.2553 39.8193 18.2904 39.5945 18.3118C39.4206 18.3294 39.2461 18.3379 39.0714 18.3374C38.9204 18.3374 38.7683 18.331 38.6186 18.3182Z" fill="#FF3939"/>
<path d="M36.8618 17.8729C36.7486 17.823 36.6392 17.7692 36.5311 17.7129L36.4845 17.6886C36.4531 17.6719 36.4204 17.654 36.389 17.6361C36.3462 17.6118 36.3047 17.5875 36.2645 17.5632C36.2255 17.5401 36.1853 17.5158 36.1463 17.4915C36.1437 17.4902 36.1425 17.4889 36.14 17.4889C36.0042 17.4006 35.8709 17.3097 35.7426 17.2112C35.7212 17.1946 35.6998 17.1779 35.6784 17.1613L35.6558 16.7927L35.6885 16.7722L37.883 15.3515L37.9131 15.3323L37.9156 15.3311L38.225 15.3323V16.5047C38.3998 16.762 38.518 17.3008 38.591 18.006C38.601 18.1071 38.6098 18.2108 38.6186 18.3183C38.3192 18.2939 38.0222 18.2442 37.7308 18.1698C37.6994 18.1634 37.6692 18.1557 37.6377 18.1468C37.4544 18.098 37.2739 18.039 37.097 17.9702C37.0429 17.9497 36.9901 17.9279 36.9373 17.9062L36.9322 17.9036C36.9096 17.8934 36.8845 17.8831 36.8618 17.8729Z" fill="#2F2E41"/>
<path d="M36.389 17.6359C36.3462 17.6116 36.3047 17.5873 36.2645 17.563C36.2255 17.5399 36.1853 17.5156 36.1463 17.4913C36.1438 17.49 36.1425 17.4887 36.14 17.4887C36.0042 17.4004 35.8709 17.3095 35.7426 17.211C35.7213 17.1944 35.6999 17.1777 35.6785 17.1611C35.6684 17.1521 35.6584 17.1444 35.647 17.1355C35.5666 17.0728 35.4886 17.0075 35.4131 16.9384C35.4094 16.9358 35.4069 16.932 35.403 16.9294C35.4793 16.8698 35.5647 16.8235 35.6559 16.7925L35.7451 16.8194L36.3815 17.0139L36.3852 17.2763L36.389 17.6359Z" fill="#2F2E41"/>
<path d="M41.7474 17.6399C41.7097 17.6603 41.672 17.6808 41.6343 17.7C41.6254 17.7051 41.6179 17.709 41.6104 17.7128C41.56 17.7384 41.511 17.764 41.4607 17.7883C41.4594 17.7896 41.4569 17.7896 41.4569 17.7909C41.4544 17.7922 41.4507 17.7934 41.4481 17.7947C41.335 17.8498 41.2205 17.901 41.1035 17.9483C40.9904 17.9931 40.8759 18.0353 40.759 18.0725C40.7577 18.0725 40.7577 18.0737 40.7565 18.0737C40.5943 18.1249 40.4295 18.1697 40.2635 18.2068C40.2616 18.1017 40.2752 17.9969 40.3038 17.8958L40.305 17.8779L40.4132 16.0963L40.2685 15.3322L40.6835 15.2695L42.966 16.52C42.966 16.52 42.7145 16.7759 41.682 17.3212C41.5907 17.3694 41.7248 17.5298 41.7474 17.6399Z" fill="#2F2E41"/>
<path d="M39.5668 18.0046C39.4033 18.02 39.2374 18.0276 39.0714 18.0276C38.9104 18.0276 38.7507 18.0212 38.591 18.0059C38.601 18.107 38.6098 18.2107 38.6187 18.3182C38.7683 18.331 38.9204 18.3374 39.0714 18.3374C39.2461 18.3379 39.4207 18.3293 39.5945 18.3118C39.8193 18.2903 40.0427 18.2553 40.2635 18.2068C40.2616 18.1017 40.2752 17.9969 40.3038 17.8958L40.305 17.8779C40.0622 17.938 39.8156 17.9804 39.5668 18.0046ZM44.3191 10.822C44.0533 10.0451 43.6243 9.3365 43.0618 8.7457C42.4994 8.1549 41.8171 7.69608 41.0625 7.40122C40.308 7.10636 39.4993 6.98256 38.6929 7.03847C37.8865 7.09437 37.1017 7.32862 36.3934 7.72489C35.6851 8.12116 35.0702 8.66991 34.5917 9.33288C34.1132 9.99584 33.7825 10.7571 33.6227 11.5634C33.4629 12.3698 33.4779 13.202 33.6666 14.0019C33.8553 14.8018 34.2131 15.5502 34.7152 16.1949C34.7655 16.2589 34.8171 16.3228 34.8699 16.3843C34.8749 16.3894 34.8774 16.3932 34.8812 16.3971C35.011 16.5495 35.1491 16.6943 35.2949 16.831C35.3302 16.8642 35.3666 16.8975 35.4031 16.9295C35.4069 16.9321 35.4094 16.9359 35.4131 16.9385C35.4886 17.0076 35.5666 17.0728 35.647 17.1356C35.6584 17.1445 35.6684 17.1522 35.6784 17.1612C35.6999 17.1778 35.7213 17.1944 35.7426 17.2111C35.8709 17.3096 36.0042 17.4005 36.14 17.4888C36.1425 17.4888 36.1438 17.4901 36.1463 17.4914C36.1853 17.5157 36.2255 17.54 36.2645 17.563C36.3048 17.5874 36.3463 17.6117 36.389 17.636C36.4204 17.6539 36.4531 17.6718 36.4846 17.6885L36.5311 17.7128C36.6392 17.7691 36.7486 17.8229 36.8618 17.8728C36.8845 17.883 36.9096 17.8932 36.9322 17.9035L36.9373 17.906C36.9901 17.9278 37.0429 17.9496 37.097 17.97C37.2739 18.0389 37.4544 18.0978 37.6377 18.1467C37.6692 18.1556 37.6994 18.1633 37.7308 18.1697C38.0222 18.2441 38.3192 18.2938 38.6186 18.3182C38.7683 18.331 38.9204 18.3374 39.0714 18.3374C39.2461 18.3379 39.4206 18.3293 39.5945 18.3118C39.8193 18.2903 40.0427 18.2553 40.2635 18.2068C40.4295 18.1697 40.5942 18.1249 40.7565 18.0737C40.7577 18.0737 40.7577 18.0724 40.759 18.0724C40.8759 18.0353 40.9904 17.9931 41.1035 17.9483C41.2205 17.9009 41.335 17.8497 41.4481 17.7947C41.4506 17.7934 41.4544 17.7921 41.4569 17.7909C41.4569 17.7896 41.4594 17.7896 41.4607 17.7883C41.511 17.764 41.56 17.7384 41.6104 17.7128C41.6179 17.7089 41.6254 17.7051 41.6342 17.7C41.672 17.6808 41.7096 17.6603 41.7474 17.6398C41.7499 17.6386 41.7512 17.6373 41.7537 17.636C41.853 17.5797 41.9512 17.5208 42.048 17.4581C42.0744 17.4415 42.1008 17.4248 42.1272 17.4056C42.1662 17.3813 42.2039 17.3544 42.2404 17.3275C42.2894 17.293 42.3384 17.2572 42.3863 17.22C42.4022 17.2097 42.4173 17.1981 42.4315 17.1855C42.5485 17.0959 42.6617 17.0012 42.7698 16.9013C43.5899 16.1576 44.1749 15.183 44.4506 14.1009C44.7264 13.0187 44.6806 11.8776 44.3191 10.822L44.3191 10.822ZM42.6755 16.5711C42.5394 16.7015 42.3966 16.8245 42.2479 16.9397C42.2153 16.9653 42.1812 16.9909 42.1473 17.014C42.1146 17.0396 42.082 17.0639 42.048 17.0869C42.0191 17.1074 41.9902 17.1279 41.9599 17.1471C41.9574 17.1496 41.9537 17.1509 41.9512 17.1535C41.9297 17.1688 41.9071 17.1829 41.8858 17.197C41.8191 17.2392 41.7499 17.2815 41.682 17.3211C41.6657 17.3301 41.6506 17.3403 41.6343 17.3493C41.6254 17.3544 41.6166 17.3595 41.6066 17.3647C41.5689 17.3864 41.5311 17.4056 41.4934 17.4261C41.4884 17.4299 41.4821 17.4312 41.4771 17.4351C41.4752 17.4354 41.4734 17.4362 41.472 17.4376C41.4456 17.4517 41.4192 17.4645 41.3928 17.4773C41.3702 17.4888 41.3488 17.5003 41.3261 17.5106C41.2343 17.5554 41.14 17.5976 41.0457 17.6373C40.9464 17.6782 40.8458 17.7153 40.7439 17.7499C40.7187 17.7589 40.6923 17.7691 40.6659 17.7768C40.5464 17.8152 40.427 17.8497 40.305 17.8779C40.0622 17.938 39.8156 17.9804 39.5669 18.0046C39.4033 18.0199 39.2374 18.0276 39.0714 18.0276C38.9104 18.0276 38.7507 18.0212 38.591 18.0059C38.3061 17.9793 38.0238 17.9288 37.7472 17.8548C37.7371 17.8523 37.7258 17.8497 37.7157 17.8472C37.4888 17.7869 37.2664 17.7099 37.0505 17.6168C37.0392 17.6117 37.0266 17.6078 37.0165 17.6027C37.0039 17.5976 36.9926 17.5938 36.9825 17.5886C36.97 17.5835 36.9587 17.5784 36.9474 17.5733C36.853 17.531 36.7612 17.485 36.6694 17.4376L36.6267 17.4146C36.5449 17.3711 36.4644 17.3263 36.3852 17.2763C36.3576 17.261 36.3287 17.2431 36.301 17.2252C36.2695 17.2059 36.2381 17.1855 36.2079 17.165C36.2004 17.1599 36.1929 17.1548 36.1853 17.1496C36.1148 17.101 36.0432 17.0524 35.9753 16.9999C35.9275 16.9641 35.881 16.9295 35.8344 16.8924C35.8042 16.8693 35.7741 16.845 35.7451 16.8194C35.7263 16.8054 35.7074 16.7887 35.6885 16.7721C35.6634 16.7503 35.6382 16.7286 35.6131 16.7055C35.5741 16.6735 35.5377 16.6377 35.5024 16.6044C35.3608 16.4716 35.2269 16.3306 35.1013 16.1821C35.0585 16.1334 35.0182 16.0848 34.9793 16.0336C34.9702 16.0235 34.9618 16.0128 34.9541 16.0016C34.321 15.1882 33.9342 14.2048 33.8409 13.1715C33.7475 12.1382 33.9517 11.0995 34.4285 10.1823C34.9053 9.26502 35.6341 8.50884 36.526 8.00595C37.4178 7.50307 38.4342 7.27524 39.4512 7.35025C40.4681 7.42526 41.4416 7.79988 42.2529 8.42839C43.0642 9.0569 43.6782 9.91213 44.0201 10.8898C44.3619 11.8674 44.4168 12.9251 44.1781 13.934C43.9393 14.9428 43.4172 15.8591 42.6755 16.5711L42.6755 16.5711Z" fill="#3F3D56"/>
<path d="M13.5623 41.9489L14.5797 41.9488L15.0636 37.9551L13.5621 37.9552L13.5623 41.9489Z" fill="#A0616A"/>
<path d="M13.3028 41.6107L15.3063 41.6106H15.3064C15.645 41.6106 15.9698 41.7475 16.2092 41.9912C16.4487 42.2349 16.5832 42.5654 16.5832 42.91V42.9523L13.3029 42.9524L13.3028 41.6107Z" fill="#2F2E41"/>
<path d="M17.3795 41.9489L18.3968 41.9488L18.8808 37.9551L17.3793 37.9552L17.3795 41.9489Z" fill="#A0616A"/>
<path d="M17.12 41.6107L19.1235 41.6106H19.1236C19.4622 41.6106 19.787 41.7475 20.0264 41.9912C20.2659 42.2349 20.4004 42.5654 20.4004 42.91V42.9523L17.1201 42.9524L17.12 41.6107Z" fill="#2F2E41"/>
<path d="M10.4754 26.1676C10.5587 26.0768 10.6214 25.9686 10.6591 25.8506C10.6968 25.7325 10.7086 25.6074 10.6937 25.4842C10.6788 25.361 10.6376 25.2426 10.5728 25.1373C10.5081 25.0321 10.4215 24.9426 10.3191 24.8751L11.026 21.9441L9.57442 22.4705L9.12571 25.1731C9.02572 25.3557 8.995 25.5693 9.03939 25.7734C9.08378 25.9775 9.20019 26.1579 9.36655 26.2805C9.53292 26.4031 9.73769 26.4593 9.94205 26.4385C10.1464 26.4177 10.3362 26.3213 10.4754 26.1676Z" fill="#9E616A"/>
<path d="M21.2748 25.9142C21.1915 25.8234 21.1288 25.7152 21.0911 25.5971C21.0534 25.4791 21.0416 25.354 21.0565 25.2308C21.0714 25.1076 21.1126 24.9892 21.1774 24.8839C21.2421 24.7787 21.3287 24.6892 21.4311 24.6217L20.7242 21.6907L22.1758 22.2171L22.6245 24.9197C22.7245 25.1023 22.7552 25.3159 22.7108 25.52C22.6664 25.7241 22.55 25.9045 22.3837 26.0271C22.2173 26.1496 22.0125 26.2059 21.8082 26.1851C21.6038 26.1642 21.414 26.0679 21.2748 25.9142Z" fill="#9E616A"/>
<path d="M11.8139 24.1132L13.2241 40.9252L15.2873 40.7338L16.1131 27.7403L16.8481 32.8852L16.9954 41.0576L18.8625 40.9309L19.8992 32.1391L19.6449 23.6246L12.5568 22.894L11.8139 24.1132Z" fill="#2F2E41"/>
<path d="M15.693 8.81447C16.8747 8.81447 17.8327 7.83946 17.8327 6.63673C17.8327 5.43399 16.8747 4.45898 15.693 4.45898C14.5112 4.45898 13.5532 5.43399 13.5532 6.63673C13.5532 7.83946 14.5112 8.81447 15.693 8.81447Z" fill="#A0616A"/>
<path d="M15.0154 4.89449C15.0154 4.89449 16.0139 5.16671 16.531 5.27559C17.0481 5.38448 16.9946 5.07597 16.9946 5.07597C16.9946 5.07597 17.6722 5.16671 17.6366 5.09411C17.6009 5.02152 17.9219 4.64042 17.5474 4.20487C17.173 3.76932 17.2799 3.44266 17.2799 3.44266H16.959L16.8698 3.31563H16.3705C16.3705 3.31563 15.8185 2.823 14.8378 2.96818C13.8571 3.11336 12.6973 3.4971 12.5903 4.09598C12.5758 4.17721 12.5567 4.26746 12.5345 4.36278C12.2663 5.51506 12.8361 6.59319 13.4271 7.61321C13.5724 7.8639 14.2749 8.41053 14.2569 8.03549C14.239 7.66045 13.6245 6.81816 14.0525 6.76372C14.4804 6.70927 15.2115 5.60226 15.0154 4.89449Z" fill="#2F2E41"/>
<path d="M13.4663 9.55835H17.2347L19.8992 23.8799C19.8992 23.8799 17.5762 24.082 16.2485 24.5887C14.9208 25.0955 12.7136 23.4312 12.7136 23.4312L13.4663 9.55835Z" fill="#FF3939"/>
<path d="M13.9368 11.1756V9.55831L13.5101 9.55566L10.3927 11.5729L11.0692 22.6249C11.0692 22.6249 11.8698 26.3121 13.0841 26.2738C14.2984 26.2356 15.2348 13.0912 13.9368 11.1756Z" fill="#2F2E41"/>
<path d="M11.3941 11.8783L10.3927 11.573C10.3927 11.573 9.65143 11.7938 9.65143 12.5539C9.65143 13.314 9.01273 24.1132 9.01273 24.1132L11.0417 24.2957L11.477 18.8036L11.3941 11.8783Z" fill="#2F2E41"/>
<path d="M16.9539 10.6113L16.7543 9.55829L17.3273 9.47119L19.4018 10.3157C19.4018 10.3157 21.2689 24.2086 20.4391 24.6309C19.6093 25.0532 19.049 24.726 19.049 24.726C19.049 24.726 16.3196 14.4794 16.8027 13.0943L16.9539 10.6113Z" fill="#2F2E41"/>
<path d="M17.9497 10.5271L18.3037 10.3702C18.3037 10.3702 19.3429 9.84614 19.9325 10.9045C20.5221 11.9628 22.5967 23.7866 22.5967 23.7866L20.8897 24.1132L19.6135 19.8581L17.9497 10.5271Z" fill="#2F2E41"/>
<path d="M31.6992 43H0.0829823C0.060974 43 0.0398671 42.9911 0.0243049 42.9752C0.00874269 42.9594 0 42.9379 0 42.9155C0 42.8931 0.00874269 42.8716 0.0243049 42.8558C0.0398671 42.84 0.060974 42.8311 0.0829823 42.8311H31.6992C31.7212 42.8311 31.7424 42.84 31.7579 42.8558C31.7735 42.8716 31.7822 42.8931 31.7822 42.9155C31.7822 42.9379 31.7735 42.9594 31.7579 42.9752C31.7424 42.9911 31.7212 43 31.6992 43Z" fill="#CACACA"/>
</g>
<defs>
<clipPath id="clip0">
<rect width="75" height="43" fill="white"/>
</clipPath>
</defs>
</svg>
