<svg width="374" height="267" viewBox="0 0 374 267" fill="none" xmlns="http://www.w3.org/2000/svg">
<path opacity="0.1" d="M187.5 267C291.053 267 375 261.746 375 255.266C375 248.785 291.053 243.531 187.5 243.531C83.9466 243.531 0 248.785 0 255.266C0 261.746 83.9466 267 187.5 267Z" fill="#FF3939"/>
<path d="M345.589 246.575C345.592 247.502 345.496 248.427 345.304 249.334C345.268 249.505 345.229 249.69 345.189 249.836C344.175 253.886 341.314 256.848 337.9 257.036C337.786 257.036 337.671 257.036 337.543 257.036C333.932 257.036 330.879 253.936 329.871 249.665C329.843 249.551 329.818 249.438 329.793 249.31C329.6 248.402 329.504 247.477 329.507 246.55C329.507 240.765 333.104 236.078 337.543 236.078C341.982 236.078 345.589 240.797 345.589 246.575Z" fill="#3F3D56"/>
<path opacity="0.1" d="M345.589 246.575C345.592 247.502 345.496 248.427 345.304 249.334C345.268 249.505 345.229 249.69 345.189 249.836C345.068 249.836 344.95 249.836 344.832 249.836C343.948 249.788 343.069 249.669 342.204 249.48C341.437 249.716 340.654 249.894 339.861 250.014C339.252 250.105 338.64 250.162 338.025 250.184H337.404C336.668 250.184 335.933 250.136 335.204 250.038C334.024 249.882 332.866 249.595 331.75 249.185C331.139 249.388 330.516 249.554 329.886 249.683C329.857 249.569 329.832 249.455 329.807 249.327C329.615 248.42 329.519 247.495 329.521 246.568C329.521 240.783 333.118 236.096 337.557 236.096C341.996 236.096 345.589 240.797 345.589 246.575Z" fill="black"/>
<path d="M362.732 227.071C362.735 224.526 362.136 222.017 360.982 219.746L351.532 222.672L359.829 217.815C358.438 215.813 356.613 214.148 354.489 212.942C352.365 211.737 349.996 211.021 347.557 210.849C347.168 210.263 346.742 209.703 346.282 209.171L332.711 213.377L343.843 206.863C341.713 205.237 339.214 204.158 336.566 203.722C333.918 203.286 331.203 203.506 328.661 204.363C326.119 205.22 323.828 206.687 321.991 208.635C320.154 210.584 318.828 212.952 318.129 215.532L329.754 228.86L317.143 219.774C313.945 222.029 311.668 225.353 310.727 229.14C309.785 232.927 310.242 236.925 312.015 240.404C313.787 243.883 316.756 246.613 320.381 248.094C324.006 249.575 328.044 249.71 331.761 248.474C335.122 249.701 338.794 249.801 342.218 248.758C344.605 249.284 347.08 249.27 349.46 248.716C351.841 248.163 354.066 247.085 355.973 245.561C357.879 244.037 359.418 242.107 360.475 239.913C361.532 237.718 362.082 235.315 362.082 232.881C362.082 232.526 362.082 232.17 362.046 231.815C362.509 230.276 362.74 228.677 362.732 227.071Z" fill="#FF3939"/>
<path opacity="0.1" d="M362.45 230.09C357.46 229.146 352.342 229.081 347.329 229.898C341.654 230.833 335.854 232.889 330.304 231.384C327.047 230.503 324.232 228.461 321.05 227.331C317.981 226.261 314.673 226.063 311.497 226.758C310.285 229.641 309.933 232.81 310.483 235.887C311.033 238.964 312.46 241.818 314.596 244.108C316.731 246.398 319.484 248.028 322.524 248.802C325.565 249.576 328.765 249.462 331.743 248.474C335.104 249.701 338.776 249.801 342.2 248.758C344.587 249.284 347.062 249.27 349.443 248.716C351.823 248.163 354.049 247.085 355.955 245.561C357.861 244.037 359.4 242.107 360.457 239.913C361.515 237.718 362.064 235.315 362.064 232.881C362.064 232.526 362.064 232.17 362.029 231.815C362.201 231.248 362.342 230.672 362.45 230.09Z" fill="black"/>
<path d="M249.5 61.1504H247.454C247.002 61.1504 246.636 61.5149 246.636 61.9647V90.5681C246.636 91.0179 247.002 91.3824 247.454 91.3824H249.5C249.952 91.3824 250.318 91.0179 250.318 90.5681V61.9647C250.318 61.5149 249.952 61.1504 249.5 61.1504Z" fill="#3F3D56"/>
<path d="M125.732 37.4647H124.736C124.44 37.4647 124.2 37.7035 124.2 37.9981V46.8842C124.2 47.1788 124.44 47.4176 124.736 47.4176H125.732C126.028 47.4176 126.268 47.1788 126.268 46.8842V37.9981C126.268 37.7035 126.028 37.4647 125.732 37.4647Z" fill="#3F3D56"/>
<path d="M125.85 55.6886H124.729C124.395 55.6886 124.125 55.9576 124.125 56.2895V72.4118C124.125 72.7437 124.395 73.0128 124.729 73.0128H125.85C126.183 73.0128 126.454 72.7437 126.454 72.4118V56.2895C126.454 55.9576 126.183 55.6886 125.85 55.6886Z" fill="#3F3D56"/>
<path d="M125.804 79.072H124.736C124.418 79.072 124.161 79.3283 124.161 79.6445V95.9731C124.161 96.2892 124.418 96.5456 124.736 96.5456H125.804C126.121 96.5456 126.379 96.2892 126.379 95.9731V79.6445C126.379 79.3283 126.121 79.072 125.804 79.072Z" fill="#3F3D56"/>
<path d="M235.875 4.57642H138.118C131.078 4.57642 125.371 10.2583 125.371 17.2673V241.284C125.371 248.293 131.078 253.975 138.118 253.975H235.875C242.915 253.975 248.621 248.293 248.621 241.284V17.2673C248.621 10.2583 242.915 4.57642 235.875 4.57642Z" fill="#3F3D56"/>
<path d="M191.411 12.0224H176.014C175.513 12.0224 175.107 12.4268 175.107 12.9256V14.6004C175.107 15.0992 175.513 15.5036 176.014 15.5036H191.411C191.912 15.5036 192.318 15.0992 192.318 14.6004V12.9256C192.318 12.4268 191.912 12.0224 191.411 12.0224Z" fill="#E6E8EC"/>
<path d="M196.904 15.7347C197.998 15.7347 198.886 14.8512 198.886 13.7612C198.886 12.6713 197.998 11.7877 196.904 11.7877C195.809 11.7877 194.922 12.6713 194.922 13.7612C194.922 14.8512 195.809 15.7347 196.904 15.7347Z" fill="#E6E8EC"/>
<path d="M241.011 20.8161V237.724C241.01 240.309 239.978 242.787 238.142 244.614C236.307 246.441 233.817 247.468 231.221 247.468H142.771C140.176 247.468 137.686 246.441 135.851 244.614C134.015 242.787 132.983 240.309 132.982 237.724V20.8161C132.982 19.5361 133.235 18.2687 133.727 17.0862C134.219 15.9037 134.94 14.8292 135.849 13.9242C136.758 13.0191 137.838 12.3012 139.025 11.8114C140.213 11.3215 141.486 11.0694 142.771 11.0694H156.007V12.762C156.011 14.8884 156.862 16.9265 158.373 18.4291C159.884 19.9317 161.932 20.776 164.068 20.777H209.068C210.126 20.777 211.175 20.5694 212.153 20.1661C213.131 19.7627 214.019 19.1716 214.768 18.4263C215.516 17.6811 216.11 16.7964 216.515 15.8226C216.92 14.8489 217.129 13.8053 217.129 12.7514V11.0694H231.239C233.832 11.0742 236.318 12.1031 238.15 13.9305C239.982 15.7578 241.011 18.2342 241.011 20.8161Z" fill="white"/>
<path opacity="0.2" d="M241.786 110.385V184.145H241.011V184.219H132.982V94.1062C133.675 93.3192 134.377 92.5025 135.089 91.6562C150.261 73.6173 170.882 68.8702 186.843 68.3724C197.779 68.0168 208.664 70.2676 219.057 74.7374C224.546 77.0985 232.425 79.6872 241.011 79.9432V107.828C241.536 109.318 241.786 110.385 241.786 110.385Z" fill="#FF3939"/>
<path opacity="0.2" d="M241.786 110.385V184.145H132.982V135.827C136.857 134.857 142.268 131.123 149.211 120.807C157.514 108.465 168.796 105.218 177.529 104.877C183.511 104.642 189.468 106.171 195.154 109.233C201.55 112.671 213.879 116.818 223.246 104.781C233.604 91.4713 239.111 102.448 241.011 107.828C241.536 109.318 241.786 110.385 241.786 110.385Z" fill="#FF3939"/>
<path d="M226.071 170.636H148.214C145.847 170.636 143.929 172.546 143.929 174.903V193.393C143.929 195.75 145.847 197.66 148.214 197.66H226.071C228.438 197.66 230.357 195.75 230.357 193.393V174.903C230.357 172.546 228.438 170.636 226.071 170.636Z" fill="#736E9E"/>
<path d="M47.8786 243.122L54.7143 239.108C53.7899 237.536 52.6081 236.128 51.2179 234.944L38.3215 238.951L48.4286 233.034C45.9267 231.67 43.1109 230.977 40.2586 231.025C37.4062 231.073 34.6156 231.86 32.1613 233.308C29.707 234.755 27.6737 236.815 26.2614 239.283C24.8492 241.75 24.1068 244.542 24.1072 247.382C24.1072 256.418 31.4608 256.731 40.5358 256.731C49.6108 256.731 56.9643 256.418 56.9643 247.382C56.9675 245.096 56.4868 242.835 55.5536 240.747L47.8786 243.122Z" fill="#FF3939"/>
<path opacity="0.1" d="M49.6179 251.909C48.8904 251.182 48.0773 250.546 47.1964 250.014C45.9536 249.192 44.6714 248.357 43.2072 248.076C41.9214 247.83 40.5964 248.037 39.2786 247.965C37.0048 247.826 34.8646 246.849 33.275 245.224C32.3429 244.264 31.6072 243.09 30.4857 242.347C29.275 241.558 27.7393 241.387 26.3036 241.583C25.8875 241.645 25.4751 241.729 25.0679 241.835C24.4233 243.615 24.0946 245.493 24.0964 247.386C24.0964 256.421 31.45 256.734 40.525 256.734C44.9286 256.734 48.925 256.66 51.875 255.55L51.3822 254.633C50.9121 253.654 50.3193 252.739 49.6179 251.909Z" fill="black"/>
<path d="M81.5143 207.059C80.9923 207.515 80.5901 208.091 80.3428 208.737C79.7321 210.636 81.4393 212.499 81.6036 214.487C81.7321 216.066 80.8893 217.538 80.4107 219.053C79.8706 220.934 79.9056 222.934 80.5111 224.795C81.1166 226.657 82.2653 228.297 83.8107 229.507C84.1397 229.785 84.5282 229.984 84.9464 230.09C85.2915 230.131 85.6415 230.102 85.9749 230.004C86.3084 229.907 86.6183 229.742 86.8857 229.521C87.7151 228.92 88.3475 228.089 88.7036 227.132C88.9998 226.191 89.1598 225.212 89.1786 224.226L89.4321 220.422C89.6964 216.45 89.9357 212.353 88.9643 208.453C88.6464 207.172 88.0571 204.232 86.5714 204.054C85.0857 203.876 82.5 206.099 81.5143 207.059Z" fill="#3F3D56"/>
<path d="M106.429 190.716C104.645 196.953 103.351 203.32 102.561 209.758C102.446 210.664 102.329 211.617 101.779 212.35C100.682 213.818 98.4857 213.726 96.6643 213.488C96.2271 213.465 95.8009 213.343 95.4179 213.132C94.7322 212.67 94.5822 211.745 94.5 210.924C93.2524 198.815 92.4191 186.674 92 174.501C91.9822 174.035 107.246 173.993 108.554 175.212C109.861 176.432 108.846 180.994 108.554 182.548C108.075 185.314 107.211 188.01 106.429 190.716Z" fill="#FBBEBE"/>
<path opacity="0.05" d="M106.429 190.716C104.645 196.953 103.351 203.32 102.561 209.758C102.446 210.664 102.329 211.617 101.779 212.35C100.682 213.818 98.4857 213.726 96.6643 213.488C96.2271 213.465 95.8009 213.343 95.4179 213.132C94.7322 212.67 94.5822 211.745 94.5 210.924C93.2524 198.815 92.4191 186.674 92 174.501C91.9822 174.035 107.246 173.993 108.554 175.212C109.861 176.432 108.846 180.994 108.554 182.548C108.075 185.314 107.211 188.01 106.429 190.716Z" fill="black"/>
<path d="M74.6428 172.769L80.825 186.307C82.8821 190.808 84.9535 195.36 85.9357 200.206C86.3297 202.231 86.5815 204.281 86.6892 206.34C86.8385 208.106 86.7833 209.882 86.525 211.635C86.3 212.936 85.8857 214.202 85.7035 215.511C84.9892 220.727 87.9571 225.635 89.9892 230.488C91.745 234.657 92.8622 239.064 93.3035 243.563C93.4892 245.48 93.5928 247.514 94.6928 249.096C96.7035 248.495 98.6678 247.976 100.764 248.211C101.139 245.149 99.1964 242.329 98.4821 239.321C97.1714 233.809 100.068 228.017 99.0821 222.438C98.5464 219.415 96.8857 216.571 97.0214 213.505C97.275 207.916 98.3285 202.269 97.2571 196.793C96.05 190.602 92.5785 184.973 91.8107 178.715C91.2214 173.907 92.1678 168.591 89.4785 164.552C83.6035 164.207 77.5285 167.66 74.6428 172.769Z" fill="#FBBEBE"/>
<path d="M94.9607 257.783C94.3429 257.804 93.6214 257.783 93.2393 257.296C93.0528 257.013 92.9456 256.685 92.9286 256.347C92.636 254.203 92.4928 252.042 92.5 249.878C92.5 249.089 92.5357 248.25 92.9786 247.599C93.3035 247.202 93.6739 246.844 94.0822 246.532C95.0286 245.661 95.7179 244.399 96.9393 243.997C97.4744 243.842 98.0418 243.835 98.5808 243.976C99.1198 244.116 99.6104 244.4 100 244.797C100.771 245.615 101.248 246.664 101.357 247.78C101.536 249.103 101.386 250.543 102.089 251.692C102.368 252.136 102.757 252.499 103.071 252.919C104.143 254.341 105.104 257.125 102.893 257.701C100.55 258.309 97.3929 257.705 94.9607 257.783Z" fill="#3F3D56"/>
<path d="M100.321 92.6555C101.571 90.2517 100.825 87.1581 99.0393 85.117C97.2536 83.0759 94.6429 81.938 91.9786 81.3229C88.4072 80.4908 84.5786 80.4979 81.1608 81.8065C78.4358 82.8483 76.0893 84.6512 73.5751 86.1233C69.1318 88.7276 64.1587 90.3072 59.0215 90.7459C53.3072 91.226 46.925 90.4792 42.5072 94.1027C34.4143 100.738 40.05 115.69 32.5072 122.93C30.4715 124.882 27.7536 125.938 25.4215 127.528C23.0893 129.117 21.0036 131.66 21.3786 134.448C21.5572 135.788 22.2929 136.997 23.1429 138.053C26.7929 142.594 32.9215 144.973 38.7179 144.265C44.5143 143.558 49.8215 139.853 52.6465 134.753C53.3608 133.477 53.9393 132.079 55.0643 131.151C57.3179 129.299 60.625 130.049 63.5465 129.96C70.0429 129.761 75.9429 124.217 76.5108 117.767C76.7536 115.011 76.2822 111.804 78.2715 109.869C79.8751 108.305 82.3822 108.319 84.5751 107.839C88.6036 106.961 91.5358 104.059 93.3751 100.517C94.2179 98.8889 94.1322 97.0683 95.3822 95.7171C96.7143 94.2307 99.1322 94.9383 100.321 92.6555Z" fill="#3F3D56"/>
<g opacity="0.1">
<path opacity="0.1" d="M53.6964 91.8731C56.0658 91.672 58.408 91.2275 60.6857 90.5468C60.0428 90.6357 59.3999 90.7104 58.7535 90.7637C54.2749 91.1371 49.3749 90.7637 45.3392 92.3319C48.0892 92.0509 50.9714 92.1007 53.6964 91.8731Z" fill="black"/>
<path opacity="0.1" d="M49.7107 132.279C48.5857 133.203 47.9929 134.604 47.2929 135.881C45.1285 139.765 41.6625 142.769 37.5 144.369C37.8179 144.347 38.1357 144.319 38.4536 144.28C44.25 143.568 49.5571 139.87 52.3821 134.771C53.0964 133.495 53.6714 132.094 54.8 131.169L54.9929 131.02C53.0321 130.974 51.1536 131.091 49.7107 132.279Z" fill="black"/>
<path opacity="0.1" d="M98.7715 85.1383C96.9858 83.0972 94.3572 81.9629 91.7108 81.3442C88.1393 80.5121 84.3108 80.5228 80.8893 81.8314L80.6608 81.9238C82.6736 81.8098 84.6924 81.9882 86.6536 82.4536C89.3 83.0724 91.9322 84.2067 93.7143 86.2513C95.4965 88.2959 96.2465 91.386 94.9965 93.7898C93.8072 96.0726 91.3893 95.3615 90.0286 96.8371C88.7786 98.1848 88.8643 100.009 88.0215 101.638C86.4393 104.685 84.0429 107.252 80.8429 108.472C81.9608 108.209 83.1608 108.091 84.275 107.85C88.3036 106.968 91.2358 104.07 93.075 100.528C93.9215 98.8996 93.8358 97.0754 95.0822 95.7277C96.4465 94.252 98.8643 94.9596 100.05 92.6803C101.3 90.2837 100.554 87.1901 98.7715 85.1383Z" fill="black"/>
<path opacity="0.1" d="M79.2215 108.963C77.0286 109.439 74.5215 109.429 72.9179 110.99C70.9286 112.927 71.4 116.135 71.1572 118.891C70.7322 123.709 67.3286 128.022 62.925 129.981H63.2501C69.7465 129.782 75.6429 124.235 76.2108 117.788C76.4572 115.029 75.9858 111.822 77.975 109.887C78.4309 109.454 78.9671 109.114 79.5536 108.884L79.2215 108.963Z" fill="black"/>
</g>
<path d="M100.429 125.017C100.132 125.54 99.5214 125.782 98.9535 125.992C93.0749 128.147 86.8892 130.341 80.6892 129.434C80.4571 128.463 80.2285 127.489 79.9999 126.518C79.669 125.11 79.3357 123.702 78.9999 122.294C78.8428 121.622 78.6821 120.942 78.5535 120.26C78.332 119.182 78.2611 118.078 78.3428 116.981C78.3806 116.584 78.4523 116.19 78.5571 115.804C78.7405 115.103 79.0477 114.439 79.4642 113.845C79.5357 113.749 79.6107 113.653 79.6892 113.56C80.0424 113.136 80.471 112.781 80.9535 112.511C82.0071 111.935 83.4535 111.69 83.8785 110.574C84.0429 109.99 84.0267 109.37 83.8321 108.796C83.4749 107.373 82.8285 106.036 82.4285 104.628C81.9214 102.85 82.6857 102.96 84.4107 102.53C87.5178 101.751 90.7678 101.193 93.9571 101.819C93.8071 103.387 93.6607 104.994 94.0571 106.523C94.4535 108.052 95.5142 109.503 97.0392 109.926C97.2642 109.99 97.5035 110.029 97.7535 110.083C98.0847 110.136 98.399 110.265 98.6714 110.46C98.8593 110.614 99.0085 110.81 99.1071 111.032C99.2623 111.407 99.3645 111.802 99.4107 112.206C99.9702 115.937 100.374 119.686 100.621 123.453V123.595C100.695 124.078 100.628 124.571 100.429 125.017Z" fill="#FBBEBE"/>
<path d="M70.1643 118.891C68.8286 120.914 68.3786 123.375 67.9714 125.764L65.3786 140.734C65.0214 142.783 64.7036 145.033 65.7571 146.829C66.1143 147.437 66.6143 147.964 66.875 148.607C67.072 149.255 67.2012 149.921 67.2607 150.595C67.8678 154.026 71.2571 156.341 74.6571 157.173C75.8857 157.475 77.3214 157.593 78.2893 156.779C79.3607 155.893 79.3607 154.208 78.7286 152.992C78.0964 151.775 76.9428 150.915 75.825 150.101L72.1214 147.384L74.2643 131.027C74.4214 129.839 74.9786 128.3 76.1857 128.431C77.2857 128.548 78.1321 130.145 79.1107 129.629C79.4174 129.423 79.6332 129.107 79.7143 128.748C80.1428 127.407 80.025 125.963 79.9036 124.559L79.4607 119.488C79.3143 117.842 79.7393 116.608 79.9393 115.061C80.1714 113.258 78.9643 113.806 77.475 114.193C74.6143 114.947 71.8178 116.38 70.1643 118.891Z" fill="#FBBEBE"/>
<path d="M116.218 143.476C115.946 143.932 115.543 144.296 115.061 144.521C112.169 146.145 108.768 146.621 105.539 145.855C104.795 145.637 104.039 145.461 103.275 145.329C102.054 145.179 100.811 145.421 99.5785 145.329C97.0785 145.14 94.8821 143.586 93.1499 141.773C92.1071 140.706 91.1607 138.96 92.1321 137.815C92.4035 137.539 92.7405 137.335 93.112 137.223C93.4835 137.111 93.8774 137.095 94.2571 137.175C95.0133 137.343 95.7427 137.613 96.4249 137.979C98.8152 139.082 101.372 139.784 103.993 140.055C105.779 140.24 108.05 139.938 108.668 138.249C108.968 137.427 108.757 136.517 108.546 135.667C107.97 133.339 107.394 131.01 106.818 128.68C106.778 128.477 106.706 128.281 106.604 128.1C106.574 128.052 106.539 128.006 106.5 127.965C106.272 127.776 105.997 127.653 105.704 127.61C104.371 127.283 103.039 126.753 102.086 125.775C101.461 125.081 100.963 124.283 100.614 123.417C100.514 123.2 100.421 122.98 100.325 122.759C99.5928 121.06 98.8214 119.317 98.2249 117.532C97.8086 116.326 97.5014 115.085 97.3071 113.824C97.1499 112.732 97.0642 112.231 97.6642 111.747C97.8251 111.626 97.996 111.519 98.175 111.427C98.45 111.281 98.7607 111.135 99.0892 110.997L99.4071 110.865C100.384 110.476 101.388 110.158 102.411 109.912C104.889 109.34 107.536 110.534 109.236 112.423C110.936 114.311 111.818 116.782 112.382 119.253C112.946 121.725 113.236 124.256 113.943 126.689C114.218 127.642 114.561 128.58 114.796 129.533C115.049 130.667 115.229 131.816 115.336 132.972C115.671 135.919 116.006 138.865 116.339 141.812C116.462 142.366 116.42 142.945 116.218 143.476Z" fill="#FBBEBE"/>
<path d="M79.5464 142.196C80.2607 146.733 78.2071 151.196 76.2214 155.353C77.3464 156.17 78.7214 156.576 80.0643 156.928C89.0521 159.28 98.3955 159.98 107.636 158.994C107.857 157.458 108.064 155.829 107.432 154.414C107.039 153.536 106.361 152.821 105.929 151.96C105.214 150.538 105.286 148.884 105.364 147.306L106.004 133.854C101.571 131.82 96.4321 133.726 91.5571 134C89.0321 134.142 86.475 133.836 83.9857 134.281C82.6929 134.512 78.6286 135.148 78.0179 136.474C77.4071 137.801 79.3286 140.752 79.5464 142.196Z" fill="#FBBEBE"/>
<path opacity="0.05" d="M79.5464 142.196C80.2607 146.733 78.2071 151.196 76.2214 155.353C77.3464 156.17 78.7214 156.576 80.0643 156.928C89.0521 159.28 98.3955 159.98 107.636 158.994C107.857 157.458 108.064 155.829 107.432 154.414C107.039 153.536 106.361 152.821 105.929 151.96C105.214 150.538 105.286 148.884 105.364 147.306L106.004 133.854C101.571 131.82 96.4321 133.726 91.5571 134C89.0321 134.142 86.475 133.836 83.9857 134.281C82.6929 134.512 78.6286 135.148 78.0179 136.474C77.4071 137.801 79.3286 140.752 79.5464 142.196Z" fill="black"/>
<path d="M91.2893 155.218C86.4858 154.222 81.7643 152.575 76.8608 152.462C76.6145 152.437 76.3663 152.484 76.1465 152.597C75.9072 152.794 75.7474 153.07 75.6965 153.376C75.1893 155.118 74.7358 156.873 74.3358 158.642C73.0072 164.52 72.3536 171.013 75.275 176.29C75.2465 174.576 76.3286 172.972 77.775 172.023C79.2215 171.073 80.9536 170.689 82.6679 170.533C84.3822 170.376 86.2143 170.44 87.8108 171.141C88.9264 171.645 89.889 172.434 90.6018 173.426C91.3146 174.419 91.7525 175.58 91.8715 176.795L108.746 177.339C108.845 177.367 108.95 177.371 109.05 177.349C109.151 177.328 109.244 177.282 109.322 177.215C109.4 177.148 109.461 177.063 109.497 176.967C109.534 176.871 109.546 176.768 109.532 176.667C110.154 171.277 110.132 165.833 109.464 160.448C109.279 158.944 109.254 156.857 107.554 156.291C105.525 155.616 102.318 156.405 100.15 156.313C97.1715 156.188 94.2081 155.822 91.2893 155.218Z" fill="#3F3D56"/>
<path d="M106.607 128.876L106.554 136.343L89.4821 136.908C86.3499 137.015 83.1928 137.122 80.1392 137.815C79.2606 138.014 78.3928 138.263 77.5285 138.508C76.6285 135.226 75.7428 131.788 75.9785 128.442C76.0436 127.539 76.2016 126.645 76.4499 125.775C76.9928 123.897 78.0106 122.127 78.5535 120.27C78.7723 119.548 78.8924 118.799 78.9106 118.044C78.8701 117.291 78.7504 116.544 78.5535 115.815C78.3969 115.217 78.3224 114.601 78.3321 113.984L79.6856 113.568C79.7249 113.728 79.7571 113.884 79.7856 114.048C79.8428 114.385 79.8892 114.73 79.9214 115.075C79.9978 115.93 80.0217 116.789 79.9928 117.646C79.9464 119.36 79.7142 121.27 80.7892 122.624C82.1856 124.363 84.8714 124.093 87.0642 123.659L92.8071 122.518C94.6214 122.162 96.6464 121.657 97.5928 120.075C97.9966 119.306 98.2097 118.453 98.2142 117.586V117.415C98.2997 115.526 98.1108 113.635 97.6535 111.8C97.5142 111.224 97.3428 110.655 97.1499 110.097H97.7249C98.0561 110.15 98.3704 110.279 98.6428 110.474C98.8308 110.628 98.9799 110.824 99.0785 111.046L99.3964 110.915C100.663 116.072 102.752 120.994 105.582 125.494C105.946 126.009 106.235 126.573 106.439 127.169C106.524 127.492 106.572 127.823 106.582 128.157C106.611 128.367 106.607 128.62 106.607 128.876Z" fill="#FF6F61"/>
<path d="M88.5715 106.274C94.2916 106.274 98.9286 101.658 98.9286 95.9624C98.9286 90.2672 94.2916 85.6504 88.5715 85.6504C82.8514 85.6504 78.2144 90.2672 78.2144 95.9624C78.2144 101.658 82.8514 106.274 88.5715 106.274Z" fill="#FBBEBE"/>
<path d="M70.1643 118.891C68.8286 120.914 68.3786 123.375 67.9714 125.764L65.3786 140.734C65.0214 142.783 64.7036 145.033 65.7571 146.829C66.1143 147.437 66.6143 147.964 66.875 148.607C67.072 149.255 67.2012 149.921 67.2607 150.595C67.8678 154.026 71.2571 156.341 74.6571 157.173C75.8857 157.476 77.3214 157.593 78.2893 156.779C79.3607 155.893 79.3607 154.208 78.7286 152.992C78.0964 151.775 76.9428 150.915 75.825 150.101L72.1214 147.384L74.2643 131.027C74.4071 129.85 71.8178 116.38 70.1643 118.891Z" fill="#FBBEBE"/>
<path d="M112.386 119.275C112.95 121.746 113.239 124.278 113.946 126.71C114.221 127.667 114.564 128.602 114.8 129.555C115.053 130.687 115.233 131.834 115.339 132.99L116.343 141.83C116.458 142.376 116.415 142.943 116.218 143.465C115.945 143.92 115.542 144.284 115.061 144.511C112.168 146.13 108.769 146.606 105.539 145.844C104.796 145.623 104.04 145.447 103.275 145.318C102.054 145.165 100.811 145.41 99.5785 145.318C97.0785 145.129 94.8821 143.579 93.1499 141.78C92.1071 140.713 91.1607 138.964 92.1321 137.819C92.4035 137.542 92.7405 137.339 93.112 137.227C93.4835 137.115 93.8774 137.098 94.2571 137.179C95.0134 137.348 95.7429 137.619 96.4249 137.986C98.8159 139.086 101.373 139.787 103.993 140.059C105.779 140.247 108.05 139.945 108.668 138.252C108.968 137.431 108.757 136.521 108.546 135.671L106.818 128.684C106.746 128.442 111.821 116.807 112.386 119.275Z" fill="#FBBEBE"/>
<path d="M82.1607 99.1378C81.7 97.4914 81.0536 95.4326 82.35 94.316C82.8159 93.9579 83.3773 93.744 83.9643 93.7009C86.875 93.3453 89.8857 95.0521 92.6714 94.1418C93.56 93.8527 94.3455 93.3138 94.9332 92.59C95.5209 91.8662 95.8857 90.9886 95.9835 90.063C96.0813 89.1374 95.9079 88.2034 95.4844 87.3737C95.0608 86.544 94.4051 85.8541 93.5964 85.3872C92.3786 84.6761 90.925 84.5374 89.5214 84.4129C85.825 84.0751 81.9714 83.7622 78.5143 85.1241C75.0571 86.486 72.1428 89.9921 72.8571 93.6226C73.1893 95.3544 74.2643 96.8443 75.3571 98.224C76.1964 99.2729 79.5643 104.269 80.9179 104.198C82.825 104.091 82.4607 100.208 82.1607 99.1378Z" fill="#3F3D56"/>
<path opacity="0.1" d="M93.5965 85.3872C93.3901 85.2685 93.1752 85.1651 92.9536 85.0779C93.5807 85.6444 94.0474 86.365 94.307 87.1676C94.5666 87.9701 94.61 88.8264 94.4328 89.6509C94.2556 90.4754 93.8641 91.239 93.2974 91.8655C92.7307 92.492 92.0087 92.9594 91.2036 93.2208C88.4179 94.1311 85.4072 92.4243 82.4965 92.7799C81.9095 92.823 81.3481 93.037 80.8822 93.3951C79.5858 94.5116 80.2322 96.5705 80.6929 98.2168C80.9929 99.2836 81.3572 103.17 79.4572 103.277H79.425C80.0143 103.849 80.5465 104.223 80.925 104.201C82.825 104.095 82.4608 100.212 82.1608 99.1414C81.7 97.495 81.0536 95.4361 82.35 94.3196C82.816 93.9615 83.3773 93.7476 83.9643 93.7044C86.875 93.3488 89.8858 95.0557 92.6715 94.1453C93.56 93.8563 94.3455 93.3173 94.9333 92.5936C95.521 91.8698 95.8857 90.9922 95.9835 90.0665C96.0813 89.1409 95.908 88.2069 95.4844 87.3772C95.0608 86.5475 94.4051 85.8576 93.5965 85.3908V85.3872Z" fill="black"/>
<path d="M245.714 213.662H129.286V249.576H245.714V213.662Z" fill="#3F3D56"/>
<path d="M182.5 225.268V237.963L192.5 231.615L182.5 225.268Z" fill="white"/>
<path d="M93.2142 12.1362L87.6714 15.6352L91.0356 9.54395C90.0822 8.78619 88.902 8.36697 87.6821 8.35273H87.5928C87.2077 8.35834 86.8228 8.32978 86.4428 8.26739L84.5642 9.4515L85.3714 7.99359C84.0386 7.53198 82.8879 6.66025 82.0856 5.50448L78.7214 7.638L80.8464 3.7941C78.8785 1.44367 76.2285 0.00354004 73.3142 0.00354004C69.8178 0.00354004 66.7035 2.07306 64.6928 5.29824C64.0982 6.26664 63.2556 7.0602 62.2515 7.59758C61.2474 8.13495 60.1178 8.3968 58.9785 8.35629H58.7892C54.9285 8.35629 51.7999 12.7122 51.7999 18.0887C51.7999 23.4652 54.9285 27.8211 58.7892 27.8211C59.6385 27.8172 60.4742 27.6086 61.2249 27.2131C62.5383 26.5766 63.975 26.2323 65.4354 26.2041C66.8958 26.1759 68.3449 26.4643 69.6821 27.0495C70.8135 27.5535 72.039 27.814 73.2785 27.814C74.518 27.814 75.7435 27.5535 76.8749 27.0495C78.2027 26.4764 79.6388 26.1944 81.0857 26.2226C82.5326 26.2508 83.9564 26.5886 85.2606 27.2131C86.0036 27.6002 86.8292 27.8039 87.6678 27.8069C91.5285 27.8069 94.6571 23.4474 94.6571 18.0745C94.6836 16.0059 94.1874 13.9639 93.2142 12.1362Z" fill="#F2F2F2"/>
<path opacity="0.03" d="M82.7642 26.3775C80.751 25.9973 78.6698 26.2226 76.7857 27.0247C75.6539 27.5275 74.4285 27.7874 73.1892 27.7874C71.9499 27.7874 70.7245 27.5275 69.5928 27.0247C68.2552 26.4407 66.806 26.1532 65.3458 26.1821C63.8855 26.2109 62.449 26.5555 61.1357 27.1918C60.3845 27.5857 59.5489 27.7931 58.7 27.7963C55.2714 27.7963 52.4178 24.3577 51.825 19.8204C52.5085 19.3216 53.0903 18.6977 53.5392 17.9821C55.55 14.7533 58.6642 12.6838 62.1607 12.6838C65.6571 12.6838 68.7321 14.7284 70.7321 17.9216C71.3339 18.882 72.1744 19.6716 73.1723 20.2142C74.1701 20.7567 75.2917 21.0338 76.4285 21.0188H76.5178C79.2499 21.0188 81.6142 23.1985 82.7642 26.3775Z" fill="black"/>
<path d="M282.857 91.4464L280.093 93.1924L281.771 90.1521C281.296 89.775 280.708 89.5661 280.1 89.5583H280.054C279.862 89.5614 279.671 89.5483 279.482 89.5192L278.529 90.1165L278.932 89.3876C278.268 89.1582 277.694 88.725 277.293 88.1501L275.614 89.2169L276.686 87.3003C276.24 86.7272 275.671 86.2601 275.021 85.9329C274.371 85.6057 273.657 85.4266 272.929 85.4086C271.186 85.4086 269.632 86.4398 268.643 88.0506C268.345 88.5341 267.924 88.9302 267.422 89.1982C266.92 89.4663 266.355 89.5967 265.786 89.5761H265.693C263.768 89.5761 262.207 91.7522 262.207 94.4298C262.207 97.1074 263.768 99.2871 265.693 99.2871C266.116 99.2854 266.533 99.1817 266.907 98.9849C267.562 98.6674 268.278 98.4953 269.007 98.4805C269.735 98.4658 270.458 98.6088 271.125 98.8996C271.686 99.1524 272.295 99.2845 272.911 99.2871C273.526 99.285 274.134 99.1567 274.696 98.9102C275.359 98.6244 276.075 98.4834 276.796 98.4969C277.518 98.5104 278.228 98.678 278.879 98.9885C279.249 99.1828 279.66 99.2853 280.079 99.2871C282.004 99.2871 283.564 97.111 283.564 94.4298C283.585 93.3919 283.342 92.3656 282.857 91.4464Z" fill="#F2F2F2"/>
<path opacity="0.03" d="M277.632 98.5511C276.627 98.359 275.587 98.4717 274.646 98.8747C274.085 99.1241 273.476 99.253 272.861 99.253C272.245 99.253 271.637 99.1241 271.075 98.8747C270.408 98.5843 269.685 98.4412 268.957 98.4553C268.229 98.4694 267.513 98.6404 266.857 98.9564C266.483 99.1547 266.067 99.2596 265.643 99.2622C263.932 99.2622 262.511 97.5448 262.214 95.2832C262.555 95.0348 262.845 94.7234 263.068 94.3658C264.072 92.755 265.625 91.7238 267.354 91.7238C269.082 91.7238 270.632 92.7443 271.639 94.3338C271.94 94.8171 272.361 95.2145 272.862 95.4869C273.362 95.7593 273.926 95.8975 274.497 95.8877H274.539C275.879 95.8771 277.061 96.9651 277.632 98.5511Z" fill="black"/>
<path d="M288.975 46.1055L293.414 48.9111L290.714 44.0288C291.478 43.4232 292.423 43.0879 293.4 43.0759H293.471C293.78 43.0805 294.088 43.0578 294.393 43.0083L295.9 43.9577L295.254 42.7914C296.319 42.4192 297.24 41.7225 297.886 40.8001L300.582 42.4998L298.879 39.4204C300.454 37.5358 302.579 36.3837 304.914 36.3837C307.718 36.3837 310.211 38.0408 311.821 40.6259C312.298 41.3994 312.971 42.0336 313.774 42.464C314.576 42.8943 315.478 43.1054 316.389 43.0759H316.539C319.632 43.0759 322.139 46.5677 322.139 50.8739C322.139 55.1801 319.639 58.6719 316.539 58.6719C315.859 58.6684 315.19 58.5013 314.589 58.1848C313.536 57.6734 312.383 57.3967 311.211 57.374C310.039 57.3513 308.876 57.5831 307.804 58.0532C306.897 58.4564 305.916 58.6648 304.923 58.6648C303.931 58.6648 302.949 58.4564 302.043 58.0532C300.979 57.5934 299.829 57.3668 298.67 57.3889C297.511 57.411 296.37 57.6812 295.325 58.1812C294.728 58.4906 294.066 58.654 293.393 58.6577C290.3 58.6577 287.793 55.1658 287.793 50.8597C287.781 49.2015 288.188 47.5669 288.975 46.1055Z" fill="#F2F2F2"/>
<path opacity="0.03" d="M297.343 57.5163C298.959 57.2098 300.63 57.3905 302.143 58.0354C303.049 58.4386 304.031 58.647 305.023 58.647C306.016 58.647 306.997 58.4386 307.904 58.0354C308.977 57.5668 310.14 57.3361 311.311 57.3594C312.483 57.3828 313.636 57.6596 314.689 58.1706C315.291 58.486 315.96 58.6519 316.639 58.6542C319.386 58.6542 321.671 55.8984 322.15 52.2536C321.599 51.856 321.132 51.3546 320.775 50.7779C319.164 48.1963 316.668 46.5357 313.868 46.5357C311.068 46.5357 308.6 48.175 306.989 50.7317C306.508 51.5026 305.835 52.1368 305.035 52.5729C304.236 53.0089 303.337 53.2321 302.425 53.2208H302.354C300.161 53.2243 298.264 54.9703 297.343 57.5163Z" fill="black"/>
</svg>
