<svg width="54" height="44" viewBox="0 0 54 44" fill="none" xmlns="http://www.w3.org/2000/svg">
<path d="M9.72953 28.9916C9.68206 28.9916 9.63489 28.9841 9.5897 28.9694C9.53252 28.9511 9.47948 28.9215 9.43367 28.8823C9.38787 28.8431 9.35019 28.7952 9.32283 28.7411L8.88167 27.8751C8.82632 27.7662 8.81593 27.6394 8.85279 27.5227C8.88964 27.406 8.97073 27.3089 9.07826 27.2526L16.2098 23.5312C16.3175 23.4752 16.4427 23.4646 16.558 23.5019C16.6733 23.5392 16.7693 23.6213 16.8249 23.7302L17.266 24.5962C17.3214 24.7051 17.3318 24.8319 17.2949 24.9486C17.258 25.0653 17.1769 25.1624 17.0694 25.2187L9.93787 28.9401C9.87349 28.9739 9.80205 28.9915 9.72953 28.9916Z" fill="#FF3939"/>
<path d="M12.3165 25.6175C12.3356 25.6442 12.3518 25.6728 12.365 25.7029L13.1185 27.3686C13.1428 27.4241 13.1561 27.4839 13.1575 27.5446C13.1589 27.6053 13.1485 27.6657 13.1269 27.7224C13.1052 27.779 13.0728 27.8308 13.0314 27.8747C12.9899 27.9186 12.9404 27.9539 12.8855 27.9784L10.3509 28.875C10.0873 28.9682 9.79907 28.9602 9.54088 28.8526C9.2827 28.745 9.07248 28.5453 8.95008 28.2913L8.97938 28.2768L8.95011 28.2913C8.82198 28.0255 8.79963 27.72 8.88768 27.438C8.97573 27.1561 9.16744 26.9191 9.42321 26.7761L11.7603 25.4682C11.8559 25.4248 11.9633 25.416 12.0645 25.4432C12.1657 25.4704 12.2547 25.5319 12.3165 25.6175V25.6175Z" fill="#2F2E41"/>
<path d="M42.1616 21.2573H29.9521C29.6742 21.2565 29.406 21.1539 29.1969 20.9686L24.1679 16.4794C23.9952 16.325 23.7728 16.2399 23.5424 16.2401H19.2023V1.08927C19.2026 0.800479 19.3161 0.523608 19.5179 0.319401C19.7196 0.115193 19.9932 0.000326394 20.2785 0H41.0854C41.3707 0.00032622 41.6443 0.115193 41.846 0.319401C42.0478 0.523608 42.1613 0.800479 42.1616 1.08927L42.1616 21.2573Z" fill="#E6E6E6"/>
<path d="M24.192 7.0307C25.4528 7.0307 26.4749 5.99622 26.4749 4.72012C26.4749 3.44403 25.4528 2.40955 24.192 2.40955C22.9312 2.40955 21.9092 3.44403 21.9092 4.72012C21.9092 5.99622 22.9312 7.0307 24.192 7.0307Z" fill="white"/>
<path d="M33.0627 3.48242H28.8231C28.7452 3.48242 28.6706 3.51372 28.6155 3.56943C28.5605 3.62515 28.5295 3.70071 28.5295 3.7795C28.5295 3.85828 28.5605 3.93385 28.6155 3.98956C28.6706 4.04527 28.7452 4.07657 28.8231 4.07657H33.0627C33.1405 4.07657 33.2152 4.04527 33.2702 3.98956C33.3253 3.93385 33.3562 3.85828 33.3562 3.7795C33.3562 3.70071 33.3253 3.62515 33.2702 3.56943C33.2152 3.51372 33.1405 3.48242 33.0627 3.48242Z" fill="white"/>
<path d="M39.2173 5.36389H28.767C28.6359 5.36389 28.5295 5.49724 28.5295 5.66097C28.5295 5.82469 28.6359 5.95804 28.767 5.95804H39.2173C39.3485 5.95804 39.4548 5.82469 39.4548 5.66097C39.4548 5.49724 39.3485 5.36389 39.2173 5.36389Z" fill="white"/>
<path d="M38.3962 9.34131H22.9678C22.8426 9.34131 22.7408 9.47466 22.7408 9.63838C22.7408 9.8021 22.8426 9.93546 22.9678 9.93546H38.3962C38.5214 9.93546 38.6232 9.8021 38.6232 9.63838C38.6232 9.47466 38.5214 9.34131 38.3962 9.34131Z" fill="white"/>
<path d="M38.3962 11.1898H22.9678C22.8426 11.1898 22.7408 11.3232 22.7408 11.4869C22.7408 11.6506 22.8426 11.784 22.9678 11.784H38.3962C38.5214 11.784 38.6232 11.6506 38.6232 11.4869C38.6232 11.3232 38.5214 11.1898 38.3962 11.1898Z" fill="white"/>
<path d="M38.3962 13.0382H22.9678C22.8426 13.0382 22.7408 13.1716 22.7408 13.3353C22.7408 13.499 22.8426 13.6324 22.9678 13.6324H38.3962C38.5214 13.6324 38.6232 13.499 38.6232 13.3353C38.6232 13.1716 38.5214 13.0382 38.3962 13.0382Z" fill="white"/>
<path d="M38.3962 14.8867H22.9678C22.8426 14.8867 22.7408 15.0201 22.7408 15.1838C22.7408 15.3475 22.8426 15.4809 22.9678 15.4809H38.3962C38.5214 15.4809 38.6232 15.3475 38.6232 15.1838C38.6232 15.0201 38.5214 14.8867 38.3962 14.8867Z" fill="white"/>
<path d="M52.2715 21.2574H29.9521C29.7299 21.2577 29.5125 21.192 29.3269 21.0684L29.3122 21.0586V5.64445C29.3125 5.35566 29.426 5.07878 29.6278 4.87458C29.8295 4.67037 30.1031 4.5555 30.3884 4.55518H51.1953C51.4806 4.5555 51.7542 4.67037 51.9559 4.87458C52.1577 5.07878 52.2712 5.35566 52.2715 5.64445L52.2715 21.2574Z" fill="#FF3939"/>
<path d="M34.302 11.5859C35.5628 11.5859 36.5849 10.5514 36.5849 9.2753C36.5849 7.9992 35.5628 6.96472 34.302 6.96472C33.0412 6.96472 32.0191 7.9992 32.0191 9.2753C32.0191 10.5514 33.0412 11.5859 34.302 11.5859Z" fill="white"/>
<path d="M43.1726 8.03748H38.933C38.8551 8.03748 38.7805 8.06877 38.7254 8.12449C38.6704 8.1802 38.6395 8.25576 38.6395 8.33455C38.6395 8.41334 38.6704 8.4889 38.7254 8.54461C38.7805 8.60033 38.8551 8.63162 38.933 8.63162H43.1726C43.2505 8.63162 43.3251 8.60033 43.3802 8.54461C43.4352 8.4889 43.4661 8.41334 43.4661 8.33455C43.4661 8.25576 43.4352 8.1802 43.3802 8.12449C43.3251 8.06877 43.2505 8.03748 43.1726 8.03748Z" fill="white"/>
<path d="M49.3273 9.91895H38.8769C38.7458 9.91895 38.6395 10.0523 38.6395 10.216C38.6395 10.3797 38.7458 10.5131 38.8769 10.5131H49.3273C49.4584 10.5131 49.5647 10.3797 49.5647 10.216C49.5647 10.0523 49.4584 9.91895 49.3273 9.91895Z" fill="white"/>
<path d="M48.5061 13.8965H33.0777C32.9525 13.8965 32.8507 14.0298 32.8507 14.1936C32.8507 14.3573 32.9525 14.4906 33.0777 14.4906H48.5061C48.6313 14.4906 48.7331 14.3573 48.7331 14.1936C48.7331 14.0298 48.6313 13.8965 48.5061 13.8965Z" fill="white"/>
<path d="M48.5061 15.745H33.0777C32.9525 15.745 32.8507 15.8783 32.8507 16.0421C32.8507 16.2058 32.9525 16.3391 33.0777 16.3391H48.5061C48.6313 16.3391 48.7331 16.2058 48.7331 16.0421C48.7331 15.8783 48.6313 15.745 48.5061 15.745Z" fill="white"/>
<path d="M48.5061 17.5934H33.0777C32.9525 17.5934 32.8507 17.7267 32.8507 17.8905C32.8507 18.0542 32.9525 18.1875 33.0777 18.1875H48.5061C48.6313 18.1875 48.7331 18.0542 48.7331 17.8905C48.7331 17.7267 48.6313 17.5934 48.5061 17.5934Z" fill="white"/>
<path d="M48.5061 19.4419H33.0777C32.9525 19.4419 32.8507 19.5752 32.8507 19.739C32.8507 19.9027 32.9525 20.036 33.0777 20.036H48.5061C48.6313 20.036 48.7331 19.9027 48.7331 19.739C48.7331 19.5752 48.6313 19.4419 48.5061 19.4419Z" fill="white"/>
<path d="M52.8912 21.0922H29.9521C29.7316 21.0925 29.5175 21.0171 29.3448 20.8783C29.3311 20.8677 29.3181 20.8565 29.3051 20.8446L27.3633 19.1117L24.2755 16.3555C24.0731 16.1746 23.8124 16.0749 23.5424 16.075H17.9304C17.6365 16.0754 17.3547 16.1937 17.1468 16.4041C16.939 16.6145 16.822 16.8997 16.8216 17.1972V42.8777C16.822 43.1752 16.939 43.4604 17.1468 43.6708C17.3547 43.8811 17.6365 43.9995 17.9304 43.9999H52.8912C53.1851 43.9995 53.4669 43.8811 53.6747 43.6708C53.8826 43.4604 53.9996 43.1752 54 42.8777V22.2145C53.9996 21.917 53.8826 21.6318 53.6747 21.4214C53.4669 21.211 53.1851 21.0926 52.8912 21.0922ZM53.8695 42.8777C53.8692 43.1402 53.766 43.3919 53.5826 43.5775C53.3992 43.7631 53.1505 43.8676 52.8912 43.8679H17.9304C17.671 43.8676 17.4224 43.7631 17.239 43.5775C17.0555 43.3919 16.9524 43.1402 16.952 42.8777V17.1972C16.9524 16.9347 17.0555 16.683 17.239 16.4974C17.4224 16.3117 17.671 16.2073 17.9304 16.207H23.5424C23.7807 16.2068 24.0108 16.2949 24.1894 16.4545L27.1663 19.1117L29.2183 20.9437C29.4214 21.1238 29.682 21.2234 29.9521 21.2242H52.8912C53.1505 21.2246 53.3992 21.329 53.5826 21.5146C53.766 21.7003 53.8692 21.952 53.8695 22.2145V42.8777Z" fill="#3F3D56"/>
<path d="M6.73474 25.0593C8.66266 25.0593 10.2255 23.4775 10.2255 21.5262C10.2255 19.5749 8.66266 17.993 6.73474 17.993C4.80683 17.993 3.24394 19.5749 3.24394 21.5262C3.24394 23.4775 4.80683 25.0593 6.73474 25.0593Z" fill="#FF3939"/>
<path d="M6.70654 43.9615H5.74385C5.6228 43.9614 5.50675 43.9127 5.42116 43.826C5.33556 43.7394 5.28741 43.6219 5.28728 43.4994V35.3785C5.28741 35.256 5.33556 35.1385 5.42116 35.0519C5.50675 34.9653 5.6228 34.9165 5.74385 34.9164H6.70654C6.82759 34.9165 6.94364 34.9653 7.02924 35.0519C7.11483 35.1385 7.16298 35.256 7.16311 35.3785V43.4994C7.16298 43.6219 7.11483 43.7394 7.02924 43.826C6.94364 43.9127 6.82759 43.9614 6.70654 43.9615Z" fill="#FF3939"/>
<path d="M8.79374 43.9615H7.83106C7.71001 43.9614 7.59395 43.9127 7.50836 43.826C7.42276 43.7394 7.37462 43.6219 7.37448 43.4994V35.3785C7.37462 35.256 7.42276 35.1385 7.50836 35.0519C7.59395 34.9653 7.71001 34.9165 7.83106 34.9164H8.79374C8.91479 34.9165 9.03084 34.9653 9.11644 35.0519C9.20203 35.1385 9.25018 35.256 9.25031 35.3785V43.4994C9.25018 43.6219 9.20203 43.7394 9.11644 43.826C9.03084 43.9127 8.91479 43.9614 8.79374 43.9615Z" fill="#FF3939"/>
<path d="M12.2896 33.5806C12.2896 36.4609 9.61264 37.39 6.76683 37.39C3.92102 37.39 1.98398 36.4609 1.98398 33.5806C1.98398 30.7003 3.89961 25.7906 6.74542 25.7906C9.59123 25.7906 12.2896 30.7003 12.2896 33.5806Z" fill="#2F2E41"/>
<path d="M6.66142 22.8357L6.65779 22.7036C6.90048 22.6968 7.11443 22.6814 7.2752 22.5625C7.32078 22.5269 7.35825 22.4818 7.38505 22.4302C7.41185 22.3786 7.42736 22.3218 7.43053 22.2636C7.43335 22.228 7.42804 22.1923 7.415 22.1591C7.40195 22.126 7.38154 22.0963 7.35533 22.0725C7.24861 21.9813 7.07689 22.0108 6.95172 22.0689L6.84378 22.119L7.05077 20.588L7.18001 20.6059L7.00395 21.9082C7.17402 21.8576 7.3316 21.8794 7.43954 21.9717C7.48098 22.0083 7.5135 22.0541 7.53455 22.1055C7.5556 22.157 7.56461 22.2127 7.56088 22.2682C7.55707 22.3464 7.53642 22.4228 7.50036 22.4921C7.4643 22.5613 7.41372 22.6218 7.35215 22.6691C7.14558 22.8219 6.87713 22.8295 6.66142 22.8357Z" fill="#2F2E41"/>
<path d="M8.52173 20.7181H7.81915V20.8502H8.52173V20.7181Z" fill="#2F2E41"/>
<path d="M6.30408 20.7181H5.6015V20.8502H6.30408V20.7181Z" fill="#2F2E41"/>
<path d="M45.5207 39.4448H26.3445C26.0851 39.4445 25.8364 39.3401 25.653 39.1544C25.4696 38.9688 25.3664 38.7171 25.3661 38.4546V27.7599C25.3664 27.4974 25.4696 27.2457 25.653 27.06C25.8364 26.8744 26.0851 26.77 26.3445 26.7697H45.5207C45.7801 26.77 46.0288 26.8744 46.2122 27.06C46.3956 27.2457 46.4988 27.4974 46.4991 27.7599V38.4546C46.4988 38.7171 46.3956 38.9688 46.2122 39.1544C46.0288 39.3401 45.7801 39.4445 45.5207 39.4448ZM26.3445 26.9017C26.1197 26.9019 25.9042 26.9924 25.7452 27.1533C25.5862 27.3142 25.4968 27.5324 25.4966 27.7599V38.4546C25.4968 38.6821 25.5862 38.9002 25.7452 39.0611C25.9042 39.222 26.1197 39.3125 26.3445 39.3128H45.5207C45.7455 39.3125 45.961 39.222 46.12 39.0611C46.279 38.9002 46.3684 38.6821 46.3686 38.4546V27.7599C46.3684 27.5324 46.279 27.3142 46.12 27.1533C45.961 26.9924 45.7455 26.9019 45.5207 26.9017H26.3445Z" fill="#E6E6E6"/>
<path d="M29.4427 33.0413C30.7035 33.0413 31.7256 32.0068 31.7256 30.7307C31.7256 29.4546 30.7035 28.4202 29.4427 28.4202C28.1819 28.4202 27.1598 29.4546 27.1598 30.7307C27.1598 32.0068 28.1819 33.0413 29.4427 33.0413Z" fill="#E6E6E6"/>
<path d="M38.3133 29.4928H34.0737C33.9958 29.4928 33.9212 29.5241 33.8661 29.5798C33.8111 29.6355 33.7802 29.7111 33.7802 29.7899C33.7802 29.8687 33.8111 29.9442 33.8661 29.9999C33.9212 30.0557 33.9958 30.0869 34.0737 30.0869H38.3133C38.3912 30.0869 38.4658 30.0557 38.5209 29.9999C38.5759 29.9442 38.6068 29.8687 38.6068 29.7899C38.6068 29.7111 38.5759 29.6355 38.5209 29.5798C38.4658 29.5241 38.3912 29.4928 38.3133 29.4928Z" fill="#E6E6E6"/>
<path d="M44.468 31.3743H34.0176C33.8865 31.3743 33.7802 31.5076 33.7802 31.6713C33.7802 31.8351 33.8865 31.9684 34.0176 31.9684H44.468C44.5991 31.9684 44.7054 31.8351 44.7054 31.6713C44.7054 31.5076 44.5991 31.3743 44.468 31.3743Z" fill="#E6E6E6"/>
<path d="M43.6468 35.3518H28.2184C28.0932 35.3518 27.9914 35.4852 27.9914 35.6489C27.9914 35.8126 28.0932 35.946 28.2184 35.946H43.6468C43.772 35.946 43.8738 35.8126 43.8738 35.6489C43.8738 35.4852 43.772 35.3518 43.6468 35.3518Z" fill="#E6E6E6"/>
<path d="M43.6468 37.2003H28.2184C28.0932 37.2003 27.9914 37.3337 27.9914 37.4974C27.9914 37.6611 28.0932 37.7945 28.2184 37.7945H43.6468C43.772 37.7945 43.8738 37.6611 43.8738 37.4974C43.8738 37.3337 43.772 37.2003 43.6468 37.2003Z" fill="#E6E6E6"/>
<path d="M3.94882 20.5553C4.22031 20.1417 4.69801 19.9664 5.16908 19.9237C5.69931 19.8757 6.21164 19.9792 6.72933 20.0797C7.29906 20.1904 7.90204 20.2939 8.47611 20.154C8.73007 20.0946 8.96738 19.9775 9.17015 19.8117C9.37291 19.6459 9.53585 19.4357 9.64666 19.1969C9.85685 18.731 9.90214 18.2061 9.77491 17.7104C9.64039 17.1831 9.30647 16.7192 8.90168 16.3688C8.07548 15.6537 6.95744 15.3323 5.88207 15.3625C4.81078 15.3905 3.77535 15.759 2.9225 16.4158C2.06823 17.0963 1.46709 18.0498 1.21719 19.1206C0.955882 20.1827 1.04101 21.3018 1.45985 22.3108C1.69518 22.8633 2.03551 23.3614 2.29813 23.9C2.54264 24.4015 2.73095 24.9845 2.57881 25.5439C2.44532 26.0347 2.05337 26.4708 1.56133 26.604C1.09268 26.7309 0.629935 26.5229 0.373144 26.1131C0.127173 25.7205 0.121288 25.2063 0.490601 24.8894C0.583716 24.8081 0.692183 24.7469 0.809407 24.7094C0.926631 24.6719 1.05016 24.659 1.17249 24.6713C1.29482 24.6837 1.41338 24.7211 1.52098 24.7813C1.62857 24.8415 1.72295 24.9232 1.79837 25.0214C1.9482 25.2184 2.01526 25.4672 1.98502 25.7139C1.96683 25.8386 2.15535 25.8924 2.17371 25.7665C2.21778 25.5057 2.16891 25.2374 2.03581 25.0096C1.9027 24.7818 1.69401 24.6092 1.44691 24.5226C1.19981 24.4359 0.930349 24.4409 0.686545 24.5366C0.442742 24.6324 0.240428 24.8126 0.11565 25.0452C-0.107065 25.469 0.0131025 25.9802 0.295819 26.3425C0.441685 26.5354 0.639393 26.6818 0.865286 26.764C1.09118 26.8462 1.33569 26.8608 1.56957 26.806C2.08419 26.6858 2.50518 26.2718 2.70316 25.7853C2.92357 25.2437 2.82258 24.6393 2.60772 24.1138C2.37546 23.5457 2.03055 23.0362 1.75779 22.4888C1.51082 21.994 1.35366 21.4584 1.2938 20.9075C1.174 19.8011 1.4221 18.6859 1.99885 17.7382C2.58671 16.8053 3.48399 16.1151 4.52949 15.7916C5.5604 15.464 6.69739 15.4741 7.70678 15.8766C8.70106 16.2731 9.66115 17.1372 9.64962 18.2978C9.6447 18.7935 9.46287 19.2991 9.08769 19.6298C8.63932 20.0249 8.01503 20.0587 7.45139 19.997C6.88418 19.935 6.33337 19.7673 5.76372 19.7245C5.26824 19.6873 4.73369 19.726 4.29129 19.9752C4.08526 20.0915 3.90986 20.2561 3.77986 20.4554C3.70998 20.5618 3.87938 20.6611 3.94882 20.5553L3.94882 20.5553Z" fill="#2F2E41"/>
<path d="M2.94316 37.115C2.92007 37.115 2.89702 37.1132 2.8742 37.1097L1.92249 36.9631C1.80283 36.9445 1.69535 36.8787 1.62361 36.78C1.55187 36.6813 1.52173 36.5579 1.53981 36.4367L2.74716 28.4083C2.76551 28.2872 2.83057 28.1784 2.92807 28.1058C3.02557 28.0331 3.14755 28.0026 3.26724 28.0209L4.21896 28.1676C4.33861 28.1861 4.4461 28.252 4.51784 28.3507C4.58958 28.4493 4.61972 28.5728 4.60163 28.6939L3.39427 36.7224C3.37771 36.8316 3.32314 36.9311 3.24042 37.0031C3.15769 37.0751 3.05226 37.1148 2.94316 37.115Z" fill="#FF3939"/>
<path d="M4.0805 31.6434C4.04795 31.6434 4.0155 31.6399 3.98369 31.6329L2.20924 31.2715C2.15058 31.2588 2.09497 31.2345 2.04559 31.2C1.99622 31.1655 1.95404 31.1215 1.92148 31.0705C1.88892 31.0195 1.86661 30.9625 1.85583 30.9028C1.84504 30.843 1.84599 30.7817 1.85863 30.7224L2.63087 28.1197C2.71128 27.849 2.88699 27.6177 3.12469 27.4694C3.3624 27.3212 3.64558 27.2663 3.92057 27.3153L3.91491 27.3478L3.92057 27.3154C4.20834 27.3666 4.46568 27.5277 4.63941 27.7655C4.81313 28.0033 4.88996 28.2995 4.85402 28.593L4.52665 31.2756C4.50513 31.3793 4.44909 31.4725 4.36788 31.5394C4.28667 31.6064 4.18523 31.6431 4.08049 31.6434H4.0805Z" fill="#2F2E41"/>
<path d="M12.5139 44H2.27352C2.25622 44 2.23963 43.993 2.2274 43.9806C2.21517 43.9682 2.2083 43.9514 2.2083 43.9339C2.2083 43.9164 2.21517 43.8996 2.2274 43.8873C2.23963 43.8749 2.25622 43.8679 2.27352 43.8679H12.5139C12.5312 43.8679 12.5478 43.8749 12.56 43.8873C12.5722 43.8996 12.5791 43.9164 12.5791 43.9339C12.5791 43.9514 12.5722 43.9682 12.56 43.9806C12.5478 43.993 12.5312 44 12.5139 44Z" fill="#3F3D56"/>
</svg>
