<svg width="68" height="44" viewBox="0 0 68 44" fill="none" xmlns="http://www.w3.org/2000/svg">
<g clip-path="url(#clip0)">
<path d="M2.15512 33.7699C2.49212 30.3373 4.52893 26.9109 7.76973 25.7124C6.57219 29.2676 6.67341 33.1309 8.05548 36.6188C8.59337 37.962 9.33179 39.4 8.89488 40.7793C8.62303 41.6374 7.92065 42.3069 7.12715 42.7347C6.33361 43.1625 5.44621 43.3797 4.56987 43.5926L4.40017 43.7403C2.91875 40.6242 1.81813 37.2024 2.15512 33.7699Z" fill="#F0F0F0"/>
<path d="M7.80389 25.7763C5.97409 27.9315 4.82241 30.684 4.62105 33.5058C4.57752 34.1159 4.58656 34.7385 4.73553 35.3349C4.88522 35.915 5.18785 36.4446 5.61199 36.8685C5.99951 37.2718 6.44269 37.6395 6.72523 38.1297C7.02304 38.6464 7.04951 39.2416 6.86955 39.8034C6.64936 40.4907 6.19482 41.0581 5.73099 41.5975C5.21599 42.1965 4.67157 42.8105 4.46642 43.5921C4.44157 43.6868 4.29576 43.6428 4.32058 43.5482C4.67749 42.1883 5.97042 41.3875 6.5648 40.1556C6.84215 39.5807 6.94758 38.919 6.65803 38.3273C6.40483 37.8099 5.94815 37.4304 5.55224 37.0255C5.13654 36.6003 4.81404 36.1304 4.63926 35.5577C4.46048 34.9719 4.42702 34.3483 4.45473 33.7398C4.52789 32.3604 4.81793 31.0011 5.31423 29.7116C5.87248 28.2368 6.67942 26.8682 7.70016 25.6649C7.76337 25.5905 7.86669 25.7023 7.8039 25.7763L7.80389 25.7763Z" fill="white"/>
<path d="M4.63801 32.5853C4.16448 32.4835 3.74263 32.2171 3.44777 31.8336C3.15292 31.4501 3.00426 30.9745 3.02836 30.4918C3.02953 30.4721 3.0383 30.4536 3.05283 30.4403C3.06737 30.4269 3.08653 30.4197 3.10628 30.4202C3.12603 30.4207 3.14482 30.4288 3.1587 30.4428C3.17258 30.4568 3.18047 30.4757 3.18069 30.4954C3.15741 30.9449 3.29593 31.3879 3.57123 31.7444C3.84653 32.101 4.24048 32.3476 4.68198 32.4397C4.7779 32.4599 4.73338 32.6053 4.63801 32.5853Z" fill="white"/>
<path d="M5.38853 36.6898C6.22516 36.1613 6.83144 35.3375 7.08648 34.3828C7.11166 34.2881 7.25748 34.3321 7.23232 34.4266C6.96506 35.4197 6.33239 36.2756 5.46056 36.8237C5.37743 36.8759 5.30585 36.7416 5.38853 36.6898Z" fill="white"/>
<path d="M6.0175 28.377C6.19249 28.4544 6.38403 28.4873 6.57491 28.4727C6.76579 28.458 6.95003 28.3963 7.11109 28.293C7.19352 28.2398 7.26502 28.3741 7.18312 28.4269C7.00464 28.5402 6.80108 28.6082 6.59023 28.6248C6.37937 28.6415 6.16764 28.6063 5.97352 28.5225C5.95456 28.5161 5.93874 28.5028 5.92928 28.4852C5.91982 28.4676 5.91743 28.4471 5.92258 28.4278C5.9285 28.4086 5.94179 28.3924 5.95957 28.3829C5.97734 28.3734 5.99816 28.3713 6.0175 28.377H6.0175Z" fill="white"/>
<path d="M17.8965 31.5642C17.846 31.5989 17.7955 31.6336 17.7449 31.6696C17.0681 32.1394 16.4306 32.6633 15.8388 33.2361C15.7923 33.2797 15.7459 33.3245 15.7008 33.3693C14.2897 34.7645 13.1505 36.4091 12.341 38.2193C12.0196 38.9399 11.7535 39.6839 11.5452 40.4448C11.2575 41.4957 11.0294 42.6579 10.4284 43.527C10.3667 43.6184 10.2994 43.7058 10.2269 43.7889L4.59387 43.9355C4.5809 43.9294 4.5679 43.9246 4.55487 43.9185L4.33023 43.9346C4.33823 43.8946 4.34739 43.8533 4.35538 43.8133C4.35993 43.7901 4.36572 43.7669 4.37027 43.7437C4.37369 43.7282 4.37718 43.7127 4.37938 43.6985C4.38051 43.6933 4.38169 43.6882 4.38284 43.6843C4.38505 43.6701 4.3886 43.6572 4.39084 43.6443C4.44138 43.4133 4.49364 43.1822 4.54761 42.9511C4.54758 42.9498 4.54758 42.9498 4.5488 42.9485C4.96456 41.1884 5.53121 39.4475 6.34463 37.8478C6.36912 37.7997 6.39351 37.7503 6.42058 37.7021C6.79124 36.9831 7.22018 36.2955 7.7031 35.6462C7.96868 35.2915 8.25208 34.9504 8.55222 34.6243C9.32935 33.7833 10.2342 33.0694 11.2337 32.5089C13.2262 31.3919 15.5546 30.9232 17.7307 31.5172C17.7864 31.5325 17.8408 31.5477 17.8965 31.5642Z" fill="#F0F0F0"/>
<path d="M17.8857 31.6357C15.1244 32.2572 12.5442 33.763 10.6809 35.8951C10.278 36.356 9.90961 36.8586 9.66877 37.4242C9.43825 37.9774 9.36038 38.582 9.44324 39.1754C9.50936 39.7302 9.64138 40.29 9.57121 40.8512C9.49724 41.4427 9.15927 41.9338 8.67665 42.2742C8.08615 42.6907 7.38089 42.8707 6.68508 43.0227C5.91251 43.1915 5.10738 43.3547 4.472 43.8555C4.39501 43.9162 4.30516 43.7934 4.38203 43.7329C5.48748 42.8615 7.00296 42.9989 8.22083 42.3723C8.7891 42.08 9.27253 41.615 9.39831 40.9686C9.5083 40.4034 9.37266 39.8259 9.30084 39.2648C9.22544 38.6756 9.25147 38.1066 9.45743 37.5444C9.66812 36.9692 10.0176 36.4512 10.4069 35.982C11.2975 34.9246 12.3493 34.0135 13.5235 33.2821C14.859 32.4399 16.3291 31.832 17.8701 31.4845C17.9655 31.463 17.9805 31.6144 17.8857 31.6357H17.8857Z" fill="white"/>
<path d="M11.2499 35.1704C10.9332 34.8047 10.7571 34.3385 10.7531 33.8552C10.749 33.3718 10.9173 32.9028 11.2278 32.5318C11.2909 32.4569 11.4104 32.5512 11.3472 32.6262C11.0574 32.9711 10.9007 33.4081 10.9054 33.8581C10.9101 34.3082 11.0759 34.7418 11.3728 35.0806C11.4373 35.1543 11.314 35.2437 11.2499 35.1704Z" fill="white"/>
<path d="M9.37255 38.8985C10.3594 38.9792 11.3405 38.6857 12.1202 38.0766C12.1974 38.0162 12.2872 38.1389 12.2101 38.1993C11.3976 38.8316 10.376 39.1349 9.34926 39.0487C9.2514 39.0404 9.27522 38.8902 9.37255 38.8985H9.37255Z" fill="white"/>
<path d="M14.8902 32.6394C14.9832 32.8064 15.1163 32.9477 15.2776 33.0507C15.4388 33.1536 15.6232 33.215 15.8141 33.2294C15.912 33.2364 15.888 33.3866 15.7908 33.3796C15.5799 33.3628 15.3764 33.2947 15.198 33.1813C15.0196 33.068 14.8717 32.9127 14.7673 32.7291C14.756 32.7127 14.7514 32.6925 14.7545 32.6728C14.7576 32.6531 14.768 32.6352 14.7838 32.6229C14.8001 32.6111 14.8205 32.6062 14.8404 32.6093C14.8603 32.6124 14.8782 32.6232 14.8902 32.6394Z" fill="white"/>
<path d="M50.9573 3.0116C50.8731 2.76378 49.8185 1.92138 50.4647 1.77979L50.9947 2.485L53.4314 0.0534668L53.6765 0.298022L50.9573 3.0116Z" fill="#FF3939"/>
<path d="M50.9573 11.2799C50.8731 11.0321 49.8185 10.1897 50.4647 10.0481L50.9947 10.7533L53.4314 8.32178L53.6765 8.56633L50.9573 11.2799Z" fill="#FF3939"/>
<path d="M50.9573 19.6661C50.8731 19.4183 49.8185 18.5759 50.4647 18.4343L50.9947 19.1395L53.4314 16.708L53.6765 16.9526L50.9573 19.6661Z" fill="#FF3939"/>
<path d="M48.7135 12.8862C49.1287 12.8862 49.4654 12.5502 49.4654 12.1358C49.4654 11.7214 49.1287 11.3855 48.7135 11.3855C48.2982 11.3855 47.9615 11.7214 47.9615 12.1358C47.9615 12.5502 48.2982 12.8862 48.7135 12.8862Z" fill="#3F3D56"/>
<path d="M48.7135 4.70745C49.1287 4.70745 49.4654 4.37152 49.4654 3.95712C49.4654 3.54272 49.1287 3.20679 48.7135 3.20679C48.2982 3.20679 47.9615 3.54272 47.9615 3.95712C47.9615 4.37152 48.2982 4.70745 48.7135 4.70745Z" fill="#3F3D56"/>
<path d="M67.9999 2.2312H55.8942V2.38127H67.9999V2.2312Z" fill="#3F3D56"/>
<path d="M49.0894 21.6047C49.5047 21.6047 49.8413 21.2687 49.8413 20.8543C49.8413 20.4399 49.5047 20.104 49.0894 20.104C48.6741 20.104 48.3375 20.4399 48.3375 20.8543C48.3375 21.2687 48.6741 21.6047 49.0894 21.6047Z" fill="#3F3D56"/>
<path d="M67.9999 10.4995H55.8942V10.6496H67.9999V10.4995Z" fill="#3F3D56"/>
<path d="M67.9999 18.8857H55.8942V19.0358H67.9999V18.8857Z" fill="#3F3D56"/>
<path d="M52.8564 20.7842H49.0969V16.9575H51.6534V17.1076H49.2472V20.6341H52.706V18.9084H52.8564V20.7842Z" fill="#3F3D56"/>
<path d="M52.8564 12.3804H49.0969V8.55371H51.6534V8.70378H49.2472V12.2304H52.706V10.5046H52.8564V12.3804Z" fill="#3F3D56"/>
<path d="M52.8564 3.8267H49.0969V0H51.6534V0.150067H49.2472V3.67664H52.706V1.95087H52.8564V3.8267Z" fill="#3F3D56"/>
<path d="M28.3099 13.639C28.3099 13.639 27.3051 17.8724 28.5331 17.8724C29.7612 17.8724 32.6639 13.0819 32.6639 13.0819L31.6591 11.8564L29.8556 14.3551L29.7612 13.0819L28.3099 13.639Z" fill="#A0616A"/>
<path d="M32.3961 13.2658C32.9359 13.2658 33.3736 12.8291 33.3736 12.2904C33.3736 11.7517 32.9359 11.3149 32.3961 11.3149C31.8562 11.3149 31.4186 11.7517 31.4186 12.2904C31.4186 12.8291 31.8562 13.2658 32.3961 13.2658Z" fill="#A0616A"/>
<path d="M27.4579 42.4723L28.759 42.4723L29.378 37.4641L27.4576 37.4642L27.4579 42.4723Z" fill="#A0616A"/>
<path d="M27.4121 43.827L31.4132 43.8268V43.7763C31.4132 43.3642 31.2491 42.9689 30.957 42.6774C30.665 42.386 30.2689 42.2223 29.8559 42.2222H29.8558L29.1249 41.6689L27.7613 42.2223L27.412 42.2223L27.4121 43.827Z" fill="#2F2E41"/>
<path d="M13.4621 40.8525L14.6263 41.4323L17.4213 37.227L15.703 36.3713L13.4621 40.8525Z" fill="#A0616A"/>
<path d="M12.8149 42.0442L16.395 43.827L16.4176 43.7819C16.602 43.4131 16.6321 42.9863 16.5012 42.5954C16.3703 42.2045 16.0892 41.8814 15.7196 41.6974L15.7195 41.6973L15.3132 40.8766L13.8454 40.764L13.5329 40.6084L12.8149 42.0442Z" fill="#2F2E41"/>
<path d="M42.8477 43.8318H0V43.9999H42.8477V43.8318Z" fill="#CCCCCC"/>
<path d="M19.0458 21.319C19.0458 21.319 18.5258 27.5579 18.4142 28.8948C18.3376 29.7328 18.1499 30.557 17.856 31.3457C17.856 31.3457 17.6327 31.7914 17.6327 32.237L15.1021 36.8263C15.1021 36.8263 14.3289 37.3935 14.4405 37.8391C14.5521 38.2848 13.9743 38.5521 13.9743 38.5521L16.6392 39.0646C16.6392 39.0646 16.5275 38.7304 16.8625 38.619C17.1974 38.5076 17.464 37.5413 17.464 37.5413L21.2052 31.4571L23.8846 25.8868C23.8846 25.8868 25.4476 30.9001 25.7825 31.4571C25.7825 31.4571 27.0106 37.6959 27.2338 38.253C27.4571 38.81 27.5688 38.81 27.4571 39.0328C27.3455 39.2556 27.3455 39.4784 27.4571 39.5899C27.5688 39.7013 29.69 39.5899 29.69 39.5899L29.1318 31.6799L28.127 22.2103L22.9915 20.6506L19.0458 21.319Z" fill="#2F2E41"/>
<path d="M24.0738 6.4252C25.3686 6.4252 26.4182 5.37775 26.4182 4.08565C26.4182 2.79355 25.3686 1.74609 24.0738 1.74609C22.7789 1.74609 21.7293 2.79355 21.7293 4.08565C21.7293 5.37775 22.7789 6.4252 24.0738 6.4252Z" fill="#A0616A"/>
<path d="M28.3503 9.84429L25.5593 8.15689C25.5593 8.15689 25.482 7.10907 24.6868 7.05976C24.2875 7.03501 23.6884 6.99716 22.7894 6.93932C22.5993 6.92709 22.4711 7.96444 22.2534 7.95037L19.3073 8.73022L19.7539 16.3059C19.7539 16.3059 19.084 19.3139 19.3073 19.871C19.5306 20.428 18.7491 20.6508 18.9724 20.7622C19.1957 20.8736 18.9724 21.6535 18.9724 21.6535C18.9724 21.6535 23.3264 23.8816 28.127 22.2105L27.6804 20.7622C27.7412 20.5729 27.7526 20.3712 27.7135 20.1763C27.6745 19.9813 27.5862 19.7996 27.4571 19.6481C27.4571 19.6481 27.9037 18.9797 27.3455 18.4227C27.3455 18.4227 27.5688 17.42 27.0106 16.9744L26.8989 15.4147L27.2339 14.6348L28.3503 9.84429Z" fill="#E6E6E6"/>
<path d="M22.0393 5.42232L21.9738 5.27042C21.9653 5.25079 21.1362 3.29486 21.8711 2.08839C22.2113 1.52985 22.8299 1.21452 23.7097 1.15121C25.0862 1.05188 26.0283 1.37773 26.5106 2.11902C26.5915 2.24465 26.6369 2.38971 26.6422 2.53893C26.6475 2.68816 26.6123 2.83604 26.5405 2.96703C26.4687 3.09802 26.3628 3.20729 26.234 3.28333C26.1053 3.35937 25.9584 3.39939 25.8087 3.39917H25.7902L25.5373 3.07144L25.5226 3.10332C25.431 3.30101 25.2207 3.40924 24.9744 3.38554C24.9325 3.38253 24.8954 3.41862 24.8656 3.49585C24.8555 3.52964 24.8366 3.5601 24.8107 3.58405C24.7848 3.608 24.7529 3.62455 24.7184 3.63196C24.5364 3.66732 24.277 3.43855 24.1608 3.32454C24.1564 3.35078 24.1463 3.37576 24.1313 3.39778C24.1163 3.4198 24.0968 3.43835 24.074 3.45218C23.9516 3.52264 23.7612 3.4306 23.7065 3.40129C23.271 3.49362 22.9891 3.46893 22.8684 3.32798C22.7865 3.90601 22.6108 4.94644 22.4001 5.00411C22.3781 5.00916 22.355 5.00701 22.3343 4.99798C22.3136 4.98895 22.2963 4.97351 22.2851 4.95395C22.2344 4.88822 22.189 4.85547 22.1607 4.86466C22.0922 4.88642 22.0517 5.11168 22.0459 5.25705L22.0393 5.42232Z" fill="#2F2E41"/>
<path d="M27.1222 9.95546L28.2359 9.7749C29.0381 10.5441 29.5846 11.5404 29.8016 12.6292C30.1365 14.4117 30.2482 14.746 30.2482 14.746L27.5688 15.4144L26.1174 12.6292L27.1222 9.95546Z" fill="#E6E6E6"/>
<path d="M22.1805 12.2741L21.4922 20.9805L39.0557 22.363L39.744 13.6566L22.1805 12.2741Z" fill="white"/>
<path d="M24.0569 12.9488C23.6271 12.6425 23.0814 12.6203 22.8729 12.6247C22.9365 12.8228 23.1341 13.3309 23.5639 13.6373C23.9948 13.9444 24.5398 13.9659 24.748 13.9616C24.6844 13.7636 24.4868 13.2553 24.0569 12.9488Z" fill="#FF3939"/>
<path d="M25.7525 18.4889L22.9323 18.2669C22.8489 18.2603 22.7651 18.2702 22.6856 18.2959C22.6061 18.3217 22.5325 18.3628 22.4689 18.417C22.4053 18.4712 22.3531 18.5373 22.3151 18.6116C22.2772 18.6859 22.2542 18.767 22.2477 18.8501C22.2411 18.9333 22.251 19.0169 22.2768 19.0962C22.3026 19.1756 22.3439 19.2491 22.3981 19.3125C22.4524 19.3759 22.5187 19.4281 22.5931 19.466C22.6676 19.5038 22.7488 19.5267 22.8322 19.5333L25.6524 19.7553C25.8206 19.7685 25.9873 19.7145 26.1157 19.6051C26.2441 19.4958 26.3237 19.34 26.3369 19.172C26.3502 19.0041 26.2961 18.8378 26.1865 18.7096C26.0769 18.5815 25.9208 18.5021 25.7525 18.4889Z" fill="#FF3939"/>
<path d="M39.0516 12.8104L23.2396 11.5656C23.0557 11.5512 22.8707 11.573 22.6953 11.6299C22.5198 11.6868 22.3573 11.7776 22.217 11.8971C22.0767 12.0167 21.9614 12.1626 21.8777 12.3267C21.7939 12.4907 21.7434 12.6696 21.7289 12.8531L21.1208 20.5403C21.0916 20.9111 21.2111 21.2783 21.4531 21.5611C21.695 21.8439 22.0397 22.0193 22.4112 22.0486L38.2232 23.2934C38.4071 23.3079 38.592 23.286 38.7675 23.2292C38.943 23.1723 39.1055 23.0815 39.2457 22.9619C39.386 22.8424 39.5013 22.6964 39.5851 22.5324C39.6689 22.3683 39.7194 22.1894 39.7339 22.0059L40.3118 14.6995L40.3234 14.5502L40.3418 14.318C40.3563 14.1344 40.3344 13.9499 40.2774 13.7748C40.2204 13.5997 40.1294 13.4375 40.0096 13.2975C39.8898 13.1575 39.7435 13.0425 39.5791 12.9589C39.4148 12.8753 39.2355 12.8249 39.0516 12.8104ZM38.5847 19.4987L38.4845 20.7652C38.4662 20.9889 38.3599 21.1962 38.1888 21.3419C38.0177 21.4876 37.7958 21.5597 37.5715 21.5426L35.4562 21.3763C35.232 21.358 35.0242 21.2519 34.8782 21.0812C34.7323 20.9105 34.6599 20.689 34.6771 20.4652L34.7773 19.1988C34.7957 18.9751 34.902 18.7678 35.0731 18.6222C35.2442 18.4765 35.466 18.4043 35.6902 18.4214L37.8049 18.5879C38.029 18.6062 38.2368 18.7123 38.3829 18.8829C38.529 19.0536 38.6015 19.2749 38.5847 19.4987ZM22.1077 18.8383C22.1242 18.6334 22.2214 18.4433 22.378 18.3098C22.5347 18.1763 22.738 18.1103 22.9434 18.1262L25.7635 18.3484C25.8654 18.3562 25.9647 18.384 26.0558 18.4302C26.1469 18.4764 26.228 18.54 26.2945 18.6174C26.3609 18.6949 26.4114 18.7847 26.4431 18.8816C26.4747 18.9786 26.4869 19.0808 26.479 19.1824C26.471 19.2841 26.4431 19.3832 26.3967 19.474C26.3504 19.5649 26.2866 19.6458 26.2089 19.712C26.1312 19.7783 26.0412 19.8286 25.944 19.8601C25.8469 19.8916 25.7444 19.9037 25.6426 19.8957L25.6411 19.8961L22.821 19.6739C22.7192 19.6659 22.6199 19.6379 22.5289 19.5915C22.4379 19.5452 22.357 19.4814 22.2907 19.4038C22.2245 19.3261 22.1742 19.2363 22.1428 19.1392C22.1114 19.0422 22.0995 18.94 22.1077 18.8383ZM22.7115 12.5744L22.6922 12.4957L22.7733 12.4883C22.805 12.4849 23.5552 12.4177 24.1392 12.8339C24.7231 13.2502 24.9022 13.9805 24.91 14.0111L24.9285 14.09L24.8476 14.0981C24.7327 14.1066 24.6173 14.1059 24.5025 14.0958C24.1374 14.0745 23.7848 13.9557 23.4815 13.7517C22.8976 13.3355 22.7185 12.6052 22.7115 12.5744Z" fill="#FF3939"/>
<path d="M36.2123 20.3388L35.2957 20.2666C35.2304 20.2616 35.1656 20.2826 35.1158 20.3252C35.066 20.3677 35.0351 20.4282 35.0299 20.4935C35.0248 20.5587 35.0458 20.6233 35.0883 20.6731C35.1308 20.7229 35.1914 20.7538 35.2568 20.7591L36.1734 20.8312C36.2387 20.8363 36.3034 20.8152 36.3533 20.7727C36.4031 20.7302 36.434 20.6696 36.4392 20.6044C36.4443 20.5392 36.4233 20.4745 36.3808 20.4247C36.3383 20.3749 36.2776 20.344 36.2123 20.3388Z" fill="#FF3939"/>
<path d="M37.9044 20.4718L36.9879 20.3996C36.9225 20.3947 36.8578 20.4157 36.808 20.4583C36.7582 20.5008 36.7274 20.5613 36.7222 20.6265C36.7171 20.6917 36.738 20.7563 36.7805 20.8061C36.823 20.8559 36.8836 20.8868 36.9489 20.8921L37.8655 20.9643C37.9308 20.9693 37.9955 20.9482 38.0453 20.9057C38.0951 20.8631 38.1259 20.8026 38.1311 20.7374C38.1362 20.6722 38.1153 20.6076 38.0728 20.5578C38.0303 20.508 37.9697 20.4771 37.9044 20.4718Z" fill="#FF3939"/>
<path d="M36.2624 19.7054L35.3458 19.6333C35.2804 19.6283 35.2158 19.6494 35.166 19.6919C35.1162 19.7345 35.0853 19.795 35.0801 19.8602C35.075 19.9254 35.096 19.9899 35.1385 20.0397C35.181 20.0895 35.2415 20.1205 35.3068 20.1258L36.2234 20.1979C36.2888 20.203 36.3535 20.1819 36.4034 20.1394C36.4532 20.0968 36.4841 20.0363 36.4892 19.9711C36.4944 19.9058 36.4734 19.8412 36.4309 19.7914C36.3883 19.7416 36.3277 19.7107 36.2624 19.7054Z" fill="#FF3939"/>
<path d="M37.9545 19.8388L37.038 19.7666C36.9726 19.7616 36.9079 19.7826 36.858 19.8252C36.8082 19.8677 36.7773 19.9282 36.7722 19.9935C36.767 20.0587 36.788 20.1233 36.8305 20.1731C36.8731 20.2229 36.9337 20.2538 36.999 20.2591L37.9156 20.3312C37.981 20.3363 38.0457 20.3152 38.0955 20.2727C38.1453 20.2302 38.1762 20.1696 38.1814 20.1044C38.1865 20.0392 38.1656 19.9745 38.123 19.9247C38.0805 19.8749 38.0199 19.844 37.9545 19.8388Z" fill="#FF3939"/>
<path d="M36.3124 19.0722L35.3958 19C35.3305 18.995 35.2657 19.016 35.2159 19.0586C35.1661 19.1011 35.1352 19.1616 35.13 19.2269C35.1249 19.2921 35.1459 19.3567 35.1884 19.4065C35.2309 19.4563 35.2915 19.4872 35.3569 19.4925L36.2735 19.5647C36.3388 19.5696 36.4035 19.5486 36.4533 19.506C36.5031 19.4635 36.5339 19.403 36.5391 19.3378C36.5442 19.2726 36.5233 19.208 36.4808 19.1582C36.4383 19.1084 36.3777 19.0775 36.3124 19.0722Z" fill="#FF3939"/>
<path d="M38.0046 19.2054L37.088 19.1333C37.0226 19.1283 36.958 19.1494 36.9082 19.1919C36.8584 19.2345 36.8275 19.295 36.8224 19.3602C36.8172 19.4254 36.8382 19.4899 36.8807 19.5397C36.9232 19.5895 36.9837 19.6205 37.0491 19.6258L37.9656 19.6979C38.031 19.7029 38.0956 19.6818 38.1454 19.6393C38.1952 19.5968 38.2261 19.5363 38.2312 19.4711C38.2364 19.4059 38.2154 19.3413 38.1729 19.2915C38.1304 19.2417 38.0699 19.2107 38.0046 19.2054Z" fill="#FF3939"/>
<path d="M21.4939 15.2788L21.4821 15.4285L40.0432 16.8835L40.055 16.7338L21.4939 15.2788Z" fill="white"/>
<path d="M40.3233 14.5502L40.3117 14.6995L39.6657 14.6489L32.7833 14.1094L32.7957 13.96L39.6774 14.4996L40.3233 14.5502Z" fill="#3F3D56"/>
<path d="M17.6327 12.9637C17.6327 12.9637 16.6279 17.1972 17.856 17.1972C19.084 17.1972 21.9867 12.4066 21.9867 12.4066L20.9819 11.1812L19.1785 13.6798L19.084 12.4066L17.6327 12.9637Z" fill="#A0616A"/>
<path d="M21.719 12.5905C22.2588 12.5905 22.6965 12.1538 22.6965 11.6151C22.6965 11.0764 22.2588 10.6396 21.719 10.6396C21.1791 10.6396 20.7415 11.0764 20.7415 11.6151C20.7415 12.1538 21.1791 12.5905 21.719 12.5905Z" fill="#A0616A"/>
<path d="M20.1206 9.39867L19.4507 8.73022C19.4507 8.73022 18.111 9.51007 17.9994 10.2899C17.8877 11.0698 17.3295 13.5207 17.3295 13.5207L19.3949 13.6878L20.0647 12.6852L20.1206 9.39867Z" fill="#E6E6E6"/>
</g>
<defs>
<clipPath id="clip0">
<rect width="68" height="44" fill="white"/>
</clipPath>
</defs>
</svg>
