<svg width="50" height="46" viewBox="0 0 50 46" fill="none" xmlns="http://www.w3.org/2000/svg">
<g clip-path="url(#clip0)">
<path d="M3.49191 40.9486C2.67217 41.5142 1.83392 42.0979 1.2663 42.9171C0.698719 43.7364 0.450946 44.8547 0.907018 45.7412L0.895255 45.7964C1.24092 45.9182 1.61205 45.9487 1.97289 45.885C2.33374 45.8213 2.67213 45.6656 2.95547 45.4328C3.67704 44.8259 3.9033 43.8261 4.08736 42.9003L4.63185 40.1621L3.49191 40.9486Z" fill="#F0F0F0"/>
<path d="M4.28144 43.7098C3.73462 43.831 3.17433 43.9578 2.70543 44.2647C2.23656 44.5716 1.87134 45.1023 1.92206 45.6611L1.90427 45.6875C2.05882 45.8242 2.2459 45.9187 2.44751 45.962C2.64911 46.0052 2.85843 45.9957 3.0553 45.9344C3.55964 45.7709 3.88864 45.2975 4.18001 44.8537L5.04185 43.5413L4.28144 43.7098Z" fill="#F0F0F0"/>
<path d="M49.9322 2.4444H3.24218C3.22425 2.44433 3.20708 2.43715 3.19442 2.42443C3.18176 2.4117 3.17465 2.39446 3.17465 2.3765C3.17465 2.35853 3.18176 2.34129 3.19442 2.32856C3.20708 2.31584 3.22425 2.30866 3.24218 2.30859H49.9322C49.9502 2.30866 49.9673 2.31584 49.98 2.32856C49.9926 2.34129 49.9998 2.35853 49.9998 2.3765C49.9998 2.39446 49.9926 2.4117 49.98 2.42443C49.9673 2.43715 49.9502 2.44433 49.9322 2.4444Z" fill="#CACACA"/>
<path d="M4.76745 1.49382C5.17913 1.49382 5.51286 1.15941 5.51286 0.746908C5.51286 0.334402 5.17913 0 4.76745 0C4.35577 0 4.02203 0.334402 4.02203 0.746908C4.02203 1.15941 4.35577 1.49382 4.76745 1.49382Z" fill="#3F3D56"/>
<path d="M7.34251 1.49382C7.75419 1.49382 8.08792 1.15941 8.08792 0.746908C8.08792 0.334402 7.75419 0 7.34251 0C6.93083 0 6.59709 0.334402 6.59709 0.746908C6.59709 1.15941 6.93083 1.49382 7.34251 1.49382Z" fill="#3F3D56"/>
<path d="M9.91756 1.49382C10.3292 1.49382 10.663 1.15941 10.663 0.746908C10.663 0.334402 10.3292 0 9.91756 0C9.50588 0 9.17215 0.334402 9.17215 0.746908C9.17215 1.15941 9.50588 1.49382 9.91756 1.49382Z" fill="#3F3D56"/>
<path d="M48.3894 0.456905H46.5597C46.5238 0.456905 46.4893 0.442597 46.4639 0.417129C46.4385 0.391661 46.4242 0.35712 46.4242 0.321104C46.4242 0.285087 46.4385 0.250545 46.4639 0.225077C46.4893 0.19961 46.5238 0.185303 46.5597 0.185303H48.3894C48.4253 0.185303 48.4598 0.19961 48.4852 0.225077C48.5106 0.250545 48.5249 0.285087 48.5249 0.321104C48.5249 0.35712 48.5106 0.391661 48.4852 0.417129C48.4598 0.442597 48.4253 0.456905 48.3894 0.456905Z" fill="#3F3D56"/>
<path d="M48.3894 0.966182H46.5597C46.5238 0.966182 46.4893 0.951875 46.4639 0.926408C46.4385 0.90094 46.4242 0.866398 46.4242 0.830381C46.4242 0.794365 46.4385 0.759824 46.4639 0.734356C46.4893 0.708888 46.5238 0.69458 46.5597 0.69458H48.3894C48.4253 0.69458 48.4598 0.708888 48.4852 0.734356C48.5106 0.759824 48.5249 0.794365 48.5249 0.830381C48.5249 0.866398 48.5106 0.90094 48.4852 0.926408C48.4598 0.951875 48.4253 0.966182 48.3894 0.966182Z" fill="#3F3D56"/>
<path d="M48.3894 1.47546H46.5597C46.5238 1.47546 46.4893 1.46115 46.4639 1.43568C46.4385 1.41022 46.4242 1.37567 46.4242 1.33966C46.4242 1.30364 46.4385 1.2691 46.4639 1.24363C46.4893 1.21816 46.5238 1.20386 46.5597 1.20386H48.3894C48.4253 1.20398 48.4596 1.21834 48.4849 1.2438C48.5102 1.26925 48.5245 1.30372 48.5245 1.33966C48.5245 1.37559 48.5102 1.41006 48.4849 1.43552C48.4596 1.46097 48.4253 1.47533 48.3894 1.47546Z" fill="#3F3D56"/>
<path d="M34.9719 5.3562H4.00334V23.961H34.9719V5.3562Z" fill="#F0F0F0"/>
<path d="M48.5249 5.3562H38.7667V11.2185H48.5249V5.3562Z" fill="#F0F0F0"/>
<path d="M46.5781 13.9116H40.772C40.6995 13.9116 40.63 13.8827 40.5787 13.8313C40.5274 13.7799 40.4986 13.7102 40.4986 13.6376C40.4986 13.5649 40.5274 13.4952 40.5787 13.4438C40.63 13.3924 40.6995 13.3635 40.772 13.3635H46.5781C46.6507 13.3635 46.7202 13.3924 46.7715 13.4438C46.8228 13.4952 46.8516 13.5649 46.8516 13.6376C46.8516 13.7102 46.8228 13.7799 46.7715 13.8313C46.7202 13.8827 46.6507 13.9116 46.5781 13.9116H46.5781Z" fill="#E4E4E4"/>
<path d="M45.642 12.9736H41.7082C41.6356 12.9736 41.5661 12.9447 41.5148 12.8933C41.4635 12.8419 41.4347 12.7722 41.4347 12.6996C41.4347 12.6269 41.4635 12.5572 41.5148 12.5058C41.5661 12.4544 41.6356 12.4255 41.7082 12.4255H45.642C45.7145 12.4255 45.7841 12.4544 45.8354 12.5058C45.8867 12.5572 45.9155 12.6269 45.9155 12.6996C45.9155 12.7722 45.8867 12.8419 45.8354 12.8933C45.7841 12.9447 45.7145 12.9736 45.642 12.9736Z" fill="#E4E4E4"/>
<path d="M48.5249 16.0166H38.7667V21.8789H48.5249V16.0166Z" fill="#F0F0F0"/>
<path d="M46.5781 24.572H40.772C40.6995 24.572 40.63 24.5431 40.5787 24.4917C40.5274 24.4403 40.4986 24.3706 40.4986 24.2979C40.4986 24.2253 40.5274 24.1556 40.5787 24.1042C40.63 24.0528 40.6995 24.0239 40.772 24.0239H46.5781C46.6507 24.0239 46.7202 24.0528 46.7715 24.1042C46.8228 24.1556 46.8516 24.2253 46.8516 24.2979C46.8516 24.3706 46.8228 24.4403 46.7715 24.4917C46.7202 24.5431 46.6507 24.572 46.5781 24.572H46.5781Z" fill="#E4E4E4"/>
<path d="M45.642 23.634H41.7082C41.6356 23.634 41.5661 23.6051 41.5148 23.5537C41.4635 23.5023 41.4347 23.4326 41.4347 23.36C41.4347 23.2873 41.4635 23.2176 41.5148 23.1662C41.5661 23.1148 41.6356 23.0859 41.7082 23.0859H45.642C45.7144 23.0861 45.7839 23.115 45.8351 23.1664C45.8863 23.2177 45.915 23.2874 45.915 23.36C45.915 23.4326 45.8863 23.5022 45.8351 23.5536C45.7839 23.6049 45.7144 23.6339 45.642 23.634Z" fill="#E4E4E4"/>
<path d="M20.0258 15.3648C21.3021 15.3648 22.3367 14.3281 22.3367 13.0492C22.3367 11.7704 21.3021 10.7336 20.0258 10.7336C18.7495 10.7336 17.7148 11.7704 17.7148 13.0492C17.7148 14.3281 18.7495 15.3648 20.0258 15.3648Z" fill="#9E616A"/>
<path d="M23.9195 23.9609H18.1249L18.4501 16.6188L18.4901 16.5767L19.0655 15.9683H20.8952L21.5741 16.6269L21.6277 16.6792L23.0724 18.0664L23.9195 23.9609Z" fill="#FF3939"/>
<path d="M19.7289 23.961H15.3248C15.2957 21.1512 15.2727 19.0314 15.2727 19.0314L15.4977 18.8942L15.499 18.8935L17.969 17.3909L18.4875 16.5469L18.4902 16.5768L18.6426 18.3558C18.6426 18.3558 19.4714 21.0385 19.7289 23.961Z" fill="#2F2E41"/>
<path d="M25.7214 23.961H21.8025C21.5931 23.009 21.484 22.1025 21.5314 21.3468C21.7239 18.2593 21.28 16.5469 21.4725 16.5469L21.5741 16.627L22.783 17.5837L24.3749 18.1683L25.4794 18.5744L25.6719 18.645V18.738C25.6726 19.2052 25.6773 21.3746 25.7214 23.961Z" fill="#2F2E41"/>
<path d="M17.8395 13.7738C17.8395 13.7738 18.0358 13.4282 17.9902 12.274C17.9445 11.1198 19.6986 11.7726 21.1644 11.6625C22.6301 11.5524 22.3198 13.5895 22.3198 13.5895C22.3198 13.5895 22.4256 13.4684 22.6519 12.4852C22.8783 11.5021 22.3643 10.5223 22.3643 10.5223C22.2129 9.48918 21.397 9.8203 21.397 9.8203C21.7899 9.97357 21.7145 10.3013 21.7145 10.3013C21.3819 9.71699 20.566 10.0481 20.566 10.0481C19.4778 9.36388 18.375 10.2649 18.375 10.2649C17.0604 10.5639 17.8313 11.6114 17.8313 11.6114C16.5093 12.2808 17.8395 13.7738 17.8395 13.7738Z" fill="#2F2E41"/>
<path d="M14.0488 23.961C14.1613 21.7074 14.2474 19.9392 14.2135 19.8027C14.1186 19.4232 15.457 18.9092 15.4976 18.8942L15.4983 18.8936H15.499L15.7545 19.0314L15.9415 23.961H14.0488Z" fill="#2F2E41"/>
<path d="M26.6429 23.9608H24.6541L24.0848 18.3271L24.3193 18.1553C24.3193 18.1553 24.3396 18.16 24.3749 18.1682C24.5571 18.2137 25.1454 18.3678 25.4794 18.5742C25.5533 18.616 25.6186 18.6716 25.6719 18.7379C25.7044 18.7769 25.7207 18.827 25.7173 18.8777C25.7003 19.0373 26.134 21.293 26.6429 23.9608Z" fill="#2F2E41"/>
<path d="M29.9912 26.2356H8.98407C8.90328 26.2357 8.82585 26.268 8.76877 26.3253C8.71169 26.3826 8.67963 26.4602 8.67963 26.5411C8.67963 26.6221 8.71169 26.6997 8.76877 26.757C8.82585 26.8143 8.90328 26.8466 8.98407 26.8467H29.9912C30.0313 26.8468 30.071 26.8389 30.1081 26.8236C30.1451 26.8083 30.1788 26.7858 30.2072 26.7574C30.2355 26.729 30.258 26.6953 30.2734 26.6582C30.2887 26.6211 30.2966 26.5813 30.2966 26.5411C30.2966 26.501 30.2887 26.4612 30.2734 26.4241C30.258 26.387 30.2355 26.3533 30.2072 26.3249C30.1788 26.2965 30.1451 26.274 30.1081 26.2587C30.071 26.2434 30.0313 26.2355 29.9912 26.2356Z" fill="#CACACA"/>
<path d="M24.299 26.2356V26.8467H8.98407C8.90328 26.8466 8.82585 26.8143 8.76877 26.757C8.71169 26.6997 8.67963 26.6221 8.67963 26.5411C8.67963 26.4602 8.71169 26.3826 8.76877 26.3253C8.82585 26.268 8.90328 26.2357 8.98407 26.2356H24.299Z" fill="#3F3D56"/>
<path d="M24.299 27.1524C24.6358 27.1524 24.9088 26.8788 24.9088 26.5413C24.9088 26.2038 24.6358 25.9302 24.299 25.9302C23.9621 25.9302 23.6891 26.2038 23.6891 26.5413C23.6891 26.8788 23.9621 27.1524 24.299 27.1524Z" fill="#3F3D56"/>
<path d="M19.4877 31.6338C19.2387 31.6338 18.9953 31.5598 18.7882 31.4212C18.5812 31.2826 18.4198 31.0856 18.3245 30.8551C18.2292 30.6246 18.2043 30.3709 18.2529 30.1262C18.3015 29.8815 18.4214 29.6567 18.5974 29.4803C18.7735 29.3039 18.9978 29.1838 19.242 29.1351C19.4863 29.0864 19.7394 29.1114 19.9694 29.2069C20.1995 29.3023 20.3961 29.464 20.5344 29.6715C20.6728 29.8789 20.7466 30.1228 20.7466 30.3723C20.7462 30.7068 20.6135 31.0274 20.3775 31.2639C20.1414 31.5004 19.8214 31.6334 19.4877 31.6338ZM19.4877 29.2079C19.2578 29.2079 19.0331 29.2762 18.842 29.4041C18.6509 29.5321 18.502 29.7139 18.414 29.9267C18.326 30.1395 18.303 30.3736 18.3479 30.5995C18.3927 30.8254 18.5034 31.0328 18.6659 31.1957C18.8284 31.3585 19.0355 31.4694 19.2609 31.5144C19.4864 31.5593 19.72 31.5362 19.9324 31.4481C20.1447 31.36 20.3262 31.2107 20.4539 31.0192C20.5816 30.8278 20.6498 30.6026 20.6498 30.3723C20.6494 30.0636 20.5269 29.7676 20.309 29.5493C20.0911 29.331 19.7958 29.2082 19.4877 29.2079V29.2079Z" fill="#FF3939"/>
<path d="M19.3214 31.0516C19.3085 31.0516 19.2962 31.0465 19.2871 31.0374C19.2781 31.0283 19.273 31.016 19.273 31.0031V29.7416C19.2729 29.7352 19.2741 29.7289 19.2765 29.7229C19.2789 29.717 19.2825 29.7116 19.287 29.707C19.2915 29.7025 19.2968 29.6988 19.3027 29.6964C19.3086 29.6939 19.315 29.6926 19.3214 29.6926C19.3278 29.6926 19.3341 29.6939 19.34 29.6964C19.3459 29.6988 19.3513 29.7025 19.3558 29.707C19.3603 29.7116 19.3638 29.717 19.3662 29.7229C19.3687 29.7289 19.3699 29.7352 19.3698 29.7416V31.0031C19.3698 31.016 19.3647 31.0283 19.3556 31.0374C19.3465 31.0465 19.3342 31.0516 19.3214 31.0516Z" fill="#FF3939"/>
<path d="M19.6539 31.0516C19.6411 31.0516 19.6287 31.0465 19.6197 31.0374C19.6106 31.0283 19.6055 31.0159 19.6055 31.0031V29.7416C19.6054 29.7352 19.6066 29.7288 19.609 29.7229C19.6115 29.717 19.615 29.7116 19.6195 29.707C19.624 29.7024 19.6294 29.6988 19.6353 29.6964C19.6412 29.6939 19.6475 29.6926 19.6539 29.6926C19.6603 29.6926 19.6666 29.6939 19.6725 29.6964C19.6784 29.6988 19.6838 29.7024 19.6883 29.707C19.6928 29.7116 19.6964 29.717 19.6988 29.7229C19.7012 29.7288 19.7024 29.7352 19.7023 29.7416V31.0031C19.7023 31.0159 19.6972 31.0283 19.6882 31.0374C19.6791 31.0465 19.6668 31.0516 19.6539 31.0516Z" fill="#FF3939"/>
<path d="M13.7213 30.3723C13.7213 30.1228 13.7952 29.8789 13.9335 29.6715C14.0718 29.464 14.2685 29.3023 14.4985 29.2069C14.7285 29.1114 14.9817 29.0864 15.2259 29.1351C15.4701 29.1838 15.6944 29.3039 15.8705 29.4803C16.0466 29.6567 16.1665 29.8815 16.215 30.1262C16.2636 30.3709 16.2387 30.6246 16.1434 30.8551C16.0481 31.0856 15.8868 31.2826 15.6797 31.4212C15.4727 31.5598 15.2293 31.6338 14.9803 31.6338C14.6465 31.6334 14.3265 31.5004 14.0905 31.2639C13.8545 31.0274 13.7217 30.7068 13.7213 30.3723ZM13.8182 30.3723C13.8182 30.6026 13.8863 30.8278 14.014 31.0192C14.1417 31.2107 14.3232 31.36 14.5356 31.4481C14.7479 31.5363 14.9816 31.5593 15.207 31.5144C15.4324 31.4695 15.6395 31.3585 15.802 31.1957C15.9645 31.0328 16.0752 30.8254 16.1201 30.5995C16.1649 30.3736 16.1419 30.1395 16.0539 29.9267C15.966 29.7139 15.817 29.5321 15.6259 29.4041C15.4348 29.2762 15.2101 29.2079 14.9803 29.2079C14.6722 29.2082 14.3768 29.331 14.1589 29.5493C13.9411 29.7676 13.8185 30.0636 13.8182 30.3723H13.8182Z" fill="#3F3D56"/>
<path d="M15.5241 30.797C15.5329 30.797 15.5416 30.794 15.5486 30.7886C15.5556 30.7832 15.5607 30.7756 15.563 30.7671C15.5653 30.7585 15.5647 30.7494 15.5613 30.7412C15.5579 30.733 15.5519 30.7261 15.5442 30.7217L14.9402 30.3722L15.5442 30.0228C15.5535 30.0175 15.5602 30.0087 15.563 29.9983C15.5658 29.988 15.5643 29.977 15.559 29.9677C15.5536 29.9584 15.5449 29.9517 15.5345 29.9489C15.5242 29.9461 15.5132 29.9476 15.504 29.9529L14.8396 30.3373C14.8334 30.3408 14.8284 30.3459 14.8248 30.3521C14.8213 30.3582 14.8194 30.3652 14.8194 30.3722C14.8194 30.3793 14.8213 30.3863 14.8248 30.3924C14.8284 30.3985 14.8334 30.4036 14.8396 30.4072L15.504 30.7916C15.5101 30.7951 15.517 30.797 15.5241 30.797Z" fill="#3F3D56"/>
<path d="M14.6332 30.9371C14.6438 30.9371 14.6541 30.9329 14.6616 30.9253C14.6692 30.9177 14.6734 30.9075 14.6734 30.8968V29.8477C14.6734 29.837 14.6692 29.8268 14.6616 29.8192C14.6541 29.8116 14.6438 29.8074 14.6332 29.8074C14.6225 29.8074 14.6122 29.8116 14.6047 29.8192C14.5971 29.8268 14.5929 29.837 14.5929 29.8477V30.8968C14.5929 30.9075 14.5971 30.9177 14.6047 30.9253C14.6122 30.9329 14.6225 30.9371 14.6332 30.9371Z" fill="#3F3D56"/>
<path d="M23.995 31.6338C23.746 31.6338 23.5026 31.5598 23.2956 31.4212C23.0885 31.2826 22.9272 31.0856 22.8319 30.8551C22.7366 30.6246 22.7117 30.3709 22.7602 30.1262C22.8088 29.8815 22.9287 29.6567 23.1048 29.4803C23.2809 29.3039 23.5052 29.1838 23.7494 29.1351C23.9936 29.0864 24.2467 29.1114 24.4768 29.2069C24.7068 29.3023 24.9035 29.464 25.0418 29.6715C25.1801 29.8789 25.254 30.1228 25.254 30.3723C25.2536 30.7068 25.1208 31.0274 24.8848 31.2639C24.6488 31.5004 24.3288 31.6334 23.995 31.6338ZM23.995 29.2079C23.7652 29.2079 23.5405 29.2762 23.3494 29.4041C23.1583 29.5321 23.0093 29.7139 22.9214 29.9267C22.8334 30.1395 22.8104 30.3736 22.8552 30.5995C22.9001 30.8254 23.0107 31.0328 23.1733 31.1957C23.3358 31.3585 23.5429 31.4694 23.7683 31.5144C23.9937 31.5593 24.2274 31.5362 24.4397 31.4481C24.6521 31.36 24.8336 31.2107 24.9613 31.0192C25.089 30.8277 25.1571 30.6026 25.1571 30.3723C25.1568 30.0636 25.0342 29.7676 24.8164 29.5493C24.5985 29.331 24.3031 29.2082 23.995 29.2079V29.2079Z" fill="#3F3D56"/>
<path d="M23.4512 30.7969C23.4424 30.7969 23.4337 30.794 23.4267 30.7886C23.4197 30.7832 23.4146 30.7756 23.4123 30.767C23.41 30.7584 23.4106 30.7493 23.414 30.7411C23.4174 30.7329 23.4234 30.726 23.431 30.7216L24.0351 30.3722L23.431 30.0227C23.4218 30.0174 23.4151 30.0086 23.4124 29.9982C23.4096 29.9879 23.4111 29.9769 23.4164 29.9677C23.4218 29.9584 23.4305 29.9517 23.4408 29.9489C23.4511 29.9461 23.4621 29.9475 23.4713 29.9528L24.1357 30.3372C24.1419 30.3408 24.1469 30.3459 24.1505 30.352C24.154 30.3581 24.1559 30.3651 24.1559 30.3722C24.1559 30.3793 24.154 30.3862 24.1505 30.3923C24.1469 30.3985 24.1419 30.4036 24.1357 30.4071L23.4713 30.7915C23.4652 30.795 23.4583 30.7969 23.4512 30.7969Z" fill="#3F3D56"/>
<path d="M24.3421 30.9371C24.3314 30.9371 24.3212 30.9329 24.3136 30.9253C24.3061 30.9177 24.3018 30.9075 24.3018 30.8968V29.8477C24.3018 29.837 24.3061 29.8268 24.3136 29.8192C24.3212 29.8116 24.3314 29.8074 24.3421 29.8074C24.3528 29.8074 24.363 29.8116 24.3706 29.8192C24.3781 29.8268 24.3824 29.837 24.3824 29.8477V30.8968C24.3824 30.9075 24.3781 30.9177 24.3706 30.9253C24.363 30.9329 24.3528 30.9371 24.3421 30.9371Z" fill="#3F3D56"/>
<path d="M7.3762 31.3231C7.30965 31.2563 7.25854 31.1757 7.22645 31.087C7.19436 30.9982 7.18207 30.9035 7.19046 30.8095C7.19885 30.7155 7.22771 30.6245 7.275 30.5429C7.3223 30.4612 7.38688 30.391 7.4642 30.3371L6.84477 28.1284L7.97822 28.491L8.39267 30.5328C8.47444 30.669 8.50353 30.8305 8.47442 30.9867C8.44532 31.1429 8.36004 31.2829 8.23475 31.3804C8.10945 31.4778 7.95285 31.5257 7.79462 31.5152C7.63638 31.5046 7.4875 31.4363 7.3762 31.3231Z" fill="#FFB6B6"/>
<path d="M7.07324 20.3191L6.83845 20.0742C6.83845 20.0742 6.11255 20.5738 6.26614 22.1225C6.37958 23.2664 6.02109 23.7516 6.06116 27.0764L7.07324 30.1214L8.24384 29.5065L7.39693 25.7494L7.07324 20.3191Z" fill="#FF3939"/>
<path d="M7.95141 45.0319H8.79078L9.19014 41.7878L7.95125 41.7879L7.95141 45.0319Z" fill="#FFB6B6"/>
<path d="M7.73732 44.7574L9.39034 44.7573H9.3904C9.66979 44.7573 9.93772 44.8686 10.1353 45.0665C10.3328 45.2644 10.4438 45.5329 10.4438 45.8128V45.8471L7.73737 45.8472L7.73732 44.7574Z" fill="#2F2E41"/>
<path d="M10.3993 44.7341L11.2324 44.8364L12.0229 41.6652L10.7933 41.5142L10.3993 44.7341Z" fill="#FFB6B6"/>
<path d="M10.2201 44.4353L11.8608 44.6369L11.8609 44.6369C12.1382 44.671 12.3906 44.8141 12.5627 45.0346C12.7347 45.2552 12.8122 45.5352 12.7783 45.8131L12.7741 45.8471L10.0877 45.5171L10.2201 44.4353Z" fill="#2F2E41"/>
<path d="M7.51636 28.3992C7.51636 28.3992 5.89946 29.5064 6.70787 32.5035L7.80113 44.137L9.09999 44.1277L9.65014 38.3874L10.024 34.3462L11.2733 38.5252L10.2458 43.653L11.7623 43.813L13.5793 37.8497L12.7031 29.3595L7.51636 28.3992Z" fill="#2F2E41"/>
<path d="M11.4177 19.7598L10.5956 19.0972L8.41532 19.0073L6.83847 20.0741C6.83847 20.0741 6.6757 23.8728 7.74272 27.2566L7.18331 28.6701L12.7767 29.3733L11.4177 19.7598Z" fill="#FF3939"/>
<path d="M9.65495 18.1944C10.6878 18.1944 11.5251 17.3554 11.5251 16.3205C11.5251 15.2855 10.6878 14.4465 9.65495 14.4465C8.62208 14.4465 7.78477 15.2855 7.78477 16.3205C7.78477 17.3554 8.62208 18.1944 9.65495 18.1944Z" fill="#FFB6B6"/>
<path d="M10.1455 14.0039H9.72991C9.44032 13.9174 9.13457 13.8998 8.83702 13.9527C8.53948 14.0055 8.25836 14.1273 8.01607 14.3082C7.77379 14.4892 7.57702 14.7243 7.44146 14.9949C7.3059 15.2655 7.23529 15.5641 7.23526 15.8669L6.58798 18.0072C6.56932 18.0689 6.56533 18.1341 6.57635 18.1977C6.58737 18.2612 6.61309 18.3213 6.65144 18.3731C6.68978 18.4249 6.7397 18.4669 6.7972 18.4959C6.85469 18.5249 6.91815 18.54 6.98251 18.54H7.29845C7.43075 18.3512 7.48846 18.1199 7.46041 17.8909C7.51916 18.0343 7.56033 18.1843 7.58301 18.3376C7.59034 18.4049 7.58895 18.473 7.57887 18.54H10.3275C10.3453 18.2699 10.256 18.0036 10.079 17.7991C10.3004 18.0208 10.4929 18.2697 10.6518 18.54H10.7034C10.8127 18.54 10.9176 18.4965 10.9949 18.419C11.0722 18.3416 11.1156 18.2365 11.1156 18.127V16.0289H12.1665C12.1665 15.763 12.1143 15.4997 12.0127 15.254C11.9111 15.0083 11.7623 14.785 11.5746 14.597C11.3869 14.4089 11.1641 14.2598 10.9189 14.158C10.6737 14.0562 10.4109 14.0039 10.1455 14.0039Z" fill="#2F2E41"/>
<path d="M12.2266 31.161C12.1601 31.0942 12.109 31.0136 12.0769 30.9249C12.0448 30.8361 12.0325 30.7414 12.0409 30.6474C12.0493 30.5534 12.0781 30.4624 12.1254 30.3808C12.1727 30.2991 12.2373 30.2289 12.3146 30.175L11.6952 27.9663L12.8287 28.3289L13.2431 30.3707C13.3249 30.5069 13.354 30.6683 13.3249 30.8245C13.2957 30.9808 13.2105 31.1208 13.0852 31.2182C12.9599 31.3157 12.8033 31.3636 12.645 31.3531C12.4868 31.3425 12.3379 31.2742 12.2266 31.161Z" fill="#FFB6B6"/>
<path d="M10.7087 20.179L11.4177 19.7598C11.4177 19.7598 12.5329 19.5629 12.6519 21.0515C12.7709 22.5402 12.9424 26.4045 12.9424 26.4045L13.2902 29.6621L11.9995 29.9378L10.516 25.4831L10.7087 20.179Z" fill="#FF3939"/>
<path d="M17.2191 46.0001H0.0808407C0.0594004 46.0001 0.0388395 45.9916 0.0236789 45.9764C0.0085183 45.9612 0 45.9406 0 45.9191C0 45.8977 0.0085183 45.8771 0.0236789 45.8619C0.0388395 45.8467 0.0594004 45.8381 0.0808407 45.8381H17.2191C17.2405 45.8381 17.2611 45.8467 17.2762 45.8619C17.2914 45.8771 17.2999 45.8977 17.2999 45.9191C17.2999 45.9406 17.2914 45.9612 17.2762 45.9764C17.2611 45.9916 17.2405 46.0001 17.2191 46.0001Z" fill="#CACACA"/>
</g>
<defs>
<clipPath id="clip0">
<rect width="50" height="46" fill="white"/>
</clipPath>
</defs>
</svg>
