<svg width="293" height="196" viewBox="0 0 293 196" fill="none" xmlns="http://www.w3.org/2000/svg">
<path d="M40.1119 143.719C40.1119 143.719 55.7119 179.287 95.1549 190.919C134.598 202.55 176.718 187.05 211.138 175.4C245.558 163.75 263.66 133.96 255.991 103.415C248.322 72.8703 219.325 75.0667 192.281 47.9415C165.236 20.8162 162.154 9.49681 124.676 1.48465C87.1989 -6.52751 46.1772 25.0157 35.9186 69.6879C25.6601 114.36 40.1119 143.719 40.1119 143.719Z" fill="#FF3939"/>
<path opacity="0.8" d="M40.1119 143.719C40.1119 143.719 55.7119 179.287 95.1549 190.919C134.598 202.55 176.718 187.05 211.138 175.4C245.558 163.75 263.66 133.96 255.991 103.415C248.322 72.8703 219.325 75.0667 192.281 47.9415C165.236 20.8162 162.154 9.49681 124.676 1.48465C87.1989 -6.52751 46.1772 25.0157 35.9186 69.6879C25.6601 114.36 40.1119 143.719 40.1119 143.719Z" fill="white"/>
<path d="M240.472 95.6464C240.472 95.6464 254.774 97.0629 262.019 105.93C262.019 105.93 269.681 95.6589 283.434 95.871C286.795 91.8164 288.935 86.8904 289.605 81.6666C290.275 76.4429 289.448 71.1363 287.219 66.3647C284.99 61.5931 281.451 57.5528 277.015 54.7143C272.579 51.8758 267.428 50.3558 262.161 50.3314C256.895 50.3069 251.729 51.7789 247.267 54.5761C242.805 57.3733 239.229 61.3805 236.956 66.1311C234.682 70.8818 233.805 76.1805 234.427 81.4102C235.048 86.64 237.142 91.5856 240.466 95.6714L240.472 95.6464Z" fill="#FF3939"/>
<path opacity="0.5" d="M240.472 95.6464C240.472 95.6464 254.774 97.0629 262.019 105.93C262.019 105.93 269.681 95.6589 283.434 95.871C286.795 91.8164 288.935 86.8904 289.605 81.6666C290.275 76.4429 289.448 71.1363 287.219 66.3647C284.99 61.5931 281.451 57.5528 277.015 54.7143C272.579 51.8758 267.428 50.3558 262.161 50.3314C256.895 50.3069 251.729 51.7789 247.267 54.5761C242.805 57.3733 239.229 61.3805 236.956 66.1311C234.682 70.8818 233.805 76.1805 234.427 81.4102C235.048 86.64 237.142 91.5856 240.466 95.6714L240.472 95.6464Z" fill="white"/>
<path d="M261.538 52.291L261.058 144.98H263.473L261.538 52.291Z" fill="#B8B8B8"/>
<path d="M262.268 103.228C262.268 103.228 267.092 94.5357 275.784 91.8774C275.784 91.8774 266.611 94.0552 262.056 101.537L262.268 103.228Z" fill="#B8B8B8"/>
<path d="M262.268 78.6049C262.268 78.6049 267.092 69.9126 275.784 67.2544C275.784 67.2544 266.611 69.4259 262.056 76.9139L262.268 78.6049Z" fill="#B8B8B8"/>
<path d="M262.268 90.904C262.268 90.904 267.092 82.2117 275.784 79.5535C275.784 79.5535 266.611 81.7312 262.056 89.213L262.268 90.904Z" fill="#B8B8B8"/>
<path d="M261.551 84.8763C261.551 84.8763 256.889 76.1902 248.503 73.532C248.503 73.532 257.357 75.7035 261.781 83.1915L261.551 84.8763Z" fill="#B8B8B8"/>
<path d="M261.551 96.9505C261.551 96.9505 256.889 88.2582 248.503 85.6062C248.503 85.6062 257.357 87.7777 261.781 95.2595L261.551 96.9505Z" fill="#B8B8B8"/>
<path d="M6.39077 95.6464C6.39077 95.6464 20.6929 97.0629 27.9375 105.93C27.9375 105.93 35.6002 95.6589 49.3532 95.871C52.7142 91.8164 54.8542 86.8904 55.5242 81.6666C56.1941 76.4429 55.3665 71.1363 53.1375 66.3647C50.9085 61.5931 47.3699 57.5528 42.9338 54.7143C38.4977 51.8758 33.3465 50.3558 28.08 50.3314C22.8135 50.3069 17.6484 51.7789 13.1861 54.5761C8.72379 57.3733 5.14784 61.3805 2.87462 66.1311C0.601388 70.8818 -0.275584 76.1805 0.345805 81.4102C0.967194 86.64 3.06138 91.5856 6.38453 95.6714L6.39077 95.6464Z" fill="#FF3939"/>
<path opacity="0.5" d="M6.39077 95.6464C6.39077 95.6464 20.6929 97.0629 27.9375 105.93C27.9375 105.93 35.6002 95.6589 49.3532 95.871C52.7142 91.8164 54.8542 86.8904 55.5242 81.6666C56.1941 76.4429 55.3665 71.1363 53.1375 66.3647C50.9085 61.5931 47.3699 57.5528 42.9338 54.7143C38.4977 51.8758 33.3465 50.3558 28.08 50.3314C22.8135 50.3069 17.6484 51.7789 13.1861 54.5761C8.72379 57.3733 5.14784 61.3805 2.87462 66.1311C0.601388 70.8818 -0.275584 76.1805 0.345805 81.4102C0.967194 86.64 3.06138 91.5856 6.38453 95.6714L6.39077 95.6464Z" fill="white"/>
<path d="M27.4694 52.291L26.9827 144.98H29.3975L27.4694 52.291Z" fill="#B8B8B8"/>
<path d="M28.1934 103.228C28.1934 103.228 33.0169 94.5357 41.7092 91.8774C41.7092 91.8774 32.5364 94.0552 27.9812 101.537L28.1934 103.228Z" fill="#B8B8B8"/>
<path d="M28.1934 78.6049C28.1934 78.6049 33.0169 69.9126 41.7092 67.2544C41.7092 67.2544 32.5364 69.4259 27.9812 76.9139L28.1934 78.6049Z" fill="#B8B8B8"/>
<path d="M28.1934 90.904C28.1934 90.904 33.0169 82.2117 41.7092 79.5535C41.7092 79.5535 32.5364 81.7312 27.9812 89.213L28.1934 90.904Z" fill="#B8B8B8"/>
<path d="M27.4758 84.8763C27.4758 84.8763 22.8145 76.1902 14.428 73.532C14.428 73.532 23.2825 75.7035 27.7067 83.1915L27.4758 84.8763Z" fill="#B8B8B8"/>
<path d="M27.4758 96.9505C27.4758 96.9505 22.8145 88.2582 14.428 85.6062C14.428 85.6062 23.2825 87.7777 27.7067 95.2595L27.4758 96.9505Z" fill="#B8B8B8"/>
<path d="M182.359 104.632C182.359 104.632 194.065 105.786 199.993 113.044C199.993 113.044 206.264 104.638 217.521 104.807C220.271 101.488 222.021 97.4559 222.568 93.1808C223.115 88.9057 222.436 84.5631 220.611 80.6587C218.786 76.7542 215.889 73.4485 212.258 71.1264C208.628 68.8043 204.412 67.5613 200.102 67.5422C195.792 67.5231 191.565 68.7286 187.914 71.0184C184.262 73.3082 181.336 76.5881 179.477 80.4762C177.617 84.3643 176.9 88.7007 177.409 92.9805C177.918 97.2603 179.632 101.307 182.352 104.651L182.359 104.632Z" fill="#FF3939"/>
<path opacity="0.5" d="M182.359 104.632C182.359 104.632 194.065 105.786 199.993 113.044C199.993 113.044 206.264 104.638 217.521 104.807C220.271 101.488 222.021 97.4559 222.568 93.1808C223.115 88.9057 222.436 84.5631 220.611 80.6587C218.786 76.7542 215.889 73.4485 212.258 71.1264C208.628 68.8043 204.412 67.5613 200.102 67.5422C195.792 67.5231 191.565 68.7286 187.914 71.0184C184.262 73.3082 181.336 76.5881 179.477 80.4762C177.617 84.3643 176.9 88.7007 177.409 92.9805C177.918 97.2603 179.632 101.307 182.352 104.651L182.359 104.632Z" fill="white"/>
<path d="M199.606 69.114L199.213 144.98H201.191L199.606 69.114Z" fill="#B8B8B8"/>
<path d="M200.199 110.81C200.199 110.81 204.155 103.696 211.263 101.518C211.263 101.518 203.775 103.297 200.031 109.424L200.199 110.81Z" fill="#B8B8B8"/>
<path d="M200.199 90.6545C200.199 90.6545 204.155 83.5409 211.263 81.3694C211.263 81.3694 203.775 83.1478 200.031 89.2692L200.199 90.6545Z" fill="#B8B8B8"/>
<path d="M200.199 100.732C200.199 100.732 204.155 93.6184 211.263 91.4407C211.263 91.4407 203.775 93.2191 200.031 99.3468L200.199 100.732Z" fill="#B8B8B8"/>
<path d="M199.612 95.79C199.612 95.79 195.8 88.6764 188.936 86.5049C188.936 86.5049 196.18 88.2833 199.806 94.4047L199.612 95.79Z" fill="#B8B8B8"/>
<path d="M199.612 105.668C199.612 105.668 195.8 98.5543 188.936 96.3828C188.936 96.3828 196.18 98.1612 199.806 104.289L199.612 105.668Z" fill="#B8B8B8"/>
<path d="M69.0965 104.632C69.0965 104.632 80.8027 105.786 86.7307 113.044C86.7307 113.044 92.9707 104.638 104.259 104.807C107.008 101.488 108.759 97.4559 109.306 93.1808C109.853 88.9057 109.174 84.5631 107.349 80.6587C105.524 76.7542 102.627 73.4485 98.9963 71.1264C95.3653 68.8043 91.1495 67.5613 86.8395 67.5422C82.5296 67.5231 78.3029 68.7286 74.6515 71.0184C71.0001 73.3082 68.0742 76.5881 66.2145 80.4762C64.3548 84.3643 63.6377 88.7007 64.1469 92.9805C64.656 97.2603 66.3703 101.307 69.0903 104.651L69.0965 104.632Z" fill="#FF3939"/>
<path opacity="0.5" d="M69.0965 104.632C69.0965 104.632 80.8027 105.786 86.7307 113.044C86.7307 113.044 92.9707 104.638 104.259 104.807C107.008 101.488 108.759 97.4559 109.306 93.1808C109.853 88.9057 109.174 84.5631 107.349 80.6587C105.524 76.7542 102.627 73.4485 98.9963 71.1264C95.3653 68.8043 91.1495 67.5613 86.8395 67.5422C82.5296 67.5231 78.3029 68.7286 74.6515 71.0184C71.0001 73.3082 68.0742 76.5881 66.2145 80.4762C64.3548 84.3643 63.6377 88.7007 64.1469 92.9805C64.656 97.2603 66.3703 101.307 69.0903 104.651L69.0965 104.632Z" fill="white"/>
<path d="M86.3438 69.114L85.9507 144.98H87.9288L86.3438 69.114Z" fill="#B8B8B8"/>
<path d="M86.9678 110.81C86.9678 110.81 90.924 103.696 98.0313 101.518C98.0313 101.518 90.5433 103.297 86.7993 109.424L86.9678 110.81Z" fill="#B8B8B8"/>
<path d="M86.9678 90.6545C86.9678 90.6545 90.924 83.5409 98.0313 81.3694C98.0313 81.3694 90.5433 83.1478 86.7993 89.2692L86.9678 90.6545Z" fill="#B8B8B8"/>
<path d="M86.9678 100.732C86.9678 100.732 90.924 93.6184 98.0313 91.4407C98.0313 91.4407 90.5433 93.2191 86.7993 99.3468L86.9678 100.732Z" fill="#B8B8B8"/>
<path d="M86.344 95.7901C86.344 95.7901 82.5376 88.6765 75.6736 86.5361C75.6736 86.5361 82.9182 88.3145 86.5437 94.436L86.344 95.7901Z" fill="#B8B8B8"/>
<path d="M86.3439 105.668C86.3439 105.668 82.5312 98.5543 75.6672 96.3828C75.6672 96.3828 82.9119 98.1612 86.5373 104.289L86.3439 105.668Z" fill="#B8B8B8"/>
<path d="M10.6963 145.311H279.977" stroke="#263238" stroke-width="1.04742" stroke-miterlimit="10"/>
<path opacity="0.3" d="M84.2161 175.425C84.2161 177.297 72.7158 178.788 58.5198 178.788C44.3238 178.788 32.8235 177.284 32.8235 175.425C32.8235 173.565 44.33 172.062 58.5198 172.062C72.7096 172.062 84.2161 173.572 84.2161 175.425Z" fill="black"/>
<path opacity="0.3" d="M138.011 175.425C138.011 177.297 126.504 178.788 112.315 178.788C98.125 178.788 86.6184 177.284 86.6184 175.425C86.6184 173.565 98.125 172.062 112.315 172.062C126.504 172.062 138.011 173.572 138.011 175.425Z" fill="black"/>
<path opacity="0.3" d="M209.272 175.425C209.272 177.297 197.772 178.788 183.582 178.788C169.392 178.788 157.885 177.284 157.885 175.425C157.885 173.565 169.386 172.062 183.582 172.062C197.778 172.062 209.272 173.572 209.272 175.425Z" fill="black"/>
<path opacity="0.3" d="M268.801 175.425C268.801 177.297 257.295 178.788 243.105 178.788C228.915 178.788 217.384 177.284 217.384 175.425C217.384 173.565 228.89 172.062 243.08 172.062C257.27 172.062 268.801 173.572 268.801 175.425Z" fill="black"/>
<path d="M186.359 77.0325C186.359 77.0325 185.304 81.4005 185.304 82.1368C185.303 82.5922 185.253 83.0463 185.154 83.4909C185.154 83.4909 182.902 86.1928 183.201 86.9416C183.565 87.5238 184.087 87.9911 184.705 88.2894C184.705 88.2894 185.903 92.6574 187.107 92.9445C188.344 93.1755 189.595 93.3256 190.851 93.3937L191.301 96.9942L197.304 96.0957L195.806 90.6918L196.43 86.0368C196.43 86.0368 197.478 84.0899 196.43 80.9387C195.382 77.7875 193.129 77.6378 191.625 77.6378C189.861 77.526 188.103 77.3239 186.359 77.0325Z" fill="white" stroke="#263238" stroke-width="1.04742" stroke-linecap="round" stroke-linejoin="round"/>
<path d="M189.061 74.786C189.061 74.786 183.807 74.63 183.956 75.9841C184.106 77.3382 189.51 79.1041 189.51 79.1041C189.51 79.1041 187.707 80.3022 188.605 81.5065C189.504 82.7108 191.607 83.7591 191.607 83.7591C191.607 83.7591 190.983 86.3113 191.912 86.461C192.842 86.6108 193.41 85.2567 193.56 84.8074C193.709 84.3582 195.363 84.5079 195.812 85.706C196.066 86.3286 196.218 86.9881 196.262 87.6591C196.262 87.6591 198.065 82.2553 198.364 79.8529C198.664 77.4505 191.912 74.786 189.061 74.786Z" fill="#263238" stroke="#263238" stroke-width="1.04742" stroke-linecap="round" stroke-linejoin="round"/>
<path d="M192.386 86.5361C192.386 86.5361 194.202 82.5425 195.288 84.5081C196.374 86.4737 195.912 88.5204 194.845 88.7388C193.778 88.9572 192.886 89.1693 192.886 89.1693" fill="white"/>
<path d="M192.386 86.5361C192.386 86.5361 194.202 82.5425 195.288 84.5081C196.374 86.4737 195.912 88.5204 194.845 88.7388C193.778 88.9572 192.886 89.1693 192.886 89.1693" stroke="#263238" stroke-width="1.04742" stroke-linecap="round" stroke-linejoin="round"/>
<path d="M185.004 128.213C184.711 128.556 179.9 138.871 179.301 142.321C178.702 145.772 174.802 166.339 174.646 167.238C174.49 168.136 166.247 169.94 165.642 170.089C165.036 170.239 166.266 171.893 168.044 172.342C169.823 172.791 174.952 174.894 176.156 173.69C177.36 172.486 179.008 165.734 179.457 164.985C179.906 164.236 188.355 144.331 188.355 144.331C188.355 144.331 192.686 134.777 193.584 133.872C194.483 132.968 192.517 128.968 191.762 127.763C191.007 126.559 187.107 125.81 185.004 128.213Z" fill="#263238" stroke="#263238" stroke-width="1.04742" stroke-linecap="round" stroke-linejoin="round"/>
<path d="M184.106 128.344C184.106 128.344 186.209 138.403 187.257 142.003C188.238 145.027 189.714 147.868 191.625 150.409C192.83 152.062 198.683 166.633 198.683 166.633L199.581 168.885C199.581 168.885 199.282 169.784 197.634 170.982C195.987 172.18 191.326 174.133 192.53 174.589C193.734 175.044 198.533 175.038 200.786 174.888C202.725 174.751 204.543 173.894 205.884 172.486C206.788 171.431 204.386 168.43 204.386 167.831C204.386 167.232 199.132 148.924 198.832 148.019C198.533 147.114 197.029 140.668 197.029 140.668V133.336C197.029 133.336 197.784 131.988 197.784 128.968C197.784 125.948 195.531 125.361 195.531 125.361L183.22 126.566L184.106 128.344Z" fill="#263238" stroke="#263238" stroke-width="1.04742" stroke-linecap="round" stroke-linejoin="round"/>
<path d="M183.064 127.464C183.064 127.464 183.37 130.016 184.268 130.166C185.167 130.316 194.471 132.868 198.527 129.866C198.527 129.866 199.276 127.614 198.826 127.015C198.377 126.416 197.322 126.715 191.925 126.715C186.527 126.715 183.064 126.715 183.064 127.464Z" fill="#FF3939" stroke="#263238" stroke-width="1.04742" stroke-linecap="round" stroke-linejoin="round"/>
<path d="M196.861 93.843C196.861 93.843 191.307 94.5918 188.905 96.963C186.502 99.3342 184.406 103.721 183.357 107.771C182.309 111.82 181.554 126.684 183.052 127.433C184.549 128.182 197.16 128.937 199.276 128.057C201.391 127.177 199.126 120.101 199.126 117.399C199.126 114.697 201.528 105.543 201.079 100.445C200.63 95.3468 196.861 93.843 196.861 93.843Z" fill="#FF3939" stroke="#263238" stroke-width="1.04742" stroke-linecap="round" stroke-linejoin="round"/>
<path d="M176.824 109.443C176.755 103.265 174.234 97.9926 170.883 95.715V94.467L161.648 94.5606C156.45 94.6168 152.288 101.425 152.394 109.724C152.5 118.023 156.762 124.744 161.966 124.7L171.202 124.606V123.358C174.446 120.943 176.855 115.621 176.824 109.443Z" fill="#263238" stroke="#263238" stroke-width="1.04742" stroke-linecap="round" stroke-linejoin="round"/>
<path d="M180.967 109.399C180.899 102.91 178.396 97.3686 174.877 94.96V93.6309L170.921 93.6745C165.455 93.7307 161.105 100.863 161.199 109.605C161.293 118.347 165.792 125.386 171.258 125.33L175.214 125.286V123.963C178.652 121.48 181.036 115.864 180.967 109.399Z" fill="white" stroke="#263238" stroke-width="1.04742" stroke-linecap="round" stroke-linejoin="round"/>
<path d="M175.216 125.274C180.678 125.216 185.03 118.082 184.937 109.339C184.844 100.596 180.341 93.556 174.879 93.6142C169.417 93.6723 165.064 100.807 165.157 109.549C165.25 118.292 169.754 125.332 175.216 125.274Z" fill="#737373" stroke="#263238" stroke-width="1.04742" stroke-linecap="round" stroke-linejoin="round"/>
<path d="M182.665 109.087C182.708 113.225 180.643 116.607 178.053 116.638C175.464 116.669 173.33 113.324 173.286 109.15C173.242 104.975 175.308 101.662 177.897 101.599C180.487 101.537 182.621 104.944 182.665 109.087Z" fill="#263238" stroke="#263238" stroke-width="1.04742" stroke-linecap="round" stroke-linejoin="round"/>
<path d="M256.197 140.2C256.712 136.356 256.931 132.478 256.852 128.6C254.824 129.536 242.993 129.879 241.907 129.904C240.821 129.929 228.99 129.536 226.962 128.6C226.873 132.477 227.082 136.355 227.586 140.2C228.404 145.267 235.592 165.528 235.754 166.508C235.965 167.453 236.238 168.382 236.572 169.291C236.572 169.291 232.485 172.23 230.688 173.372C228.89 174.514 230.201 175.007 231.998 175.007C233.795 175.007 237.552 174.514 238.693 174.514C239.704 174.514 241.464 173.634 241.876 173.422C242.288 173.634 244.047 174.514 245.052 174.514C246.2 174.514 249.957 175.007 251.754 175.007C253.551 175.007 254.874 174.514 253.064 173.372C251.255 172.23 247.18 169.291 247.18 169.291C247.514 168.382 247.787 167.453 247.997 166.508C248.191 165.503 255.379 145.242 256.197 140.2Z" fill="#263238" stroke="#263238" stroke-width="1.04742" stroke-linecap="round" stroke-linejoin="round"/>
<path d="M239.436 96.8257C239.436 96.8257 233.115 98.8911 229.851 100.963C226.588 103.034 223.312 114.254 223.312 114.691C223.124 115.473 222.869 116.237 222.551 116.975C222.551 116.975 219.281 116.213 218.632 118.934C217.983 121.655 221.895 125.143 223.967 125.255C226.039 125.367 226.688 124.712 226.688 124.712C226.688 124.712 225.383 127.327 225.926 128.413C226.469 129.498 231.049 133.536 240.091 133.405C249.133 133.273 255.691 131.77 256.646 130.465C257.601 129.161 257.738 126.434 257.738 126.434C257.738 126.434 261.114 125.561 262.312 123.383C263.51 121.205 263.292 118.915 262.636 116.631C261.981 114.348 258.605 107.714 256.321 104.008C254.038 100.301 249.239 98.2359 246.961 97.5807C244.684 96.9255 240.959 96.8257 239.436 96.8257Z" fill="#FF3939" stroke="#263238" stroke-width="1.04742" stroke-linecap="round" stroke-linejoin="round"/>
<path d="M241.352 105.998C242.257 105.699 245.096 103.178 246.188 100.657C246.62 99.6919 246.924 98.6745 247.093 97.6306L246.949 97.587C244.665 96.9318 240.959 96.8257 239.461 96.8257C239.461 96.8257 238.138 97.2562 236.397 97.9239C236.403 99.2727 236.654 100.609 237.14 101.868C238.126 104.389 240.472 106.304 241.352 105.998Z" fill="white" stroke="#263238" stroke-width="1.04742" stroke-linecap="round" stroke-linejoin="round"/>
<path d="M251.741 111.09C251.741 111.09 254.356 125.037 257.32 126.472" stroke="#263238" stroke-width="1.04742" stroke-linecap="round" stroke-linejoin="round"/>
<path d="M226.688 124.712C226.688 124.712 229.958 112.401 230.176 111.203" stroke="#263238" stroke-width="1.04742" stroke-linecap="round" stroke-linejoin="round"/>
<path d="M255.966 117.393C255.966 117.393 254.156 117.798 254.156 119.109" stroke="#263238" stroke-width="1.04742" stroke-linecap="round" stroke-linejoin="round"/>
<path d="M225.221 117.593C225.221 117.593 227.237 118.903 227.037 120.918" stroke="#263238" stroke-width="1.04742" stroke-linecap="round" stroke-linejoin="round"/>
<path d="M238.725 174.52C239.736 174.52 241.495 173.64 241.907 173.428C242.319 173.64 244.079 174.52 245.083 174.52C246.231 174.52 249.988 175.013 251.785 175.013C253.582 175.013 254.905 174.52 253.095 173.378C251.529 172.386 248.247 170.04 247.411 169.441C245.483 171.2 241.67 170.764 241.67 170.764C240.898 170.647 240.133 170.485 239.38 170.277C238.238 169.946 236.603 169.297 236.603 169.297C236.603 169.297 232.516 172.236 230.719 173.378C228.922 174.52 230.232 175.013 232.029 175.013C233.826 175.013 237.583 174.52 238.725 174.52Z" fill="#FF3939" stroke="#263238" stroke-width="1.04742" stroke-linecap="round" stroke-linejoin="round"/>
<path d="M241.67 169.322V140.83" stroke="white" stroke-width="1.04742" stroke-linecap="round" stroke-linejoin="round"/>
<path d="M241.907 173.397L241.67 170.732V169.322" stroke="#263238" stroke-width="1.04742" stroke-linecap="round" stroke-linejoin="round"/>
<path d="M239.38 139.851H244.116" stroke="white" stroke-width="1.04742" stroke-linecap="round" stroke-linejoin="round"/>
<path d="M233.19 80.477C233.19 80.477 229.795 82.5112 230.301 84.2959C230.806 86.0805 232.341 86.4237 232.004 87.4159C231.667 88.408 230.488 89.032 231.83 89.656C232.594 89.9982 233.393 90.2556 234.213 90.4235C234.213 90.4235 235.461 94.7541 237.608 95.5154C239.754 96.2767 243.473 95.7712 246.107 95.4343C246.996 95.3472 247.838 94.9913 248.52 94.4139C249.203 93.8364 249.693 93.0649 249.926 92.2019C250.181 91.2722 248.821 92.3767 248.141 91.3533C247.461 90.3299 248.484 87.7029 249.245 85.4066C250.007 83.1103 247.717 78.7797 244.746 77.3383C241.776 75.8968 236.104 76.6519 233.19 80.477Z" fill="#263238" stroke="#263238" stroke-width="1.04742" stroke-linecap="round" stroke-linejoin="round"/>
<path d="M238.893 95.272C238.461 96.6963 238.169 98.1591 238.02 99.64C237.907 101.512 239.436 103.565 241.071 103.453C242.706 103.34 244.116 100.077 244.334 98.4606C244.553 96.8445 243.792 92.4702 243.792 92.4702C243.792 92.4702 241.296 92.5825 240.303 93.4499C239.721 93.9611 239.242 94.5798 238.893 95.272Z" fill="white" stroke="#263238" stroke-width="1.04742" stroke-linecap="round" stroke-linejoin="round"/>
<path d="M236.678 82.8545C236.678 82.8545 236.759 85.4004 239.311 87.8465C240.845 89.33 242.665 90.487 244.659 91.2473C244.614 91.8049 244.471 92.3501 244.235 92.8572C244.124 93.0692 243.951 93.2425 243.739 93.3539C243.527 93.4654 243.287 93.5098 243.049 93.4812H242.194C242.194 93.4812 240.946 96.4078 239.436 96.8321C237.926 97.2564 234.213 96.9631 233.701 93.2254C233.19 89.4876 233.109 86.43 233.533 85.6625C233.957 84.895 236.678 82.8545 236.678 82.8545Z" fill="white" stroke="#263238" stroke-width="1.04742" stroke-linecap="round" stroke-linejoin="round"/>
<path d="M263.379 115.739C263.766 114.959 264.001 114.112 264.072 113.243C264.072 112.108 261.962 110.479 261.576 110.073C261.189 109.668 260.802 109.711 260.721 110.279C260.72 110.598 260.784 110.914 260.909 111.207C261.035 111.5 261.219 111.764 261.451 111.983C261.767 112.232 261.996 112.575 262.106 112.962C262.143 113.243 261.407 114.622 261.775 115.515C262.143 116.407 263.179 116.675 263.379 115.739Z" fill="white" stroke="#263238" stroke-width="1.04742" stroke-linecap="round" stroke-linejoin="round"/>
<path d="M178.871 109.368C178.871 109.368 188.056 112.307 193.578 119.171C199.101 126.035 202.726 125.049 209.59 122.765C216.454 120.482 219.069 112.307 228.547 119.171C238.026 126.035 239.985 128.644 247.829 124.725C255.673 120.806 259.916 111.328 267.11 114.591C274.305 117.855 271.029 134.559 271.684 142.671C272.34 150.783 271.354 171.107 272.989 173.721C274.623 176.336 291.29 174.345 291.29 174.345" stroke="#263238" stroke-width="3.14226" stroke-linecap="round" stroke-linejoin="round"/>
<path d="M196.074 98.4607C196.074 98.4607 194.246 95.478 191.55 96.258C188.699 97.0817 187.226 101.156 186.558 103.696C185.891 106.236 185.441 108.981 184.218 111.346C184.218 111.346 178.814 111.253 175.8 110.379C173.501 109.662 171.239 108.829 169.024 107.883C169.024 107.883 167.957 106.392 167.202 106.098C166.447 105.805 164.487 105.231 164.344 105.68C164.2 106.13 166.615 107.609 166.615 107.609C166.615 107.609 162.122 108.233 161.673 108.713C161.224 109.194 164.849 110.629 164.849 110.629C164.849 110.629 166.203 111.066 169.498 110.279C169.498 110.279 181.585 117.954 183.994 118.834C186.402 119.714 187.738 119.995 189.379 116.825C191.02 113.655 196.467 105.793 197.335 102.629" fill="#FF3939"/>
<path d="M196.074 98.4607C196.074 98.4607 194.246 95.478 191.55 96.258C188.699 97.0817 187.226 101.156 186.558 103.696C185.891 106.236 185.441 108.981 184.218 111.346C184.218 111.346 178.814 111.253 175.8 110.379C173.501 109.662 171.239 108.829 169.024 107.883C169.024 107.883 167.957 106.392 167.202 106.098C166.447 105.805 164.487 105.231 164.344 105.68C164.2 106.13 166.615 107.609 166.615 107.609C166.615 107.609 162.122 108.233 161.673 108.713C161.224 109.194 164.849 110.629 164.849 110.629C164.849 110.629 166.203 111.066 169.498 110.279C169.498 110.279 181.585 117.954 183.994 118.834C186.402 119.714 187.738 119.995 189.379 116.825C191.02 113.655 196.467 105.793 197.335 102.629" stroke="#263238" stroke-width="1.04742" stroke-linecap="round" stroke-linejoin="round"/>
<path d="M172.163 109.156C170.397 108.494 169.043 107.908 169.043 107.908C169.043 107.908 167.976 106.417 167.221 106.123C166.465 105.83 164.506 105.256 164.363 105.705C164.219 106.154 166.634 107.633 166.634 107.633C166.634 107.633 162.141 108.257 161.692 108.738C161.243 109.218 164.868 110.653 164.868 110.653C164.868 110.653 166.222 111.09 169.517 110.304L171.208 111.371L172.163 109.156Z" fill="white" stroke="#263238" stroke-width="1.04742" stroke-linecap="round" stroke-linejoin="round"/>
<path d="M218.751 116.887C218.363 116.107 218.128 115.26 218.058 114.391C218.058 113.256 220.173 111.633 220.554 111.228C220.935 110.822 221.321 110.866 221.403 111.433C221.404 111.752 221.339 112.068 221.214 112.361C221.088 112.654 220.904 112.918 220.672 113.137C220.356 113.386 220.127 113.729 220.017 114.117C219.98 114.391 220.716 115.777 220.348 116.669C219.98 117.561 218.95 117.817 218.751 116.887Z" fill="white" stroke="#263238" stroke-width="1.04742" stroke-linecap="round" stroke-linejoin="round"/>
<path d="M220.204 113.462C220.204 113.462 218.463 116.675 219.474 117.83C220.485 118.984 221.465 115.234 221.652 114.198C221.839 113.162 220.847 112.12 220.204 113.462Z" fill="white" stroke="#263238" stroke-width="1.04742" stroke-linecap="round" stroke-linejoin="round"/>
<path d="M221.64 114.616C221.64 114.616 219.899 117.83 220.91 118.984C221.92 120.138 222.9 116.388 223.087 115.352C223.275 114.316 222.282 113.237 221.64 114.616Z" fill="white" stroke="#263238" stroke-width="1.04742" stroke-linecap="round" stroke-linejoin="round"/>
<path d="M223.218 114.884C223.218 114.884 221.477 118.098 222.488 119.252C223.499 120.407 224.479 116.656 224.666 115.621C224.853 114.585 223.861 113.536 223.218 114.884Z" fill="white" stroke="#263238" stroke-width="1.04742" stroke-linecap="round" stroke-linejoin="round"/>
<path d="M225.24 114.909C225.24 114.909 223.618 117.405 224.504 118.348C225.39 119.29 226.345 116.326 226.532 115.471C226.719 114.616 225.839 113.786 225.24 114.909Z" fill="white" stroke="#263238" stroke-width="1.04742" stroke-linecap="round" stroke-linejoin="round"/>
<path d="M262.218 113.586C262.218 113.586 263.959 116.8 262.948 117.954C261.938 119.109 260.958 115.352 260.771 114.317C260.583 113.281 261.576 112.239 262.218 113.586Z" fill="white" stroke="#263238" stroke-width="1.04742" stroke-linecap="round" stroke-linejoin="round"/>
<path d="M260.783 114.71C260.783 114.71 262.524 117.923 261.513 119.078C260.502 120.232 259.523 116.476 259.335 115.44C259.148 114.404 260.14 113.368 260.783 114.71Z" fill="white" stroke="#263238" stroke-width="1.04742" stroke-linecap="round" stroke-linejoin="round"/>
<path d="M259.192 115.009C259.192 115.009 260.933 118.223 259.922 119.377C258.911 120.531 257.932 116.781 257.751 115.739C257.57 114.697 258.568 113.661 259.192 115.009Z" fill="white" stroke="#263238" stroke-width="1.04742" stroke-linecap="round" stroke-linejoin="round"/>
<path d="M257.183 115.034C257.183 115.034 258.805 117.561 257.919 118.472C257.033 119.383 256.078 116.451 255.897 115.596C255.716 114.741 256.584 113.911 257.183 115.034Z" fill="white" stroke="#263238" stroke-width="1.04742" stroke-linecap="round" stroke-linejoin="round"/>
<path d="M42.4891 150.59V154.134C41.2591 155.478 40.3746 157.101 39.9119 158.864C39.1569 161.759 36.7919 174.22 37.4159 174.545C38.0399 174.869 43.9118 176.211 45.7838 175.93C47.9304 175.606 49.7587 175.718 48.6792 174.532C47.5996 173.347 41.9275 170.033 41.9275 170.033C41.9275 170.033 48.1675 161.01 49.5528 157.678C50.938 154.346 51.1627 149.192 51.1627 149.192L42.7886 148.874L42.4891 150.59Z" fill="white" stroke="#263238" stroke-width="1.04742" stroke-linecap="round" stroke-linejoin="round"/>
<path d="M45.7839 175.93C47.9305 175.606 49.7588 175.718 48.6793 174.532C47.5998 173.347 41.9276 170.033 41.9276 170.033L41.7154 171.319L37.6282 170.82C37.3287 172.904 37.1977 174.433 37.4161 174.564C38.0838 174.863 43.9119 176.211 45.7839 175.93Z" fill="#263238" stroke="#263238" stroke-width="1.04742" stroke-linecap="round" stroke-linejoin="round"/>
<path d="M63.0063 152.424L63.9735 154.146C63.5726 154.919 63.3367 155.767 63.2808 156.636C63.225 157.505 63.3503 158.376 63.649 159.194C64.6162 162.202 66.8751 173.266 66.8751 173.908C66.8751 174.551 68.2666 174.982 69.3711 174.982C70.4756 174.982 73.5332 175.194 73.9637 175.194C74.3943 175.194 77.508 175.73 78.5813 175.088C79.6546 174.445 77.2148 173.153 75.6048 172.405C73.9949 171.656 70.4506 169.721 70.4506 169.721C70.4506 169.721 71.3055 160.91 71.3055 157.042C71.3055 153.173 72.1666 151.887 70.9872 149.522C69.8079 147.158 62.3948 150.602 62.3948 150.602L63.0063 152.424Z" fill="white" stroke="#263238" stroke-width="1.04742" stroke-linecap="round" stroke-linejoin="round"/>
<path d="M75.5736 172.405C73.9637 171.65 70.4194 169.721 70.4194 169.721L69.9888 171.331L66.5381 171.955C66.744 173.029 66.875 173.765 66.875 173.915C66.875 174.539 68.2666 174.988 69.371 174.988C70.4755 174.988 73.5331 175.2 73.9637 175.2C74.3942 175.2 77.508 175.737 78.5813 175.094C79.6546 174.451 77.1835 173.153 75.5736 172.405Z" fill="#263238" stroke="#263238" stroke-width="1.04742" stroke-linecap="round" stroke-linejoin="round"/>
<path d="M57.2218 80.9199C56.3797 79.4809 55.4174 78.1157 54.3451 76.8389C52.8662 75.1729 48.2299 75.2665 46.1957 77.4629C44.1614 79.6594 44.8042 83.5781 45.5717 84.6888C46.3392 85.7996 47.8867 90.9913 47.8867 90.9913L48.2549 94.6978L56.8723 97.7554L55.1126 91.7338C55.1126 91.7338 58.451 91.1098 58.7256 90.0677C59.0002 89.0257 58.1702 85.525 58.1702 85.525C58.1702 85.525 59.281 84.7824 59.1874 84.1335C59.0938 83.4845 57.2218 80.9199 57.2218 80.9199Z" fill="white" stroke="#263238" stroke-width="1.04742" stroke-linecap="round" stroke-linejoin="round"/>
<path d="M47.3064 84.9137C47.3064 84.9137 48.7791 86.1617 49.584 84.7328C50.389 83.3038 51.0005 81.9061 51.0005 80.6955C51.0005 79.4849 47.9741 78.4803 49.9896 77.6691C52.0051 76.8579 53.4591 78.6613 54.3576 76.8517C55.2562 75.0421 54.4387 74.8486 49.5965 74.8486C44.7543 74.8486 42.3331 77.2697 43.3565 80.2961C44.175 82.5311 45.1876 84.6901 46.3829 86.7483L47.3064 84.9137Z" fill="#263238" stroke="#263238" stroke-width="1.04742" stroke-linecap="round" stroke-linejoin="round"/>
<path d="M57.4963 83.0604C57.4963 83.5183 57.3605 83.9659 57.1061 84.3466C56.8518 84.7273 56.4902 85.024 56.0672 85.1992C55.6442 85.3744 55.1787 85.4203 54.7296 85.331C54.2805 85.2416 53.868 85.0212 53.5443 84.6974C53.2205 84.3736 53 83.9611 52.9107 83.512C52.8214 83.063 52.8672 82.5975 53.0424 82.1745C53.2177 81.7515 53.5144 81.3899 53.8951 81.1355C54.2758 80.8811 54.7234 80.7454 55.1813 80.7454C55.7952 80.7454 56.3841 80.9893 56.8182 81.4234C57.2524 81.8576 57.4963 82.4464 57.4963 83.0604V83.0604Z" stroke="#263238" stroke-width="1.04742" stroke-linecap="round" stroke-linejoin="round"/>
<path d="M57.1594 81.0073C57.4288 80.897 57.717 80.8398 58.0081 80.8389C58.4901 80.8397 58.9583 81.0005 59.3391 81.296C59.72 81.5915 59.992 82.0051 60.1126 82.4718C60.2332 82.9385 60.1956 83.432 60.0056 83.875C59.8155 84.3181 59.4839 84.6855 59.0626 84.9198" stroke="#263238" stroke-width="1.04742" stroke-linecap="round" stroke-linejoin="round"/>
<path d="M52.8662 83.0603L47.3064 84.9136" stroke="#263238" stroke-width="1.04742" stroke-linecap="round" stroke-linejoin="round"/>
<path d="M48.904 86.118C48.904 86.118 47.7933 83.803 46.6826 84.246C45.5719 84.6891 46.1272 88.327 47.2379 88.6952C47.6112 88.7792 47.9991 88.7726 48.3693 88.676C48.7395 88.5794 49.0812 88.3955 49.3658 88.1398C49.3658 88.1398 50.2955 90.0867 51.4063 90.6358" fill="white"/>
<path d="M48.904 86.118C48.904 86.118 47.7933 83.803 46.6826 84.246C45.5719 84.6891 46.1272 88.327 47.2379 88.6952C47.6112 88.7792 47.9991 88.7726 48.3693 88.676C48.7395 88.5794 49.0812 88.3955 49.3658 88.1398C49.3658 88.1398 50.2955 90.0867 51.4063 90.6358" stroke="#263238" stroke-width="1.04742" stroke-linecap="round" stroke-linejoin="round"/>
<path d="M41.6156 127.72L40.923 136.593L38.8513 149.728C38.8513 149.728 43.6936 153.529 48.2113 153.529C52.7291 153.529 53.9708 152.954 53.9708 152.954L56.5043 139.476L59.0377 153.647C59.0377 153.647 64.0297 152.842 67.3369 152.031C69.6366 151.391 71.8161 150.379 73.7891 149.036L67.106 131.639L65.6584 122.666C65.6584 122.666 58.1704 123.358 53.6713 123.589C49.1723 123.82 43.1881 122.666 43.1881 122.666L41.6156 127.72Z" fill="#FF3939" stroke="#263238" stroke-width="1.04742" stroke-linecap="round" stroke-linejoin="round"/>
<path d="M46.3643 92.2644C46.3643 92.2644 56.9723 95.9647 60.2483 99.559C62.0579 101.556 64.0859 115.221 64.816 118.56C65.5461 121.898 66.819 128.544 66.819 128.544C66.819 128.544 60.3482 131.464 55.3437 131.57C50.3392 131.676 40.7358 129.38 40.7358 129.38C40.7358 129.38 41.8778 114.572 41.8778 107.69C41.8778 100.807 41.9838 96.3142 43.1258 94.1239C43.132 94.1426 45.0102 92.0522 46.3643 92.2644Z" fill="#263238" stroke="#263238" stroke-width="1.04742" stroke-linecap="round" stroke-linejoin="round"/>
<path d="M43.5749 130.453C43.5749 130.453 44.1489 140.131 43.5749 143.707C43.1717 146.014 42.4755 148.26 41.5032 150.39" stroke="#263238" stroke-width="1.04742" stroke-linecap="round" stroke-linejoin="round"/>
<path d="M43.8059 135.064C44.6723 134.767 45.4465 134.249 46.0526 133.562C46.6586 132.875 47.0757 132.043 47.2629 131.146" stroke="#263238" stroke-width="1.04742" stroke-linecap="round" stroke-linejoin="round"/>
<path d="M39.4253 147.856C39.4253 147.856 45.1911 152.811 54.1767 150.976" stroke="#263238" stroke-width="1.04742" stroke-linecap="round" stroke-linejoin="round"/>
<path d="M58.7881 150.733C58.7881 150.733 68.2355 149.697 72.3851 146.933" stroke="#263238" stroke-width="1.04742" stroke-linecap="round" stroke-linejoin="round"/>
<path d="M101.045 87.7839C101.045 87.7839 100.134 88.4578 96.958 90.7791C93.7819 93.1004 96.2841 96.6073 96.2841 96.6073C96.2841 96.6073 94.0128 96.9629 90.9801 100.152C87.9475 103.34 92.3342 108.813 96.4339 109.668C100.534 110.522 105.326 105.449 106.761 100.744C108.196 96.0394 106.299 88.9445 105.345 87.4781C104.39 86.0117 101.045 87.7839 101.045 87.7839Z" fill="#263238" stroke="#263238" stroke-width="1.04742" stroke-linecap="round" stroke-linejoin="round"/>
<path d="M113.076 87.16C113.076 87.16 114.655 84.7202 113.226 81.1821C111.797 77.644 107.529 76.0279 103.373 78.5925C101.988 79.4167 100.913 80.6751 100.316 82.1723C99.7196 83.6695 99.6337 85.3219 100.072 86.873C100.478 88.5079 102.524 91.0226 102.955 91.06C103.385 91.0975 107.123 92.4578 109.675 91.266C112.227 90.0741 113.076 87.16 113.076 87.16Z" fill="#263238" stroke="#263238" stroke-width="1.04742" stroke-linecap="round" stroke-linejoin="round"/>
<path d="M94.7117 169.528C94.7117 169.528 97.6757 174.139 102.824 174.926C107.972 175.712 103.342 171.094 102.474 170.395C101.607 169.697 95.4105 168.186 94.7117 169.528Z" fill="#737373" stroke="#263238" stroke-width="1.04742" stroke-linecap="round" stroke-linejoin="round"/>
<path d="M122.137 170.713C122.137 170.713 127.796 172.105 127.36 173.328C126.923 174.551 122.311 174.457 119.616 173.758C116.92 173.06 114.387 172.018 114.736 170.888C115.085 169.759 122.137 170.713 122.137 170.713Z" fill="#737373" stroke="#263238" stroke-width="1.04742" stroke-linecap="round" stroke-linejoin="round"/>
<path d="M106.044 96.3328C106.044 96.3328 98.4682 97.4435 97.083 100.12C95.6977 102.797 97.6508 117.387 97.6508 117.387C97.6508 117.387 94.4185 124.513 94.3748 129.105C94.3311 133.698 96.3779 141.779 96.2156 143.794C96.0534 145.81 93.9817 168.754 93.9817 169.378C93.9817 170.002 98.3497 171.4 104.646 172.149C110.942 172.898 122.985 170.657 122.985 170.657C122.985 170.657 122.748 157.117 123.378 149.042C124.009 140.967 123.11 133.71 121.506 130.696C119.903 127.683 112.433 116.831 112.433 116.831C112.433 116.831 116.053 110.267 116.277 107.396C116.502 104.526 115.335 103.028 112.602 99.7273C111.79 98.7536 110.791 97.9518 109.665 97.3689C108.539 96.786 107.308 96.4337 106.044 96.3328Z" fill="#FF3939" stroke="#263238" stroke-width="1.04742" stroke-linecap="round" stroke-linejoin="round"/>
<path d="M112.452 116.837C112.452 116.837 116.071 110.273 116.296 107.403C116.521 104.532 115.354 103.035 112.621 99.7336C112.489 99.5714 112.352 99.4278 112.215 99.2781L112.115 99.3717C109.307 103.958 100.022 111.796 97.2576 114.079C97.4698 116.032 97.6508 117.387 97.6508 117.387C97.6508 117.387 94.4184 124.513 94.3748 129.105C94.4265 131.198 94.6351 133.284 94.9988 135.345C101.557 131.601 110.33 124.594 115.079 120.688C113.594 118.491 112.452 116.837 112.452 116.837Z" fill="#737373" stroke="#263238" stroke-width="1.04742" stroke-linecap="round" stroke-linejoin="round"/>
<path d="M104.646 90.9788C104.855 92.6913 104.97 94.4141 104.989 96.1392C104.889 97.4184 105.301 100.339 107.485 101.256C109.669 102.173 111.042 100.894 111.036 99.6087C110.956 98.547 110.747 97.4992 110.412 96.4887L110.474 92.9631C110.474 92.9631 106.705 90.6044 104.646 90.9788Z" fill="white" stroke="#263238" stroke-width="1.04742" stroke-linecap="round" stroke-linejoin="round"/>
<path d="M102.687 88.6888C102.687 88.6888 101.083 87.2786 101.033 89.3128C100.983 91.347 102.855 92.021 103.267 92.1582C103.615 92.2055 103.967 92.1185 104.253 91.9149C104.253 91.9149 107.161 94.4109 109.494 94.5731C111.828 94.7354 112.777 93.6558 113.326 89.4189C113.875 85.1819 109.501 80.8826 109.501 80.8826C109.501 80.8826 105.757 87.784 102.687 88.6888Z" fill="white" stroke="#263238" stroke-width="1.04742" stroke-linecap="round" stroke-linejoin="round"/>
<path d="M66.9999 128.456C66.9786 127.733 67.0973 127.013 67.3493 126.335C67.7362 125.486 69.8453 124.999 70.3133 124.831C70.7813 124.662 71.0184 124.831 70.8811 125.28C70.772 125.518 70.6156 125.732 70.4214 125.908C70.2273 126.084 69.9994 126.218 69.7517 126.304C69.429 126.381 69.1387 126.558 68.9218 126.809C68.8032 127.009 68.8781 128.288 68.2978 128.831C67.7175 129.374 66.8064 129.224 66.9999 128.456Z" fill="white" stroke="#263238" stroke-width="1.04742" stroke-linecap="round" stroke-linejoin="round"/>
<path d="M114.823 109.693C114.823 109.693 107.335 108.713 104.034 113.942C100.733 119.171 94.562 137.467 83.1241 140.412C71.6861 143.357 68.4164 119.82 61.5524 120.475C55.0129 121.099 50.4452 120.475 46.5202 127.664C44.4236 131.514 33.9404 173.553 28.9858 173.983C13.2049 175.362 3.04614 174.464 3.04614 174.464" stroke="#263238" stroke-width="3.14226" stroke-linecap="round" stroke-linejoin="round"/>
<path d="M46.8508 92.5638C46.8508 92.5638 45.1223 91.8712 42.8135 93.2502C40.5047 94.6293 34.2897 109.73 34.7515 111.346C35.2132 112.962 41.7777 115.958 45.4655 116.993C49.1534 118.029 55.8364 119.302 55.8364 119.302C55.8364 119.302 57.9081 122.528 58.6007 122.641C59.6081 122.627 60.6116 122.512 61.5959 122.297C61.5959 122.297 62.8439 123.333 63.3244 122.179C63.8049 121.024 62.8627 119.533 61.8268 118.379C60.791 117.224 56.4105 116.65 56.4105 116.65L44.5358 108.463L49.5278 99.2469" fill="#263238"/>
<path d="M46.8508 92.5638C46.8508 92.5638 45.1223 91.8712 42.8135 93.2502C40.5047 94.6293 34.2897 109.73 34.7515 111.346C35.2132 112.962 41.7777 115.958 45.4655 116.993C49.1534 118.029 55.8364 119.302 55.8364 119.302C55.8364 119.302 57.9081 122.528 58.6007 122.641C59.6081 122.627 60.6116 122.512 61.5959 122.297C61.5959 122.297 62.8439 123.333 63.3244 122.179C63.8049 121.024 62.8627 119.533 61.8268 118.379C60.791 117.224 56.4105 116.65 56.4105 116.65L44.5358 108.463L49.5278 99.2469" stroke="#263238" stroke-width="1.04742" stroke-linecap="round" stroke-linejoin="round"/>
<path d="M58.6009 122.634C59.6083 122.621 60.6117 122.506 61.5961 122.291C61.5961 122.291 62.8441 123.327 63.3246 122.173C63.8051 121.018 62.8628 119.527 61.827 118.372C60.7911 117.218 56.4107 116.644 56.4107 116.644L44.5359 108.463L46.3081 105.162C41.8715 102.398 38.9262 102.604 37.335 103.159C35.7438 106.978 34.5332 110.597 34.7454 111.34C35.2071 112.956 41.7716 115.951 45.4595 116.987C49.1473 118.023 55.8303 119.296 55.8303 119.296C55.8303 119.296 57.9083 122.522 58.6009 122.634Z" fill="white" stroke="#263238" stroke-width="1.04742" stroke-linecap="round" stroke-linejoin="round"/>
<path d="M132.826 109.948C132.32 104.501 129.706 100.027 126.586 98.2484L126.486 97.1377L118.336 97.8927C113.75 98.317 110.586 104.613 111.267 111.951C111.947 119.29 116.215 124.887 120.801 124.431L128.951 123.676L128.845 122.566C131.59 120.269 133.331 115.396 132.826 109.948Z" fill="#263238" stroke="#263238" stroke-width="1.04742" stroke-linecap="round" stroke-linejoin="round"/>
<path d="M136.513 109.624C135.983 103.902 133.393 99.1907 130.092 97.3187L129.98 96.1519L126.492 96.4763C121.675 96.9256 118.349 103.534 119.06 111.246C119.772 118.959 124.264 124.843 129.082 124.394L132.57 124.07L132.464 122.903C135.347 120.444 137.044 115.327 136.513 109.624Z" fill="white" stroke="#263238" stroke-width="1.04742" stroke-linecap="round" stroke-linejoin="round"/>
<path d="M132.573 124.055C137.391 123.608 140.717 116.995 140.001 109.284C139.286 101.574 134.801 95.6852 129.983 96.1322C125.165 96.5791 121.839 103.192 122.554 110.903C123.27 118.613 127.755 124.502 132.573 124.055Z" fill="white" stroke="#263238" stroke-width="1.04742" stroke-linecap="round" stroke-linejoin="round"/>
<path d="M143.752 104.775L130.217 106.023C130.028 106.042 129.836 106.022 129.654 105.966C129.472 105.91 129.302 105.818 129.156 105.696C129.009 105.574 128.888 105.425 128.799 105.256C128.71 105.088 128.656 104.903 128.639 104.713C128.621 104.523 128.64 104.332 128.696 104.15C128.752 103.967 128.844 103.798 128.966 103.652C129.088 103.505 129.237 103.384 129.406 103.295C129.575 103.206 129.759 103.152 129.949 103.134L143.484 101.886C143.673 101.868 143.865 101.888 144.047 101.944C144.229 102 144.398 102.092 144.545 102.214C144.692 102.335 144.813 102.485 144.902 102.654C144.99 102.822 145.045 103.007 145.062 103.197C145.08 103.387 145.061 103.578 145.005 103.76C144.948 103.942 144.857 104.112 144.735 104.258C144.613 104.405 144.464 104.526 144.295 104.615C144.126 104.704 143.942 104.758 143.752 104.775Z" fill="#737373" stroke="#263238" stroke-width="1.04742" stroke-linecap="round" stroke-linejoin="round"/>
<path d="M144.757 115.502L131.222 116.75C131.032 116.768 130.841 116.748 130.659 116.692C130.476 116.636 130.307 116.544 130.16 116.423C130.014 116.301 129.892 116.151 129.804 115.983C129.715 115.814 129.66 115.629 129.643 115.44C129.625 115.25 129.645 115.058 129.701 114.876C129.757 114.694 129.849 114.525 129.97 114.378C130.092 114.231 130.242 114.11 130.41 114.021C130.579 113.933 130.764 113.878 130.954 113.861L144.488 112.613C144.871 112.58 145.251 112.699 145.547 112.944C145.842 113.189 146.029 113.541 146.067 113.923C146.085 114.113 146.065 114.305 146.009 114.487C145.953 114.669 145.861 114.838 145.74 114.985C145.618 115.132 145.468 115.253 145.3 115.341C145.131 115.43 144.946 115.485 144.757 115.502Z" fill="#737373" stroke="#263238" stroke-width="1.04742" stroke-linecap="round" stroke-linejoin="round"/>
<path d="M101.364 97.3499C101.364 97.3499 98.1063 97.9739 96.565 99.8459C95.0238 101.718 91.8601 116.163 92.5902 117.823C93.3202 119.483 105.02 121.567 108.633 121.867C111.538 121.982 114.448 121.852 117.332 121.48C117.332 121.48 120.452 121.399 121.307 121.255C122.162 121.112 123.734 120.269 123.759 119.951C123.784 119.633 123.628 118.872 122.461 118.778C121.294 118.684 118.792 117.848 118.474 117.823C119.223 117.626 119.984 117.472 120.751 117.362C120.751 117.362 120.913 116.738 119.628 116.738C118.343 116.738 117.176 116.65 116.689 117.362C116.341 117.916 116.044 118.501 115.803 119.109C115.803 119.109 108.596 119.614 104.683 117.705C100.771 115.795 99.5353 115.159 99.5353 115.159L102.343 103.927" fill="#FF3939"/>
<path d="M101.364 97.3499C101.364 97.3499 98.1063 97.9739 96.565 99.8459C95.0238 101.718 91.8601 116.163 92.5902 117.823C93.3202 119.483 105.02 121.567 108.633 121.867C111.538 121.982 114.448 121.852 117.332 121.48C117.332 121.48 120.452 121.399 121.307 121.255C122.162 121.112 123.734 120.269 123.759 119.951C123.784 119.633 123.628 118.872 122.461 118.778C121.294 118.684 118.792 117.848 118.474 117.823C119.223 117.626 119.984 117.472 120.751 117.362C120.751 117.362 120.914 116.738 119.628 116.738C118.343 116.738 117.176 116.65 116.689 117.362C116.341 117.916 116.044 118.501 115.803 119.109C115.803 119.109 108.596 119.614 104.683 117.705C100.771 115.795 99.5353 115.159 99.5353 115.159L102.343 103.927" stroke="#263238" stroke-width="1.04742" stroke-linecap="round" stroke-linejoin="round"/>
<path d="M121.288 121.274C122.155 121.13 123.715 120.288 123.74 119.97C123.765 119.652 123.609 118.89 122.442 118.797C121.275 118.703 118.773 117.867 118.455 117.842C119.205 117.645 119.965 117.491 120.732 117.38C120.732 117.38 120.895 116.756 119.609 116.756C118.324 116.756 117.157 116.669 116.67 117.38C116.322 117.934 116.026 118.519 115.784 119.127C115.784 119.127 108.577 119.633 104.664 117.723C100.752 115.814 99.5164 115.177 99.5164 115.177L101.226 108.313C99.0005 107.398 96.6518 106.815 94.2561 106.585C93.0892 111.29 92.1345 116.831 92.5713 117.817C93.2951 119.477 105.001 121.561 108.614 121.86C111.52 121.975 114.429 121.846 117.313 121.474C117.313 121.474 120.439 121.417 121.288 121.274Z" fill="white" stroke="#263238" stroke-width="1.04742" stroke-linecap="round" stroke-linejoin="round"/>
<path d="M68.5849 127.246C68.5849 127.246 66.1762 129.049 66.5444 130.241C66.9125 131.433 68.9218 128.993 69.421 128.275C69.9202 127.558 69.5271 126.472 68.5849 127.246Z" fill="white" stroke="#263238" stroke-width="1.04742" stroke-linecap="round" stroke-linejoin="round"/>
<path d="M69.0591 128.862C69.0591 128.862 66.6567 130.665 67.0186 131.857C67.3805 133.049 69.4023 130.609 69.8952 129.892C70.3882 129.174 70.0013 128.076 69.0591 128.862Z" fill="white" stroke="#263238" stroke-width="1.04742" stroke-linecap="round" stroke-linejoin="round"/>
<path d="M70.201 129.91C70.201 129.91 67.7986 131.713 68.1668 132.905C68.5349 134.097 70.5442 131.657 71.0434 130.94C71.5426 130.222 71.1495 129.124 70.201 129.91Z" fill="white" stroke="#263238" stroke-width="1.04742" stroke-linecap="round" stroke-linejoin="round"/>
<path d="M71.1433 130.759C71.1433 130.759 69.0654 132.094 69.4148 133.08C69.7643 134.066 71.4803 132.2 71.9108 131.626C72.3414 131.052 71.992 130.128 71.1433 130.759Z" fill="white" stroke="#263238" stroke-width="1.04742" stroke-linecap="round" stroke-linejoin="round"/>
</svg>
