<svg preserveAspectRatio="none" fill="none" xmlns="http://www.w3.org/2000/svg" viewBox="20 24 335 159">
  <rect x="20" y="24" width="335" height="159" rx="18" fill="#0D3F67"/>
  <path d="M46.4805 122.797L49.5874 116.07H52.9507L48.0493 125.586V131H44.9219V125.586L40.0205 116.07H43.394L46.4805 122.797ZM52.9814 125.35C52.9814 124.25 53.1934 123.269 53.6172 122.407C54.041 121.546 54.6494 120.879 55.4424 120.408C56.2422 119.936 57.1685 119.7 58.2212 119.7C59.7183 119.7 60.9385 120.158 61.8818 121.074C62.832 121.99 63.3618 123.234 63.4712 124.807L63.4917 125.565C63.4917 127.268 63.0166 128.635 62.0664 129.667C61.1162 130.692 59.8413 131.205 58.2417 131.205C56.6421 131.205 55.3638 130.692 54.4067 129.667C53.4565 128.642 52.9814 127.247 52.9814 125.483V125.35ZM55.9448 125.565C55.9448 126.618 56.1431 127.425 56.5396 127.985C56.936 128.539 57.5034 128.816 58.2417 128.816C58.9595 128.816 59.52 128.542 59.9233 127.996C60.3267 127.442 60.5283 126.56 60.5283 125.35C60.5283 124.318 60.3267 123.518 59.9233 122.951C59.52 122.383 58.9526 122.1 58.2212 122.1C57.4966 122.1 56.936 122.383 56.5396 122.951C56.1431 123.511 55.9448 124.383 55.9448 125.565ZM71.9614 129.872C71.23 130.761 70.2183 131.205 68.9263 131.205C67.7368 131.205 66.8276 130.863 66.1987 130.18C65.5767 129.496 65.2588 128.495 65.2451 127.175V119.905H68.2085V127.073C68.2085 128.228 68.7349 128.806 69.7876 128.806C70.7925 128.806 71.4829 128.457 71.8589 127.76V119.905H74.8325V131H72.0435L71.9614 129.872ZM83.3022 122.684C82.8989 122.629 82.5435 122.602 82.2358 122.602C81.1147 122.602 80.3799 122.981 80.0312 123.74V131H77.0679V119.905H79.8672L79.9492 121.228C80.5439 120.209 81.3677 119.7 82.4204 119.7C82.7485 119.7 83.0562 119.745 83.3433 119.833L83.3022 122.684ZM100.785 118.562H96.2119V131H93.1357V118.562H88.624V116.07H100.785V118.562ZM107.061 131C106.924 130.733 106.825 130.402 106.763 130.005C106.045 130.805 105.112 131.205 103.964 131.205C102.877 131.205 101.975 130.891 101.257 130.262C100.546 129.633 100.19 128.84 100.19 127.883C100.19 126.707 100.625 125.805 101.493 125.176C102.368 124.547 103.629 124.229 105.276 124.222H106.64V123.586C106.64 123.074 106.507 122.664 106.24 122.356C105.98 122.048 105.567 121.895 105 121.895C104.5 121.895 104.107 122.014 103.82 122.253C103.54 122.493 103.4 122.821 103.4 123.238H100.437C100.437 122.595 100.635 122 101.031 121.454C101.428 120.907 101.988 120.479 102.713 120.172C103.438 119.857 104.251 119.7 105.153 119.7C106.521 119.7 107.604 120.045 108.404 120.736C109.21 121.419 109.614 122.383 109.614 123.627V128.437C109.621 129.489 109.768 130.286 110.055 130.826V131H107.061ZM104.61 128.939C105.047 128.939 105.451 128.843 105.82 128.652C106.189 128.454 106.462 128.19 106.64 127.862V125.955H105.533C104.049 125.955 103.26 126.468 103.164 127.493L103.154 127.667C103.154 128.037 103.284 128.341 103.543 128.58C103.803 128.819 104.159 128.939 104.61 128.939ZM118.125 122.684C117.721 122.629 117.366 122.602 117.058 122.602C115.937 122.602 115.202 122.981 114.854 123.74V131H111.89V119.905H114.689L114.771 121.228C115.366 120.209 116.19 119.7 117.243 119.7C117.571 119.7 117.878 119.745 118.166 119.833L118.125 122.684ZM118.924 125.371C118.924 123.668 119.328 122.298 120.134 121.259C120.948 120.22 122.042 119.7 123.416 119.7C124.632 119.7 125.579 120.117 126.256 120.951L126.379 119.905H129.065V130.631C129.065 131.602 128.843 132.446 128.399 133.164C127.961 133.881 127.343 134.428 126.543 134.804C125.743 135.18 124.807 135.368 123.733 135.368C122.92 135.368 122.127 135.204 121.354 134.876C120.582 134.555 119.998 134.138 119.601 133.625L120.914 131.82C121.652 132.647 122.547 133.061 123.6 133.061C124.386 133.061 124.998 132.849 125.436 132.425C125.873 132.008 126.092 131.414 126.092 130.641V130.046C125.408 130.819 124.509 131.205 123.395 131.205C122.062 131.205 120.982 130.686 120.155 129.646C119.334 128.601 118.924 127.216 118.924 125.494V125.371ZM121.888 125.586C121.888 126.591 122.089 127.38 122.493 127.955C122.896 128.522 123.45 128.806 124.154 128.806C125.056 128.806 125.702 128.467 126.092 127.791V123.125C125.695 122.448 125.056 122.11 124.174 122.11C123.463 122.11 122.903 122.4 122.493 122.981C122.089 123.562 121.888 124.431 121.888 125.586ZM136.458 131.205C134.832 131.205 133.505 130.706 132.48 129.708C131.461 128.71 130.952 127.38 130.952 125.719V125.432C130.952 124.318 131.167 123.323 131.598 122.448C132.029 121.566 132.637 120.89 133.423 120.418C134.216 119.939 135.119 119.7 136.13 119.7C137.648 119.7 138.841 120.179 139.709 121.136C140.584 122.093 141.021 123.45 141.021 125.207V126.417H133.957C134.052 127.141 134.339 127.722 134.818 128.16C135.303 128.597 135.915 128.816 136.653 128.816C137.795 128.816 138.687 128.402 139.33 127.575L140.786 129.206C140.341 129.834 139.74 130.327 138.981 130.682C138.222 131.031 137.381 131.205 136.458 131.205ZM136.12 122.1C135.532 122.1 135.054 122.298 134.685 122.694C134.322 123.091 134.09 123.658 133.987 124.396H138.109V124.161C138.096 123.504 137.918 122.999 137.576 122.643C137.234 122.281 136.749 122.1 136.12 122.1ZM146.261 117.178V119.905H148.158V122.079H146.261V127.616C146.261 128.026 146.34 128.32 146.497 128.498C146.654 128.676 146.955 128.765 147.399 128.765C147.728 128.765 148.018 128.741 148.271 128.693V130.938C147.69 131.116 147.092 131.205 146.477 131.205C144.398 131.205 143.339 130.156 143.298 128.057V122.079H141.678V119.905H143.298V117.178H146.261ZM149.953 129.544C149.953 129.072 150.11 128.689 150.424 128.396C150.746 128.102 151.146 127.955 151.624 127.955C152.109 127.955 152.509 128.102 152.824 128.396C153.145 128.689 153.306 129.072 153.306 129.544C153.306 130.009 153.148 130.388 152.834 130.682C152.52 130.969 152.116 131.113 151.624 131.113C151.139 131.113 150.739 130.969 150.424 130.682C150.11 130.388 149.953 130.009 149.953 129.544ZM149.953 121.146C149.953 120.674 150.11 120.292 150.424 119.998C150.746 119.704 151.146 119.557 151.624 119.557C152.109 119.557 152.509 119.704 152.824 119.998C153.145 120.292 153.306 120.674 153.306 121.146C153.306 121.611 153.148 121.99 152.834 122.284C152.52 122.571 152.116 122.715 151.624 122.715C151.139 122.715 150.739 122.571 150.424 122.284C150.11 121.99 149.953 121.611 149.953 121.146ZM170.994 117.731L165.221 131H162.093L167.876 118.47H160.453V116.07H170.994V117.731ZM182.95 124.827C182.95 126.892 182.522 128.471 181.668 129.564C180.813 130.658 179.562 131.205 177.915 131.205C176.288 131.205 175.044 130.668 174.183 129.595C173.321 128.522 172.88 126.984 172.86 124.981V122.233C172.86 120.148 173.291 118.565 174.152 117.485C175.02 116.405 176.268 115.865 177.895 115.865C179.521 115.865 180.766 116.402 181.627 117.475C182.488 118.542 182.929 120.076 182.95 122.079V124.827ZM179.986 121.812C179.986 120.575 179.815 119.676 179.474 119.116C179.139 118.548 178.612 118.265 177.895 118.265C177.197 118.265 176.681 118.535 176.346 119.075C176.018 119.608 175.844 120.445 175.823 121.587V125.217C175.823 126.434 175.987 127.339 176.315 127.934C176.65 128.522 177.184 128.816 177.915 128.816C178.64 128.816 179.163 128.532 179.484 127.965C179.805 127.397 179.973 126.529 179.986 125.36V121.812ZM189.112 126.55L188.046 127.616V131H185.083V115.25H188.046V123.976L188.62 123.238L191.46 119.905H195.019L191.009 124.53L195.367 131H191.963L189.112 126.55ZM195.665 125.371C195.665 123.668 196.068 122.298 196.875 121.259C197.688 120.22 198.782 119.7 200.156 119.7C201.373 119.7 202.319 120.117 202.996 120.951L203.119 119.905H205.806V130.631C205.806 131.602 205.583 132.446 205.139 133.164C204.702 133.881 204.083 134.428 203.283 134.804C202.483 135.18 201.547 135.368 200.474 135.368C199.66 135.368 198.867 135.204 198.095 134.876C197.322 134.555 196.738 134.138 196.341 133.625L197.654 131.82C198.392 132.647 199.288 133.061 200.34 133.061C201.126 133.061 201.738 132.849 202.176 132.425C202.613 132.008 202.832 131.414 202.832 130.641V130.046C202.148 130.819 201.25 131.205 200.135 131.205C198.802 131.205 197.722 130.686 196.895 129.646C196.075 128.601 195.665 127.216 195.665 125.494V125.371ZM198.628 125.586C198.628 126.591 198.83 127.38 199.233 127.955C199.636 128.522 200.19 128.806 200.894 128.806C201.796 128.806 202.442 128.467 202.832 127.791V123.125C202.436 122.448 201.796 122.11 200.915 122.11C200.204 122.11 199.643 122.4 199.233 122.981C198.83 123.562 198.628 124.431 198.628 125.586Z" fill="white"/>
  <path d="M85.7568 152.852C85.7018 153.499 85.4881 154.075 85.1157 154.578C84.7476 155.082 84.2609 155.469 83.6558 155.74C83.0549 156.011 82.4032 156.14 81.7007 156.127C80.7358 156.106 79.9762 155.795 79.4219 155.194C78.8675 154.593 78.5649 153.778 78.5142 152.75C78.4761 152.064 78.5501 151.318 78.7363 150.509C78.9268 149.701 79.2336 148.999 79.6567 148.402C80.0841 147.801 80.5856 147.352 81.1611 147.056C81.7409 146.756 82.3735 146.612 83.0591 146.625C84.0662 146.641 84.8618 146.944 85.4458 147.532C86.034 148.12 86.3535 148.931 86.4043 149.963L84.2397 149.957C84.2482 149.394 84.1466 148.992 83.9351 148.751C83.7235 148.51 83.3892 148.381 82.9321 148.364C81.7896 148.326 81.0934 149.214 80.8438 151.03C80.7295 151.851 80.6724 152.437 80.6724 152.788C80.6512 153.829 81.0363 154.364 81.8276 154.394C82.3397 154.411 82.748 154.286 83.0527 154.02C83.3574 153.749 83.5521 153.368 83.6367 152.877L85.7568 152.852ZM90.5049 155.251C89.9928 155.856 89.375 156.15 88.6514 156.133C87.9785 156.125 87.4707 155.89 87.1279 155.429C86.7894 154.967 86.6582 154.35 86.7344 153.575L87.4771 149.132H89.5654L88.8101 153.601C88.7974 153.723 88.7974 153.835 88.8101 153.937C88.8397 154.284 89.0449 154.464 89.4258 154.477C89.8659 154.493 90.2404 154.32 90.5493 153.956L91.3999 149.132H93.501L92.3076 156H90.3652L90.5049 155.251ZM98.3887 151.068C98.1644 151.034 97.9486 151.013 97.7412 151.004C97.1149 150.987 96.6367 151.203 96.3066 151.652L95.5322 156H93.4438L94.6372 149.132L96.5859 149.125L96.4272 150.027C96.8758 149.333 97.4048 148.986 98.0142 148.986C98.1877 148.986 98.4035 149.015 98.6616 149.075L98.3887 151.068ZM103.238 151.068C103.014 151.034 102.798 151.013 102.591 151.004C101.965 150.987 101.486 151.203 101.156 151.652L100.382 156H98.2935L99.4868 149.132L101.436 149.125L101.277 150.027C101.725 149.333 102.254 148.986 102.864 148.986C103.037 148.986 103.253 149.015 103.511 149.075L103.238 151.068ZM106.418 156.127C105.805 156.123 105.257 155.979 104.774 155.695C104.296 155.408 103.934 155.01 103.689 154.502C103.444 153.99 103.346 153.427 103.397 152.813L103.416 152.636C103.53 151.506 103.922 150.613 104.59 149.957C105.263 149.297 106.086 148.979 107.06 149.005C107.648 149.013 108.151 149.164 108.57 149.456C108.989 149.743 109.296 150.143 109.491 150.655C109.685 151.163 109.749 151.734 109.681 152.369L109.561 153.239H105.473C105.481 153.598 105.583 153.89 105.777 154.115C105.972 154.339 106.256 154.458 106.628 154.47C107.233 154.487 107.777 154.254 108.259 153.772L109.135 154.934C108.877 155.302 108.515 155.592 108.05 155.803C107.589 156.011 107.083 156.118 106.533 156.127H106.418ZM106.926 150.649C106.63 150.64 106.372 150.734 106.152 150.928C105.936 151.123 105.748 151.449 105.587 151.906H107.675L107.713 151.722C107.739 151.574 107.743 151.434 107.726 151.303C107.654 150.88 107.388 150.662 106.926 150.649ZM113.033 149.125L112.887 149.951C113.437 149.299 114.099 148.982 114.874 148.999C115.508 149.011 115.98 149.248 116.289 149.709C116.602 150.167 116.716 150.822 116.632 151.677L115.908 156H113.813L114.543 151.665C114.56 151.516 114.565 151.381 114.556 151.258C114.527 150.856 114.29 150.655 113.845 150.655C113.477 150.647 113.141 150.81 112.836 151.144L111.979 156H109.891L111.084 149.132L113.033 149.125ZM121.024 147.424L120.726 149.132H121.824L121.564 150.617H120.466L119.933 153.772C119.903 153.988 119.916 154.151 119.971 154.261C120.03 154.371 120.174 154.43 120.402 154.438C120.491 154.443 120.673 154.432 120.948 154.407L120.796 155.956C120.445 156.07 120.07 156.123 119.672 156.114C119.025 156.106 118.54 155.915 118.219 155.543C117.897 155.171 117.766 154.665 117.825 154.026L118.384 150.617H117.533L117.787 149.132H118.638L118.936 147.424H121.024ZM121.831 155.035C121.822 154.714 121.932 154.447 122.161 154.235C122.389 154.024 122.662 153.918 122.979 153.918C123.293 153.918 123.559 154.015 123.779 154.21C123.999 154.4 124.114 154.65 124.122 154.959C124.131 155.276 124.023 155.543 123.798 155.759C123.574 155.97 123.299 156.076 122.973 156.076C122.652 156.076 122.383 155.979 122.167 155.784C121.951 155.59 121.839 155.34 121.831 155.035ZM122.707 149.97C122.698 149.648 122.808 149.382 123.037 149.17C123.265 148.958 123.538 148.853 123.855 148.853C124.169 148.853 124.435 148.95 124.655 149.145C124.875 149.335 124.99 149.585 124.998 149.894C125.007 150.211 124.899 150.478 124.674 150.693C124.45 150.905 124.175 151.011 123.849 151.011C123.528 151.011 123.259 150.913 123.043 150.719C122.827 150.524 122.715 150.274 122.707 149.97ZM136.094 147.996L131.536 156H129.251L133.79 148.408H129.556L129.822 146.758H136.291L136.094 147.996ZM142.435 146.618L142.27 148.307H142.08C141.36 148.315 140.728 148.506 140.182 148.878C139.64 149.25 139.208 149.788 138.887 150.49C139.407 149.995 140.014 149.756 140.708 149.773C141.204 149.781 141.623 149.923 141.965 150.198C142.308 150.469 142.56 150.846 142.721 151.328C142.886 151.806 142.945 152.329 142.898 152.896C142.852 153.467 142.678 153.996 142.378 154.483C142.077 154.97 141.682 155.359 141.191 155.651C140.628 155.985 140.025 156.146 139.382 156.133C138.751 156.125 138.208 155.956 137.75 155.625C137.293 155.295 136.959 154.847 136.748 154.28C136.536 153.708 136.466 153.084 136.538 152.407L136.633 151.626C136.756 150.691 137.067 149.841 137.566 149.075C138.07 148.305 138.713 147.706 139.496 147.278C140.283 146.847 141.134 146.627 142.048 146.618H142.435ZM139.902 151.398C139.428 151.381 139.02 151.607 138.677 152.077C138.597 152.67 138.557 153.076 138.557 153.296C138.557 153.668 138.633 153.958 138.785 154.166C138.938 154.369 139.158 154.472 139.445 154.477C139.868 154.485 140.211 154.273 140.474 153.842C140.74 153.406 140.848 152.921 140.797 152.388C140.768 152.092 140.675 151.855 140.518 151.677C140.361 151.495 140.156 151.402 139.902 151.398ZM146.485 153.467L145.723 154.127L145.399 156H143.311L145.006 146.244H147.094L146.129 151.449L146.383 151.144L148.281 149.132H150.928L148.008 152.052L149.779 156H147.488L146.485 153.467ZM150.484 152.553C150.564 151.863 150.753 151.239 151.049 150.681C151.349 150.122 151.724 149.701 152.172 149.417C152.621 149.13 153.129 148.99 153.696 148.999C154.386 149.015 154.906 149.263 155.257 149.741L155.479 149.125L157.409 149.132L156.286 155.733C156.159 156.664 155.75 157.399 155.061 157.936C154.371 158.473 153.512 158.729 152.483 158.704C152.026 158.696 151.584 158.605 151.157 158.431C150.729 158.258 150.363 157.995 150.059 157.644L151.049 156.413C151.417 156.878 151.895 157.117 152.483 157.13C153.41 157.147 153.998 156.654 154.248 155.651L154.299 155.441C153.825 155.907 153.302 156.135 152.731 156.127C152.291 156.123 151.904 156.013 151.569 155.797C151.235 155.577 150.973 155.262 150.782 154.851C150.592 154.441 150.484 153.984 150.458 153.48C150.442 153.226 150.45 152.917 150.484 152.553ZM152.547 153.232C152.547 153.622 152.617 153.924 152.756 154.14C152.896 154.356 153.099 154.468 153.366 154.477C153.759 154.493 154.117 154.341 154.438 154.02L154.978 151.106C154.809 150.81 154.525 150.657 154.127 150.649C153.721 150.64 153.381 150.814 153.105 151.169C152.83 151.521 152.657 151.984 152.585 152.56C152.56 152.826 152.547 153.05 152.547 153.232Z" fill="white"/>
  <path d="M306.5 95.2222C253 91.0972 257.3 63.7222 224.5 77.7222C191.7 91.7222 174.5 64.0972 148.5 70.2222C122.5 76.3472 119 68.8472 102.5 53.7222C86 38.5972 40.5 53.7222 40.5 53.7222" stroke="#1EE0CC" stroke-width="3" stroke-linecap="round" stroke-linejoin="round"/>
  <circle r="4" transform="matrix(-1 0 0 1 269 86)" fill="white" stroke="#EB5757" stroke-width="2"/>
  <circle r="4" transform="matrix(-1 0 0 1 305 95)" fill="white" stroke="#0D3F67" stroke-width="2"/>
</svg>
