<svg width="281" height="182" viewBox="0 0 281 182" fill="none" xmlns="http://www.w3.org/2000/svg">
<path d="M256.302 181.462L248.276 157.267C248.276 157.267 257.104 166.086 257.104 173.321L255.519 156.589C255.519 156.589 260.046 162.694 259.594 171.965C259.141 181.235 256.302 181.462 256.302 181.462Z" fill="#E6E6E6"/>
<path d="M83.9518 159.431L76.119 135.819C76.119 135.819 84.7345 144.425 84.7345 151.487L83.1882 135.157C83.1882 135.157 87.6064 141.115 87.1645 150.163C86.7227 159.211 83.9518 159.431 83.9518 159.431Z" fill="#E6E6E6"/>
<path d="M206.206 170.328C206.22 185.861 175.38 181.083 137.625 181.115C99.8695 181.148 69.4962 185.979 69.4827 170.446C69.4693 154.913 100.298 151.508 138.053 151.475C175.808 151.443 206.193 154.795 206.206 170.328Z" fill="#E6E6E6"/>
<path d="M281 181.106H0V181.817H281V181.106Z" fill="#3F3D56"/>
<path d="M179.746 149.351H174.81L172.461 130.332H179.746V149.351Z" fill="#A0616A"/>
<path d="M170.736 147.942H180.804V153.929H165.291V153.382C165.291 151.939 165.865 150.555 166.886 149.535C167.907 148.515 169.292 147.942 170.736 147.942Z" fill="#2F2E41"/>
<path d="M216.027 177.421H211.091L208.742 158.402H216.027V177.421Z" fill="#A0616A"/>
<path d="M207.017 176.013H217.085V182H201.572V181.452C201.572 180.01 202.146 178.626 203.167 177.606C204.188 176.586 205.573 176.013 207.017 176.013Z" fill="#2F2E41"/>
<path d="M238.795 120.92C239.136 120.506 239.383 120.023 239.517 119.504C239.651 118.986 239.669 118.444 239.571 117.917C239.473 117.39 239.26 116.891 238.948 116.455C238.636 116.019 238.232 115.657 237.765 115.394L226.301 68.7427L218.971 71.8931L232.606 117.001C232.216 117.815 232.138 118.743 232.387 119.61C232.636 120.478 233.195 121.223 233.958 121.706C234.721 122.189 235.635 122.376 236.526 122.231C237.418 122.086 238.225 121.62 238.795 120.92Z" fill="#A0616A"/>
<path d="M229.854 26.6364C229.444 26.2092 228.947 25.8767 228.395 25.6625C227.843 25.4483 227.251 25.3575 226.661 25.3965C226.07 25.4356 225.495 25.6035 224.977 25.8885C224.458 26.1734 224.008 26.5685 223.659 27.0459L205.915 29.0809L208.614 35.9178L224.751 32.9008C225.593 33.4337 226.601 33.6396 227.585 33.4796C228.568 33.3195 229.459 32.8047 230.088 32.0325C230.717 31.2603 231.04 30.2845 230.997 29.29C230.954 28.2955 230.547 27.3513 229.854 26.6364Z" fill="#A0616A"/>
<path d="M200.613 116.082L208.356 174.133L217.993 172.151C217.993 172.151 216.575 129.874 221.394 124.777C226.212 119.68 215.196 110.752 215.196 110.752L200.613 116.082Z" fill="#2F2E41"/>
<path d="M203.814 100.092L200.257 105.422C200.257 105.422 172.868 94.052 172.868 112.173C172.868 130.295 171.301 142.592 170.734 143.442C170.167 144.291 177.292 146.495 180.694 145.929C180.694 145.929 184.89 116.715 184.606 115.016C184.606 115.016 211.473 128.175 216.575 127.042C221.677 125.91 222.883 121.9 223.733 119.635C224.583 117.37 223.377 99.3816 223.377 99.3816L206.371 94.1973L203.814 100.092Z" fill="#2F2E41"/>
<path d="M204.294 68.0916L203.28 66.8763C203.28 66.8763 191.925 41.354 196.386 34.467C200.847 27.5801 220.313 26.5673 220.921 26.9724C221.529 27.3775 219.468 32.6373 220.887 35.068C220.887 35.068 205.808 38.3338 204.794 38.7389C203.78 39.1441 212.607 54.1151 212.607 54.1151L211.593 63.2302L204.294 68.0916Z" fill="#CCCCCC"/>
<path d="M224.165 55.5331C224.165 55.5331 213.621 56.7485 213.216 56.7485C212.81 56.7485 212.607 54.1152 212.607 54.1152L203.28 66.8764C203.28 66.8764 198.685 103.898 199.901 103.29C201.118 102.683 223.557 106.173 223.76 104.552C223.962 102.932 223.557 94.8294 224.165 94.4242C224.774 94.0191 234.709 68.902 234.709 68.902C234.709 68.902 233.695 63.6355 230.248 61.8124C226.801 59.9894 224.165 55.5331 224.165 55.5331Z" fill="#CCCCCC"/>
<path d="M231.465 65.4585L234.709 68.902C234.709 68.902 239.53 108.471 236.894 109.686C234.258 110.902 229.068 110.752 229.068 110.752L223.962 91.9936L231.465 65.4585Z" fill="#CCCCCC"/>
<path d="M214.033 53.0274C219.187 53.0274 223.366 48.8533 223.366 43.7041C223.366 38.555 219.187 34.3809 214.033 34.3809C208.878 34.3809 204.7 38.555 204.7 43.7041C204.7 48.8533 208.878 53.0274 214.033 53.0274Z" fill="#A0616A"/>
<path d="M211.843 45.1588C211.717 43.2242 209.274 43.1579 207.333 43.1396C205.393 43.1213 203.072 43.1905 201.974 41.592C201.249 40.5357 201.387 39.0691 201.987 37.9365C202.586 36.8039 203.572 35.9329 204.543 35.0949C207.047 32.9313 209.628 30.785 212.635 29.4002C215.642 28.0154 219.166 27.4559 222.285 28.5675C226.116 29.933 231.294 36.9624 231.741 41.0009C232.189 45.0395 230.573 49.1565 227.849 52.1744C225.126 55.1923 218.892 53.9747 214.969 55.0483C217.354 51.6764 215.782 45.5495 211.962 43.9749L211.843 45.1588Z" fill="#2F2E41"/>
<path d="M128.663 165.756C141.037 165.756 151.068 155.736 151.068 143.375C151.068 131.014 141.037 120.993 128.663 120.993C116.289 120.993 106.258 131.014 106.258 143.375C106.258 155.736 116.289 165.756 128.663 165.756Z" fill="#FF3939"/>
<path d="M113.701 119.403C110.595 119.403 107.557 118.504 104.952 116.815C102.348 115.126 100.29 112.719 99.0262 109.885L63.4736 29.9046C62.2959 27.2553 61.673 24.3933 61.6433 21.4946C61.6135 18.596 62.1775 15.7218 63.3006 13.0489C64.4237 10.376 66.0822 7.96076 68.1741 5.95167C70.2659 3.94258 72.747 2.38208 75.4648 1.36608C78.1826 0.35009 81.0797 -0.0999311 83.978 0.0436859C86.8762 0.187303 89.7145 0.921522 92.3183 2.20121C94.9221 3.4809 97.2364 5.27903 99.119 7.48506C101.002 9.6911 102.413 12.2584 103.265 15.0293L129.01 98.6769C129.747 101.071 129.911 103.605 129.49 106.074C129.069 108.544 128.075 110.88 126.586 112.896C125.097 114.911 123.156 116.55 120.918 117.68C118.68 118.81 116.208 119.4 113.701 119.403H113.701Z" fill="#FF3939"/>
</svg>
