<svg xmlns="http://www.w3.org/2000/svg" width="29.555" height="29.555" viewBox="0 0 29.555 29.555">
  <g id="linked_in" data-name="linked in" transform="translate(-1122.444 -727.722)">
    <path id="Path_1539" data-name="Path 1539" d="M14.778,0A14.778,14.778,0,1,1,0,14.778,14.778,14.778,0,0,1,14.778,0Z" transform="translate(1122.444 727.722)" fill="#0077b5"/>
    <g id="linkedin" transform="translate(1128.778 734.056)">
      <path id="Path_1534" data-name="Path 1534" d="M19.4,19.133h0V12.938c0-3.03-.652-5.364-4.195-5.364A3.677,3.677,0,0,0,11.9,9.394h-.049V7.857H8.489V19.132h3.5V13.549c0-1.47.279-2.892,2.1-2.892,1.794,0,1.82,1.678,1.82,2.986v5.49Z" transform="translate(-2.515 -2.244)" fill="#fff"/>
      <path id="Path_1535" data-name="Path 1535" d="M.4,7.977H3.9V19.252H.4Z" transform="translate(-0.117 -2.364)" fill="#fff"/>
      <path id="Path_1536" data-name="Path 1536" d="M2.028,0A2.038,2.038,0,1,0,4.056,2.028,2.029,2.029,0,0,0,2.028,0Z" fill="#fff"/>
    </g>
  </g>
</svg>
