<svg xmlns="http://www.w3.org/2000/svg" width="29.555" height="29.555" viewBox="0 0 29.555 29.555">
  <g id="yotube" transform="translate(-1085.852 -727.722)">
    <path id="youtube" d="M14.778,0A14.778,14.778,0,1,1,0,14.778,14.778,14.778,0,0,1,14.778,0Z" transform="translate(1085.852 727.722)" fill="red"/>
    <g id="youtube_1_" data-name="youtube (1)" transform="translate(1091.481 736.167)">
      <path id="Path_1537" data-name="Path 1537" d="M18.043,2.018A2.308,2.308,0,0,0,16.419.395,53.913,53.913,0,0,0,9.211,0,56.026,56.026,0,0,0,2,.38,2.355,2.355,0,0,0,.379,2.018,24.321,24.321,0,0,0,0,6.45a24.232,24.232,0,0,0,.379,4.431A2.309,2.309,0,0,0,2,12.5a54.025,54.025,0,0,0,7.208.395,56.026,56.026,0,0,0,7.208-.379A2.308,2.308,0,0,0,18.043,10.9a24.322,24.322,0,0,0,.379-4.431,23.085,23.085,0,0,0-.379-4.446Zm0,0" transform="translate(0 0)" fill="#fff"/>
      <path id="Path_1538" data-name="Path 1538" d="M204.969,108.008l4.8-2.762-4.8-2.762Zm0,0" transform="translate(-197.594 -98.797)" fill="red"/>
    </g>
  </g>
</svg>
