<svg width="64" height="51" viewBox="0 0 64 51" fill="none" xmlns="http://www.w3.org/2000/svg">
<g clip-path="url(#clip0)">
<path d="M63.5259 29.5631H14.6593C14.5336 29.5629 14.4131 29.5134 14.3242 29.4253C14.2353 29.3373 14.1853 29.2179 14.1852 29.0933V0.469752C14.1853 0.345208 14.2353 0.225803 14.3242 0.137737C14.4131 0.0496711 14.5336 0.000135958 14.6593 0H63.5259C63.6516 0.000135959 63.7721 0.0496713 63.861 0.137738C63.9499 0.225804 63.9999 0.345208 64 0.469752V29.0933C63.9999 29.2179 63.9499 29.3373 63.861 29.4253C63.7721 29.5134 63.6516 29.5629 63.5259 29.5631ZM14.6593 0.187901C14.5839 0.187982 14.5116 0.217703 14.4582 0.270543C14.4049 0.323383 14.3749 0.395026 14.3748 0.469752V29.0933C14.3749 29.168 14.4049 29.2397 14.4582 29.2925C14.5116 29.3454 14.5839 29.3751 14.6593 29.3752H63.5259C63.6013 29.3751 63.6736 29.3454 63.7269 29.2925C63.7803 29.2397 63.8103 29.168 63.8104 29.0933V0.469752C63.8103 0.395026 63.7803 0.323383 63.7269 0.270543C63.6736 0.217704 63.6013 0.187982 63.5259 0.187901H14.6593Z" fill="#E6E6E6"/>
<path d="M34.3822 2.28594C34.2836 2.28758 34.1896 2.32753 34.1205 2.3972C34.0513 2.46686 34.0126 2.56066 34.0126 2.65836C34.0126 2.75607 34.0513 2.84986 34.1205 2.91953C34.1896 2.98919 34.2836 3.02915 34.3822 3.03078H43.807C43.9064 3.03224 44.0025 2.99455 44.074 2.92599C44.1455 2.85743 44.1866 2.76358 44.1884 2.66501C44.1902 2.56644 44.1524 2.47119 44.0834 2.40014C44.0145 2.32909 43.9199 2.28803 43.8204 2.28596L43.8193 2.28594C43.8152 2.28587 43.8111 2.28587 43.807 2.28594H34.3822Z" fill="#3F3D56"/>
<path d="M45.9442 2.18235C45.9304 2.19609 45.9226 2.21473 45.9226 2.23417C45.9226 2.2536 45.9304 2.27224 45.9442 2.28599L45.9442 2.28599L46.2618 2.60059H45.4788C45.4592 2.60065 45.4404 2.6084 45.4266 2.62214C45.4128 2.63587 45.405 2.65448 45.405 2.67388C45.405 2.69328 45.4128 2.71189 45.4266 2.72562C45.4404 2.73936 45.4592 2.74711 45.4788 2.74716H46.2618L45.9442 3.06177C45.9374 3.06857 45.9319 3.07665 45.9282 3.08554C45.9245 3.09443 45.9226 3.10396 45.9226 3.11359C45.9226 3.12321 45.9245 3.13274 45.9282 3.14163C45.9319 3.15052 45.9374 3.1586 45.9442 3.16541C45.9511 3.17221 45.9593 3.17761 45.9682 3.18129C45.9772 3.18498 45.9868 3.18687 45.9965 3.18687C46.0062 3.18687 46.0159 3.18498 46.0248 3.18129C46.0338 3.17761 46.042 3.17221 46.0488 3.16541L46.4926 2.7257C46.5065 2.71196 46.5143 2.69332 46.5143 2.67388C46.5143 2.65444 46.5065 2.6358 46.4926 2.62206L46.0488 2.18235C46.042 2.17555 46.0338 2.17015 46.0248 2.16647C46.0159 2.16278 46.0063 2.16089 45.9965 2.16089C45.9868 2.16089 45.9772 2.16278 45.9682 2.16647C45.9593 2.17015 45.9511 2.17555 45.9442 2.18235L45.9442 2.18235Z" fill="#E6E6E6"/>
<path d="M32.2409 2.18235C32.2548 2.1961 32.2626 2.21473 32.2626 2.23417C32.2626 2.25361 32.2548 2.27225 32.2409 2.28599L32.2409 2.286L31.9234 2.6006H32.7064C32.7161 2.60056 32.7258 2.60242 32.7348 2.60608C32.7438 2.60974 32.752 2.61513 32.7589 2.62193C32.7658 2.62873 32.7712 2.63681 32.775 2.64571C32.7787 2.65461 32.7807 2.66415 32.7807 2.67379C32.7807 2.68343 32.7788 2.69298 32.7751 2.70189C32.7713 2.7108 32.7659 2.71889 32.759 2.72571C32.7521 2.73253 32.7439 2.73793 32.7349 2.74161C32.726 2.74529 32.7163 2.74718 32.7066 2.74717H31.9234L32.2409 3.06177C32.2478 3.06857 32.2533 3.07665 32.257 3.08554C32.2607 3.09443 32.2626 3.10396 32.2626 3.11359C32.2626 3.12321 32.2607 3.13274 32.257 3.14163C32.2533 3.15052 32.2478 3.1586 32.2409 3.16541C32.2341 3.17221 32.2259 3.17761 32.2169 3.18129C32.208 3.18498 32.1984 3.18687 32.1886 3.18687C32.1789 3.18687 32.1693 3.18498 32.1603 3.18129C32.1514 3.17761 32.1432 3.17221 32.1363 3.16541L31.6925 2.7257C31.6787 2.71196 31.6709 2.69332 31.6709 2.67388C31.6709 2.65445 31.6787 2.6358 31.6925 2.62206L32.1363 2.18235C32.1502 2.16861 32.169 2.16089 32.1886 2.16089C32.2083 2.16089 32.2271 2.16861 32.2409 2.18235L32.2409 2.18235Z" fill="#E6E6E6"/>
<path d="M14.1569 31.1398C13.7284 31.1398 13.3095 31.0139 12.9532 30.778C12.5969 30.5421 12.3192 30.2069 12.1552 29.8146C11.9912 29.4224 11.9483 28.9908 12.0319 28.5744C12.1155 28.158 12.3219 27.7755 12.6249 27.4753C12.9279 27.1751 13.3139 26.9706 13.7342 26.8878C14.1545 26.805 14.5901 26.8475 14.986 27.01C15.3819 27.1724 15.7203 27.4476 15.9584 27.8006C16.1964 28.1536 16.3235 28.5686 16.3235 28.9932C16.3235 29.5625 16.0952 30.1085 15.6889 30.511C15.2826 30.9136 14.7315 31.1398 14.1569 31.1398Z" fill="#FF3939"/>
<path d="M15.0118 28.7815H14.3706V28.1462C14.3706 28.09 14.3481 28.0362 14.308 27.9965C14.2679 27.9568 14.2136 27.9344 14.1569 27.9344C14.1002 27.9344 14.0459 27.9568 14.0058 27.9965C13.9657 28.0362 13.9432 28.09 13.9432 28.1462V28.7815H13.302C13.2453 28.7815 13.191 28.8038 13.1509 28.8435C13.1108 28.8832 13.0883 28.937 13.0883 28.9932C13.0883 29.0494 13.1108 29.1032 13.1509 29.1429C13.191 29.1826 13.2453 29.2049 13.302 29.2049H13.9432V29.8402C13.9432 29.8964 13.9657 29.9502 14.0058 29.9899C14.0459 30.0296 14.1002 30.052 14.1569 30.052C14.2136 30.052 14.2679 30.0296 14.308 29.9899C14.3481 29.9502 14.3706 29.8964 14.3706 29.8402V29.2049H15.0118C15.0685 29.2049 15.1228 29.1826 15.1629 29.1429C15.203 29.1032 15.2255 29.0494 15.2255 28.9932C15.2255 28.937 15.203 28.8832 15.1629 28.8435C15.1228 28.8038 15.0685 28.7815 15.0118 28.7815Z" fill="white"/>
<path d="M24.6476 6.09912H18.1362V10.4835H24.6476V6.09912Z" fill="#F1F1F1"/>
<path d="M33.4979 6.09912H26.9866V10.4835H33.4979V6.09912Z" fill="#F1F1F1"/>
<path d="M42.3482 6.09912H35.8369V10.4835H42.3482V6.09912Z" fill="#F1F1F1"/>
<path d="M51.1986 6.09912H44.6873V10.4835H51.1986V6.09912Z" fill="#F1F1F1"/>
<path d="M60.0489 6.09912H53.5376V10.4835H60.0489V6.09912Z" fill="#F1F1F1"/>
<path d="M24.6714 13.803H18.1601V18.1873H24.6714V13.803Z" fill="#F1F1F1"/>
<path d="M33.5218 13.803H27.0104V18.1873H33.5218V13.803Z" fill="#F1F1F1"/>
<path d="M42.3721 13.803H35.8608V18.1873H42.3721V13.803Z" fill="#F1F1F1"/>
<path d="M51.2225 13.803H44.7112V18.1873H51.2225V13.803Z" fill="#F1F1F1"/>
<path d="M60.0728 13.803H53.5615V18.1873H60.0728V13.803Z" fill="#F1F1F1"/>
<path d="M24.6953 21.507H18.184V25.8913H24.6953V21.507Z" fill="#F1F1F1"/>
<path d="M33.5457 21.507H27.0343V25.8913H33.5457V21.507Z" fill="#F1F1F1"/>
<path d="M42.396 21.507H35.8847V25.8913H42.396V21.507Z" fill="#F1F1F1"/>
<path d="M51.2463 21.507H44.735V25.8913H51.2463V21.507Z" fill="#F1F1F1"/>
<path d="M60.0967 21.507H53.5854V25.8913H60.0967V21.507Z" fill="#F1F1F1"/>
<path d="M37.1884 8.29132C37.6422 8.29132 38.0102 7.92677 38.0102 7.47708C38.0102 7.02739 37.6422 6.66284 37.1884 6.66284C36.7345 6.66284 36.3665 7.02739 36.3665 7.47708C36.3665 7.92677 36.7345 8.29132 37.1884 8.29132Z" fill="#FF3939"/>
<path d="M28.2116 15.9953C28.6654 15.9953 29.0334 15.6307 29.0334 15.1811C29.0334 14.7314 28.6654 14.3668 28.2116 14.3668C27.7577 14.3668 27.3897 14.7314 27.3897 15.1811C27.3897 15.6307 27.7577 15.9953 28.2116 15.9953Z" fill="#FF3939"/>
<path d="M37.1884 23.6992C37.6422 23.6992 38.0102 23.3346 38.0102 22.8849C38.0102 22.4352 37.6422 22.0707 37.1884 22.0707C36.7345 22.0707 36.3665 22.4352 36.3665 22.8849C36.3665 23.3346 36.7345 23.6992 37.1884 23.6992Z" fill="#FF3939"/>
<path d="M46.2283 15.9953C46.6822 15.9953 47.0502 15.6307 47.0502 15.1811C47.0502 14.7314 46.6822 14.3668 46.2283 14.3668C45.7745 14.3668 45.4065 14.7314 45.4065 15.1811C45.4065 15.6307 45.7745 15.9953 46.2283 15.9953Z" fill="#3F3D56"/>
<path d="M55.0155 15.9953C55.4694 15.9953 55.8373 15.6307 55.8373 15.1811C55.8373 14.7314 55.4694 14.3668 55.0155 14.3668C54.5616 14.3668 54.1937 14.7314 54.1937 15.1811C54.1937 15.6307 54.5616 15.9953 55.0155 15.9953Z" fill="#3F3D56"/>
<path d="M28.2116 23.6992C28.6654 23.6992 29.0334 23.3346 29.0334 22.8849C29.0334 22.4352 28.6654 22.0707 28.2116 22.0707C27.7577 22.0707 27.3897 22.4352 27.3897 22.8849C27.3897 23.3346 27.7577 23.6992 28.2116 23.6992Z" fill="#3F3D56"/>
<path d="M6.66408 30.6619C7.50709 30.6619 8.19049 29.9848 8.19049 29.1495C8.19049 28.3143 7.50709 27.6372 6.66408 27.6372C5.82107 27.6372 5.13768 28.3143 5.13768 29.1495C5.13768 29.9848 5.82107 30.6619 6.66408 30.6619Z" fill="#FFB8B8"/>
<path d="M6.11298 38.0983C6.09376 38.0983 6.07445 38.0974 6.05506 38.0957C5.95906 38.0878 5.86583 38.0599 5.78149 38.0137C5.69716 37.9676 5.62361 37.9044 5.56566 37.8281C5.50772 37.7519 5.46669 37.6643 5.44527 37.5713C5.42385 37.4782 5.42251 37.3817 5.44135 37.2881C5.4458 37.2664 5.45141 37.2449 5.45813 37.2237L3.20529 34.5839C3.13188 34.4972 3.08864 34.3893 3.08199 34.2764C3.07533 34.1634 3.10562 34.0513 3.16834 33.9568L3.17243 33.9518L5.20026 31.9708C5.31099 31.8627 5.46047 31.8027 5.61586 31.8038C5.77125 31.805 5.91982 31.8672 6.02892 31.9768C6.13802 32.0865 6.19872 32.2345 6.19768 32.3885C6.19664 32.5424 6.13394 32.6897 6.02337 32.7979C6.02082 32.8004 6.01826 32.8028 6.01567 32.8053L4.54698 34.1886L6.15483 36.7454C6.18528 36.747 6.21559 36.7507 6.24552 36.7565C6.41184 36.7893 6.55988 36.8823 6.66091 37.0172C6.76194 37.1522 6.80874 37.3196 6.79222 37.4868C6.7757 37.654 6.69705 37.8092 6.57153 37.9222C6.44601 38.0352 6.28258 38.098 6.11298 38.0983Z" fill="#FFB8B8"/>
<path d="M9.17805 50.1972H9.94001L10.3024 47.2855L9.17792 47.2856L9.17805 50.1972Z" fill="#FFB8B8"/>
<path d="M8.98373 49.9509L10.4842 49.9508H10.4843C10.6098 49.9508 10.7342 49.9753 10.8502 50.0229C10.9662 50.0705 11.0716 50.1403 11.1604 50.2283C11.2492 50.3162 11.3196 50.4207 11.3677 50.5356C11.4158 50.6506 11.4405 50.7737 11.4405 50.8982V50.929L8.98378 50.9291L8.98373 49.9509Z" fill="#2F2E41"/>
<path d="M1.60507 49.1536L2.25972 49.5397L4.07474 47.2217L3.10851 46.6517L1.60507 49.1536Z" fill="#FFB8B8"/>
<path d="M1.56535 48.8433L2.8546 49.6038L2.85466 49.6038C3.07256 49.7324 3.22999 49.9414 3.29233 50.185C3.35467 50.4285 3.3168 50.6866 3.18706 50.9025L3.18704 50.9026L3.17114 50.929L1.06026 49.6838L1.56535 48.8433Z" fill="#2F2E41"/>
<path d="M10.1198 49.1689H9.26661C9.19753 49.169 9.13086 49.1437 9.07949 49.098C9.02812 49.0522 8.99571 48.9892 8.98852 48.9211L8.1284 40.9105C8.12623 40.8904 8.11742 40.8715 8.10334 40.8568C8.08925 40.842 8.07067 40.8323 8.05047 40.8291C8.03026 40.8259 8.00954 40.8294 7.99152 40.839C7.97349 40.8486 7.95916 40.8638 7.95073 40.8823L6.39905 44.2865L3.65188 48.7247C3.61632 48.7816 3.56127 48.8239 3.4968 48.8439C3.43234 48.8639 3.36277 48.8602 3.30084 48.8334L2.20337 48.355C2.16708 48.3392 2.1346 48.3159 2.10809 48.2867C2.08158 48.2575 2.06163 48.223 2.04958 48.1856C2.03753 48.1482 2.03365 48.1087 2.03819 48.0696C2.04273 48.0306 2.05559 47.993 2.07592 47.9593L4.60132 43.7697L5.37584 40.2398C5.13225 38.709 6.17654 36.4331 6.18713 36.4102L6.1923 36.3991L9.06884 35.2852L9.08327 35.3027C10.2177 38.9911 10.909 42.9605 10.3986 48.915C10.3923 48.9841 10.3602 49.0484 10.3087 49.0953C10.2571 49.1423 10.1898 49.1685 10.1198 49.1689Z" fill="#2F2E41"/>
<path d="M6.07641 36.772L6.06301 36.7441C6.05661 36.7308 5.41698 35.3942 4.92392 33.9656C4.82916 33.6894 4.79334 33.3967 4.81872 33.106C4.84411 32.8153 4.93014 32.533 5.07138 32.277C5.21446 32.0183 5.4102 31.7919 5.6462 31.6121C5.8822 31.4323 6.15332 31.303 6.44239 31.2325C6.94421 31.1133 7.47255 31.1767 7.93114 31.4111C8.38973 31.6456 8.74805 32.0354 8.94083 32.5097C9.33194 33.4787 9.20729 34.513 9.08999 35.3264L9.08765 35.3427L9.07269 35.3498L6.07641 36.772Z" fill="#FF3939"/>
<path d="M8.51481 28.2953H6.09106V27.2485C6.62305 27.0391 7.14362 26.861 7.45831 27.2485C7.73851 27.2485 8.00723 27.3588 8.20537 27.5551C8.4035 27.7514 8.51481 28.0176 8.51481 28.2953H8.51481Z" fill="#2F2E41"/>
<path d="M5.95687 27.0638C4.50791 27.0638 4.10234 28.8633 4.10234 29.8785C4.10234 30.4446 4.36076 30.6471 4.76685 30.7156L4.91026 29.9578L5.24615 30.7482C5.36022 30.7488 5.48005 30.7466 5.60429 30.7443L5.71817 30.512L5.97213 30.7402C6.98928 30.7417 7.81137 30.8886 7.81137 29.8785C7.81137 28.8633 7.45569 27.0638 5.95687 27.0638Z" fill="#2F2E41"/>
<path d="M12.3974 29.0776C12.4066 29.0943 12.4151 29.1115 12.4229 29.1292C12.4619 29.2165 12.4819 29.3109 12.4815 29.4064C12.481 29.5018 12.4603 29.5961 12.4205 29.683C12.3807 29.77 12.3229 29.8476 12.2507 29.9108C12.1786 29.9741 12.0938 30.0215 12.0018 30.05C11.9804 30.0565 11.9587 30.062 11.9367 30.0663L10.6786 33.2907C10.637 33.3961 10.5622 33.4854 10.4653 33.5454C10.3685 33.6053 10.2547 33.6327 10.1409 33.6235L10.1345 33.6223L7.40758 32.809C7.25872 32.7646 7.13376 32.6634 7.0602 32.5277C6.98663 32.392 6.97049 32.2329 7.01531 32.0854C7.06014 31.9379 7.16226 31.8141 7.29922 31.7412C7.43618 31.6683 7.59675 31.6523 7.74561 31.6968C7.74901 31.6978 7.75241 31.6988 7.75579 31.6999L9.68525 32.3136L11.179 29.6898C11.1658 29.6626 11.1546 29.6345 11.1454 29.6057C11.0948 29.4453 11.1061 29.272 11.1772 29.1195C11.2483 28.9669 11.3741 28.846 11.5301 28.7802C11.6862 28.7144 11.8614 28.7084 12.0216 28.7633C12.1819 28.8183 12.3158 28.9303 12.3974 29.0776L12.3974 29.0776Z" fill="#FFB8B8"/>
<path d="M12.7136 51H0.0658737C0.0484029 51 0.0316476 50.9931 0.0192939 50.9809C0.00694019 50.9687 0 50.9521 0 50.9348C0 50.9175 0.00694019 50.9009 0.0192939 50.8886C0.0316476 50.8764 0.0484029 50.8695 0.0658737 50.8695H12.7136C12.7311 50.8695 12.7478 50.8764 12.7602 50.8886C12.7726 50.9009 12.7795 50.9175 12.7795 50.9348C12.7795 50.9521 12.7726 50.9687 12.7602 50.9809C12.7478 50.9931 12.7311 51 12.7136 51Z" fill="#CCCCCC"/>
</g>
<defs>
<clipPath id="clip0">
<rect width="64" height="51" fill="white"/>
</clipPath>
</defs>
</svg>
