<svg width="51" height="47" viewBox="0 0 51 47" fill="none" xmlns="http://www.w3.org/2000/svg">
<g clip-path="url(#clip0)">
<path d="M36.1469 43.1033H12.8843C12.3319 43.1027 11.8022 42.8826 11.4116 42.4912C11.0211 42.0999 10.8015 41.5693 10.801 41.016V32.06C10.7529 32.115 10.7025 32.1693 10.6506 32.222V41.016C10.6511 41.6093 10.8866 42.1781 11.3054 42.5977C11.7241 43.0173 12.292 43.2533 12.8843 43.2541H36.2123C36.1897 43.2043 36.1679 43.1538 36.1469 43.1033ZM10.801 9.99977C10.8015 9.44643 11.0211 8.91587 11.4116 8.52453C11.8022 8.13319 12.3319 7.91305 12.8843 7.91243H20.6353C20.621 7.86194 20.6074 7.81221 20.5946 7.76172H12.8843C12.292 7.76246 11.7241 7.99852 11.3054 8.41809C10.8866 8.83767 10.6511 9.4065 10.6506 9.99977V23.7295C10.7025 23.7823 10.7521 23.8365 10.801 23.8915V9.99977ZM42.0364 11.7601L37.1761 7.90414C37.0601 7.812 36.9164 7.76182 36.7683 7.76172H32.4429C32.4309 7.81221 32.4174 7.86269 32.4031 7.91243H36.7683C36.8824 7.9127 36.9931 7.95117 37.0828 8.02169L41.9431 11.8784C41.9893 11.9148 42.0265 11.9613 42.0521 12.0143C42.0776 12.0673 42.0908 12.1255 42.0906 12.1843V34.6274C42.141 34.6289 42.1914 34.6327 42.2411 34.6364V12.1843C42.2413 12.1027 42.2231 12.0221 42.1876 11.9486C42.1522 11.875 42.1005 11.8106 42.0364 11.7601Z" fill="#3F3D56"/>
<path d="M41.9722 11.9591H38.0504C37.9087 11.9591 37.7683 11.9311 37.6373 11.8768C37.5064 11.8224 37.3874 11.7428 37.2871 11.6424C37.1869 11.542 37.1074 11.4228 37.0531 11.2916C36.9989 11.1605 36.9709 11.0199 36.9709 10.8779V7.97676C36.9709 7.96405 36.9745 7.95161 36.9813 7.94085C36.988 7.93009 36.9976 7.92145 37.009 7.91592C37.0205 7.91039 37.0332 7.90819 37.0458 7.90959C37.0584 7.91098 37.0704 7.9159 37.0803 7.92379L42.0141 11.8385C42.0251 11.8472 42.0331 11.8592 42.037 11.8726C42.0409 11.8861 42.0405 11.9005 42.0359 11.9137C42.0313 11.927 42.0227 11.9385 42.0113 11.9466C41.9999 11.9547 41.9862 11.9591 41.9722 11.9591Z" fill="#E6E6E6"/>
<path d="M41.9722 12.0346H38.0505C37.7443 12.0343 37.4508 11.9123 37.2343 11.6955C37.0178 11.4786 36.8961 11.1847 36.8957 10.878V7.97693C36.8957 7.95007 36.9033 7.92375 36.9175 7.90099C36.9318 7.87823 36.9521 7.85995 36.9763 7.84825C37.0004 7.83655 37.0274 7.8319 37.054 7.83484C37.0807 7.83778 37.106 7.84818 37.127 7.86485L42.0608 11.7797C42.0841 11.7981 42.101 11.8233 42.1093 11.8518C42.1176 11.8803 42.1168 11.9107 42.107 11.9387C42.0973 11.9667 42.0791 11.991 42.0549 12.0082C42.0308 12.0254 42.0019 12.0346 41.9722 12.0346ZM37.0462 7.99301V10.878C37.0465 11.1447 37.1524 11.4004 37.3407 11.589C37.5289 11.7775 37.7842 11.8836 38.0505 11.8839H41.9499L37.0462 7.99301Z" fill="#3F3D56"/>
<path d="M34.1873 16.9596H22.6502C22.507 16.9596 22.3697 16.9027 22.2685 16.8013C22.1673 16.6999 22.1104 16.5624 22.1104 16.419C22.1104 16.2756 22.1673 16.1381 22.2685 16.0368C22.3697 15.9354 22.507 15.8784 22.6502 15.8784H34.1873C34.3305 15.8784 34.4678 15.9354 34.569 16.0368C34.6702 16.1381 34.7271 16.2756 34.7271 16.419C34.7271 16.5624 34.6702 16.6999 34.569 16.8013C34.4678 16.9027 34.3305 16.9596 34.1873 16.9596Z" fill="#CCCCCC"/>
<path d="M36.4138 18.7843H22.6502C22.507 18.7843 22.3697 18.7274 22.2685 18.626C22.1673 18.5246 22.1104 18.3871 22.1104 18.2437C22.1104 18.1003 22.1673 17.9628 22.2685 17.8615C22.3697 17.7601 22.507 17.7031 22.6502 17.7031H36.4138C36.5569 17.7031 36.6942 17.7601 36.7955 17.8615C36.8967 17.9628 36.9535 18.1003 36.9535 18.2437C36.9535 18.3871 36.8967 18.5246 36.7955 18.626C36.6942 18.7274 36.5569 18.7843 36.4138 18.7843H36.4138Z" fill="#CCCCCC"/>
<path d="M34.1873 25.1364H22.6502C22.507 25.1364 22.3697 25.0794 22.2685 24.978C22.1673 24.8767 22.1104 24.7392 22.1104 24.5958C22.1104 24.4524 22.1673 24.3149 22.2685 24.2135C22.3697 24.1121 22.507 24.0552 22.6502 24.0552H34.1873C34.3305 24.0552 34.4678 24.1121 34.569 24.2135C34.6702 24.3149 34.7271 24.4524 34.7271 24.5958C34.7271 24.7392 34.6702 24.8767 34.569 24.978C34.4678 25.0794 34.3305 25.1364 34.1873 25.1364Z" fill="#CCCCCC"/>
<path d="M36.4138 26.9606H22.6502C22.507 26.9606 22.3697 26.9036 22.2685 26.8022C22.1673 26.7009 22.1104 26.5634 22.1104 26.42C22.1104 26.2766 22.1673 26.1391 22.2685 26.0377C22.3697 25.9363 22.507 25.8794 22.6502 25.8794H36.4138C36.5569 25.8794 36.6942 25.9363 36.7955 26.0377C36.8967 26.1391 36.9535 26.2766 36.9535 26.42C36.9535 26.5634 36.8967 26.7009 36.7955 26.8022C36.6942 26.9036 36.5569 26.9606 36.4138 26.9606H36.4138Z" fill="#CCCCCC"/>
<path d="M34.1873 33.3126H22.6502C22.5793 33.3126 22.5091 33.2987 22.4436 33.2715C22.3781 33.2443 22.3186 33.2045 22.2685 33.1543C22.2184 33.1041 22.1786 33.0445 22.1515 32.9789C22.1244 32.9133 22.1104 32.843 22.1104 32.772C22.1104 32.701 22.1244 32.6308 22.1515 32.5652C22.1786 32.4996 22.2184 32.44 22.2685 32.3898C22.3186 32.3396 22.3781 32.2998 22.4436 32.2726C22.5091 32.2454 22.5793 32.2314 22.6502 32.2314H34.1873C34.3305 32.2314 34.4678 32.2884 34.569 32.3898C34.6702 32.4912 34.7271 32.6287 34.7271 32.772C34.7271 32.9154 34.6702 33.0529 34.569 33.1543C34.4678 33.2557 34.3305 33.3126 34.1873 33.3126Z" fill="#CCCCCC"/>
<path d="M36.4138 35.1369H22.6502C22.5793 35.1369 22.5091 35.1229 22.4436 35.0957C22.3781 35.0685 22.3186 35.0287 22.2685 34.9785C22.2184 34.9283 22.1786 34.8687 22.1515 34.8031C22.1244 34.7376 22.1104 34.6673 22.1104 34.5963C22.1104 34.5253 22.1244 34.455 22.1515 34.3894C22.1786 34.3238 22.2184 34.2642 22.2685 34.214C22.3186 34.1638 22.3781 34.124 22.4436 34.0968C22.5091 34.0696 22.5793 34.0557 22.6502 34.0557H36.4138C36.4847 34.0557 36.5549 34.0696 36.6204 34.0968C36.6858 34.124 36.7453 34.1638 36.7955 34.214C36.8456 34.2642 36.8853 34.3238 36.9125 34.3894C36.9396 34.455 36.9535 34.5253 36.9535 34.5963C36.9535 34.6673 36.9396 34.7376 36.9125 34.8031C36.8853 34.8687 36.8456 34.9283 36.7955 34.9785C36.7453 35.0287 36.6858 35.0685 36.6204 35.0957C36.5549 35.1229 36.4847 35.1369 36.4138 35.1369H36.4138Z" fill="#CCCCCC"/>
<path d="M17.8458 19.2418C18.8994 19.2418 19.7535 18.3864 19.7535 17.3311C19.7535 16.2759 18.8994 15.4204 17.8458 15.4204C16.7922 15.4204 15.9381 16.2759 15.9381 17.3311C15.9381 18.3864 16.7922 19.2418 17.8458 19.2418Z" fill="#FF3939"/>
<path d="M17.6568 18.0601C17.6139 18.0602 17.5721 18.0463 17.5377 18.0205L17.5356 18.0189L17.0873 17.6754C17.0665 17.6595 17.049 17.6396 17.0359 17.6169C17.0227 17.5942 17.0142 17.5691 17.0108 17.5431C17.0073 17.5171 17.009 17.4907 17.0158 17.4654C17.0225 17.44 17.0342 17.4163 17.0501 17.3954C17.0661 17.3746 17.0859 17.3572 17.1086 17.344C17.1313 17.3309 17.1564 17.3224 17.1823 17.319C17.2083 17.3156 17.2347 17.3173 17.26 17.3241C17.2853 17.3309 17.309 17.3427 17.3297 17.3587L17.6201 17.5817L18.3063 16.685C18.3223 16.6643 18.3421 16.6468 18.3647 16.6337C18.3874 16.6206 18.4124 16.6121 18.4383 16.6087C18.4642 16.6052 18.4906 16.6069 18.5159 16.6137C18.5411 16.6205 18.5648 16.6322 18.5856 16.6481L18.5856 16.6481L18.5814 16.6541L18.5857 16.6481C18.6276 16.6804 18.655 16.7279 18.6619 16.7804C18.6688 16.8328 18.6547 16.8859 18.6226 16.9279L17.8154 17.9821C17.7968 18.0064 17.7727 18.026 17.7453 18.0395C17.7178 18.053 17.6876 18.06 17.657 18.0599L17.6568 18.0601Z" fill="white"/>
<path d="M17.8458 27.4186C18.8994 27.4186 19.7535 26.5631 19.7535 25.5079C19.7535 24.4526 18.8994 23.5972 17.8458 23.5972C16.7922 23.5972 15.9381 24.4526 15.9381 25.5079C15.9381 26.5631 16.7922 27.4186 17.8458 27.4186Z" fill="#E6E6E6"/>
<path d="M17.6568 26.2364C17.6138 26.2365 17.5721 26.2226 17.5377 26.1968L17.5356 26.1952L17.0873 25.8517C17.0453 25.8195 17.0179 25.7719 17.0109 25.7194C17.004 25.667 17.0182 25.6139 17.0504 25.5719C17.0825 25.5299 17.13 25.5024 17.1824 25.4955C17.2348 25.4885 17.2878 25.5027 17.3297 25.5349L17.6201 25.758L18.3063 24.8613C18.3222 24.8405 18.3421 24.8231 18.3647 24.81C18.3874 24.7969 18.4124 24.7884 18.4383 24.7849C18.4642 24.7815 18.4906 24.7832 18.5158 24.79C18.5411 24.7967 18.5648 24.8084 18.5855 24.8244L18.5856 24.8244L18.5813 24.8303L18.5857 24.8244C18.6276 24.8567 18.655 24.9042 18.6619 24.9566C18.6688 25.0091 18.6547 25.0621 18.6226 25.1041L17.8154 26.1584C17.7967 26.1826 17.7727 26.2023 17.7452 26.2158C17.7178 26.2293 17.6875 26.2363 17.6569 26.2362L17.6568 26.2364Z" fill="white"/>
<path d="M17.8458 35.5954C18.8994 35.5954 19.7535 34.7399 19.7535 33.6846C19.7535 32.6294 18.8994 31.7739 17.8458 31.7739C16.7922 31.7739 15.9381 32.6294 15.9381 33.6846C15.9381 34.7399 16.7922 35.5954 17.8458 35.5954Z" fill="#E6E6E6"/>
<path d="M17.6568 34.4132C17.6139 34.4132 17.5721 34.3993 17.5377 34.3735L17.5356 34.372L17.0873 34.0284C17.0665 34.0125 17.049 33.9926 17.0359 33.9699C17.0227 33.9472 17.0142 33.9222 17.0108 33.8962C17.0073 33.8702 17.009 33.8437 17.0158 33.8184C17.0225 33.793 17.0342 33.7693 17.0501 33.7485C17.0661 33.7277 17.0859 33.7102 17.1086 33.6971C17.1313 33.684 17.1564 33.6754 17.1823 33.672C17.2083 33.6686 17.2347 33.6704 17.26 33.6772C17.2853 33.684 17.309 33.6957 17.3297 33.7117L17.6201 33.9347L18.3063 33.0381C18.3223 33.0173 18.3421 32.9998 18.3647 32.9867C18.3874 32.9736 18.4124 32.9651 18.4383 32.9617C18.4642 32.9582 18.4906 32.96 18.5159 32.9667C18.5411 32.9735 18.5648 32.9852 18.5856 33.0011L18.5856 33.0012L18.5814 33.0071L18.5857 33.0012C18.6276 33.0334 18.655 33.081 18.6619 33.1334C18.6688 33.1858 18.6547 33.2389 18.6226 33.2809L17.8154 34.3351C17.7968 34.3594 17.7727 34.3791 17.7453 34.3926C17.7178 34.406 17.6876 34.413 17.657 34.4129L17.6568 34.4132Z" fill="white"/>
<path d="M44.668 46.2926C44.5603 46.349 44.4508 46.4023 44.3395 46.4526C44.2381 46.4985 44.1351 46.5417 44.0305 46.582C43.9922 46.5966 43.9534 46.6112 43.9145 46.6258C43.607 46.7375 43.2912 46.8247 42.97 46.8867C42.811 46.918 42.6499 46.9425 42.4867 46.9604C42.3519 46.9757 42.2158 46.9866 42.0783 46.9931C41.9804 46.9979 41.8825 47 41.7839 47C41.3933 47.0002 41.0036 46.9636 40.6199 46.8908C40.5199 46.8727 40.422 46.8512 40.3241 46.8275C39.8504 46.7138 39.3919 46.5443 38.9581 46.3226C38.9192 46.3031 38.8803 46.2822 38.8414 46.262C38.7837 46.2314 38.7275 46.1994 38.6713 46.1661C38.6983 46.1285 38.7275 46.0916 38.7574 46.0555C39.0823 45.6521 39.4885 45.3219 39.9494 45.0863C40.4103 44.8507 40.9157 44.715 41.4324 44.6881C41.9492 44.6612 42.4658 44.7436 42.9487 44.9301C43.4315 45.1166 43.8697 45.4028 44.2346 45.7703C44.3613 45.8976 44.4787 46.0338 44.586 46.1779C44.6145 46.2154 44.6416 46.2537 44.668 46.2926Z" fill="#FF3939"/>
<path d="M41.9224 43.2372C43.6066 43.2372 44.9718 41.8698 44.9718 40.1831C44.9718 38.4963 43.6066 37.1289 41.9224 37.1289C40.2383 37.1289 38.8731 38.4963 38.8731 40.1831C38.8731 41.8698 40.2383 43.2372 41.9224 43.2372Z" fill="#2F2E41"/>
<path d="M42.7335 43.2416C43.8334 42.6394 44.2376 41.2583 43.6363 40.1567C43.0351 39.0551 41.6561 38.6503 40.5563 39.2524C39.4564 39.8546 39.0522 41.2358 39.6534 42.3374C40.2547 43.4389 41.6337 43.8438 42.7335 43.2416Z" fill="#A0616A"/>
<path d="M44.0296 39.8173C43.511 40.1754 42.8954 40.3659 42.2656 40.3634C42.4903 40.5194 42.746 40.6248 43.0153 40.6723C42.1778 40.8522 41.3123 40.8571 40.4729 40.6866C40.2863 40.6566 40.1062 40.5947 39.9407 40.5035C39.8581 40.4574 39.7862 40.3943 39.7296 40.3185C39.673 40.2427 39.633 40.1558 39.6121 40.0635C39.5564 39.7443 39.8047 39.4544 40.0627 39.2589C40.4578 38.9643 40.9133 38.7613 41.3963 38.6646C41.8794 38.568 42.3778 38.58 42.8556 38.7C43.1676 38.7807 43.4801 38.9172 43.6828 39.1681C43.8854 39.4191 43.9454 39.806 43.7524 40.0644L44.0296 39.8173Z" fill="#2F2E41"/>
<path d="M42.2411 34.4961C42.1915 34.4923 42.141 34.4893 42.0906 34.487C41.989 34.4818 41.8867 34.4795 41.7836 34.4795C40.7587 34.4795 39.7496 34.732 38.845 35.2147C37.9405 35.6973 37.1683 36.3954 36.5966 37.2474C36.0248 38.0993 35.671 39.079 35.5664 40.1002C35.4617 41.1214 35.6094 42.1526 35.9964 43.1032C36.0167 43.1536 36.0378 43.2041 36.0604 43.2539C36.5774 44.427 37.4394 45.4144 38.5312 46.0842L38.571 46.1076C38.6049 46.1279 38.638 46.1475 38.6711 46.1656C38.7275 46.1995 38.784 46.2312 38.8411 46.262C38.8803 46.2824 38.9194 46.3027 38.9577 46.3223C39.3916 46.5442 39.8503 46.7137 40.3241 46.8272C40.4218 46.8513 40.5197 46.8724 40.6197 46.8905C41.0034 46.9633 41.3931 46.9999 41.7836 46.9998C41.8822 46.9998 41.98 46.9975 42.0786 46.993C42.2155 46.987 42.3517 46.9757 42.4864 46.9606C42.6496 46.9425 42.8109 46.9179 42.9701 46.8867C43.2912 46.8246 43.6069 46.7375 43.9144 46.626C43.9535 46.6109 43.9926 46.5966 44.0302 46.5816C44.1356 46.5416 44.2379 46.4987 44.3395 46.4527C44.4508 46.4022 44.5604 46.3487 44.6682 46.2922C45.7492 45.7249 46.6427 44.8559 47.2406 43.7904C47.2433 43.7847 47.2463 43.7792 47.2496 43.7738C47.7587 42.8549 48.0285 41.8225 48.0342 40.7716C48.04 39.7208 47.7814 38.6854 47.2824 37.761C46.7834 36.8366 46.0599 36.053 45.1789 35.4824C44.2978 34.9118 43.2875 34.5726 42.2411 34.4961L42.2411 34.4961ZM47.7876 41.8884C47.6668 42.5205 47.4466 43.1294 47.1353 43.6924C47.13 43.7022 47.1247 43.712 47.1195 43.7211C46.5338 44.771 45.6529 45.6253 44.5862 46.1777C44.4794 46.2334 44.3713 46.2857 44.2619 46.3344C44.1709 46.3751 44.0776 46.4143 43.9836 46.4504C43.9445 46.4655 43.9038 46.4813 43.8639 46.4949C43.5982 46.5921 43.3259 46.6701 43.0491 46.7285C42.8439 46.7724 42.6365 46.8051 42.4277 46.8265C42.299 46.8408 42.1689 46.8506 42.0372 46.8551C41.9529 46.8589 41.8687 46.8611 41.7836 46.8611C41.4057 46.8613 41.0287 46.826 40.6574 46.7556C40.4314 46.7141 40.208 46.6593 39.9885 46.5914C39.654 46.4881 39.3291 46.3563 39.0172 46.1972C38.9811 46.1784 38.9449 46.1596 38.9096 46.14C38.8584 46.1128 38.8073 46.085 38.7576 46.0556C38.72 46.0345 38.6824 46.0119 38.6455 45.99C38.6237 45.9772 38.6026 45.9644 38.5808 45.9508C37.5415 45.3073 36.7169 44.3685 36.2124 43.2539C36.1898 43.2041 36.168 43.1536 36.1469 43.1032C35.7581 42.1729 35.6048 41.1608 35.7007 40.157C35.7965 39.1531 36.1386 38.1885 36.6964 37.3489C37.2542 36.5093 38.0104 35.8208 38.898 35.3445C39.7855 34.8682 40.7768 34.619 41.7836 34.6189C41.8867 34.6189 41.989 34.6212 42.0906 34.6272C42.141 34.6287 42.1915 34.6325 42.2411 34.6362C43.0996 34.7014 43.9347 34.9474 44.6918 35.3581C45.4488 35.7687 46.1108 36.3349 46.6343 37.0195C47.1579 37.704 47.5312 38.4916 47.73 39.3306C47.9287 40.1697 47.9483 41.0413 47.7876 41.8884L47.7876 41.8884Z" fill="#3F3D56"/>
<path d="M40.3782 37.171C40.3454 36.8254 39.9228 36.6127 39.5922 36.7171C39.2617 36.8215 39.0447 37.1548 38.9791 37.4956C38.9475 37.6392 38.9446 37.7875 38.9704 37.9322C38.9962 38.0769 39.0502 38.2151 39.1295 38.3388C39.2965 38.5796 39.6036 38.7299 39.8899 38.6688C40.2168 38.599 40.4433 38.2793 40.5081 37.9509C40.5729 37.6225 40.5086 37.2839 40.4443 36.9554L40.3782 37.171Z" fill="#2F2E41"/>
<path d="M45.0299 37.6646C44.9971 37.3191 44.5745 37.1064 44.2439 37.2107C43.9134 37.3151 43.6964 37.6484 43.6308 37.9893C43.5992 38.1328 43.5963 38.2812 43.6221 38.4259C43.6479 38.5706 43.702 38.7087 43.7812 38.8325C43.9482 39.0733 44.2553 39.2236 44.5416 39.1625C44.8685 39.0927 45.095 38.773 45.1598 38.4446C45.2246 38.1162 45.1603 37.7776 45.096 37.449L45.0299 37.6646Z" fill="#2F2E41"/>
<path d="M29.8526 11.4726C28.8851 12.0931 27.7641 12.4315 26.6154 12.4498C25.4667 12.4681 24.3356 12.1656 23.3489 11.5763C23.5224 11.2526 23.7424 10.9562 24.0017 10.6964C24.4018 10.2937 24.8887 9.98833 25.425 9.80359C25.9614 9.61885 26.5329 9.55971 27.0956 9.6307C27.6583 9.7017 28.1973 9.90095 28.6711 10.2131C29.145 10.5253 29.541 10.9421 29.8289 11.4316C29.8366 11.4448 29.8449 11.4587 29.8526 11.4726Z" fill="#FF3939"/>
<path d="M26.3292 8.14651C28.0245 8.14651 29.3988 6.77002 29.3988 5.07204C29.3988 3.37405 28.0245 1.99756 26.3292 1.99756C24.6339 1.99756 23.2595 3.37405 23.2595 5.07204C23.2595 6.77002 24.6339 8.14651 26.3292 8.14651Z" fill="#2F2E41"/>
<path d="M28.3123 7.24055C28.9175 6.13165 28.5106 4.74131 27.4035 4.13513C26.2963 3.52895 24.9082 3.93649 24.3029 5.04539C23.6977 6.15428 24.1046 7.54463 25.2118 8.15081C26.3189 8.75698 27.7071 8.34945 28.3123 7.24055Z" fill="#FFB8B8"/>
<path d="M24.208 4.70337C24.73 5.06377 25.3497 5.25558 25.9838 5.25304C25.7576 5.41011 25.5001 5.51621 25.229 5.56403C26.0721 5.74515 26.9434 5.75005 27.7884 5.57843C27.9762 5.54827 28.1574 5.48592 28.3241 5.39413C28.4072 5.34766 28.4796 5.28421 28.5366 5.20789C28.5935 5.13157 28.6338 5.0441 28.6548 4.95115C28.711 4.62987 28.461 4.33797 28.2013 4.14125C27.8036 3.84466 27.345 3.64031 26.8588 3.54299C26.3725 3.44568 25.8708 3.45782 25.3898 3.57856C25.0758 3.65987 24.7611 3.79724 24.5572 4.04986C24.3532 4.30247 24.2927 4.69191 24.4871 4.95203L24.208 4.70337Z" fill="#2F2E41"/>
<path d="M26.5173 0C24.8602 0.00184536 23.2715 0.661923 22.0997 1.83544C20.9279 3.00895 20.2687 4.60007 20.2666 6.25977C20.2669 6.76607 20.329 7.27043 20.4517 7.7616C20.4645 7.81209 20.4773 7.86258 20.4908 7.91231C20.8514 9.23626 21.6367 10.4047 22.7258 11.2374C23.8148 12.0701 25.1472 12.5209 26.5173 12.5203C27.8877 12.5203 29.2202 12.0693 30.3097 11.2367C31.3993 10.4042 32.1855 9.23613 32.5476 7.91231C32.5611 7.86182 32.5739 7.81209 32.5859 7.7616C32.8126 6.83946 32.8269 5.87776 32.6279 4.94924C32.4289 4.02072 32.0217 3.14968 31.4371 2.40198C30.8525 1.65429 30.1058 1.04951 29.2535 0.633379C28.4011 0.21725 27.4655 0.000664374 26.5173 0ZM32.443 7.7616C32.4309 7.81209 32.4174 7.86258 32.4031 7.91231C32.1493 8.8178 31.6906 9.65256 31.0627 10.3519C30.4348 11.0512 29.6545 11.5962 28.7823 11.9448C27.9102 12.2933 26.9696 12.436 26.0335 12.3618C25.0974 12.2875 24.1909 11.9983 23.3844 11.5166C22.044 10.7087 21.0611 9.41998 20.6353 7.91231C20.621 7.86182 20.6074 7.81209 20.5946 7.7616C20.4693 7.27086 20.4058 6.76632 20.4058 6.25977C20.4068 5.39268 20.5917 4.5357 20.9483 3.74559C21.3048 2.95547 21.825 2.25025 22.4742 1.67664C23.1234 1.10303 23.8869 0.674124 24.7141 0.418324C25.5413 0.162523 26.4133 0.0856698 27.2724 0.192854C28.1315 0.300039 28.958 0.588814 29.6972 1.04005C30.4365 1.49129 31.0716 2.0947 31.5605 2.8103C32.0493 3.52591 32.3808 4.33738 32.533 5.19097C32.6851 6.04455 32.6544 6.92078 32.443 7.7616H32.443Z" fill="#3F3D56"/>
<path d="M9.58596 33.185C8.61852 33.8056 7.49765 34.144 6.34897 34.1623C5.20029 34.1807 4.0692 33.8783 3.08247 33.289C3.09298 33.2687 3.10426 33.2483 3.11631 33.2287C3.43282 32.6573 3.89408 32.1795 4.45363 31.8434C5.01319 31.5074 5.65129 31.3249 6.30365 31.3144C6.95602 31.304 7.59962 31.4659 8.16964 31.7838C8.73965 32.1017 9.21596 32.5645 9.55058 33.1255C9.5551 33.1315 9.55885 33.1383 9.56263 33.1443C9.57016 33.1571 9.57843 33.1715 9.58596 33.185Z" fill="#FF3939"/>
<path d="M9.13227 26.7845C9.13226 27.3926 8.95223 27.987 8.61493 28.4926C8.27763 28.9982 7.79821 29.3922 7.23731 29.6249C6.6764 29.8576 6.05919 29.9185 5.46374 29.7999C4.86828 29.6813 4.32133 29.3884 3.89203 28.9585C3.46273 28.5285 3.17038 27.9807 3.05193 27.3843C2.93349 26.7879 2.99428 26.1697 3.22662 25.6079C3.45895 25.0461 3.8524 24.566 4.3572 24.2281C4.862 23.8903 5.45549 23.71 6.06261 23.71C6.46626 23.7081 6.8663 23.7863 7.2396 23.9401C7.6129 24.0939 7.95206 24.3203 8.23749 24.6062C8.52292 24.8921 8.74896 25.2318 8.90254 25.6057C9.05612 25.9795 9.1342 26.3802 9.13227 26.7845Z" fill="#2F2E41"/>
<path d="M8.4679 28.6945C8.43276 28.783 8.39231 28.8693 8.34678 28.953C8.05611 29.4855 7.56617 29.8805 6.98473 30.0512C6.40328 30.2219 5.77795 30.1543 5.24626 29.8633C4.98278 29.7193 4.75022 29.5247 4.56186 29.2906C4.3735 29.0565 4.23304 28.7876 4.14851 28.4991C4.06397 28.2106 4.03702 27.9083 4.06919 27.6094C4.10136 27.3105 4.19202 27.0209 4.33599 26.7571C4.47996 26.4933 4.67442 26.2605 4.90825 26.072C5.14209 25.8835 5.41071 25.743 5.69878 25.6586C5.98685 25.5741 6.28871 25.5473 6.58712 25.5798C6.88553 25.6122 7.17463 25.7032 7.43791 25.8476C7.92631 26.1151 8.30045 26.5519 8.49009 27.0761C8.67974 27.6003 8.67185 28.1757 8.4679 28.6945Z" fill="#A0616A"/>
<path d="M10.801 23.6876C10.7529 23.6348 10.7025 23.5828 10.6506 23.5323C9.81456 22.7025 8.76148 22.1262 7.61268 21.8696C6.46387 21.6131 5.26608 21.6869 4.15731 22.0825C3.04854 22.478 2.07392 23.1793 1.34573 24.1055C0.617536 25.0316 0.165412 26.145 0.0414458 27.3173C-0.0825199 28.4896 0.126717 29.6731 0.645051 30.7315C1.16338 31.7899 1.96972 32.6801 2.97116 33.2995C3.9726 33.9189 5.12838 34.2424 6.30535 34.2326C7.48232 34.2228 8.63257 33.8801 9.62359 33.2441C9.99369 33.0063 10.3379 32.7302 10.6506 32.4205C10.7017 32.37 10.7521 32.3188 10.801 32.266C11.8927 31.1055 12.5006 29.5712 12.5006 27.9768C12.5006 26.3823 11.8927 24.8481 10.801 23.6876V23.6876ZM10.6506 32.2223C10.3201 32.5652 9.95101 32.8684 9.55059 33.1258C9.54986 33.1266 9.54909 33.1266 9.54835 33.1273C8.5917 33.7408 7.48339 34.0753 6.34762 34.0934C5.21185 34.1115 4.09348 33.8124 3.11782 33.2298C3.11709 33.2298 3.11709 33.2291 3.11632 33.2291C2.36803 32.7821 1.72381 32.1801 1.22687 31.4634C0.729919 30.7467 0.391736 29.9318 0.234998 29.0734C0.0782609 28.215 0.106592 27.333 0.318093 26.4865C0.529593 25.64 0.919372 24.8486 1.46129 24.1654C2.0032 23.4821 2.68473 22.9228 3.46015 22.525C4.23557 22.1272 5.08696 21.9 5.95722 21.8587C6.82748 21.8175 7.69649 21.9631 8.50596 22.2858C9.31543 22.6085 10.0466 23.1008 10.6506 23.7298C10.7025 23.7825 10.7521 23.8368 10.801 23.8918C11.8058 25.0142 12.3614 26.4686 12.3614 27.976C12.3614 29.4835 11.8058 30.9379 10.801 32.0603C10.7529 32.1153 10.7025 32.1696 10.6506 32.2223Z" fill="#3F3D56"/>
<path d="M8.55051 24.2313C8.39929 23.9742 8.18007 23.7639 7.91706 23.6238C7.65406 23.4836 7.3575 23.419 7.06013 23.437C6.748 23.4604 6.45103 23.5756 6.15943 23.6896L4.67691 24.2688C4.29329 24.4187 3.87315 24.6022 3.70668 24.9795C3.55218 25.3296 3.66745 25.7339 3.78414 26.0984L4.3388 27.8311C4.41481 27.4418 4.49201 27.0488 4.65312 26.6865C4.81424 26.3242 5.06906 25.9902 5.42137 25.8092C5.80645 25.6113 6.26033 25.6154 6.69263 25.6363C7.30488 25.6658 7.97057 25.7438 8.40557 26.1763C8.63649 26.4219 8.79305 26.7282 8.85704 27.0594C8.92002 27.3889 8.95172 27.7236 8.95171 28.059C9.20278 27.6268 9.41427 27.1727 9.58359 26.7022C9.72288 26.352 9.80225 25.9807 9.81837 25.604C9.82169 25.2278 9.71535 24.8397 9.46488 24.5593C9.21442 24.2789 8.80632 24.1276 8.44742 24.2386" fill="#2F2E41"/>
<path d="M3.87564 15.9637L3.72519 15.9619C3.72698 15.8112 3.73131 15.6582 3.73807 15.5073L3.8884 15.5141C3.88171 15.6633 3.87743 15.8146 3.87564 15.9637Z" fill="#E6E6E6"/>
<path d="M3.95449 14.6535L3.8049 14.6371C3.83632 14.3491 3.87747 14.0585 3.9272 13.7736L4.07543 13.7996C4.02624 14.0813 3.98556 14.3686 3.95449 14.6535ZM4.25109 12.9553L4.10484 12.9198C4.17294 12.6384 4.25114 12.3556 4.33728 12.0792L4.48092 12.1241C4.39575 12.3974 4.31842 12.677 4.25109 12.9553ZM4.76439 11.3086L4.62397 11.2545C4.72789 10.9841 4.84207 10.7136 4.96331 10.4503L5.09995 10.5135C4.98005 10.7738 4.86716 11.0413 4.76439 11.3086ZM5.48607 9.74178L5.3538 9.66996C5.49156 9.41549 5.63954 9.16201 5.79361 8.91656L5.921 8.99677C5.76863 9.2395 5.62231 9.49015 5.48607 9.74179L5.48607 9.74178ZM6.40276 8.28137L6.28077 8.19314C6.45006 7.95835 6.62919 7.72599 6.81316 7.50254L6.92925 7.59843C6.74732 7.81942 6.57018 8.04916 6.40276 8.28137V8.28137ZM7.49822 6.95069L7.38849 6.8476C7.58618 6.63654 7.79339 6.42906 8.00435 6.23084L8.10729 6.34079C7.89866 6.53679 7.69374 6.742 7.49822 6.95069V6.95069ZM8.75392 5.77113L8.65821 5.65486C8.88125 5.47066 9.11314 5.29136 9.34741 5.12196L9.4355 5.24412C9.20382 5.41169 8.97451 5.589 8.75392 5.77113V5.77113ZM10.1493 4.76204L10.0692 4.63444C10.3139 4.48034 10.5667 4.33232 10.8206 4.19445L10.8923 4.32691C10.6413 4.46327 10.3913 4.60964 10.1493 4.76204V4.76204ZM11.6616 3.94075L11.5986 3.80387C11.8608 3.68271 12.1304 3.56853 12.3999 3.46452L12.454 3.60514C12.1875 3.70799 11.9209 3.82091 11.6616 3.94075V3.94075ZM13.2662 3.32164L13.2213 3.17777C13.4971 3.09142 13.7794 3.01297 14.0604 2.94464L14.0959 3.09109C13.818 3.15868 13.5389 3.23624 13.2662 3.32164V3.32164ZM14.9388 2.9148L14.9129 2.76637C15.1973 2.71644 15.4873 2.67512 15.7749 2.64355L15.7913 2.79338C15.5069 2.82459 15.22 2.86546 14.9388 2.91481V2.9148Z" fill="#E6E6E6"/>
<path d="M16.6557 2.72647L16.6489 2.5759C16.7997 2.56913 16.9524 2.56479 17.1028 2.56299L17.1046 2.7137C16.9558 2.71547 16.8048 2.71977 16.6557 2.72647Z" fill="#E6E6E6"/>
<path d="M4.43139 15.4793L4.32387 15.3738L3.80519 15.9051L3.31389 15.3481L3.20111 15.4481L3.79962 16.1263L4.43139 15.4793Z" fill="#E6E6E6"/>
<path d="M16.6209 3.2703L16.5155 3.16261L17.046 2.64311L16.4899 2.15104L16.5898 2.03809L17.2669 2.63754L16.6209 3.2703Z" fill="#E6E6E6"/>
<path d="M39.1327 4.21654C39.0002 4.14673 38.8668 4.07813 38.7324 4.01073L38.7998 3.87598C38.9351 3.94379 39.0694 4.01285 39.2028 4.08315L39.1327 4.21654Z" fill="#E6E6E6"/>
<path d="M49.3578 32.0326L49.2185 31.9754C49.3317 31.6987 49.4406 31.4165 49.5421 31.1365L49.6835 31.1879C49.5814 31.4698 49.4717 31.754 49.3578 32.0326ZM49.9747 30.3306L49.8312 30.285C49.9214 30.0004 50.0069 29.7102 50.0853 29.4224L50.2305 29.462C50.1516 29.7519 50.0655 30.0441 49.9747 30.3306ZM50.4505 28.5836L50.3038 28.55C50.3704 28.2587 50.4318 27.9624 50.4862 27.6692L50.6341 27.6968C50.5793 27.992 50.5175 28.2904 50.4505 28.5836V28.5836ZM50.7811 26.8032L50.6322 26.7817C50.6746 26.4862 50.7114 26.1858 50.7415 25.8889L50.8912 25.9042C50.8608 26.2031 50.8238 26.5056 50.7811 26.8032V26.8032ZM50.9642 25.0014L50.814 24.9923C50.8319 24.6944 50.8439 24.392 50.8495 24.0934L51 24.0963C50.9943 24.3969 50.9822 24.7014 50.9642 25.0014ZM50.9986 23.1905L50.8482 23.1938C50.8453 23.0627 50.8412 22.9318 50.836 22.8009C50.8293 22.6331 50.8205 22.4629 50.8099 22.2949L50.9601 22.2854C50.9708 22.4545 50.9796 22.6259 50.9863 22.7949C50.9916 22.9266 50.9957 23.0585 50.9986 23.1905L50.9986 23.1905ZM50.735 21.3989C50.704 21.102 50.6665 20.8017 50.6235 20.5065L50.7724 20.4847C50.8157 20.782 50.8534 21.0843 50.8846 21.3832L50.735 21.3989ZM50.4757 19.6193C50.4207 19.3262 50.3589 19.0299 50.2919 18.7389L50.4385 18.705C50.506 18.9981 50.5682 19.2963 50.6236 19.5915L50.4757 19.6193ZM50.0724 17.8665C49.9937 17.5784 49.908 17.2882 49.8177 17.0038L49.9611 16.9581C50.052 17.2444 50.1383 17.5367 50.2176 17.8268L50.0724 17.8665ZM49.5281 16.1522C49.4263 15.8715 49.3173 15.5891 49.2041 15.3129L49.3434 15.2556C49.4573 15.5338 49.567 15.8181 49.6695 16.1007L49.5281 16.1522ZM48.8463 14.4874C48.722 14.2159 48.5904 13.9433 48.4552 13.6771L48.5893 13.6088C48.7254 13.8767 48.8579 14.1512 48.9831 14.4245L48.8463 14.4874ZM48.0313 12.8835C47.8854 12.6231 47.732 12.3621 47.5754 12.1079L47.7035 12.0288C47.8611 12.2848 48.0156 12.5476 48.1625 12.8097L48.0313 12.8835ZM47.0882 11.3515C46.9213 11.1037 46.7471 10.8562 46.5703 10.6157L46.6915 10.5263C46.8695 10.7685 47.0449 11.0178 47.2129 11.2672L47.0882 11.3515ZM46.0227 9.90165C45.8359 9.66831 45.6419 9.43588 45.4461 9.21083L45.5595 9.11179C45.7567 9.33841 45.9521 9.57244 46.1401 9.80738L46.0227 9.90165ZM44.8415 8.54429C44.6361 8.32709 44.4236 8.11143 44.2098 7.90322L44.3147 7.79516C44.5299 8.00479 44.7439 8.22198 44.9507 8.44063L44.8415 8.54429ZM43.5521 7.2887C43.3296 7.08927 43.1 6.89183 42.8696 6.70185L42.9652 6.58548C43.1972 6.77679 43.4285 6.97561 43.6525 7.17641L43.5521 7.2887ZM42.1633 6.14364C41.926 5.96388 41.6813 5.78629 41.4359 5.61584L41.5216 5.49199C41.7687 5.66362 42.0151 5.84243 42.254 6.02341L42.1633 6.14364ZM40.6875 5.11843C40.4364 4.95878 40.178 4.80185 39.9194 4.65192L39.9948 4.52148C40.2551 4.67241 40.5153 4.83044 40.7681 4.99117L40.6875 5.11843Z" fill="#E6E6E6"/>
<path d="M48.8047 33.2746L48.6692 33.2091C48.7345 33.0735 48.7983 32.9375 48.8606 32.8013L48.9974 32.864C48.9347 33.0012 48.8705 33.1381 48.8047 33.2746Z" fill="#E6E6E6"/>
<path d="M38.9209 4.72437L39.0629 4.67426L38.8155 3.97368L39.5314 3.77776L39.4915 3.63232L38.6198 3.87105L38.9209 4.72437Z" fill="#E6E6E6"/>
<path d="M48.3833 32.5291L48.5263 32.4819L48.7578 33.1879L49.444 32.9052L49.5011 33.0448L48.6653 33.389L48.3833 32.5291Z" fill="#E6E6E6"/>
</g>
<defs>
<clipPath id="clip0">
<rect width="51" height="47" fill="white"/>
</clipPath>
</defs>
</svg>
