<svg width="55" height="45" viewBox="0 0 55 45" fill="none" xmlns="http://www.w3.org/2000/svg">
<path d="M25.8336 45.0001C37.8299 45.0001 47.5548 44.5135 47.5548 43.9131C47.5548 43.3128 37.8299 42.8262 25.8336 42.8262C13.8373 42.8262 4.11243 43.3128 4.11243 43.9131C4.11243 44.5135 13.8373 45.0001 25.8336 45.0001Z" fill="#F2F2F2"/>
<path d="M38.5241 10.4438H38.2773V3.82865C38.2773 2.81323 37.8651 1.8394 37.1314 1.12139C36.3977 0.403376 35.4026 1.1211e-06 34.3649 0H20.0433C19.0057 -1.92187e-06 18.0106 0.403369 17.2768 1.12138C16.5431 1.83939 16.1309 2.81322 16.1309 3.82863V40.1196C16.1309 41.1351 16.5431 42.1089 17.2768 42.8269C18.0106 43.5449 19.0057 43.9483 20.0433 43.9483H34.3649C35.4025 43.9483 36.3977 43.5449 37.1314 42.8269C37.8651 42.1089 38.2773 41.1351 38.2773 40.1196V15.1525H38.5241L38.5241 10.4438Z" fill="#3F3D56"/>
<path d="M37.4446 3.85517V40.0928C37.4446 40.8511 37.1368 41.5784 36.5888 42.1146C36.0409 42.6508 35.2977 42.9521 34.5228 42.9521H20.1324C19.3575 42.9521 18.6143 42.6508 18.0664 42.1146C17.5184 41.5784 17.2106 40.8511 17.2106 40.0928V3.85517C17.2106 3.09684 17.5184 2.36956 18.0664 1.83334C18.6143 1.29712 19.3575 0.995864 20.1324 0.99585H21.8782C21.7924 1.20213 21.7597 1.42588 21.783 1.64741C21.8064 1.86895 21.885 2.08148 22.0119 2.26631C22.1389 2.45114 22.3103 2.60262 22.5111 2.7074C22.7119 2.81219 22.936 2.86708 23.1635 2.86724H31.3682C31.5958 2.86707 31.8199 2.81218 32.0207 2.7074C32.2215 2.60261 32.3929 2.45114 32.5199 2.26631C32.6468 2.08147 32.7254 1.86894 32.7487 1.64741C32.7721 1.42588 32.7394 1.20213 32.6536 0.99585H34.5228C35.2977 0.995864 36.0409 1.29712 36.5888 1.83334C37.1368 2.36956 37.4446 3.09684 37.4446 3.85517Z" fill="white"/>
<path d="M32.8087 19.4808C32.7131 19.5298 32.6158 19.5761 32.5168 19.6197C32.4267 19.6596 32.3352 19.697 32.2422 19.7321C32.2083 19.7447 32.1738 19.7574 32.1392 19.7701C31.866 19.8671 31.5854 19.9428 31.3 19.9965C31.1586 20.0237 31.0155 20.0451 30.8705 20.0606C30.7508 20.0738 30.6298 20.0833 30.5076 20.0889C30.4206 20.0932 30.3336 20.095 30.246 20.095C29.899 20.0951 29.5527 20.0634 29.2118 20.0002C29.1229 19.9845 29.0359 19.9658 28.9489 19.9452C28.528 19.8465 28.1206 19.6994 27.7351 19.5068C27.7005 19.4899 27.666 19.4718 27.6314 19.4543C27.5802 19.4277 27.5302 19.3999 27.4802 19.3709C27.5043 19.3383 27.5302 19.3063 27.5567 19.2749C27.8455 18.9247 28.2064 18.638 28.616 18.4335C29.0255 18.229 29.4745 18.1112 29.9337 18.0878C30.3929 18.0645 30.852 18.136 31.281 18.2979C31.71 18.4598 32.0994 18.7083 32.4237 19.0273C32.5362 19.1379 32.6406 19.2561 32.7359 19.3812C32.7612 19.4138 32.7853 19.447 32.8087 19.4808Z" fill="#FF3939"/>
<path d="M30.3692 16.8283C31.8656 16.8283 33.0787 15.6411 33.0787 14.1767C33.0787 12.7123 31.8656 11.5251 30.3692 11.5251C28.8727 11.5251 27.6596 12.7123 27.6596 14.1767C27.6596 15.6411 28.8727 16.8283 30.3692 16.8283Z" fill="#2F2E41"/>
<path d="M31.0898 16.8319C32.0671 16.3091 32.4263 15.11 31.892 14.1536C31.3578 13.1973 30.1325 12.8458 29.1552 13.3686C28.1779 13.8914 27.8187 15.0905 28.353 16.0468C28.8872 17.0032 30.1125 17.3547 31.0898 16.8319Z" fill="#A0616A"/>
<path d="M32.2416 13.859C31.7807 14.1699 31.2338 14.3353 30.6741 14.3331C30.8737 14.4686 31.101 14.5601 31.3403 14.6013C30.5961 14.7575 29.827 14.7618 29.0811 14.6137C28.9153 14.5877 28.7553 14.534 28.6082 14.4548C28.5349 14.4147 28.471 14.36 28.4207 14.2942C28.3704 14.2283 28.3348 14.1529 28.3163 14.0727C28.2667 13.7956 28.4874 13.5439 28.7167 13.3742C29.0677 13.1184 29.4725 12.9422 29.9017 12.8583C30.3309 12.7743 30.7738 12.7848 31.1983 12.889C31.4756 12.9591 31.7533 13.0776 31.9333 13.2954C32.1134 13.5133 32.1667 13.8492 31.9952 14.0735L32.2416 13.859Z" fill="#2F2E41"/>
<path d="M30.246 9.22534C29.0348 9.22517 27.8568 9.61253 26.8915 10.3284C25.9261 11.0442 25.2264 12.0493 24.899 13.1905C24.5716 14.3316 24.6345 15.5462 25.078 16.6492C25.5215 17.7521 26.3213 18.6829 27.3556 19.2997L27.3914 19.3202C27.421 19.3377 27.4507 19.3547 27.4803 19.371C27.5303 19.3999 27.5802 19.4277 27.6314 19.4543C27.666 19.4718 27.7006 19.4899 27.7351 19.5068C28.1206 19.6994 28.528 19.8465 28.9489 19.9452C29.0359 19.9658 29.1229 19.9845 29.2118 20.0002C29.5528 20.0634 29.899 20.0951 30.246 20.095C30.3336 20.095 30.4207 20.0932 30.5077 20.089C30.6299 20.0835 30.7508 20.0741 30.8705 20.0606C31.0155 20.0449 31.1587 20.0235 31.3 19.9966C31.5854 19.9428 31.866 19.8671 32.1392 19.7701C32.1738 19.7574 32.2083 19.7448 32.2423 19.7321C32.3355 19.697 32.427 19.6596 32.5169 19.6198C32.6156 19.5763 32.7129 19.53 32.8088 19.4809C33.7694 18.9885 34.5634 18.234 35.0944 17.3087C35.0969 17.3039 35.1 17.2991 35.1025 17.2942C35.3858 16.7967 35.5867 16.2585 35.6979 15.6994C35.854 14.9124 35.8304 14.1014 35.6287 13.3244C35.427 12.5474 35.0522 11.8236 34.5312 11.2049C34.0102 10.5863 33.3559 10.088 32.6151 9.74574C31.8742 9.4035 31.0653 9.2258 30.246 9.22534H30.246ZM35.0012 17.2236C34.9963 17.2321 34.992 17.2405 34.9871 17.2484C34.4666 18.1599 33.6838 18.9017 32.7359 19.3812C32.6415 19.4295 32.5455 19.4748 32.4478 19.5171C32.3669 19.5527 32.2843 19.5865 32.2009 19.6179C32.1657 19.6312 32.13 19.6445 32.0942 19.6566C31.8581 19.741 31.6163 19.8088 31.3704 19.8595C31.1879 19.8975 31.0036 19.9259 30.8181 19.9446C30.7039 19.9567 30.5879 19.9652 30.4712 19.9694C30.3966 19.9724 30.3213 19.9742 30.246 19.9742C29.9102 19.9746 29.5751 19.9441 29.2451 19.883C29.0444 19.8468 28.846 19.7992 28.6509 19.7405C28.3537 19.6507 28.0648 19.5361 27.7876 19.3981C27.7555 19.3818 27.7234 19.3655 27.6919 19.3486C27.6469 19.3251 27.6012 19.3009 27.5568 19.2749C27.5235 19.2568 27.4901 19.2375 27.4574 19.2182C27.4383 19.2073 27.4192 19.1958 27.4 19.1844C26.4932 18.6394 25.7699 17.8459 25.3197 16.9022C24.8695 15.9586 24.7123 14.9064 24.8677 13.8762C25.023 12.846 25.484 11.883 26.1935 11.1068C26.903 10.3307 27.8298 9.77543 28.8588 9.50999C29.8878 9.24455 30.9738 9.28059 31.9821 9.61366C32.9904 9.94672 33.8766 10.5621 34.5307 11.3836C35.1848 12.205 35.5781 13.1963 35.6617 14.2345C35.7454 15.2726 35.5157 16.312 35.0012 17.2236H35.0012Z" fill="#3F3D56"/>
<path d="M28.997 11.5615C28.9679 11.2615 28.5923 11.0768 28.2986 11.1674C28.0049 11.258 27.8121 11.5474 27.7538 11.8433C27.7258 11.968 27.7231 12.0968 27.7461 12.2224C27.769 12.348 27.817 12.468 27.8874 12.5754C28.0359 12.7845 28.3087 12.9149 28.5632 12.8619C28.8536 12.8013 29.0549 12.5237 29.1124 12.2386C29.17 11.9535 29.1128 11.6595 29.0558 11.3743L28.997 11.5615Z" fill="#2F2E41"/>
<path d="M33.1304 11.9902C33.1012 11.6902 32.7256 11.5055 32.4319 11.5961C32.1382 11.6868 31.9454 11.9761 31.8871 12.2721C31.8591 12.3967 31.8565 12.5255 31.8794 12.6511C31.9023 12.7767 31.9504 12.8967 32.0208 13.0041C32.1692 13.2132 32.442 13.3436 32.6965 13.2906C32.9869 13.23 33.1882 12.9524 33.2458 12.6673C33.3033 12.3822 33.2462 12.0882 33.1891 11.803L33.1304 11.9902Z" fill="#2F2E41"/>
<path d="M20.6465 16.8323C20.6081 16.8322 20.5701 16.8243 20.5349 16.8091C20.4998 16.7939 20.4683 16.7716 20.4424 16.7438L17.3804 13.4749C17.3456 13.4379 17.3034 13.4083 17.2564 13.3881C17.2094 13.3678 17.1586 13.3574 17.1072 13.3573H0.926192C0.680635 13.357 0.445215 13.2614 0.27158 13.0915C0.0979446 12.9216 0.000275698 12.6912 0 12.4509V6.74059C0.000275535 6.50029 0.0979446 6.26991 0.27158 6.09999C0.445215 5.93008 0.680635 5.8345 0.926192 5.83423H21.8899C22.1355 5.8345 22.3709 5.93008 22.5446 6.09999C22.7182 6.26991 22.8159 6.50029 22.8161 6.74059V12.4509C22.8159 12.6912 22.7182 12.9216 22.5446 13.0915C22.3709 13.2614 22.1355 13.357 21.8899 13.3573H21.2956C21.1974 13.3574 21.1032 13.3956 21.0337 13.4636C20.9643 13.5316 20.9252 13.6238 20.9251 13.7199V16.5601C20.9253 16.6149 20.9085 16.6685 20.8769 16.7138C20.8452 16.7591 20.8003 16.7938 20.748 16.8135C20.7156 16.8259 20.6812 16.8322 20.6465 16.8323Z" fill="white"/>
<path d="M20.6465 16.8323C20.6081 16.8322 20.5701 16.8243 20.5349 16.8091C20.4998 16.7939 20.4683 16.7716 20.4424 16.7438L17.3804 13.4749C17.3456 13.4379 17.3034 13.4083 17.2564 13.3881C17.2094 13.3678 17.1586 13.3574 17.1072 13.3573H0.926192C0.680635 13.357 0.445215 13.2614 0.27158 13.0915C0.0979446 12.9216 0.000275698 12.6912 0 12.4509V6.74059C0.000275535 6.50029 0.0979446 6.26991 0.27158 6.09999C0.445215 5.93008 0.680635 5.8345 0.926192 5.83423H21.8899C22.1355 5.8345 22.3709 5.93008 22.5446 6.09999C22.7182 6.26991 22.8159 6.50029 22.8161 6.74059V12.4509C22.8159 12.6912 22.7182 12.9216 22.5446 13.0915C22.3709 13.2614 22.1355 13.357 21.8899 13.3573H21.2956C21.1974 13.3574 21.1032 13.3956 21.0337 13.4636C20.9643 13.5316 20.9252 13.6238 20.9251 13.7199V16.5601C20.9253 16.6149 20.9085 16.6685 20.8769 16.7138C20.8452 16.7591 20.8003 16.7938 20.748 16.8135C20.7156 16.8259 20.6812 16.8322 20.6465 16.8323ZM0.926192 5.955C0.713356 5.95524 0.509306 6.03808 0.358808 6.18536C0.208311 6.33263 0.123656 6.53231 0.123416 6.74059V12.4509C0.123657 12.6592 0.208312 12.8589 0.358809 13.0062C0.509307 13.1534 0.713356 13.2363 0.926192 13.2365H17.1072C17.1757 13.2366 17.2434 13.2506 17.3061 13.2775C17.3687 13.3045 17.425 13.3439 17.4713 13.3933L20.5334 16.6622C20.5544 16.6847 20.5819 16.7004 20.6122 16.7073C20.6425 16.7142 20.6742 16.712 20.7032 16.7009C20.7322 16.6899 20.7571 16.6705 20.7747 16.6454C20.7923 16.6203 20.8017 16.5905 20.8017 16.5601V13.7199C20.8018 13.5918 20.8539 13.4689 20.9465 13.3783C21.0391 13.2876 21.1647 13.2367 21.2956 13.2365H21.8899C22.1028 13.2363 22.3068 13.1534 22.4573 13.0062C22.6078 12.8589 22.6925 12.6592 22.6927 12.4509V6.74059C22.6925 6.53231 22.6078 6.33263 22.4573 6.18536C22.3068 6.03808 22.1028 5.95524 21.8899 5.955H0.926192Z" fill="#3F3D56"/>
<path d="M2.27186 8.35306C2.71947 8.35306 3.08232 7.99797 3.08232 7.55995C3.08232 7.12193 2.71947 6.76685 2.27186 6.76685C1.82426 6.76685 1.46141 7.12193 1.46141 7.55995C1.46141 7.99797 1.82426 8.35306 2.27186 8.35306Z" fill="#FF3939"/>
<path d="M20.9444 11.9485H1.87169C1.81489 11.9486 1.75863 11.9377 1.70612 11.9165C1.65362 11.8952 1.60591 11.8641 1.56572 11.8248C1.52553 11.7855 1.49364 11.7389 1.47189 11.6875C1.45013 11.6362 1.43893 11.5811 1.43893 11.5255C1.43893 11.4699 1.45013 11.4149 1.47189 11.3635C1.49364 11.3122 1.52553 11.2655 1.56572 11.2263C1.60591 11.187 1.65362 11.1558 1.70612 11.1346C1.75863 11.1134 1.81489 11.1025 1.87169 11.1025H20.9444C21.0589 11.1027 21.1687 11.1473 21.2497 11.2266C21.3306 11.3059 21.3761 11.4134 21.3761 11.5255C21.3761 11.6376 21.3306 11.7451 21.2497 11.8244C21.1687 11.9038 21.0589 11.9484 20.9444 11.9485Z" fill="#E6E6E6"/>
<path d="M14.7309 10.1509H1.87169C1.81489 10.151 1.75863 10.1401 1.70612 10.1189C1.65362 10.0976 1.60591 10.0665 1.56572 10.0272C1.52553 9.98792 1.49364 9.94127 1.47189 9.88991C1.45013 9.83856 1.43893 9.78351 1.43893 9.72792C1.43893 9.67233 1.45013 9.61729 1.47189 9.56594C1.49364 9.51458 1.52553 9.46793 1.56572 9.42864C1.60591 9.38936 1.65362 9.35821 1.70612 9.33699C1.75863 9.31576 1.81489 9.30487 1.87169 9.30493H14.7309C14.8455 9.30493 14.9555 9.3495 15.0365 9.42882C15.1176 9.50815 15.1631 9.61574 15.1631 9.72792C15.1631 9.84011 15.1176 9.9477 15.0365 10.027C14.9555 10.1064 14.8455 10.1509 14.7309 10.1509Z" fill="#E6E6E6"/>
<path d="M34.252 36.1977C34.1997 36.1781 34.1548 36.1433 34.1231 36.0981C34.0915 36.0528 34.0747 35.9992 34.0749 35.9444V33.1042C34.0748 33.0081 34.0357 32.9159 33.9663 32.8479C33.8968 32.7799 33.8026 32.7417 33.7044 32.7416H33.1101C32.8645 32.7413 32.6291 32.6457 32.4554 32.4758C32.2818 32.3059 32.1841 32.0755 32.1839 31.8352V26.1249C32.1841 25.8846 32.2818 25.6542 32.4554 25.4843C32.6291 25.3144 32.8645 25.2188 33.1101 25.2185H54.0738C54.3194 25.2188 54.5548 25.3144 54.7284 25.4843C54.9021 25.6542 54.9997 25.8846 55 26.1249V31.8352C54.9997 32.0755 54.9021 32.3059 54.7284 32.4758C54.5548 32.6457 54.3194 32.7413 54.0738 32.7416H37.8928C37.8414 32.7416 37.7906 32.7521 37.7436 32.7724C37.6966 32.7926 37.6544 32.8221 37.6196 32.8592L34.5576 36.1281C34.5317 36.1559 34.5002 36.1782 34.4651 36.1934C34.4299 36.2086 34.3919 36.2165 34.3535 36.2165C34.3188 36.2165 34.2844 36.2101 34.252 36.1977Z" fill="white"/>
<path d="M34.252 36.1977C34.1997 36.1781 34.1548 36.1433 34.1231 36.0981C34.0915 36.0528 34.0747 35.9992 34.0749 35.9444V33.1042C34.0748 33.0081 34.0357 32.9159 33.9663 32.8479C33.8968 32.7799 33.8026 32.7417 33.7044 32.7416H33.1101C32.8645 32.7413 32.6291 32.6457 32.4554 32.4758C32.2818 32.3059 32.1841 32.0755 32.1839 31.8352V26.1249C32.1841 25.8846 32.2818 25.6542 32.4554 25.4843C32.6291 25.3144 32.8645 25.2188 33.1101 25.2185H54.0738C54.3194 25.2188 54.5548 25.3144 54.7284 25.4843C54.9021 25.6542 54.9997 25.8846 55 26.1249V31.8352C54.9997 32.0755 54.9021 32.3059 54.7284 32.4758C54.5548 32.6457 54.3194 32.7413 54.0738 32.7416H37.8928C37.8414 32.7416 37.7906 32.7521 37.7436 32.7724C37.6966 32.7926 37.6544 32.8221 37.6196 32.8592L34.5576 36.1281C34.5317 36.1559 34.5002 36.1782 34.4651 36.1934C34.4299 36.2086 34.3919 36.2165 34.3535 36.2165C34.3188 36.2165 34.2844 36.2101 34.252 36.1977ZM33.1101 25.3393C32.8972 25.3395 32.6932 25.4224 32.5427 25.5696C32.3922 25.7169 32.3075 25.9166 32.3073 26.1249V31.8352C32.3075 32.0435 32.3922 32.2432 32.5427 32.3904C32.6932 32.5377 32.8972 32.6206 33.1101 32.6208H33.7044C33.8354 32.6209 33.9609 32.6719 34.0535 32.7625C34.1461 32.8532 34.1982 32.976 34.1983 33.1042V35.9444C34.1983 35.9748 34.2077 36.0046 34.2253 36.0297C34.2429 36.0548 34.2678 36.0742 34.2968 36.0852C34.3258 36.0962 34.3575 36.0985 34.3878 36.0915C34.4181 36.0846 34.4456 36.0689 34.4666 36.0465L37.5287 32.7775C37.575 32.7282 37.6313 32.6888 37.6939 32.6618C37.7566 32.6348 37.8243 32.6209 37.8928 32.6208H54.0738C54.2866 32.6206 54.4907 32.5377 54.6412 32.3904C54.7917 32.2432 54.8763 32.0435 54.8766 31.8352V26.1249C54.8763 25.9166 54.7917 25.7169 54.6412 25.5696C54.4907 25.4224 54.2866 25.3395 54.0738 25.3393H33.1101Z" fill="#3F3D56"/>
<path d="M27.7179 37.966C26.8582 38.5047 25.8622 38.7984 24.8414 38.8143C23.8207 38.8302 22.8157 38.5676 21.9389 38.0559C22.0931 37.775 22.2886 37.5176 22.519 37.292C22.8745 36.9425 23.3071 36.6773 23.7837 36.5169C24.2603 36.3566 24.7681 36.3052 25.2681 36.3669C25.7681 36.4285 26.247 36.6015 26.6681 36.8725C27.0891 37.1435 27.441 37.5054 27.6969 37.9303C27.7036 37.9418 27.7111 37.9539 27.7179 37.966Z" fill="#FF3939"/>
<path d="M24.5871 35.0782C26.0935 35.0782 27.3147 33.8831 27.3147 32.4089C27.3147 30.9348 26.0935 29.7397 24.5871 29.7397C23.0807 29.7397 21.8595 30.9348 21.8595 32.4089C21.8595 33.8831 23.0807 35.0782 24.5871 35.0782Z" fill="#2F2E41"/>
<path d="M26.6167 34.2918C27.1544 33.3291 26.7929 32.122 25.8091 31.5957C24.8253 31.0695 23.5919 31.4233 23.0541 32.386C22.5163 33.3487 22.8778 34.5558 23.8616 35.082C24.8454 35.6083 26.0789 35.2545 26.6167 34.2918Z" fill="#FFB8B8"/>
<path d="M22.7022 32.0892C23.1661 32.4021 23.7168 32.5686 24.2802 32.5664C24.0792 32.7028 23.8504 32.7949 23.6095 32.8364C24.3586 32.9937 25.1328 32.9979 25.8837 32.8489C26.0506 32.8228 26.2116 32.7686 26.3598 32.6889C26.4336 32.6486 26.4979 32.5935 26.5485 32.5272C26.5991 32.461 26.6349 32.385 26.6536 32.3043C26.7035 32.0254 26.4814 31.772 26.2506 31.6012C25.8972 31.3437 25.4897 31.1663 25.0577 31.0818C24.6256 30.9973 24.1798 31.0079 23.7524 31.1127C23.4733 31.1833 23.1938 31.3025 23.0125 31.5218C22.8313 31.7412 22.7776 32.0793 22.9503 32.3051L22.7022 32.0892Z" fill="#2F2E41"/>
<path d="M24.754 38.8753C23.4182 38.8749 22.1273 38.4032 21.1181 37.5467C20.1089 36.6902 19.4492 35.5064 19.2598 34.2124C19.0704 32.9183 19.3642 31.6009 20.0872 30.5017C20.8101 29.4024 21.9139 28.5951 23.1959 28.2279C24.4779 27.8606 25.8523 27.958 27.0668 28.5021C28.2814 29.0463 29.2548 30.0008 29.8084 31.1904C30.3621 32.3801 30.4588 33.7252 30.0809 34.9791C29.7031 36.2329 28.8759 37.3114 27.7512 38.0167C26.8568 38.5779 25.8165 38.8759 24.754 38.8753ZM24.754 28.1264C23.6798 28.1263 22.6298 28.438 21.7366 29.0219C20.8434 29.6058 20.1473 30.4358 19.7362 31.407C19.3251 32.3781 19.2175 33.4467 19.427 34.4777C19.6365 35.5087 20.1538 36.4557 20.9133 37.1989C21.6729 37.9422 22.6406 38.4484 23.6941 38.6535C24.7476 38.8585 25.8396 38.7532 26.832 38.3509C27.8244 37.9486 28.6725 37.2673 29.2692 36.3933C29.8659 35.5192 30.1844 34.4917 30.1843 33.4405C30.1827 32.0316 29.61 30.6809 28.592 29.6846C27.574 28.6884 26.1937 28.128 24.754 28.1264Z" fill="#3F3D56"/>
<path d="M34.7919 27.677C35.2395 27.677 35.6024 27.3219 35.6024 26.8839C35.6024 26.4459 35.2395 26.0908 34.7919 26.0908C34.3443 26.0908 33.9815 26.4459 33.9815 26.8839C33.9815 27.3219 34.3443 27.677 34.7919 27.677Z" fill="#FF3939"/>
<path d="M53.4645 31.2723H34.3918C34.335 31.2723 34.2788 31.2614 34.2262 31.2402C34.1737 31.219 34.126 31.1878 34.0858 31.1486C34.0457 31.1093 34.0138 31.0626 33.992 31.0113C33.9703 30.9599 33.9591 30.9049 33.9591 30.8493C33.9591 30.7937 33.9703 30.7386 33.992 30.6873C34.0138 30.6359 34.0457 30.5893 34.0858 30.55C34.126 30.5107 34.1737 30.4795 34.2262 30.4583C34.2788 30.4371 34.335 30.4262 34.3918 30.4263H53.4645C53.5791 30.4263 53.6891 30.4708 53.7701 30.5502C53.8512 30.6295 53.8968 30.7371 53.8968 30.8493C53.8968 30.9615 53.8512 31.069 53.7701 31.1484C53.6891 31.2277 53.5791 31.2723 53.4645 31.2723Z" fill="#E6E6E6"/>
<path d="M47.251 29.4746H34.3918C34.335 29.4747 34.2788 29.4638 34.2262 29.4426C34.1737 29.4213 34.126 29.3902 34.0858 29.3509C34.0457 29.3116 34.0138 29.265 33.992 29.2136C33.9703 29.1623 33.9591 29.1072 33.9591 29.0516C33.9591 28.9961 33.9703 28.941 33.992 28.8897C34.0138 28.8383 34.0457 28.7917 34.0858 28.7524C34.126 28.7131 34.1737 28.6819 34.2262 28.6607C34.2788 28.6395 34.335 28.6286 34.3918 28.6287H47.251C47.3656 28.6288 47.4754 28.6734 47.5563 28.7527C47.6373 28.832 47.6828 28.9395 47.6828 29.0516C47.6828 29.1637 47.6373 29.2713 47.5563 29.3506C47.4754 29.4299 47.3656 29.4745 47.251 29.4746Z" fill="#E6E6E6"/>
<path d="M34.2259 36.7381C35.061 36.7381 35.738 36.6646 35.738 36.5739C35.738 36.4832 35.061 36.4097 34.2259 36.4097C33.3908 36.4097 32.7138 36.4832 32.7138 36.5739C32.7138 36.6646 33.3908 36.7381 34.2259 36.7381Z" fill="#F2F2F2"/>
<path d="M20.7119 17.4144C21.547 17.4144 22.224 17.3409 22.224 17.2502C22.224 17.1595 21.547 17.0859 20.7119 17.0859C19.8768 17.0859 19.1998 17.1595 19.1998 17.2502C19.1998 17.3409 19.8768 17.4144 20.7119 17.4144Z" fill="#F2F2F2"/>
</svg>
