<svg width="71" height="39" viewBox="0 0 71 39" fill="none" xmlns="http://www.w3.org/2000/svg">
<path d="M26.4566 26.8011C27.5694 26.8011 28.4715 25.901 28.4715 24.7906C28.4715 23.6802 27.5694 22.78 26.4566 22.78C25.3438 22.78 24.4417 23.6802 24.4417 24.7906C24.4417 25.901 25.3438 26.8011 26.4566 26.8011Z" fill="#FF3939"/>
<path d="M26.2645 25.639L25.6615 24.8654L26.0122 24.5932L26.2978 24.9595L27.2624 23.9434L27.585 24.2483L26.2645 25.639Z" fill="white"/>
<path d="M64.9588 6.38844H35.006V0H64.9588V6.38844Z" fill="white"/>
<path d="M38.8872 4.81699C39.7854 4.81699 40.5135 4.09042 40.5135 3.19414C40.5135 2.29786 39.7854 1.57129 38.8872 1.57129C37.989 1.57129 37.2609 2.29786 37.2609 3.19414C37.2609 4.09042 37.989 4.81699 38.8872 4.81699Z" fill="#FF3939"/>
<path d="M42.6432 2.1123C42.5714 2.1123 42.5024 2.1408 42.4516 2.19153C42.4007 2.24225 42.3722 2.31105 42.3722 2.38278C42.3722 2.45451 42.4007 2.52331 42.4516 2.57404C42.5024 2.62476 42.5714 2.65326 42.6432 2.65326H62.4335C62.5052 2.65309 62.574 2.62451 62.6247 2.57381C62.6754 2.5231 62.7039 2.4544 62.7039 2.38278C62.7039 2.31116 62.6754 2.24246 62.6247 2.19175C62.574 2.14105 62.5052 2.11247 62.4335 2.1123H42.6432Z" fill="#3F3D56"/>
<path d="M42.6432 3.73511C42.5714 3.73496 42.5023 3.76331 42.4514 3.81393C42.4005 3.86454 42.3718 3.93328 42.3716 4.00501C42.3715 4.07675 42.3999 4.1456 42.4506 4.19643C42.5013 4.24726 42.5702 4.27591 42.6421 4.27606H55.1536C55.1893 4.27612 55.2246 4.26917 55.2575 4.2556C55.2905 4.24203 55.3204 4.22212 55.3456 4.197C55.3708 4.17188 55.3908 4.14204 55.4045 4.10919C55.4181 4.07635 55.4252 4.04114 55.4252 4.00558C55.4252 3.97003 55.4181 3.93482 55.4045 3.90197C55.3908 3.86913 55.3708 3.83929 55.3456 3.81417C55.3204 3.78905 55.2905 3.76913 55.2575 3.75557C55.2246 3.742 55.1893 3.73505 55.1536 3.73511H42.6432Z" fill="#3F3D56"/>
<path d="M64.9588 6.38844H35.006V0H64.9588V6.38844ZM35.4632 5.93213H64.5016V0.456317H35.4632V5.93213Z" fill="#CCCCCC"/>
<path d="M64.9588 14.374H35.006V7.9856H64.9588V14.374Z" fill="white"/>
<path d="M38.8872 12.8026C39.7854 12.8026 40.5135 12.076 40.5135 11.1797C40.5135 10.2835 39.7854 9.55688 38.8872 9.55688C37.989 9.55688 37.2609 10.2835 37.2609 11.1797C37.2609 12.076 37.989 12.8026 38.8872 12.8026Z" fill="#E6E6E6"/>
<path d="M42.6432 10.0979C42.5714 10.0979 42.5024 10.1264 42.4516 10.1771C42.4007 10.2278 42.3722 10.2966 42.3722 10.3684C42.3722 10.4401 42.4007 10.5089 42.4516 10.5596C42.5024 10.6104 42.5714 10.6389 42.6432 10.6389H62.4335C62.5052 10.6387 62.574 10.6101 62.6247 10.5594C62.6754 10.5087 62.7039 10.44 62.7039 10.3684C62.7039 10.2968 62.6754 10.2281 62.6247 10.1773C62.574 10.1266 62.5052 10.0981 62.4335 10.0979H42.6432Z" fill="#E6E6E6"/>
<path d="M42.6432 11.7207C42.5714 11.7206 42.5023 11.7489 42.4514 11.7995C42.4005 11.8501 42.3718 11.9189 42.3716 11.9906C42.3715 12.0623 42.3999 12.1312 42.4506 12.182C42.5013 12.2329 42.5702 12.2615 42.6421 12.2617H55.1536C55.1893 12.2617 55.2246 12.2548 55.2575 12.2412C55.2905 12.2276 55.3204 12.2077 55.3456 12.1826C55.3708 12.1575 55.3908 12.1276 55.4045 12.0948C55.4181 12.0619 55.4252 12.0267 55.4252 11.9912C55.4252 11.9556 55.4181 11.9204 55.4045 11.8876C55.3908 11.8547 55.3708 11.8249 55.3456 11.7998C55.3204 11.7746 55.2905 11.7547 55.2575 11.7412C55.2246 11.7276 55.1893 11.7206 55.1536 11.7207H42.6432Z" fill="#E6E6E6"/>
<path d="M64.9588 14.374H35.006V7.9856H64.9588V14.374ZM35.4632 13.9177H64.5016V8.44191H35.4632V13.9177Z" fill="#E6E6E6"/>
<path d="M64.9588 22.3596H35.006V15.9712H64.9588V22.3596Z" fill="white"/>
<path d="M38.8872 20.7882C39.7854 20.7882 40.5135 20.0616 40.5135 19.1653C40.5135 18.2691 39.7854 17.5425 38.8872 17.5425C37.989 17.5425 37.2609 18.2691 37.2609 19.1653C37.2609 20.0616 37.989 20.7882 38.8872 20.7882Z" fill="#E6E6E6"/>
<path d="M42.6432 18.0833C42.5714 18.0833 42.5024 18.1117 42.4516 18.1625C42.4007 18.2132 42.3722 18.282 42.3722 18.3537C42.3722 18.4255 42.4007 18.4943 42.4516 18.545C42.5024 18.5957 42.5714 18.6242 42.6432 18.6242H62.4335C62.5052 18.624 62.574 18.5955 62.6247 18.5448C62.6754 18.494 62.7039 18.4253 62.7039 18.3537C62.7039 18.2821 62.6754 18.2134 62.6247 18.1627C62.574 18.112 62.5052 18.0834 62.4335 18.0833H42.6432Z" fill="#E6E6E6"/>
<path d="M42.6432 19.7063C42.5714 19.7061 42.5023 19.7345 42.4514 19.7851C42.4005 19.8357 42.3718 19.9045 42.3716 19.9762C42.3715 20.0479 42.3999 20.1168 42.4506 20.1676C42.5013 20.2185 42.5702 20.2471 42.6421 20.2472H55.1536C55.1893 20.2473 55.2246 20.2404 55.2575 20.2268C55.2905 20.2132 55.3204 20.1933 55.3456 20.1682C55.3708 20.1431 55.3908 20.1132 55.4045 20.0804C55.4181 20.0475 55.4252 20.0123 55.4252 19.9768C55.4252 19.9412 55.4181 19.906 55.4045 19.8732C55.3908 19.8403 55.3708 19.8105 55.3456 19.7854C55.3204 19.7602 55.2905 19.7403 55.2575 19.7268C55.2246 19.7132 55.1893 19.7062 55.1536 19.7063H42.6432Z" fill="#E6E6E6"/>
<path d="M64.9588 22.3596H35.006V15.9712H64.9588V22.3596ZM35.4632 21.9033H64.5016V16.4275H35.4632V21.9033Z" fill="#E6E6E6"/>
<path d="M15.301 23.8752C15.2327 23.7876 15.1845 23.6862 15.1597 23.578C15.135 23.4699 15.1343 23.3576 15.1577 23.2491C15.1811 23.1407 15.2281 23.0387 15.2954 22.9503C15.3626 22.8619 15.4484 22.7893 15.5468 22.7376L15.388 21.0105L16.4162 20.6582L16.6062 23.1003C16.6823 23.271 16.693 23.4636 16.6363 23.6416C16.5796 23.8197 16.4594 23.9708 16.2985 24.0663C16.1376 24.1618 15.9472 24.1951 15.7633 24.1599C15.5795 24.1247 15.415 24.0234 15.301 23.8752Z" fill="#FFB8B8"/>
<path d="M16.4048 13.9627C16.4048 13.9627 17.1105 12.4851 17.7375 13.0049C18.3645 13.5246 16.8779 17.8939 16.8779 17.8939L16.6518 22.1354L15.4601 22.0166L15.1232 17.8841L16.4048 13.9627Z" fill="#CCCCCC"/>
<path d="M6.93991 35.8246L7.82447 36.5391L11.0073 33.4745L9.70183 32.4199L6.93991 35.8246Z" fill="#FFB8B8"/>
<path d="M6.94806 35.354L8.69014 36.7612L8.69021 36.7612C8.98462 36.9991 9.17229 37.3439 9.21194 37.7198C9.2516 38.0957 9.13998 38.472 8.90165 38.7658L8.87245 38.8018L6.02017 36.4978L6.94806 35.354Z" fill="#2F2E41"/>
<path d="M19.2337 37.8079H20.3717L20.9131 33.4275L19.2334 33.4276L19.2337 37.8079Z" fill="#FFB8B8"/>
<path d="M18.9433 37.4371L21.1846 37.437H21.1847C21.5635 37.437 21.9268 37.5872 22.1947 37.8545C22.4625 38.1218 22.613 38.4843 22.613 38.8623V38.9086L18.9434 38.9087L18.9433 37.4371Z" fill="#2F2E41"/>
<path d="M21.2306 17.2725C21.2306 17.2725 23.3657 19.8662 22.9016 22.4598C22.4374 25.0535 22.0661 26.9988 22.0661 26.9988L21.3235 32.8346C21.3235 32.8346 21.602 34.4239 21.2306 34.8335C21.2306 34.8335 21.7876 35.7988 20.7665 36.1694C19.7453 36.5399 19.1944 36.0414 19.1944 36.0414C19.1944 36.0414 18.4457 34.9651 18.9099 34.6873L19.1054 23.2346L11.6691 32.9272C11.6691 32.9272 11.5324 34.1063 10.5796 34.1189L9.44117 34.9652L8.14154 34.2241L8.79135 33.3904C8.79135 33.3904 8.42003 32.4641 9.25551 32.2788L14.0827 25.9799L15.2895 22.7377C15.2895 22.7377 15.9393 20.2367 17.7031 19.2177V18.1335L21.2306 17.2725Z" fill="#2F2E41"/>
<path d="M17.5638 12.7798C17.8449 12.4484 18.2383 12.2316 18.6692 12.1709C19.1 12.1102 19.5382 12.2098 19.9003 12.4506L19.9774 12.5019C20.8014 13.4331 21.3552 14.5709 21.5792 15.7928L21.9268 17.6893L17.5638 18.6324L16.541 15.1124C16.4111 14.6656 16.4424 14.1875 16.6293 13.7614C16.8161 13.3352 17.1468 12.9879 17.5638 12.7798V12.7798Z" fill="#CCCCCC"/>
<path d="M24.732 24.2786C24.6111 24.2391 24.5003 24.1737 24.4074 24.0868C24.3145 24 24.2419 23.894 24.1945 23.7761C24.1472 23.6582 24.1263 23.5314 24.1334 23.4046C24.1405 23.2778 24.1753 23.1541 24.2355 23.0423L22.9769 21.5052L23.7264 20.5142L25.4732 22.7097C25.6549 22.823 25.7886 22.9989 25.849 23.204C25.9094 23.4092 25.8923 23.6293 25.801 23.8226C25.7096 24.016 25.5503 24.1692 25.3533 24.2533C25.1563 24.3373 24.9353 24.3463 24.732 24.2786H24.732Z" fill="#FFB8B8"/>
<path d="M19.4204 14.1691C19.4204 14.1691 19.1419 12.3165 20.0702 12.4091C20.9985 12.5018 22.391 17.5965 22.391 17.5965L24.8974 21.7649L23.6906 22.4134L20.72 18.7081L19.4204 14.1691Z" fill="#CCCCCC"/>
<path d="M21.1204 11.4608H16.6998C16.6089 11.4607 16.5217 11.4246 16.4574 11.3604C16.3931 11.2963 16.357 11.2093 16.3569 11.1185V9.2172C16.3569 8.54149 16.6259 7.89346 17.1047 7.41566C17.5835 6.93786 18.2329 6.66943 18.9101 6.66943C19.5873 6.66943 20.2367 6.93786 20.7155 7.41566C21.1943 7.89346 21.4633 8.54149 21.4633 9.2172V11.1185C21.4632 11.2093 21.4271 11.2963 21.3628 11.3604C21.2985 11.4246 21.2113 11.4607 21.1204 11.4608Z" fill="#2F2E41"/>
<path d="M19.4348 11.4165C20.4686 11.4165 21.3067 10.5802 21.3067 9.5486C21.3067 8.51697 20.4686 7.68066 19.4348 7.68066C18.4009 7.68066 17.5628 8.51697 17.5628 9.5486C17.5628 10.5802 18.4009 11.4165 19.4348 11.4165Z" fill="#FFB8B8"/>
<path d="M22.0674 9.40719H19.7116L19.6874 9.01994L19.5666 9.40719H19.2039L19.156 8.63968L18.9166 9.40719H18.2147V9.36916C18.2147 8.25785 19.0044 7.35376 19.975 7.35376H20.3071C21.2777 7.35376 22.0674 8.25785 22.0674 9.36916V9.40719Z" fill="#2F2E41"/>
<path d="M19.8091 11.8158C19.7803 11.8157 19.7516 11.8135 19.7231 11.8091L16.9191 11.3782V8.46384C16.9191 8.16612 17.0376 7.8806 17.2486 7.67009C17.4595 7.45957 17.7457 7.34131 18.044 7.34131H20.0058L19.9294 7.41892C18.8661 8.49909 19.6671 10.2506 20.2393 11.1985C20.2812 11.2666 20.3002 11.3464 20.2934 11.4261C20.2865 11.5058 20.2542 11.5812 20.2012 11.6412C20.1525 11.6971 20.0922 11.7416 20.0245 11.7717C19.9568 11.8019 19.8832 11.8169 19.8091 11.8158Z" fill="#2F2E41"/>
<path d="M68.9851 5.20203C70.0979 5.20203 71 4.30187 71 3.19147C71 2.08107 70.0979 1.18091 68.9851 1.18091C67.8723 1.18091 66.9702 2.08107 66.9702 3.19147C66.9702 4.30187 67.8723 5.20203 68.9851 5.20203Z" fill="#FF3939"/>
<path d="M68.7931 4.04016L68.1901 3.26647L68.5407 2.99428L68.8263 3.36062L69.7909 2.34448L70.1135 2.64945L68.7931 4.04016Z" fill="white"/>
<path d="M29.1145 39H0.076216C0.0560023 39 0.0366164 38.992 0.0223231 38.9777C0.00802982 38.9635 0 38.9441 0 38.924C0 38.9038 0.00802982 38.8844 0.0223231 38.8702C0.0366164 38.8559 0.0560023 38.8479 0.076216 38.8479H29.1145C29.1347 38.8479 29.1541 38.8559 29.1684 38.8702C29.1827 38.8844 29.1907 38.9038 29.1907 38.924C29.1907 38.9441 29.1827 38.9635 29.1684 38.9777C29.1541 38.992 29.1347 39 29.1145 39Z" fill="#CCCCCC"/>
</svg>
