<svg width="66" height="48" viewBox="0 0 66 48" fill="none" xmlns="http://www.w3.org/2000/svg">
<g clip-path="url(#clip0)">
<path d="M40.1427 22.7144C39.9379 22.7141 39.7409 22.6364 39.5916 22.497C39.4422 22.3577 39.3517 22.1671 39.3383 21.9639L39.2185 20.1444C39.2045 19.9319 39.276 19.7226 39.4172 19.5624C39.5583 19.4023 39.7577 19.3046 39.9713 19.2906L54.303 18.3571C54.759 18.3277 55.2081 18.4797 55.5516 18.7795C55.895 19.0794 56.1047 19.5026 56.1346 19.9562C56.1645 20.4097 56.012 20.8566 55.7108 21.1984C55.4096 21.5402 54.9843 21.7491 54.5283 21.7792L40.1967 22.7126C40.1786 22.7138 40.1606 22.7144 40.1427 22.7144Z" fill="#FF3939"/>
<path d="M42.9687 22.9492C42.7599 22.9489 42.5594 22.8682 42.4091 22.7241C42.2588 22.58 42.1703 22.3836 42.1623 22.1761L42.0601 19.4585C42.0562 19.3532 42.0731 19.248 42.11 19.1492C42.1469 19.0503 42.203 18.9597 42.2751 18.8824C42.3473 18.8051 42.434 18.7427 42.5303 18.6987C42.6267 18.6547 42.7308 18.6301 42.8368 18.6262L54.6221 18.1881C54.836 18.1801 55.0444 18.257 55.2014 18.4019C55.3583 18.5468 55.451 18.7477 55.459 18.9605L55.5611 21.6781C55.5651 21.7835 55.5481 21.8886 55.5112 21.9875C55.4744 22.0863 55.4182 22.177 55.3461 22.2543C55.274 22.3316 55.1873 22.394 55.0909 22.438C54.9946 22.4819 54.8904 22.5066 54.7845 22.5105L42.9992 22.9486C42.989 22.949 42.9788 22.9492 42.9687 22.9492Z" fill="#2F2E41"/>
<path d="M56.7791 48.0001H54.9459C54.7319 47.9999 54.5267 47.9152 54.3753 47.7647C54.224 47.6141 54.1388 47.41 54.1386 47.1971V32.0003C54.1388 31.7874 54.224 31.5833 54.3753 31.4327C54.5267 31.2822 54.7319 31.1975 54.9459 31.1973H56.7791C56.9932 31.1975 57.1984 31.2822 57.3497 31.4327C57.5011 31.5833 57.5862 31.7874 57.5865 32.0003V47.1971C57.5862 47.41 57.5011 47.6141 57.3497 47.7647C57.1984 47.9152 56.9932 47.9999 56.7791 48.0001Z" fill="#2F2E41"/>
<path d="M52.1764 48.0001H50.3432C50.1291 47.9999 49.9239 47.9152 49.7726 47.7647C49.6212 47.6141 49.5361 47.41 49.5358 47.1971V32.0003C49.5361 31.7874 49.6212 31.5833 49.7726 31.4327C49.9239 31.2822 50.1291 31.1975 50.3432 31.1973H52.1764C52.3904 31.1975 52.5957 31.2822 52.747 31.4327C52.8984 31.5833 52.9835 31.7874 52.9837 32.0003V47.1971C52.9835 47.41 52.8984 47.6141 52.747 47.7647C52.5957 47.9152 52.3904 47.9999 52.1764 48.0001Z" fill="#2F2E41"/>
<path d="M53.9949 15.3377C57.4933 15.3377 60.3293 12.5169 60.3293 9.03724C60.3293 5.55761 57.4933 2.73682 53.9949 2.73682C50.4965 2.73682 47.6604 5.55761 47.6604 9.03724C47.6604 12.5169 50.4965 15.3377 53.9949 15.3377Z" fill="#FF3939"/>
<path d="M50.5661 11.1885C50.3623 11.1219 50.1753 11.0127 50.0175 10.8682C49.9129 10.7651 49.8324 10.6404 49.7813 10.503C49.7303 10.3656 49.7102 10.2188 49.7222 10.0728C49.7288 9.96876 49.7595 9.86768 49.812 9.77744C49.8644 9.68719 49.9371 9.61022 50.0243 9.55254C50.2509 9.40802 50.5538 9.40759 50.8623 9.5428L50.8506 7.08321L51.099 7.08203L51.1128 9.97355L50.9213 9.8538C50.6994 9.71517 50.3824 9.61759 50.1585 9.76052C50.1031 9.79829 50.0573 9.84823 50.0245 9.90649C49.9917 9.96475 49.9729 10.0297 49.9695 10.0964C49.9611 10.2052 49.9764 10.3144 50.0143 10.4168C50.0522 10.5191 50.1118 10.6121 50.1891 10.6895C50.4634 10.9501 50.8635 11.0316 51.3199 11.1044L51.2805 11.3484C51.0381 11.3164 50.799 11.2629 50.5661 11.1885Z" fill="#2F2E41"/>
<path d="M48.2901 6.95918L48.2575 7.2041L49.5839 7.37833L49.6164 7.13341L48.2901 6.95918Z" fill="#2F2E41"/>
<path d="M52.4765 7.5085L52.444 7.75342L53.7704 7.92764L53.8029 7.68273L52.4765 7.5085Z" fill="#2F2E41"/>
<path d="M48.6026 36.0775H48.6026C48.3226 36.0772 48.0543 35.9665 47.8564 35.7696C47.6585 35.5728 47.5471 35.3059 47.5468 35.0275C47.5468 35.0275 49.2299 25.9444 50.1917 20.6207C50.3786 19.5855 50.9255 18.6486 51.7366 17.9738C52.5477 17.299 53.5715 16.9292 54.6289 16.9292H54.6289C56.1436 16.9292 57.5962 17.5277 58.6672 18.5929C59.7382 19.6582 60.3398 21.103 60.3398 22.6095V24.4032C60.3398 27.4995 59.1032 30.4689 56.9021 32.6582C54.7009 34.8476 51.7155 36.0775 48.6026 36.0775Z" fill="#2F2E41"/>
<path d="M56.5944 35.1683C56.5295 35.3092 56.4249 35.4284 56.2934 35.5117C56.1619 35.5949 56.0091 35.6385 55.8532 35.6374L54.0201 35.6215C53.914 35.6206 53.8092 35.5989 53.7116 35.5577C53.614 35.5165 53.5256 35.4566 53.4513 35.3814C53.3769 35.3062 53.3183 35.2172 53.2785 35.1194C53.2388 35.0216 53.2189 34.917 53.2198 34.8116L53.3443 20.5269C53.3461 20.3017 53.3926 20.079 53.481 19.8716C53.5694 19.6642 53.698 19.4762 53.8594 19.3183C54.0209 19.1603 54.2121 19.0356 54.422 18.9512C54.632 18.8667 54.8566 18.8243 55.0831 18.8262C55.3095 18.8282 55.5334 18.8745 55.7419 18.9625C55.9503 19.0506 56.1393 19.1786 56.298 19.3393C56.4567 19.5 56.582 19.6902 56.6667 19.8991C56.7515 20.108 56.794 20.3314 56.792 20.5566L56.6675 34.8413C56.6667 34.9542 56.6417 35.0656 56.5944 35.1683Z" fill="#FF3939"/>
<path d="M57.4042 31.3551C57.3393 31.496 57.2348 31.6153 57.1033 31.6985C56.9718 31.7817 56.8189 31.8254 56.663 31.8242L53.5319 31.7972C53.3179 31.7951 53.1134 31.7086 52.9634 31.5568C52.8133 31.4049 52.73 31.2001 52.7316 30.9872L52.8339 19.2575C52.8348 19.152 52.8566 19.0478 52.898 18.9507C52.9394 18.8536 52.9996 18.7656 53.0753 18.6917C53.1509 18.6178 53.2404 18.5594 53.3387 18.5199C53.437 18.4804 53.5422 18.4605 53.6482 18.4615L56.7793 18.4884C56.8853 18.4894 56.9901 18.511 57.0877 18.5522C57.1853 18.5934 57.2737 18.6533 57.3481 18.7285C57.4224 18.8038 57.4811 18.8928 57.5208 18.9906C57.5605 19.0883 57.5805 19.1929 57.5795 19.2984L57.4773 31.0282C57.4764 31.1411 57.4515 31.2525 57.4042 31.3551Z" fill="#2F2E41"/>
<path d="M52.1665 5.32452C51.1793 5.49117 50.0772 5.68171 49.1366 5.22643C48.3962 4.86806 47.8872 4.15233 48.0675 3.31136C48.4264 1.63772 50.3528 0.897789 51.9009 1.04711C52.8114 1.13166 53.6675 1.51561 54.334 2.13826C54.3656 2.16806 54.4052 2.18811 54.448 2.19599C54.4909 2.20387 54.535 2.19925 54.5753 2.18268C54.6155 2.16611 54.65 2.1383 54.6747 2.10262C54.6993 2.06694 54.7131 2.02491 54.7142 1.98162C54.7077 1.36405 55.1722 0.848703 55.7226 0.616069C56.4117 0.324802 57.2125 0.428888 57.9208 0.584756C59.8587 1.01463 61.6187 2.02213 62.9659 3.47281C64.3132 4.92349 65.1836 6.74835 65.4609 8.70385C65.6582 10.0805 65.5524 11.4833 65.1509 12.8153C64.7752 14.0432 64.0813 15.2772 62.9387 15.9453C61.9092 16.5472 60.4121 16.7022 59.462 15.8577C58.701 15.1812 58.358 13.9166 58.9824 13.0414C59.1663 12.7876 59.4159 12.5881 59.7046 12.4639C59.9933 12.3397 60.3104 12.2956 60.6223 12.3362C60.9173 12.3826 61.1927 12.5121 61.4159 12.7095C61.639 12.9069 61.8005 13.1639 61.8813 13.4499C61.9405 13.7245 61.9223 14.01 61.8285 14.2749C61.7347 14.5398 61.5691 14.7738 61.3499 14.9509C61.1861 15.068 61 15.1507 60.803 15.1939C60.606 15.2371 60.4022 15.24 60.204 15.2024C60.0059 15.1648 59.8175 15.0874 59.6504 14.975C59.4832 14.8627 59.3409 14.7176 59.2319 14.5487C59.0806 14.3073 58.6951 14.5294 58.8473 14.7723C59.0221 15.0442 59.2615 15.2691 59.5445 15.4269C59.8275 15.5848 60.1452 15.6708 60.4696 15.6774C60.7929 15.6833 61.112 15.6036 61.3941 15.4464C61.6763 15.2893 61.9113 15.0603 62.0752 14.7831C62.251 14.5001 62.3487 14.1762 62.3586 13.8437C62.3685 13.5113 62.2902 13.1821 62.1315 12.8893C61.9581 12.5908 61.7109 12.3411 61.4135 12.1639C61.116 11.9868 60.7781 11.8879 60.4315 11.8768C60.0721 11.874 59.7173 11.9582 59.3978 12.1221C59.0784 12.2861 58.8038 12.5248 58.5977 12.8178C58.2643 13.3248 58.1414 13.9405 58.2546 14.5357C58.355 15.141 58.6496 15.6978 59.0944 16.1229C59.6093 16.5865 60.2721 16.8546 60.9662 16.8801C62.4765 16.9658 63.8248 16.1004 64.6577 14.8974C65.5221 13.6492 65.9086 12.0829 65.9865 10.5854C66.0659 9.0591 65.7981 7.53466 65.2031 6.12555C64.6081 4.71644 63.7013 3.45894 62.5501 2.44667C61.4551 1.49348 60.171 0.779845 58.7809 0.352037C57.4049 -0.0672014 55.4838 -0.372794 54.5546 1.02558C54.3655 1.30875 54.266 1.64173 54.2688 1.98164L54.649 1.825C53.3046 0.547181 51.1912 0.224294 49.5124 1.00976C48.6692 1.40427 47.9383 2.13786 47.6762 3.04238C47.4043 3.98089 47.7975 4.90203 48.604 5.43429C49.7015 6.15866 51.0627 5.95808 52.2849 5.75175C52.5669 5.70414 52.4473 5.27713 52.1665 5.32454V5.32452Z" fill="#2F2E41"/>
<path d="M38.2377 32.5569H2.16908C1.59401 32.5563 1.04267 32.3288 0.636035 31.9243C0.229396 31.5198 0.000659917 30.9715 3.8147e-06 30.3995V8.94845C0.000659917 8.37646 0.229396 7.82809 0.636035 7.42363C1.04267 7.01918 1.59401 6.79167 2.16908 6.79102H38.2377C38.8128 6.79167 39.3641 7.01918 39.7707 7.42363C40.1774 7.82809 40.4061 8.37646 40.4068 8.94845V30.3995C40.4061 30.9715 40.1774 31.5198 39.7707 31.9243C39.3641 32.3288 38.8128 32.5563 38.2377 32.5569ZM2.16908 7.16086C1.69259 7.16141 1.23578 7.34992 0.898847 7.68503C0.561919 8.02015 0.372393 8.47452 0.371845 8.94845V30.3995C0.372393 30.8734 0.561919 31.3278 0.898847 31.6629C1.23578 31.998 1.69259 32.1865 2.16908 32.1871H38.2377C38.7142 32.1865 39.171 31.998 39.5079 31.6629C39.8448 31.3278 40.0344 30.8734 40.0349 30.3995V8.94845C40.0344 8.47452 39.8448 8.02015 39.5079 7.68503C39.171 7.34992 38.7142 7.16141 38.2377 7.16086H2.16908Z" fill="#3F3D56"/>
<path d="M7.00302 11.8452C6.69659 11.8452 6.39704 11.7548 6.14225 11.5855C5.88746 11.4162 5.68888 11.1755 5.57161 10.8939C5.45435 10.6123 5.42366 10.3025 5.48344 10.0036C5.54323 9.70464 5.69079 9.43005 5.90747 9.21454C6.12415 8.99902 6.40021 8.85226 6.70076 8.7928C7.0013 8.73333 7.31282 8.76385 7.59592 8.88049C7.87903 8.99712 8.121 9.19464 8.29125 9.44806C8.46149 9.70148 8.55236 9.99942 8.55236 10.3042C8.5519 10.7128 8.38851 11.1045 8.09806 11.3934C7.8076 11.6823 7.41379 11.8448 7.00302 11.8452ZM7.00302 9.13303C6.77013 9.13303 6.54247 9.20172 6.34883 9.33041C6.15519 9.4591 6.00427 9.64201 5.91515 9.85601C5.82603 10.07 5.80271 10.3055 5.84814 10.5327C5.89358 10.7599 6.00572 10.9686 6.1704 11.1324C6.33507 11.2961 6.54489 11.4077 6.7733 11.4529C7.00171 11.4981 7.23847 11.4749 7.45363 11.3862C7.66879 11.2976 7.85269 11.1475 7.98207 10.9549C8.11146 10.7623 8.18052 10.5358 8.18052 10.3042C8.18016 9.9937 8.05599 9.69601 7.83524 9.47645C7.6145 9.25689 7.3152 9.13338 7.00302 9.13303Z" fill="#3F3D56"/>
<path d="M33.1558 11.8452C32.8494 11.8452 32.5499 11.7548 32.2951 11.5855C32.0403 11.4162 31.8417 11.1755 31.7244 10.8939C31.6072 10.6123 31.5765 10.3025 31.6363 10.0036C31.6961 9.70464 31.8436 9.43005 32.0603 9.21454C32.277 8.99902 32.553 8.85226 32.8536 8.7928C33.1541 8.73333 33.4656 8.76385 33.7487 8.88049C34.0319 8.99712 34.2738 9.19464 34.4441 9.44806C34.6143 9.70148 34.7052 9.99942 34.7052 10.3042C34.7047 10.7128 34.5413 11.1045 34.2509 11.3934C33.9604 11.6823 33.5666 11.8448 33.1558 11.8452ZM33.1558 9.13303C32.923 9.13303 32.6953 9.20172 32.5017 9.33041C32.308 9.4591 32.1571 9.64201 32.068 9.85601C31.9789 10.07 31.9555 10.3055 32.001 10.5327C32.0464 10.7599 32.1586 10.9686 32.3232 11.1324C32.4879 11.2961 32.6977 11.4077 32.9261 11.4529C33.1545 11.4981 33.3913 11.4749 33.6065 11.3862C33.8216 11.2976 34.0055 11.1475 34.1349 10.9549C34.2643 10.7623 34.3333 10.5358 34.3333 10.3042C34.333 9.9937 34.2088 9.69601 33.9881 9.47645C33.7673 9.25689 33.468 9.13338 33.1558 9.13303Z" fill="#3F3D56"/>
<path d="M10.6595 21.2146H3.96631C3.68699 21.2143 3.41921 21.1038 3.2217 20.9074C3.0242 20.7109 2.91309 20.4446 2.91276 20.1667V16.2217C2.91309 15.9439 3.0242 15.6776 3.2217 15.4811C3.41921 15.2847 3.68699 15.1742 3.96631 15.1738H10.6595C10.9388 15.1742 11.2066 15.2847 11.4041 15.4811C11.6016 15.6776 11.7127 15.9439 11.713 16.2217V20.1667C11.7127 20.4446 11.6016 20.7109 11.4041 20.9074C11.2066 21.1038 10.9388 21.2143 10.6595 21.2146Z" fill="#E6E6E6"/>
<path d="M23.55 21.2146H16.8568C16.5775 21.2143 16.3097 21.1038 16.1122 20.9074C15.9147 20.7109 15.8036 20.4446 15.8033 20.1667V16.2217C15.8036 15.9439 15.9147 15.6776 16.1122 15.4811C16.3097 15.2847 16.5775 15.1742 16.8568 15.1738H23.55C23.8293 15.1742 24.0971 15.2847 24.2946 15.4811C24.4921 15.6776 24.6032 15.9439 24.6035 16.2217V20.1667C24.6032 20.4446 24.4921 20.7109 24.2946 20.9074C24.0971 21.1038 23.8293 21.2143 23.55 21.2146Z" fill="#E6E6E6"/>
<path d="M29.7473 15.2974C29.5008 15.2976 29.2646 15.3951 29.0903 15.5685C28.916 15.7418 28.818 15.9768 28.8177 16.222V20.167C28.818 20.4121 28.916 20.6472 29.0903 20.8205C29.2646 20.9938 29.5008 21.0913 29.7473 21.0916H36.4404C36.6869 21.0913 36.9232 20.9938 37.0975 20.8205C37.2718 20.6472 37.3698 20.4121 37.3701 20.167V16.222C37.3698 15.9768 37.2718 15.7418 37.0975 15.5685C36.9232 15.3951 36.6869 15.2976 36.4404 15.2974H29.7473Z" fill="#E6E6E6"/>
<path d="M10.7214 29.1048H4.02829C3.74897 29.1044 3.48119 28.9939 3.28368 28.7975C3.08618 28.601 2.97507 28.3347 2.97474 28.0569V24.1119C2.97507 23.834 3.08618 23.5677 3.28368 23.3713C3.48119 23.1748 3.74897 23.0643 4.02829 23.064H10.7214C11.0008 23.0643 11.2685 23.1748 11.466 23.3713C11.6636 23.5677 11.7747 23.834 11.775 24.1119V28.0569C11.7747 28.3347 11.6636 28.601 11.466 28.7975C11.2685 28.9939 11.0008 29.1044 10.7214 29.1048Z" fill="#E6E6E6"/>
<path d="M23.6119 29.1048H16.9188C16.6395 29.1044 16.3717 28.9939 16.1742 28.7975C15.9767 28.601 15.8656 28.3347 15.8652 28.0569V24.1119C15.8656 23.834 15.9767 23.5677 16.1742 23.3713C16.3717 23.1748 16.6395 23.0643 16.9188 23.064H23.6119C23.8912 23.0643 24.159 23.1748 24.3565 23.3713C24.554 23.5677 24.6651 23.834 24.6655 24.1119V28.0569C24.6651 28.3347 24.554 28.601 24.3565 28.7975C24.159 28.9939 23.8912 29.1044 23.6119 29.1048Z" fill="#E6E6E6"/>
<path d="M36.5024 29.1048H29.8093C29.53 29.1044 29.2622 28.9939 29.0647 28.7975C28.8672 28.601 28.7561 28.3347 28.7557 28.0569V24.1119C28.7561 23.834 28.8672 23.5677 29.0647 23.3713C29.2622 23.1748 29.53 23.0643 29.8093 23.064H36.5024C36.7817 23.0643 37.0495 23.1748 37.247 23.3713C37.4445 23.5677 37.5556 23.834 37.556 24.1119V28.0569C37.5556 28.3347 37.4445 28.601 37.247 28.7975C37.0495 28.9939 36.7817 29.1044 36.5024 29.1048Z" fill="#E6E6E6"/>
<path d="M7.00301 10.7361C6.888 10.7359 6.77774 10.6904 6.69641 10.6095C6.61509 10.5286 6.56934 10.419 6.5692 10.3046V4.14047C6.5692 4.02603 6.6149 3.91628 6.69626 3.83536C6.77762 3.75444 6.88796 3.70898 7.00301 3.70898C7.11807 3.70898 7.22841 3.75444 7.30977 3.83536C7.39112 3.91628 7.43683 4.02603 7.43683 4.14047V10.3046C7.43669 10.419 7.39094 10.5286 7.30961 10.6095C7.22829 10.6904 7.11803 10.7359 7.00301 10.7361Z" fill="#3F3D56"/>
<path d="M33.1558 10.7361C33.0408 10.7359 32.9306 10.6904 32.8492 10.6095C32.7679 10.5286 32.7222 10.419 32.722 10.3046V4.14047C32.722 4.02603 32.7677 3.91628 32.8491 3.83536C32.9305 3.75444 33.0408 3.70898 33.1558 3.70898C33.2709 3.70898 33.3812 3.75444 33.4626 3.83536C33.544 3.91628 33.5897 4.02603 33.5897 4.14047V10.3046C33.5895 10.419 33.5438 10.5286 33.4624 10.6095C33.3811 10.6904 33.2709 10.7359 33.1558 10.7361Z" fill="#3F3D56"/>
<path d="M7.05983 19.7936C6.87733 19.7939 6.69969 19.7351 6.55368 19.6263L6.54464 19.6195L4.63824 18.169C4.45992 18.033 4.34322 17.8322 4.31379 17.6106C4.28437 17.3891 4.34464 17.1649 4.48135 16.9876C4.61805 16.8102 4.81999 16.6942 5.04274 16.6649C5.2655 16.6356 5.49082 16.6956 5.66913 16.8315L6.90394 17.7734L9.82186 13.987C9.88952 13.8993 9.9739 13.8256 10.0702 13.7703C10.1665 13.7149 10.2728 13.679 10.383 13.6645C10.4933 13.65 10.6053 13.6573 10.7127 13.6858C10.8202 13.7144 10.9209 13.7638 11.0091 13.8311L11.0094 13.8312L10.9913 13.8563L11.0099 13.8312C11.1879 13.9674 11.3044 14.1682 11.3338 14.3896C11.3632 14.6111 11.303 14.835 11.1665 15.0124L7.73442 19.464C7.65501 19.5665 7.55292 19.6495 7.43606 19.7065C7.3192 19.7635 7.19072 19.7929 7.06057 19.7926L7.05983 19.7936Z" fill="#FF3939"/>
<path d="M20.3222 27.5602C20.1397 27.5605 19.9621 27.5018 19.8161 27.3929L19.807 27.3861L17.9006 25.9356C17.7223 25.7996 17.6056 25.5988 17.5762 25.3772C17.5468 25.1557 17.607 24.9316 17.7437 24.7542C17.8804 24.5768 18.0824 24.4608 18.3051 24.4315C18.5279 24.4022 18.7532 24.4622 18.9315 24.5981L20.1663 25.54L23.0842 21.7536C23.1519 21.6659 23.2363 21.5922 23.3326 21.5369C23.4288 21.4815 23.5352 21.4456 23.6454 21.4311C23.7557 21.4166 23.8677 21.4239 23.9751 21.4524C24.0826 21.481 24.1833 21.5304 24.2715 21.5977C24.4496 21.7338 24.5668 21.9348 24.5962 22.1562C24.6256 22.3777 24.5654 22.6016 24.4289 22.779L20.9968 27.2306C20.9174 27.3331 20.8153 27.4161 20.6984 27.4731C20.5816 27.5301 20.4531 27.5596 20.3229 27.5592L20.3222 27.5602Z" fill="#FF3939"/>
<path d="M32.8409 19.7936C32.6584 19.7939 32.4807 19.7351 32.3347 19.6263L32.3257 19.6195L30.4193 18.169C30.241 18.033 30.1243 17.8322 30.0948 17.6106C30.0654 17.3891 30.1257 17.1649 30.2624 16.9876C30.3991 16.8102 30.601 16.6942 30.8238 16.6649C31.0465 16.6356 31.2719 16.6956 31.4502 16.8315L32.685 17.7734L35.6029 13.987C35.6706 13.8993 35.7549 13.8256 35.8512 13.7703C35.9475 13.7149 36.0538 13.679 36.1641 13.6645C36.2743 13.65 36.3863 13.6573 36.4938 13.6858C36.6012 13.7144 36.7019 13.7638 36.7902 13.8311C36.9682 13.9672 37.0855 14.1682 37.1148 14.3896C37.1442 14.6111 37.084 14.835 36.9476 15.0124L33.5155 19.464C33.4361 19.5665 33.334 19.6495 33.2171 19.7065C33.1002 19.7635 32.9718 19.7929 32.8416 19.7926L32.8409 19.7936Z" fill="#FF3939"/>
</g>
<defs>
<clipPath id="clip0">
<rect width="66" height="48" fill="white"/>
</clipPath>
</defs>
</svg>
