<svg width="86" height="63" viewBox="0 0 86 63" fill="none" xmlns="http://www.w3.org/2000/svg">
<path d="M8.45735 16.7437C13.1282 16.7437 16.9147 12.9955 16.9147 8.37187C16.9147 3.74821 13.1282 0 8.45735 0C3.78648 0 0 3.74821 0 8.37187C0 12.9955 3.78648 16.7437 8.45735 16.7437Z" fill="#F0F0F0"/>
<path d="M77.5426 35.5047C82.2135 35.5047 86 31.7565 86 27.1329C86 22.5092 82.2135 18.761 77.5426 18.761C72.8718 18.761 69.0853 22.5092 69.0853 27.1329C69.0853 31.7565 72.8718 35.5047 77.5426 35.5047Z" fill="#F0F0F0"/>
<path d="M51.1227 62.3222L49.6358 61.7025L48.6158 54.324H35.0326L33.927 61.6723L32.5968 62.3307C32.5331 62.3622 32.4821 62.4141 32.4519 62.4779C32.4218 62.5417 32.4143 62.6137 32.4306 62.6823C32.447 62.7508 32.4862 62.8119 32.542 62.8556C32.5978 62.8993 32.6669 62.9231 32.738 62.9231H51.0001C51.0731 62.9231 51.1437 62.8981 51.2002 62.8524C51.2566 62.8067 51.2954 62.7431 51.3098 62.6723C51.3242 62.6015 51.3135 62.528 51.2794 62.4642C51.2453 62.4004 51.1899 62.3502 51.1227 62.3222Z" fill="#E6E6E6"/>
<path d="M75.2609 55.3056H8.53662C8.18654 55.3048 7.85106 55.1666 7.60379 54.9213C7.35652 54.676 7.21765 54.3436 7.21765 53.997V44.6831H76.5799V53.997C76.5799 54.3436 76.441 54.676 76.1937 54.9213C75.9465 55.1666 75.611 55.3048 75.2609 55.3056Z" fill="#CCCCCC"/>
<path d="M76.6497 49.085H7.15677V9.23272C7.15726 8.8145 7.32531 8.41354 7.62407 8.11781C7.92283 7.82209 8.32788 7.65574 8.75038 7.65527H75.056C75.4785 7.65574 75.8836 7.82208 76.1824 8.11781C76.4811 8.41354 76.6492 8.81449 76.6497 9.23272V49.085Z" fill="#3F3D56"/>
<path d="M72.4991 46.1927H11.3073C10.9816 46.1923 10.6693 46.0641 10.439 45.8361C10.2087 45.6081 10.0791 45.299 10.0787 44.9766V11.764C10.0791 11.4416 10.2086 11.1325 10.439 10.9045C10.6693 10.6765 10.9816 10.5482 11.3073 10.5479H72.4991C72.8249 10.5482 73.1371 10.6765 73.3675 10.9045C73.5978 11.1325 73.7273 11.4416 73.7277 11.764V44.9766C73.7273 45.299 73.5978 45.6081 73.3675 45.8361C73.1371 46.0641 72.8249 46.1923 72.4991 46.1927Z" fill="white"/>
<path d="M59.0645 62.9999H24.68C24.6448 63.0006 24.6103 62.9898 24.5819 62.9691C24.5535 62.9484 24.5329 62.9191 24.5232 62.8855C24.5171 62.8627 24.5164 62.8388 24.5211 62.8157C24.5258 62.7926 24.5358 62.7708 24.5504 62.7521C24.5649 62.7334 24.5836 62.7183 24.605 62.7079C24.6263 62.6974 24.6498 62.692 24.6737 62.692H59.0517C59.0889 62.6907 59.1254 62.7019 59.1553 62.7238C59.1852 62.7456 59.2067 62.7769 59.2164 62.8124C59.2215 62.8349 59.2213 62.8583 59.216 62.8807C59.2108 62.9032 59.2004 62.9242 59.1859 62.9422C59.1713 62.9602 59.1528 62.9747 59.1318 62.9847C59.1108 62.9947 59.0878 62.9999 59.0645 62.9999Z" fill="#CCCCCC"/>
<path d="M65.5631 40.2803H52.6706C52.6385 40.2829 52.6066 40.273 52.5818 40.2527C52.557 40.2324 52.5412 40.2032 52.5379 40.1715V29.8772C52.5412 29.8455 52.557 29.8164 52.5818 29.796C52.6066 29.7757 52.6385 29.7658 52.6706 29.7685H65.5631C65.5952 29.7658 65.6271 29.7757 65.6519 29.796C65.6767 29.8164 65.6925 29.8455 65.6959 29.8772V40.1715C65.6925 40.2032 65.6767 40.2324 65.6519 40.2527C65.6271 40.2731 65.5952 40.2829 65.5631 40.2803Z" fill="#F0F0F0"/>
<path d="M64.1617 30.9073H54.072C54.0368 30.9074 54.003 30.9213 53.9782 30.9459C53.9533 30.9705 53.9393 31.0039 53.9392 31.0388V38.7778C53.9393 38.8127 53.9533 38.8461 53.9782 38.8707C54.003 38.8954 54.0368 38.9092 54.072 38.9093H64.1617C64.1969 38.9092 64.2307 38.8954 64.2556 38.8707C64.2804 38.8461 64.2945 38.8127 64.2945 38.7778V31.0388C64.2945 31.0039 64.2804 30.9705 64.2556 30.9459C64.2307 30.9213 64.1969 30.9074 64.1617 30.9073Z" fill="white"/>
<path d="M58.8676 36.1515C59.5761 36.1515 60.1505 35.5829 60.1505 34.8816C60.1505 34.1802 59.5761 33.6117 58.8676 33.6117C58.1591 33.6117 57.5847 34.1802 57.5847 34.8816C57.5847 35.5829 58.1591 36.1515 58.8676 36.1515Z" fill="#FFB8B8"/>
<path d="M60.7445 38.9093H57.9002L57.9931 36.8393L58.0153 36.8163L58.3345 36.4824H59.3502L59.7267 36.8434L59.7571 36.8726L60.5587 37.6331L60.7445 38.9093Z" fill="#FF3939"/>
<path d="M58.3893 38.9093H56.2374C56.2321 38.4421 56.2292 38.1623 56.2292 38.1623L56.3537 38.0872L56.3543 38.087H56.3546L57.7258 37.2628L58.0138 36.7999L58.0153 36.8163L58.0999 37.792C58.0999 37.792 58.2398 38.2394 58.3893 38.9093Z" fill="#2F2E41"/>
<path d="M62.006 38.9093H59.7267C59.7612 37.5467 59.5754 36.7999 59.6709 36.7999L59.7267 36.8434L60.3985 37.3685L61.2838 37.6901H61.2844L61.8948 37.9117L62.0019 37.9506V38.0005C62.0022 38.1202 62.0028 38.4476 62.006 38.9093Z" fill="#2F2E41"/>
<path d="M57.6539 35.2789C57.6539 35.2789 57.7629 35.0894 57.7376 34.4564C57.7122 33.8234 58.686 34.1814 59.4996 34.121C60.3133 34.0606 60.141 35.1778 60.141 35.1778C60.141 35.1778 60.1997 35.1114 60.3254 34.5722C60.4511 34.033 60.1657 33.4957 60.1657 33.4957C60.0817 32.9291 59.6288 33.1107 59.6288 33.1107C59.686 33.1251 59.7358 33.1601 59.7684 33.2089C59.801 33.2577 59.814 33.3167 59.805 33.3745C59.6204 33.0541 59.1675 33.2356 59.1675 33.2356C58.5634 32.8604 57.9512 33.3546 57.9512 33.3546C57.2214 33.5185 57.6494 34.093 57.6494 34.093C56.9155 34.4601 57.6539 35.2789 57.6539 35.2789Z" fill="#2F2E41"/>
<path d="M56.5248 38.9093H55.6406C55.6475 38.8015 55.6477 38.6933 55.6412 38.5854C55.5884 38.3772 56.3313 38.0957 56.3537 38.0872L56.3543 38.0869H56.3546L56.4962 38.1623L56.5248 38.9093Z" fill="#2F2E41"/>
<path d="M62.1656 38.9093H61.2369L61.121 37.7762L61.2511 37.6821C61.2511 37.6821 61.2629 37.6848 61.2838 37.69H61.2844C61.4966 37.7378 61.7018 37.8123 61.8948 37.9117C61.9358 37.9344 61.9721 37.9645 62.0019 38.0005C62.0202 38.0221 62.0293 38.05 62.0273 38.0781C62.0226 38.1205 62.0768 38.4324 62.1656 38.9093Z" fill="#2F2E41"/>
<path d="M65.5211 27.1455H52.6286C52.5965 27.1481 52.5646 27.1382 52.5398 27.1179C52.515 27.0976 52.4992 27.0684 52.4958 27.0367V16.7387C52.4992 16.707 52.515 16.6778 52.5398 16.6575C52.5646 16.6372 52.5965 16.6273 52.6286 16.6299H65.5211C65.5532 16.6273 65.5851 16.6372 65.6099 16.6575C65.6347 16.6778 65.6505 16.707 65.6539 16.7387V27.0367C65.6505 27.0684 65.6347 27.0976 65.6099 27.1179C65.5851 27.1382 65.5532 27.1481 65.5211 27.1455Z" fill="#F0F0F0"/>
<path d="M64.1198 17.7692H54.03C53.9948 17.7692 53.9611 17.7831 53.9362 17.8077C53.9113 17.8323 53.8973 17.8657 53.8972 17.9006V25.6397C53.8973 25.6745 53.9113 25.7079 53.9362 25.7325C53.9611 25.7572 53.9948 25.771 54.03 25.7711H64.1198C64.155 25.771 64.1887 25.7572 64.2136 25.7325C64.2385 25.7079 64.2525 25.6745 64.2525 25.6397V17.9006C64.2525 17.8657 64.2385 17.8323 64.2136 17.8077C64.1887 17.7831 64.155 17.7692 64.1198 17.7692Z" fill="white"/>
<path d="M61.5584 25.771C61.6153 25.568 61.6596 25.3931 61.6823 25.2692C61.6893 25.2311 61.69 25.192 61.6843 25.1536C61.5994 24.5552 60.0647 24.0494 59.8679 23.9869L59.8204 23.4659L57.8886 23.26L57.644 23.9264L56.9507 24.1837C56.9256 24.1929 56.9018 24.2051 56.8796 24.2199C56.8215 24.2588 56.7767 24.3144 56.7515 24.3792C56.7262 24.444 56.7216 24.5149 56.7383 24.5824L57.0336 25.771H61.5584L61.5584 25.771Z" fill="#FF3939"/>
<path d="M57.5537 25.771H56.0547C56.1084 25.4398 56.1565 25.1469 56.1878 24.9606C56.3023 24.2824 56.8014 24.2246 56.8796 24.2199C56.8858 24.2194 56.8897 24.2194 56.89 24.2194H57.2053L57.5537 25.771Z" fill="#FF3939"/>
<path d="M61.5584 25.7711H61.9218C61.9042 25.547 61.8217 25.3327 61.6843 25.1537C61.6154 25.0636 61.5265 24.9904 61.4244 24.9397L61.397 24.928L61.0775 25.7711H61.5584Z" fill="#FF3939"/>
<path d="M58.779 22.9303C59.5472 22.9303 60.17 22.3138 60.17 21.5534C60.17 20.793 59.5472 20.1765 58.779 20.1765C58.0108 20.1765 57.3881 20.793 57.3881 21.5534C57.3881 22.3138 58.0108 22.9303 58.779 22.9303Z" fill="#A0616A"/>
<path d="M57.8454 20.8825C57.9894 21.0512 58.233 21.0988 58.4578 21.1181C58.9833 21.1469 59.5104 21.1043 60.0242 20.9916C60.0563 21.297 59.9693 21.6264 60.151 21.8777C60.2362 21.5735 60.2858 21.2606 60.2987 20.9451C60.3122 20.8098 60.2944 20.6732 60.2465 20.5457C60.2209 20.4818 60.1777 20.4263 60.1218 20.3855C60.0659 20.3447 59.9996 20.3203 59.9304 20.315C60.034 20.2372 60.1554 20.1858 60.2838 20.1654L59.8422 19.9457L59.9556 19.8305L59.156 19.782L59.3876 19.6364C59.0389 19.589 58.6862 19.578 58.3351 19.6037C58.1712 19.6037 58.0103 19.648 57.8698 19.7317C57.7378 19.8252 57.6615 20.0109 57.7435 20.1481C57.6409 20.1648 57.5443 20.2071 57.4629 20.2711C57.3814 20.3351 57.3178 20.4186 57.2781 20.5137C57.2278 20.6649 57.2157 20.826 57.2427 20.9829C57.2729 21.2346 57.332 21.4821 57.4189 21.7205" fill="#2F2E41"/>
<path d="M18.1106 39.9922V16.7062C18.1188 16.6339 18.1553 16.5677 18.2122 16.5218C18.2691 16.4758 18.342 16.4537 18.4151 16.4602H47.9927C48.0659 16.4537 48.1387 16.4758 48.1957 16.5218C48.2526 16.5677 48.2891 16.6339 48.2973 16.7062V39.9922C48.2891 40.0645 48.2526 40.1307 48.1957 40.1767C48.1387 40.2226 48.0659 40.2447 47.9927 40.2382H18.4151C18.342 40.2447 18.2691 40.2226 18.2122 40.1767C18.1553 40.1307 18.1188 40.0645 18.1106 39.9922Z" fill="#E4E4E4"/>
<path d="M21.3255 19.3749V37.1297C21.3256 37.2096 21.3577 37.2862 21.4148 37.3427C21.4719 37.3992 21.5493 37.431 21.63 37.4312H44.7778C44.8585 37.431 44.9359 37.3992 44.993 37.3427C45.0501 37.2862 45.0822 37.2096 45.0823 37.1297V19.3749C45.0822 19.2949 45.0501 19.2183 44.993 19.1618C44.9359 19.1053 44.8585 19.0735 44.7778 19.0734H21.63C21.5493 19.0735 21.4719 19.1053 21.4148 19.1618C21.3577 19.2183 21.3256 19.2949 21.3255 19.3749Z" fill="white"/>
<path d="M30.9264 37.431H35.585L35.2947 33.1176L33.6141 33.5015L31.9795 32.8791L31.9362 32.863L31.9335 32.8617C31.9329 32.863 31.9325 32.8643 31.9322 32.8657C31.9064 32.9682 31.3934 35.0017 30.9264 37.431Z" fill="#FF3939"/>
<path d="M28.1188 33.8218L28.554 37.431H32.4804L31.9796 32.8791L31.9748 32.8348L31.9363 32.863L31.9322 32.8657L30.9636 33.5652L28.1188 33.8218Z" fill="#2F2E41"/>
<path d="M34.896 37.4311H38.4122L38.4629 34.5896L35.8754 33.7401L35.2947 33.1177C35.2947 33.1177 35.1113 34.9903 34.896 37.4311Z" fill="#2F2E41"/>
<path d="M26.4261 37.431H29.3399L29.1531 34.8455L28.1189 33.8218C28.1189 33.8218 27.3006 35.5209 26.4261 37.431Z" fill="#2F2E41"/>
<path d="M37.583 37.4311H39.1201C39.1134 36.6029 39.1093 36.0308 39.1093 35.8693C39.117 35.6197 39.062 35.3721 38.9492 35.1487C38.8363 34.9254 38.6693 34.7333 38.4629 34.5896L37.6866 34.8455L37.583 37.4311Z" fill="#2F2E41"/>
<path d="M37.8228 31.7603H29.678V28.3622C29.678 27.1976 30.5068 25.7974 31.5256 25.2409C32.9555 24.46 34.5188 24.4463 35.8145 25.2035C36.4244 25.561 36.9301 26.0691 37.2821 26.678C37.6342 27.287 37.8205 27.976 37.8228 28.6776V31.7603Z" fill="#2F2E41"/>
<path d="M36.493 30.1613C37.2724 28.75 36.7484 26.9806 35.3228 26.2092C33.8971 25.4377 32.1097 25.9564 31.3303 27.3676C30.551 28.7788 31.075 30.5482 32.5006 31.3197C33.9262 32.0911 35.7137 31.5725 36.493 30.1613Z" fill="#FFB8B8"/>
<path d="M36.7079 28.9146H32.511L32.501 28.8674C32.4524 28.6198 32.3897 28.3751 32.313 28.1345C32.1463 28.3762 31.9927 28.6264 31.8526 28.8841L31.8355 28.9146H31.0195C30.9695 28.9146 30.92 28.9042 30.8742 28.8841C30.8284 28.8641 30.7873 28.8348 30.7536 28.7982C30.7314 28.774 30.6795 28.7174 30.8944 26.1205C30.9003 26.0587 30.9223 25.9994 30.9583 25.9486C30.9943 25.8977 31.0431 25.8569 31.0998 25.8303C32.9413 24.9793 34.8074 25.0018 36.6468 25.8976H36.6796L36.6911 25.9427C37.054 28.7067 37.0018 28.7664 36.9795 28.7919C36.9458 28.8304 36.9041 28.8613 36.8572 28.8825C36.8104 28.9037 36.7595 28.9146 36.7079 28.9146Z" fill="#2F2E41"/>
</svg>
