<svg preserveAspectRatio="none" width="256" height="172" viewBox="0 0 256 172" fill="none" xmlns="http://www.w3.org/2000/svg">
  <g>
    <path opacity="0.1"
      d="M148.738 28.3577C132.327 27.7822 116.697 22.4689 101.781 16.6493C86.8648 10.8298 72.0708 4.38115 56.0525 1.29849C45.738 -0.684494 33.9548 -0.963316 25.6534 4.58414C17.6654 9.91968 15.0834 19.132 13.6969 27.6773C12.6526 34.1081 12.0393 40.8779 14.899 46.896C16.8855 51.0761 20.4118 54.5893 22.8515 58.5932C31.3439 72.5209 25.3446 89.6986 16.1433 103.301C11.8282 109.68 6.82428 115.767 3.49574 122.559C0.167194 129.352 -1.37264 137.134 1.54038 144.062C4.42897 150.928 11.306 156.087 18.7586 159.714C33.8948 167.075 51.7307 169.192 69.1222 170.388C107.623 173.031 146.328 171.887 184.93 170.74C199.215 170.316 213.565 169.886 227.617 167.669C235.423 166.437 243.48 164.483 249.146 159.763C256.338 153.774 258.12 143.632 253.301 136.119C245.217 123.521 222.86 120.394 217.213 106.872C214.103 99.4306 217.298 91.1395 221.817 84.2381C231.514 69.4315 247.766 56.4429 248.624 39.5172C249.21 27.8937 241.398 16.2545 229.317 10.7428C216.651 4.97895 199.098 5.70389 189.754 15.2463C180.135 25.0832 163.23 28.864 148.738 28.3577Z"
      fill="#FF3939" />
    <g opacity="0.5">
      <path opacity="0.5"
        d="M111.268 89.7996L103.834 89.9535L102.618 91.6286V97.417L104.136 98.4832H111.268L112.786 96.808V91.323L111.268 89.7996Z"
        fill="#FF3939" />
      <path opacity="0.2"
        d="M111.113 90.7132C111.113 90.7132 104.285 91.7795 103.678 90.7132L103.831 89.9526L111.113 89.792V90.7132Z"
        fill="white" />
      <path opacity="0.5"
        d="M111.875 106.555L113.088 107.775V113.574L111.875 114.775C111.875 114.775 107.475 116.298 104.591 115.078L103.225 113.708V107.909L104.44 106.537L111.875 106.555Z"
        fill="#FF3939" />
      <path opacity="0.2"
        d="M111.571 107.927C111.571 107.927 106.26 109.145 104.44 107.927V106.555H111.875L111.571 107.927Z"
        fill="white" />
      <path opacity="0.5"
        d="M108.991 98.4421V106.682C108.974 107.008 108.828 107.314 108.587 107.533C108.345 107.752 108.027 107.867 107.702 107.851C107.377 107.867 107.059 107.752 106.817 107.533C106.576 107.314 106.431 107.008 106.413 106.682V98.4421C106.413 97.7417 107.08 97.1997 107.853 97.28C108.152 97.2984 108.434 97.4274 108.644 97.642C108.854 97.8565 108.978 98.1416 108.991 98.4421Z"
        fill="#FF3939" />
      <path opacity="0.5"
        d="M123.176 90.035L115.741 90.1867L114.526 91.8619V97.6502L116.043 98.7165H123.176L124.694 97.0413V91.5563L123.176 90.035Z"
        fill="#FF3939" />
      <path opacity="0.2"
        d="M123.023 90.9473C123.023 90.9473 116.195 92.0136 115.588 90.9473L115.739 90.1867L123.023 90.035V90.9473Z"
        fill="white" />
      <path opacity="0.5"
        d="M123.778 106.789L124.991 108.009V113.809L123.778 115.015C123.778 115.015 119.376 116.539 116.495 115.319L115.128 113.949V108.161L116.343 106.789H123.778Z"
        fill="#FF3939" />
      <path opacity="0.2"
        d="M123.478 108.161C123.478 108.161 118.168 109.379 116.348 108.161V106.789H123.778L123.478 108.161Z"
        fill="white" />
      <path opacity="0.5"
        d="M120.89 98.6764V106.916C120.872 107.242 120.726 107.548 120.485 107.767C120.244 107.986 119.926 108.1 119.601 108.085C119.276 108.101 118.957 107.987 118.715 107.768C118.473 107.549 118.328 107.243 118.31 106.916V98.6764C118.31 97.976 118.976 97.4339 119.752 97.5142C120.051 97.5327 120.333 97.6616 120.543 97.8762C120.753 98.0908 120.876 98.3758 120.89 98.6764Z"
        fill="#FF3939" />
      <path opacity="0.5"
        d="M138.334 94.4406L132.213 94.5677L131.213 95.9462V100.711L132.462 101.59H138.334L139.583 100.209V95.6941L138.334 94.4406Z"
        fill="#FF3939" />
      <path opacity="0.2"
        d="M138.208 95.1945C138.208 95.1945 132.588 96.0711 132.088 95.1945L132.213 94.5677L138.212 94.4406L138.208 95.1945Z"
        fill="white" />
      <path opacity="0.5"
        d="M138.832 108.234L139.832 109.238V114.003L138.832 115.006C138.832 115.006 135.21 116.26 132.833 115.256L131.709 114.128V109.363L132.708 108.234H138.832Z"
        fill="#FF3939" />
      <path opacity="0.2"
        d="M138.583 109.363C138.583 109.363 134.21 110.367 132.713 109.363V108.234H138.832L138.583 109.363Z"
        fill="white" />
      <path opacity="0.5"
        d="M136.459 101.556V108.339C136.445 108.608 136.325 108.86 136.126 109.04C135.927 109.22 135.665 109.314 135.397 109.301C135.13 109.314 134.868 109.22 134.669 109.04C134.47 108.86 134.351 108.608 134.337 108.339V101.556C134.346 101.413 134.384 101.273 134.45 101.145C134.515 101.017 134.607 100.905 134.718 100.814C134.83 100.724 134.959 100.659 135.097 100.622C135.235 100.584 135.38 100.577 135.521 100.599C135.768 100.614 136 100.721 136.173 100.897C136.346 101.074 136.448 101.309 136.459 101.556Z"
        fill="#FF3939" />
      <path opacity="0.5"
        d="M148.136 94.6345L142.014 94.7594L141.016 96.1379V100.905L142.265 101.781H148.136L149.384 100.403V95.8881L148.136 94.6345Z"
        fill="#FF3939" />
      <path opacity="0.2"
        d="M148.011 95.3864C148.011 95.3864 142.39 96.2652 141.89 95.3864L142.014 94.7596L148.013 94.6346L148.011 95.3864Z"
        fill="white" />
      <path opacity="0.5"
        d="M148.636 108.428L149.633 109.43V114.195L148.636 115.198C148.636 115.198 145.012 116.452 142.636 115.45L141.514 114.328V109.557L142.514 108.428H148.636Z"
        fill="#FF3939" />
      <path opacity="0.2"
        d="M148.385 109.557C148.385 109.557 144.014 110.559 142.514 109.557V108.428H148.636L148.385 109.557Z"
        fill="white" />
      <path opacity="0.5"
        d="M146.263 101.748V108.529C146.248 108.797 146.128 109.05 145.929 109.23C145.73 109.41 145.468 109.504 145.2 109.49C144.933 109.504 144.671 109.41 144.472 109.23C144.272 109.05 144.153 108.797 144.138 108.529V101.748C144.138 101.172 144.694 100.726 145.325 100.793C145.571 100.808 145.803 100.913 145.976 101.09C146.149 101.266 146.251 101.5 146.263 101.748Z"
        fill="#FF3939" />
    </g>
    <path
      d="M233.1 119.251C232.622 118.384 231.729 117.813 230.789 117.549C229.838 117.32 228.855 117.258 227.883 117.366C226.312 117.479 224.756 117.736 223.232 118.136C222.288 118.386 221.308 118.72 220.67 119.474C220.653 119.497 220.633 119.523 220.613 119.546C219.637 119.802 218.668 120.197 217.724 120.518C216.776 120.834 215.812 121.097 214.835 121.306C216.113 120.576 217.357 119.804 218.411 118.774C218.908 118.289 219.355 117.754 219.744 117.177C220.466 117.384 221.223 117.435 221.966 117.326C223.47 117.067 224.686 115.988 225.816 114.935L229.454 111.576C230.034 111.04 230.623 110.492 231.009 109.791C231.531 108.817 231.578 107.657 231.591 106.544C231.609 105.013 231.591 103.483 231.547 101.955L232.698 102.848C232.523 100.963 232.872 99.0665 233.707 97.3692C234.107 96.5595 234.631 95.7543 234.642 94.8465C234.66 93.4457 233.46 92.3438 232.231 91.7236C231.003 91.1035 229.621 90.7065 228.614 89.754C227.116 88.3376 226.836 86.078 226.096 84.1374C225.658 83.0749 225.138 82.048 224.541 81.0659L223.101 78.5454C222.377 77.2171 221.57 75.9364 220.684 74.711C219.186 72.728 217.3 71.093 215.426 69.4758L205.685 61.0509C203.317 59.001 200.939 56.9489 198.377 55.1555C193.18 51.5174 187.316 49.0192 181.49 46.5455C180.023 45.9209 178.497 45.2874 176.91 45.3633C175.715 45.441 174.583 45.9275 173.702 46.7418C172.867 46.4872 172.05 46.1757 171.258 45.8094L171.196 45.7804C171.213 45.6488 171.233 45.5194 171.247 45.3878C171.267 45.2138 171.278 45.0398 171.291 44.8636C171.73 44.7957 172.155 44.6563 172.549 44.451C172.749 44.3561 172.925 44.2183 173.066 44.0472C173.245 43.7494 173.337 43.4069 173.331 43.0591C173.509 40.7281 173.686 38.3749 173.495 36.0551C173.304 33.7353 172.724 31.3865 171.495 29.4146C171.116 28.8035 170.64 28.2079 169.98 27.9424C169.091 27.5856 168.063 27.9179 167.114 27.7573C165.472 27.4785 164.447 25.8658 163.259 24.6769C160.252 21.6678 155.111 21.215 151.64 23.6508C150.324 24.5765 149.271 25.8323 148.098 26.9387C146.925 28.0451 145.549 29.0466 143.965 29.2629C143.673 29.2754 143.387 29.3515 143.127 29.486C142.803 29.6912 142.656 30.086 142.532 30.4518C142.087 31.7144 141.661 33.0103 141.525 34.3308C141.51 34.2505 141.496 34.1702 141.483 34.0899C141.423 34.579 141.41 35.0728 141.445 35.5643C141.49 36.1908 141.67 36.7999 141.974 37.3488C142.227 37.8707 142.658 38.2839 143.19 38.5132C143.565 38.6466 143.962 38.7108 144.361 38.7028H144.536C144.472 38.8745 144.409 39.0463 144.352 39.2203C143.857 40.6943 143.605 42.2397 143.607 43.7952C143.607 51.6022 149.813 57.9281 157.475 57.9281C158.397 57.9236 159.316 57.8265 160.219 57.6382C160.519 57.7341 160.819 57.8322 161.108 57.9371C161.699 58.1333 162.279 58.3626 162.845 58.6241C163.085 58.7378 164.056 59.3066 165.229 60.0405L165.149 60.2078C164.005 61.2809 163.165 62.6404 162.717 64.1468C162.268 65.6531 162.226 67.2522 162.596 68.7799C163.445 72.0968 166.229 74.9408 165.949 78.3558C165.909 78.8421 165.807 79.335 165.889 79.8168C166.003 80.486 166.454 81.0302 166.905 81.5254C167.296 81.9582 167.703 82.3775 168.116 82.7879C168.083 84.9672 167.894 87.1443 167.689 89.3168C167.671 89.5064 167.667 89.6983 167.665 89.8923C167.677 90.8316 168.016 91.737 168.625 92.4508C169.269 93.2382 169.527 94.4182 169.405 95.471C169.229 96.9789 168.489 98.3462 167.994 99.776C165.758 106.207 168.505 113.458 166.958 120.099C166.578 121.734 165.938 123.324 165.847 125.006C165.796 126.057 165.961 127.159 165.558 128.129C165.209 128.972 164.483 129.581 163.796 130.172C162.826 131.006 161.881 131.869 160.961 132.76C159.571 131.997 158.136 131.319 156.664 130.73C156.424 130.633 156.179 130.548 155.93 130.476C154.193 128.843 152.002 127.799 149.944 126.599C148.238 125.606 146.611 124.491 144.976 123.376C143.421 122.305 141.832 121.225 140.516 119.849C139.85 119.153 139.257 118.386 138.539 117.75C137.908 117.223 137.24 116.743 136.539 116.314C133.386 114.263 130.381 111.994 127.545 109.521C125.383 107.639 123.614 105.214 121.303 103.526C119.888 102.491 118.241 101.547 116.508 101.741C115.956 101.806 115.421 101.972 114.928 102.23C114.469 102.034 113.978 101.924 113.479 101.904C112.071 101.859 110.777 102.627 109.569 103.365C102.458 107.703 95.2368 111.847 87.9042 115.798C86.4243 116.597 84.9356 117.389 83.5224 118.303C80.7651 120.094 78.3219 122.33 76.2921 124.921C75.9188 125.396 75.4477 125.936 74.8544 125.865C74.692 125.84 74.5359 125.784 74.3945 125.7C73.4813 125.202 72.9213 124.241 72.3947 123.329C72.0125 122.66 71.5992 121.961 71.0393 121.453C70.9194 121.136 70.7596 120.836 70.5638 120.561C71.3526 118.607 72.0325 116.606 72.6636 114.592C72.9924 113.534 73.3102 112.47 73.7301 111.444C74.7656 108.906 76.4165 106.606 77.0009 103.92C77.1409 103.271 77.2231 102.604 77.332 101.949C83.7202 100.686 88.5419 94.958 88.5419 88.0789C88.5419 80.2719 82.3337 73.9459 74.6745 73.9459C67.0153 73.9459 60.8092 80.2719 60.8092 88.0789C60.8024 90.4552 61.391 92.795 62.5209 94.8831C63.6508 96.9712 65.2857 98.7405 67.2752 100.028C67.2752 100.055 67.2752 100.082 67.2752 100.106C67.2619 100.555 67.2181 101.002 67.1441 101.445C66.8886 102.939 66.2553 104.344 65.6176 105.707C65.1954 106.619 64.7733 107.536 64.3355 108.446C64.1255 108.404 63.9217 108.335 63.7289 108.241C63.3534 108.031 63.189 107.572 63.0468 107.166C62.4175 105.306 61.6471 103.497 60.7426 101.755C60.3897 101.014 59.9415 100.323 59.4094 99.7002C58.4717 98.6697 57.1874 98.0585 55.9453 97.4406C55.7231 97.3336 55.5165 97.2176 55.3031 97.115C55.1186 96.9773 54.9257 96.8514 54.7254 96.738C53.6922 96.1514 52.5457 95.7298 51.6835 94.9089C51.0369 94.2933 50.5925 93.4925 49.9881 92.8389C48.9816 91.7526 47.5928 91.1325 46.2441 90.5414C45.5419 90.2336 44.8042 89.9191 44.0377 89.9615C43.9296 89.9668 43.822 89.9787 43.7155 89.9972C43.5311 90.0287 43.3486 90.0704 43.1689 90.1221C42.9939 90.0288 42.8286 89.9182 42.6756 89.792C41.8512 89.154 41.5312 88.0588 41.2624 87.0394C40.818 85.3353 40.3491 83.5709 40.6247 81.8266C40.6726 81.5256 40.7379 81.2277 40.8202 80.9343C40.8891 80.8206 40.9557 80.7113 41.0157 80.5886C42.7848 80.0548 44.4011 79.1044 45.7301 77.8164C47.0591 76.5285 48.0623 74.9404 48.656 73.1844C49.2497 71.4285 49.4168 69.5555 49.1434 67.7216C48.8699 65.8876 48.1639 64.1458 47.084 62.6413C46.9707 62.4852 46.8618 62.3335 46.7351 62.1818L46.8685 62.1082C48.0972 61.3543 48.3772 59.552 47.8084 58.2092C47.2395 56.8664 46.0308 55.9184 44.8065 55.1734C44.6287 55.0641 44.4487 54.9615 44.2665 54.8589L44.111 54.7741C43.9732 54.6983 43.8377 54.6246 43.6999 54.551L43.5377 54.4685C43.3755 54.386 43.2133 54.3079 43.0511 54.2321L42.9778 54.1964C42.7756 54.1049 42.5734 54.0157 42.3689 53.9309C42.1712 53.8484 41.9734 53.7726 41.7734 53.7079L41.6912 53.6766C41.5024 53.6075 41.3113 53.5428 41.1202 53.4804L41.078 53.467C39.6803 53.0109 38.2233 52.7644 36.754 52.7353C35.3156 52.744 33.8821 52.9032 32.4766 53.2105C31.1083 53.4592 29.7683 53.8455 28.477 54.3637C26.3429 55.2716 24.4614 56.688 22.9954 58.4902C22.6864 58.5138 22.3801 58.5645 22.0799 58.6419C20.8778 58.9475 19.7957 59.6211 18.8069 60.384C17.9788 60.9952 17.245 61.7258 16.6294 62.5521C15.9044 63.611 15.4044 64.8084 15.1607 66.0697C14.3185 70.0246 15.354 74.0998 16.1161 78.0747C16.8783 82.0496 17.3182 86.3814 15.4495 89.9481C14.7451 91.2865 13.7452 92.4486 13.0053 93.7624C12.2654 95.0762 11.7521 96.6621 12.1787 98.1187C12.6965 99.8876 14.4007 101.001 15.2895 102.607C16.3294 104.478 16.0428 106.992 14.6829 108.629C14.6229 108.701 14.5629 108.772 14.4985 108.852C14.4341 108.933 14.343 109.017 14.2585 109.093C15.6606 109.588 17.2227 109.055 18.4803 108.261C19.4861 107.665 20.3391 106.841 20.9712 105.854C22.5599 103.236 21.8466 99.8496 22.4066 96.8228C23.142 92.859 26.1106 89.3235 25.7018 85.3107C25.4263 82.6184 23.6753 80.3678 22.2999 78.0524C21.3856 76.4984 20.6194 74.8614 20.0113 73.163C19.9868 73.0916 19.9624 73.018 19.9357 72.9399C19.5335 71.7912 19.2247 70.5733 19.4313 69.371C19.5018 68.9816 19.6182 68.6019 19.778 68.2401C19.778 68.2825 19.778 68.3271 19.778 68.3695C19.805 69.5323 20.0626 70.6781 20.5357 71.7399C21.9244 74.6396 25.2663 75.978 27.3883 78.329C27.4772 78.4272 27.5616 78.5275 27.646 78.6301C27.6705 78.6569 27.6927 78.6859 27.7149 78.7149L27.8949 78.938L27.9704 79.0428C28.026 79.1209 28.0815 79.1989 28.1326 79.2792L28.2015 79.3796C28.2726 79.4934 28.3437 79.6027 28.4104 79.7254C28.9503 79.1253 29.5081 78.4941 29.7258 77.7178C29.7458 77.6509 29.7591 77.5818 29.7725 77.5126C29.7902 77.5305 29.8058 77.5505 29.8236 77.5706C29.8658 77.8093 29.8991 78.048 29.9302 78.2889C29.9302 78.6331 29.9667 78.9763 30.0391 79.3127C30.208 81.4541 30.0724 83.6534 29.9302 85.8015C29.8547 86.9502 30.1524 88.6566 29.4236 89.5131L29.4014 89.5377C29.3587 89.5876 29.3118 89.6339 29.2614 89.676C29.137 89.8054 29.0103 89.9325 28.8926 90.0663C26.4484 92.8322 25.3374 96.7581 25.3951 100.519C25.4529 104.799 26.815 108.946 28.3593 112.928C28.8986 114.381 29.534 115.797 30.2613 117.166C30.6367 117.905 31.1332 118.575 31.73 119.149C32.3544 119.704 33.1143 120.07 33.8632 120.427C34.0498 120.516 34.2387 120.603 34.4253 120.694L34.903 120.917L38.5404 122.653C39.207 123.637 39.8514 124.647 40.5025 125.66C40.5958 125.802 40.6869 125.95 40.7824 126.092C41.4935 127.208 42.209 128.323 42.9378 129.407L49.0682 138.521C49.5126 139.19 49.977 139.86 50.6014 140.355C50.779 140.495 50.9712 140.615 51.1747 140.714C51.278 140.764 51.3841 140.808 51.4924 140.845C51.3579 141.048 51.3003 141.293 51.3302 141.535C51.4122 141.772 51.568 141.976 51.7746 142.117C53.1611 143.268 54.701 144.481 55.1365 146.25C55.4453 147.51 55.1365 148.86 55.4142 150.127C55.9231 152.411 58.174 153.796 60.3026 154.675C65.0732 156.642 70.3727 157.399 75.441 156.484C80.5094 155.57 85.3245 152.931 88.6063 148.9C89.6151 147.655 90.475 146.297 91.4327 145.012C92.0993 144.107 92.8326 143.243 93.5903 142.411C94.4079 142.036 95.196 141.599 95.9478 141.104C97.5499 140.036 98.9297 138.664 100.392 137.393C101.483 136.438 102.625 135.537 103.627 134.493C104.527 133.503 105.367 132.46 106.145 131.37C107.922 129.006 109.758 126.688 111.653 124.417C112.666 123.202 113.739 121.964 115.155 121.294L115.219 121.268C115.388 122.267 116.177 123.115 116.73 123.978C119.019 127.547 121.414 131.221 124.951 133.496C126.889 134.74 129.08 135.503 131.266 136.199C136.821 137.961 142.465 139.344 148.113 140.729C148.3 140.373 148.482 140.042 148.687 139.721C148.774 139.814 148.856 139.913 148.931 140.016C148.956 140.051 148.976 140.089 149 140.125C148.959 140.133 148.919 140.144 148.88 140.158C148.517 140.328 148.232 140.629 148.082 141.002C147.474 142.226 147.416 143.647 147.387 145.017C147.367 146.355 147.387 147.693 147.387 149.032C147.354 149.531 147.43 150.032 147.609 150.499C148.04 151.392 149.136 151.724 150.115 151.838C151.818 152.027 153.533 151.867 155.226 151.637C155.324 152.038 155.483 152.421 155.699 152.772C156.65 154.334 158.292 155.364 160.001 155.969C161.71 156.573 163.521 156.814 165.296 157.169C168.449 157.798 171.675 158.804 174.811 158.095C176.062 157.811 177.255 157.263 178.506 157.022C181.37 156.477 184.339 157.579 187.223 157.138C188.616 156.915 189.934 156.357 191.196 155.717C191.832 155.437 192.409 155.037 192.895 154.539C193.358 154.017 193.635 153.277 193.444 152.601C193.335 152.213 193.087 151.882 192.92 151.517C192.697 150.931 192.57 150.314 192.544 149.688C192.312 147.318 191.913 144.969 191.349 142.657C191.333 142.592 191.316 142.525 191.298 142.458C193.478 141.59 195.431 140.228 197.359 138.871L201.508 135.958C202.841 135.015 204.208 134.067 205.705 133.407C208.003 132.394 210.547 132.104 213.051 132.106C214.076 132.106 215.102 132.157 216.122 132.251C215.992 132.393 215.894 132.562 215.835 132.746C215.631 133.384 215.955 134.085 216.437 134.551C216.92 135.017 217.548 135.28 218.115 135.604C219.681 136.489 220.984 137.775 221.892 139.331C222.461 140.31 222.875 141.499 222.515 142.576C222.07 143.928 220.486 144.861 220.577 146.284C220.63 147.122 221.304 147.816 222.07 148.126C222.837 148.436 223.688 148.432 224.514 148.407C225.868 148.365 227.261 148.26 228.472 147.642C229.287 147.225 229.978 146.596 230.656 145.974C231.274 145.405 231.905 144.814 232.256 144.046C232.585 143.324 232.636 142.505 232.651 141.711C232.718 137.972 232.076 134.183 232.816 130.52C233.038 129.405 233.393 128.314 233.582 127.19C233.88 125.405 233.767 123.603 233.653 121.81C233.598 120.926 233.531 120.016 233.1 119.251Z" />
    <path opacity="0.06"
      d="M186.154 67.5486C185.281 68.1397 184.976 69.2818 184.865 70.3346C184.392 74.8114 186.232 79.2436 186.11 83.7427C186.012 87.3227 184.683 90.7378 183.372 94.068C181.137 99.7493 179.972 105.919 179.521 112.011C179.07 118.102 178.41 124.446 175.153 129.599C174.413 130.766 173.551 131.85 172.826 133.023C172.067 134.25 171.464 135.566 170.793 136.842C168.816 140.61 166.268 144.047 163.239 147.029C162.35 147.899 161.408 148.742 160.274 149.244C159.544 149.562 158.758 149.73 157.962 149.738C157.166 149.747 156.376 149.595 155.639 149.293C154.12 148.661 152.84 147.238 152.777 145.588C152.722 144.111 153.6 142.779 154.479 141.597C157.462 137.592 160.891 133.943 164.701 130.721C165.392 130.136 166.12 129.532 166.478 128.698C166.88 127.736 166.716 126.646 166.767 125.604C166.849 123.942 167.494 122.365 167.878 120.746C169.433 114.168 166.669 106.985 168.918 100.613C169.418 99.1961 170.16 97.8421 170.336 96.3499C170.46 95.306 170.202 94.1394 169.551 93.3565C168.942 92.6529 168.601 91.7549 168.589 90.8225C168.589 90.6307 168.589 90.4411 168.611 90.2537C168.882 87.3339 169.151 84.4007 169.005 81.4719C168.858 78.5432 168.278 75.5988 166.932 72.9957C166.234 71.6462 165.332 70.3837 164.901 68.9271C164.207 66.5694 164.847 64.0199 165.88 61.7893C166.687 60.045 167.763 58.3832 169.265 57.1876C172.055 54.9682 176.233 54.7117 179.288 56.5474C181.541 57.8992 183.083 60.1721 184.334 62.4897C185.232 64.1827 186.167 65.617 186.154 67.5486Z"
      fill="black" />
    <path
      d="M178.748 49.7709C178.321 50.9263 177.897 52.0817 177.475 53.2372C177.195 53.9956 176.917 54.7607 176.628 55.5191C175.295 59.0144 173.804 62.4539 171.471 65.347C171.82 64.9143 168.538 62.7372 166.118 61.2517C164.938 60.5223 163.961 59.9602 163.721 59.8486C163.15 59.5899 162.567 59.3621 161.972 59.1661C161.05 58.8538 160.117 58.5839 159.195 58.2471C157.061 57.4731 158.552 56.3109 159.466 55.0618C162.454 50.9709 163.021 45.3811 166.414 41.6226C167.658 43.9959 169.627 45.9071 172.031 47.0763C172.078 47.1009 172.126 47.1232 172.175 47.1432C174.191 48.089 176.417 48.4972 178.501 49.2891C178.615 49.3314 178.746 49.3917 178.784 49.5121C178.798 49.6 178.785 49.6901 178.748 49.7709Z"
      fill="#A1616A" />
    <path
      d="M172.946 132.396C171.981 133.784 171.38 135.395 171.2 137.078C171.019 138.761 171.265 140.463 171.913 142.025C172.077 142.462 172.333 142.858 172.662 143.188C173.081 143.517 173.57 143.746 174.091 143.857C178.504 145.117 183.214 144.869 187.734 144.08C189.265 143.843 190.769 143.459 192.227 142.931C194.464 142.072 196.462 140.701 198.435 139.331L202.608 136.445C203.959 135.51 205.321 134.571 206.83 133.915C209.14 132.914 211.7 132.626 214.218 132.628C216.38 132.631 218.538 132.838 220.661 133.246C222.077 133.52 223.772 133.804 224.768 132.766C225.337 132.18 225.505 131.321 225.616 130.511C226.056 127.361 226.048 124.164 225.592 121.016C225.581 120.751 225.485 120.497 225.319 120.291C225.162 120.157 224.971 120.07 224.768 120.039C222.801 119.593 220.828 120.518 218.917 121.154C214.946 122.479 210.682 122.637 206.643 123.728C202.403 124.872 198.422 127.038 194.04 127.478C191.951 127.687 189.854 127.504 187.76 127.551C185.818 127.594 184.007 128.267 182.105 128.348C178.439 128.51 175.251 129.153 172.946 132.396Z"
      fill="#A1616A" />
    <path opacity="0.06"
      d="M172.946 132.396C171.981 133.784 171.38 135.395 171.2 137.078C171.019 138.761 171.265 140.463 171.913 142.025C172.077 142.462 172.333 142.858 172.662 143.188C173.081 143.517 173.57 143.746 174.091 143.857C178.504 145.117 183.214 144.869 187.734 144.08C189.265 143.843 190.769 143.459 192.227 142.931C194.464 142.072 196.462 140.701 198.435 139.331L202.608 136.445C203.959 135.51 205.321 134.571 206.83 133.915C209.14 132.914 211.7 132.626 214.218 132.628C216.38 132.631 218.538 132.838 220.661 133.246C222.077 133.52 223.772 133.804 224.768 132.766C225.337 132.18 225.505 131.321 225.616 130.511C226.056 127.361 226.048 124.164 225.592 121.016C225.581 120.751 225.485 120.497 225.319 120.291C225.162 120.157 224.971 120.07 224.768 120.039C222.801 119.593 220.828 120.518 218.917 121.154C214.946 122.479 210.682 122.637 206.643 123.728C202.403 124.872 198.422 127.038 194.04 127.478C191.951 127.687 189.854 127.504 187.76 127.551C185.818 127.594 184.007 128.267 182.105 128.348C178.439 128.51 175.251 129.153 172.946 132.396Z"
      fill="black" />
    <path
      d="M176.533 127.681C176.428 128.174 176.335 128.695 176.482 129.177C176.664 129.651 176.971 130.066 177.37 130.377C181.148 133.772 186.545 134.475 191.591 135.026C192.958 135.175 194.349 135.325 195.702 135.077C196.935 134.854 198.086 134.308 199.221 133.768C201.666 132.606 204.123 131.43 206.219 129.722C208.274 128.049 209.923 125.907 212.051 124.33C214.471 122.546 217.446 121.524 219.606 119.423C221.168 117.911 222.205 115.936 222.568 113.789C222.812 112.323 222.732 110.826 222.568 109.35C222.392 107.652 222.11 105.926 221.306 104.422C220.375 102.682 218.811 101.369 217.16 100.289C213.667 98.0094 209.554 96.5952 205.383 96.6309C199.606 96.6822 194.273 100.057 190.127 103.847C185.741 107.861 182.192 112.707 179.683 118.107C178.267 121.165 177.21 124.378 176.533 127.681Z"
      fill="#464353" />
    <path opacity="0.06"
      d="M176.533 127.681C176.428 128.174 176.335 128.695 176.482 129.177C176.664 129.651 176.971 130.066 177.37 130.377C181.148 133.772 186.545 134.475 191.591 135.026C192.958 135.175 194.349 135.325 195.702 135.077C196.935 134.854 198.086 134.308 199.221 133.768C201.666 132.606 204.123 131.43 206.219 129.722C208.274 128.049 209.923 125.907 212.051 124.33C214.471 122.546 217.446 121.524 219.606 119.423C221.168 117.911 222.205 115.936 222.568 113.789C222.812 112.323 222.732 110.826 222.568 109.35C222.392 107.652 222.11 105.926 221.306 104.422C220.375 102.682 218.811 101.369 217.16 100.289C213.667 98.0094 209.554 96.5952 205.383 96.6309C199.606 96.6822 194.273 100.057 190.127 103.847C185.741 107.861 182.192 112.707 179.683 118.107C178.267 121.165 177.21 124.378 176.533 127.681Z"
      fill="black" />
    <path
      d="M186.154 67.5486C185.281 68.1397 184.976 69.2818 184.865 70.3346C184.392 74.8114 186.232 79.2436 186.11 83.7427C186.012 87.3227 184.683 90.7378 183.372 94.068C181.137 99.7493 179.972 105.919 179.521 112.011C179.07 118.102 178.41 124.446 175.153 129.599C174.413 130.766 173.551 131.85 172.826 133.023C172.067 134.25 171.464 135.566 170.793 136.842C168.816 140.61 166.268 144.047 163.239 147.029C162.35 147.899 161.408 148.742 160.274 149.244C159.544 149.562 158.758 149.73 157.962 149.738C157.166 149.747 156.376 149.595 155.639 149.293C154.12 148.661 152.84 147.238 152.777 145.588C152.722 144.111 153.6 142.779 154.479 141.597C157.462 137.592 160.891 133.943 164.701 130.721C165.392 130.136 166.12 129.532 166.478 128.698C166.88 127.736 166.716 126.646 166.767 125.604C166.849 123.942 167.494 122.365 167.878 120.746C169.433 114.168 166.669 106.985 168.918 100.613C169.418 99.1961 170.16 97.8421 170.336 96.3499C170.46 95.306 170.202 94.1394 169.551 93.3565C168.942 92.6529 168.601 91.7549 168.589 90.8225C168.589 90.6307 168.589 90.4411 168.611 90.2537C168.882 87.3339 169.151 84.4007 169.005 81.4719C168.858 78.5432 168.278 75.5988 166.932 72.9957C166.234 71.6462 165.332 70.3837 164.901 68.9271C164.207 66.5694 164.847 64.0199 165.88 61.7893C166.687 60.045 167.763 58.3832 169.265 57.1876C172.055 54.9682 176.233 54.7117 179.288 56.5474C181.541 57.8992 183.083 60.1721 184.334 62.4897C185.232 64.1827 186.167 65.617 186.154 67.5486Z"
      fill="#A1616A" />
    <path
      d="M173.877 82.5338C178.522 82.5338 182.288 76.6027 182.288 69.2864C182.288 61.97 178.522 56.0389 173.877 56.0389C169.233 56.0389 165.467 61.97 165.467 69.2864C165.467 76.6027 169.233 82.5338 173.877 82.5338Z"
      fill="#A1616A" />
    <path
      d="M152.429 138.512C152.677 138.864 152.846 139.266 152.922 139.69C152.999 140.114 152.982 140.549 152.873 140.966C153.666 141.537 154.629 141.819 155.604 141.764C156.571 141.712 157.522 141.492 158.415 141.115C159.191 140.831 159.926 140.444 160.601 139.964C161.761 139.103 162.601 137.872 163.267 136.596C163.643 135.891 163.963 134.979 163.49 134.346C163.304 134.131 163.077 133.955 162.823 133.828C161.111 132.848 159.328 131.997 157.49 131.283C156.986 131.049 156.437 130.926 155.882 130.922C155.199 130.96 154.579 131.334 154.037 131.754C152.819 132.705 151.836 133.926 151.166 135.323C150.958 135.769 150.327 136.828 150.64 137.288C150.782 137.5 151.306 137.573 151.529 137.707C151.882 137.909 152.189 138.183 152.429 138.512Z"
      fill="#FBBEBE" />
    <path opacity="0.03"
      d="M152.429 138.512C152.677 138.864 152.846 139.266 152.922 139.69C152.999 140.114 152.982 140.549 152.873 140.966C153.666 141.537 154.629 141.819 155.604 141.764C156.571 141.712 157.522 141.492 158.415 141.115C159.191 140.831 159.926 140.444 160.601 139.964C161.761 139.103 162.601 137.872 163.267 136.596C163.643 135.891 163.963 134.979 163.49 134.346C163.304 134.131 163.077 133.955 162.823 133.828C161.111 132.848 159.328 131.997 157.49 131.283C156.986 131.049 156.437 130.926 155.882 130.922C155.199 130.96 154.579 131.334 154.037 131.754C152.819 132.705 151.836 133.926 151.166 135.323C150.958 135.769 150.327 136.828 150.64 137.288C150.782 137.5 151.306 137.573 151.529 137.707C151.882 137.909 152.189 138.183 152.429 138.512Z"
      fill="black" />
    <path
      d="M161.63 133.344C165.389 134.044 168.847 135.869 172.542 136.853C174.037 137.25 175.577 137.522 177.006 138.106C178.435 138.691 179.781 139.69 180.397 141.113C180.657 141.796 180.829 142.51 180.91 143.237C181.07 144.265 181.201 145.414 180.592 146.257C179.95 147.149 178.737 147.345 177.65 147.477C173.744 147.943 169.838 148.412 165.918 148.742C165.125 148.79 164.335 148.885 163.552 149.025C162.907 149.154 162.279 149.351 161.639 149.502C160.81 149.696 159.968 149.819 159.128 149.948C156.979 150.259 154.806 150.569 152.649 150.332C151.664 150.223 150.562 149.904 150.129 149.012C149.949 148.549 149.873 148.053 149.907 147.557C149.896 146.232 149.884 144.91 149.907 143.587C149.927 142.228 149.993 140.819 150.607 139.608C150.759 139.237 151.045 138.938 151.409 138.771C151.632 138.707 151.866 138.686 152.097 138.709C153.253 138.749 154.448 138.798 155.482 139.315C156.301 139.724 156.968 140.404 157.804 140.774C159.386 141.479 161.294 140.973 162.896 141.635C163.27 140.48 163.185 139.311 162.907 138.126C162.63 136.942 162.241 135.78 162.123 134.571C162.118 134.305 162.067 134.042 161.972 133.795C161.852 133.547 161.892 133.306 161.63 133.344Z"
      fill="#464353" />
    <path opacity="0.06"
      d="M161.63 133.344C165.389 134.044 168.847 135.869 172.542 136.853C174.037 137.25 175.577 137.522 177.006 138.106C178.435 138.691 179.781 139.69 180.397 141.113C180.657 141.796 180.829 142.51 180.91 143.237C181.07 144.265 181.201 145.414 180.592 146.257C179.95 147.149 178.737 147.345 177.65 147.477C173.744 147.943 169.838 148.412 165.918 148.742C165.125 148.79 164.335 148.885 163.552 149.025C162.907 149.154 162.279 149.351 161.639 149.502C160.81 149.696 159.968 149.819 159.128 149.948C156.979 150.259 154.806 150.569 152.649 150.332C151.664 150.223 150.562 149.904 150.129 149.012C149.949 148.549 149.873 148.053 149.907 147.557C149.896 146.232 149.884 144.91 149.907 143.587C149.927 142.228 149.993 140.819 150.607 139.608C150.759 139.237 151.045 138.938 151.409 138.771C151.632 138.707 151.866 138.686 152.097 138.709C153.253 138.749 154.448 138.798 155.482 139.315C156.301 139.724 156.968 140.404 157.804 140.774C159.386 141.479 161.294 140.973 162.896 141.635C163.27 140.48 163.185 139.311 162.907 138.126C162.63 136.942 162.241 135.78 162.123 134.571C162.118 134.305 162.067 134.042 161.972 133.795C161.852 133.547 161.892 133.306 161.63 133.344Z"
      fill="black" />
    <path
      d="M36.0407 95.3104C35.283 95.0695 34.5519 95.7431 34.1275 96.4257C32.3633 99.2094 32.5077 102.926 33.9187 105.906C34.2544 106.661 34.7174 107.353 35.2874 107.951C36.0518 108.707 37.0361 109.191 37.9538 109.736C40.5001 111.246 42.6823 113.302 44.3443 115.758C45.4308 117.366 46.2863 119.135 47.5195 120.632C50.5547 124.317 55.5431 125.985 58.4872 129.733C59.1916 130.625 59.7871 131.66 60.727 132.309C61.2857 132.695 61.9369 132.924 62.6132 132.972C63.2895 133.021 63.9665 132.887 64.5742 132.585C65.1819 132.283 65.6982 131.824 66.0699 131.254C66.4417 130.685 66.6552 130.027 66.6886 129.347C67.8329 127.658 68.7684 125.793 69.6594 123.955C70.9777 121.15 72.0916 118.252 72.9924 115.285C73.3235 114.237 73.6434 113.182 74.0656 112.162C75.1077 109.646 76.7676 107.369 77.3542 104.71C77.5897 103.644 77.6475 102.535 77.9897 101.5C78.2961 100.571 78.8204 99.7298 79.5184 99.0466C81.8293 96.7915 83.0736 93.5058 84.9112 90.8515C85.6577 89.7785 86.4332 88.7079 86.9265 87.4944C87.4198 86.281 87.6087 84.8913 87.1487 83.6645C86.6888 82.4377 85.4867 81.4473 84.1846 81.5165C83.6018 81.5771 83.0365 81.7514 82.5203 82.0295C80.7258 82.8844 79.0798 84.0231 77.6452 85.4021C77.0179 86.0082 76.4245 86.6486 75.8677 87.3204C73.1524 90.5771 71.0282 94.5297 70.8415 98.7722C70.7793 100.227 70.8948 101.839 69.9749 102.966C67.4374 106.077 66.6219 110.356 64.4577 113.742C63.4556 115.303 62.3068 116.92 60.5937 117.632C60.3406 117.754 60.0607 117.809 59.7804 117.792C59.0961 117.714 58.7028 116.992 58.4139 116.363C57.2851 113.909 55.9788 111.542 54.5054 109.281C53.9233 108.388 53.2811 107.474 52.3501 106.95C51.7146 106.595 50.9769 106.437 50.3792 106.022C49.5459 105.444 49.1104 104.46 48.6771 103.539C47.2729 100.564 45.4949 97.7811 43.3866 95.2591C42.4222 94.1059 41.1513 92.9147 39.6625 93.0865C38.2449 93.2538 37.3783 94.7505 36.0407 95.3104Z"
      fill="#FBBEBE" />
    <path opacity="0.03"
      d="M36.0407 95.3104C35.283 95.0695 34.5519 95.7431 34.1275 96.4257C32.3633 99.2094 32.5077 102.926 33.9187 105.906C34.2544 106.661 34.7174 107.353 35.2874 107.951C36.0518 108.707 37.0361 109.191 37.9538 109.736C40.5001 111.246 42.6823 113.302 44.3443 115.758C45.4308 117.366 46.2863 119.135 47.5195 120.632C50.5547 124.317 55.5431 125.985 58.4872 129.733C59.1916 130.625 59.7871 131.66 60.727 132.309C61.2857 132.695 61.9369 132.924 62.6132 132.972C63.2895 133.021 63.9665 132.887 64.5742 132.585C65.1819 132.283 65.6982 131.824 66.0699 131.254C66.4417 130.685 66.6552 130.027 66.6886 129.347C67.8329 127.658 68.7684 125.793 69.6594 123.955C70.9777 121.15 72.0916 118.252 72.9924 115.285C73.3235 114.237 73.6434 113.182 74.0656 112.162C75.1077 109.646 76.7676 107.369 77.3542 104.71C77.5897 103.644 77.6475 102.535 77.9897 101.5C78.2961 100.571 78.8204 99.7298 79.5184 99.0466C81.8293 96.7915 83.0736 93.5058 84.9112 90.8515C85.6577 89.7785 86.4332 88.7079 86.9265 87.4944C87.4198 86.281 87.6087 84.8913 87.1487 83.6645C86.6888 82.4377 85.4867 81.4473 84.1846 81.5165C83.6018 81.5771 83.0365 81.7514 82.5203 82.0295C80.7258 82.8844 79.0798 84.0231 77.6452 85.4021C77.0179 86.0082 76.4245 86.6486 75.8677 87.3204C73.1524 90.5771 71.0282 94.5297 70.8415 98.7722C70.7793 100.227 70.8948 101.839 69.9749 102.966C67.4374 106.077 66.6219 110.356 64.4577 113.742C63.4556 115.303 62.3068 116.92 60.5937 117.632C60.3406 117.754 60.0607 117.809 59.7804 117.792C59.0961 117.714 58.7028 116.992 58.4139 116.363C57.2851 113.909 55.9788 111.542 54.5054 109.281C53.9233 108.388 53.2811 107.474 52.3501 106.95C51.7146 106.595 50.9769 106.437 50.3792 106.022C49.5459 105.444 49.1104 104.46 48.6771 103.539C47.2729 100.564 45.4949 97.7811 43.3866 95.2591C42.4222 94.1059 41.1513 92.9147 39.6625 93.0865C38.2449 93.2538 37.3783 94.7505 36.0407 95.3104Z"
      fill="black" />
    <path
      d="M35.8852 84.6528C39.12 84.6528 41.7423 82.277 41.7423 79.3462C41.7423 76.4155 39.12 74.0397 35.8852 74.0397C32.6503 74.0397 30.028 76.4155 30.028 79.3462C30.028 82.277 32.6503 84.6528 35.8852 84.6528Z"
      fill="#FBBEBE" />
    <path
      d="M41.3779 80.3722C42.5425 80.3722 43.4866 79.4245 43.4866 78.2554C43.4866 77.0863 42.5425 76.1385 41.3779 76.1385C40.2133 76.1385 39.2692 77.0863 39.2692 78.2554C39.2692 79.4245 40.2133 80.3722 41.3779 80.3722Z"
      fill="#FBBEBE" />
    <path
      d="M36.654 79.3462C41.1098 79.3462 44.722 78.3765 44.722 77.1803C44.722 75.9841 41.1098 75.0144 36.654 75.0144C32.1981 75.0144 28.5859 75.9841 28.5859 77.1803C28.5859 78.3765 32.1981 79.3462 36.654 79.3462Z"
      fill="#FBBEBE" />
    <path
      d="M29.4592 76.7185C29.6554 77.3432 29.8099 77.9803 29.9213 78.6257C29.2439 77.9353 28.657 77.161 28.1748 76.3215C28.0449 76.1767 27.9404 76.0107 27.866 75.8307C27.1461 74.1489 26.655 72.447 26.655 70.6045C26.6548 68.4682 27.2497 66.3745 28.3724 64.5597C29.4951 62.7449 31.1009 61.2813 33.0084 60.3344C34.9159 59.3874 37.0493 58.9948 39.1674 59.2007C41.2855 59.4067 43.3041 60.2031 44.9951 61.4999C46.6862 62.7968 47.9823 64.5425 48.7372 66.5398C49.492 68.5372 49.6755 70.7067 49.267 72.8032C48.8584 74.8997 47.874 76.8398 46.425 78.4043C44.976 79.9689 43.12 81.0955 41.0668 81.657C41.4157 80.5283 41.8934 79.4264 41.9556 78.2554C41.9931 77.8648 41.9367 77.4708 41.7912 77.1066C41.5962 76.7192 41.3083 76.3866 40.9535 76.1386C39.6825 75.1638 38.0471 74.7378 36.4473 74.7645C34.8456 74.8313 33.2721 75.2101 31.8145 75.8798C31.3545 76.0783 30.8035 76.346 30.2591 76.5289C29.9995 76.6192 29.7315 76.6827 29.4592 76.7185Z"
      fill="#FBBEBE" />
    <path
      d="M58.4006 101.786C57.6695 102.961 56.1075 103.32 54.7343 103.216C52.1746 103.026 49.8459 101.654 47.8684 100.004C45.8908 98.353 44.1621 96.4347 42.1401 94.8465C38.3782 91.8865 34.1409 90.6976 29.3547 90.6285C30.2902 89.85 29.9458 88.0031 30.0213 86.7897C30.1858 84.336 30.3413 81.8177 30.0213 79.3997C29.988 79.1388 29.9502 78.8822 29.9058 78.6257C29.9813 78.706 30.0613 78.7841 30.1435 78.8644C31.5668 80.2356 33.3195 81.2135 35.231 81.7029C37.1425 82.1922 39.1477 82.1765 41.0513 81.6571C40.9289 82.0456 40.8331 82.4421 40.7647 82.8438C40.4891 84.568 40.9513 86.3168 41.4068 88.0053C41.6779 89.0158 42.0001 90.0998 42.8289 90.7311C43.3666 91.1415 44.0443 91.3021 44.682 91.5185C45.9532 91.9534 47.1266 92.6356 48.135 93.526C48.8371 94.1439 49.4682 94.8643 50.2214 95.4019C50.9378 95.8568 51.6924 96.248 52.4768 96.5707C54.4017 97.4625 56.2204 98.5691 57.8984 99.8698C58.2151 100.068 58.4615 100.362 58.6028 100.708C58.6443 100.892 58.6477 101.083 58.613 101.268C58.5782 101.454 58.5059 101.63 58.4006 101.786Z"
      fill="#FBBEBE" />
    <path
      d="M71.5259 123.398C71.3726 124.415 70.4438 125.209 69.7883 125.999C68.0062 128.158 66.1998 130.324 64.2066 132.3C62.0735 134.412 59.7315 136.295 57.3918 138.178L54.3566 140.616C53.9821 140.959 53.5433 141.225 53.0656 141.396C52.506 141.537 51.9147 141.466 51.4035 141.198C51.1999 141.1 51.0071 140.981 50.828 140.843C50.1992 140.353 49.737 139.683 49.286 139.025C47.2328 136.017 45.1775 133.008 43.1199 129.998C42.3867 128.923 41.6668 127.819 40.9513 126.715C40.8557 126.572 40.7646 126.427 40.6691 126.284C40.0158 125.28 39.3648 124.277 38.696 123.306L35.0386 121.587L34.5586 121.364L33.992 121.098C33.2388 120.743 32.4744 120.382 31.8478 119.833C31.2478 119.267 30.7481 118.603 30.3702 117.868C29.6383 116.51 28.9984 115.104 28.4548 113.659C26.8994 109.718 25.5307 105.609 25.4729 101.366C25.4218 97.6347 26.5195 93.7535 28.9903 91.0143C29.328 90.6374 29.6911 90.2842 30.0769 89.957C30.5524 89.5577 31.0434 89.3235 31.6545 89.4105C32.2655 89.4975 32.8455 89.5867 33.4321 89.6871C35.0497 89.9667 36.6547 90.3087 38.2471 90.7132C39.6825 91.0812 41.169 91.5006 42.62 91.2084C42.8533 91.1615 43.0844 91.0946 43.3155 91.0344C43.5043 90.9853 43.691 90.9385 43.8843 90.9073C43.9916 90.8886 44.0999 90.8767 44.2087 90.8716C44.9797 90.8314 45.7197 91.1415 46.4307 91.4471C47.7883 92.0315 49.186 92.6471 50.2081 93.7222C50.8169 94.3691 51.2635 95.1632 51.9124 95.7721C52.7789 96.5863 53.9344 97.0034 54.9743 97.5856C55.1752 97.6975 55.3688 97.8219 55.5542 97.9581C55.9643 98.2667 56.3372 98.6223 56.6652 99.0176C58.0117 100.613 58.8116 102.765 60.2982 104.351C61.4878 105.618 62.5217 107.024 63.3778 108.538C63.5178 108.79 63.6534 109.044 63.7867 109.303C64.0089 109.733 64.2155 110.171 64.4066 110.612C64.4555 110.726 64.5044 110.835 64.5488 110.953C64.8284 111.622 65.0724 112.305 65.2799 112.999C65.7843 114.683 66.1198 116.501 67.2397 117.853C68.0218 118.792 69.1061 119.414 70.0194 120.224C70.6075 120.724 71.0703 121.356 71.3703 122.068C71.5352 122.491 71.5888 122.949 71.5259 123.398Z"
      fill="#FBBEBE" />
    <path opacity="0.06"
      d="M65.3399 110.001C65.0851 110.324 64.8236 110.642 64.5555 110.956C64.5111 111.014 64.4622 111.07 64.4133 111.125C62.0743 113.872 59.3968 116.309 56.4452 118.377C54.6188 119.657 52.6923 120.793 50.7703 121.926L47.2151 124.016C45.7286 124.892 44.2221 125.776 42.5733 126.28C42.0445 126.438 41.4912 126.565 40.9513 126.715C40.8557 126.572 40.7646 126.427 40.6691 126.284C40.0158 125.281 39.3648 124.277 38.696 123.307L35.0386 121.587C37.0584 120.305 38.8504 118.693 40.3402 116.818C42.5622 114.067 44.2709 110.931 45.9552 107.815C46.2538 107.312 46.4861 106.772 46.6462 106.209C46.8684 105.275 46.6818 104.293 46.4085 103.374C45.408 100.079 43.3044 97.2321 40.4536 95.315C38.4538 93.9766 36.1785 93.1625 33.9165 92.3773C32.3366 91.8286 30.6057 91.2977 28.9992 91.523C29.3364 91.1463 29.6995 90.7937 30.0858 90.4679C30.5613 90.0664 31.0523 89.8322 31.6634 89.9192C32.2744 90.0062 32.8544 90.0954 33.441 90.198C34.6297 90.5638 35.7985 91.001 36.9606 91.4516C37.7251 91.7329 38.4678 92.0707 39.1826 92.4621C39.8941 92.8981 40.5776 93.3786 41.229 93.9008C43.1557 95.3751 45.1843 96.7101 47.2995 97.8958C49.7437 99.2497 52.3101 100.349 54.8743 101.465C55.1462 101.605 55.4463 101.681 55.752 101.688C55.9051 101.687 56.0537 101.636 56.1744 101.542C56.2951 101.447 56.381 101.315 56.4186 101.166C56.4287 101.003 56.3917 100.841 56.3119 100.7C55.8675 99.7873 54.8587 99.3278 53.9455 98.8839C50.1548 97.0414 46.8218 94.3893 43.5244 91.7572C43.4443 91.6935 43.3739 91.6183 43.3155 91.5341L43.8843 91.407C47.5745 94.0677 51.4719 96.4264 55.5387 98.4601C55.7535 98.5701 55.969 98.6772 56.1853 98.7813C56.3408 98.8594 56.4941 98.9352 56.6519 99.0043C57.7473 99.5442 58.8428 100.12 59.6671 101.012C60.1988 101.627 60.647 102.311 61.0003 103.044C61.9085 104.766 62.684 106.556 63.3201 108.397C63.3322 108.437 63.3463 108.475 63.3623 108.513C63.4429 108.795 63.5823 109.055 63.7711 109.278C63.8377 109.353 63.9166 109.416 64.0044 109.464C64.4222 109.711 64.9954 109.684 65.3399 110.001Z"
      fill="black" />
    <path
      d="M43.8932 90.9073C47.5829 93.5681 51.4803 95.926 55.5475 97.9581L56.1941 98.2815C57.4385 98.8927 58.7339 99.4994 59.6782 100.512C60.2094 101.129 60.6576 101.813 61.0114 102.546C61.9202 104.268 62.695 106.058 63.329 107.9C63.4712 108.308 63.6378 108.756 64.0156 108.966C64.3933 109.176 64.9932 109.16 65.3288 109.477C65.0266 109.856 64.7199 110.231 64.4022 110.592C62.0639 113.34 59.3863 115.778 56.4341 117.846C54.6076 119.126 52.6812 120.262 50.7592 121.395L47.204 123.485C45.7175 124.359 44.211 125.243 42.5622 125.747C41.9423 125.936 41.2868 126.079 40.658 126.262C40.0047 125.258 39.3537 124.254 38.6849 123.284L34.5475 121.339C36.7695 120.077 38.7071 118.281 40.3247 116.285C42.5467 113.536 44.2554 110.4 45.9397 107.284C46.2379 106.781 46.4701 106.241 46.6307 105.678C46.8529 104.744 46.6663 103.76 46.3929 102.841C45.392 99.5564 43.2945 96.7182 40.4536 94.8041C38.4538 93.4657 36.1785 92.6538 33.9165 91.8664C32.3366 91.3199 30.6057 90.7868 28.9992 91.0143C29.3369 90.6374 29.7 90.2842 30.0858 89.957C30.5613 89.5577 31.0523 89.3235 31.6634 89.4105C32.2744 89.4975 32.8544 89.5867 33.441 89.6871C34.6297 90.0552 35.7985 90.4924 36.9606 90.9429C37.7255 91.2233 38.4682 91.5611 39.1826 91.9534C39.8941 92.3895 40.5776 92.87 41.229 93.3921C43.1589 94.8631 45.1904 96.1943 47.3084 97.3759C49.7526 98.7321 52.319 99.8407 54.8832 100.945C55.155 101.085 55.4552 101.161 55.7609 101.168C55.9142 101.168 56.0632 101.117 56.184 101.023C56.3049 100.928 56.3906 100.795 56.4275 100.646C56.4374 100.484 56.4004 100.323 56.3208 100.182C55.8764 99.2697 54.8676 98.808 53.9544 98.3663C50.1637 96.5238 46.8307 93.8695 43.5332 91.2285C43.4525 91.1654 43.382 91.0902 43.3244 91.0054L43.8932 90.9073Z"
      fill="#FF3939" />
    <path
      d="M75.0255 103.017C82.7285 103.017 88.973 96.7485 88.973 89.0157C88.973 81.283 82.7285 75.0144 75.0255 75.0144C67.3226 75.0144 61.0781 81.283 61.0781 89.0157C61.0781 96.7485 67.3226 103.017 75.0255 103.017Z"
      fill="#FF3939" />
    <path
      d="M88.893 144.74C91.5038 143.917 94.1546 143.078 96.4477 141.573C98.0587 140.515 99.4474 139.155 100.909 137.897C102.009 136.951 103.156 136.059 104.165 135.015C105.068 134.038 105.914 133.009 106.698 131.932C108.481 129.588 110.323 127.289 112.224 125.035C113.244 123.833 114.321 122.608 115.746 121.939C118.277 120.746 121.247 121.551 123.918 122.37C127.918 123.596 131.897 124.897 135.639 126.764C137.768 127.828 139.83 129.014 141.979 130.034C145.907 131.896 150.078 133.175 154.233 134.446C154.542 134.578 154.885 134.606 155.21 134.526C155.444 134.419 155.644 134.251 155.79 134.04C156.332 133.368 156.766 132.616 157.077 131.809C157.136 131.718 157.158 131.607 157.139 131.5C157.119 131.392 157.06 131.296 156.973 131.232C155.195 129.494 152.889 128.426 150.733 127.188C149.018 126.204 147.376 125.1 145.736 123.996C144.161 122.936 142.572 121.865 141.25 120.503C140.583 119.813 139.983 119.053 139.261 118.424C138.623 117.9 137.947 117.424 137.239 117.001C134.072 114.97 131.048 112.721 128.191 110.271C126.018 108.406 124.238 106.004 121.916 104.331C120.492 103.305 118.834 102.37 117.092 102.558C114.972 102.781 113.408 104.565 111.931 106.104C106.964 111.281 100.698 114.986 95.1568 119.539C90.6328 123.251 86.4043 127.661 80.8938 129.619C81.1404 130.44 81.2271 131.261 81.476 132.073C81.7861 133.201 82.1729 134.307 82.6336 135.383C83.0905 136.335 83.6047 137.259 84.1735 138.149L86.3821 141.769C86.8265 142.505 87.2909 143.252 87.9264 143.837C88.2597 144.158 88.893 144.274 88.893 144.74Z"
      fill="#464353" />
    <path opacity="0.06"
      d="M88.893 144.74C91.5038 143.917 94.1546 143.078 96.4477 141.573C98.0587 140.515 99.4474 139.155 100.909 137.897C102.009 136.951 103.156 136.059 104.165 135.015C105.068 134.038 105.914 133.009 106.698 131.932C108.481 129.588 110.323 127.289 112.224 125.035C113.244 123.833 114.321 122.608 115.746 121.939C118.277 120.746 121.247 121.551 123.918 122.37C127.918 123.596 131.897 124.897 135.639 126.764C137.768 127.828 139.83 129.014 141.979 130.034C145.907 131.896 150.078 133.175 154.233 134.446C154.542 134.578 154.885 134.606 155.21 134.526C155.444 134.419 155.644 134.251 155.79 134.04C156.332 133.368 156.766 132.616 157.077 131.809C157.136 131.718 157.158 131.607 157.139 131.5C157.119 131.392 157.06 131.296 156.973 131.232C155.195 129.494 152.889 128.426 150.733 127.188C149.018 126.204 147.376 125.1 145.736 123.996C144.161 122.936 142.572 121.865 141.25 120.503C140.583 119.813 139.983 119.053 139.261 118.424C138.623 117.9 137.947 117.424 137.239 117.001C134.072 114.97 131.048 112.721 128.191 110.271C126.018 108.406 124.238 106.004 121.916 104.331C120.492 103.305 118.834 102.37 117.092 102.558C114.972 102.781 113.408 104.565 111.931 106.104C106.964 111.281 100.698 114.986 95.1568 119.539C90.6328 123.251 86.4043 127.661 80.8938 129.619C81.1404 130.44 81.2271 131.261 81.476 132.073C81.7861 133.201 82.1729 134.307 82.6336 135.383C83.0905 136.335 83.6047 137.259 84.1735 138.149L86.3821 141.769C86.8265 142.505 87.2909 143.252 87.9264 143.837C88.2597 144.158 88.893 144.274 88.893 144.74Z"
      fill="black" />
    <path
      d="M149.722 140.491C149.97 140.842 150.138 141.244 150.215 141.668C150.292 142.092 150.275 142.528 150.167 142.944C150.956 143.517 151.918 143.802 152.891 143.75C153.86 143.696 154.812 143.477 155.708 143.103C156.484 142.818 157.22 142.431 157.895 141.952C159.057 141.091 159.894 139.86 160.572 138.581C160.948 137.879 161.268 136.967 160.783 136.333C160.598 136.117 160.372 135.941 160.117 135.816C158.408 134.836 156.629 133.985 154.795 133.27C154.29 133.037 153.742 132.914 153.186 132.907C152.502 132.945 151.882 133.322 151.34 133.741C150.122 134.693 149.14 135.914 148.471 137.31C148.262 137.756 147.631 138.818 147.942 139.277C148.085 139.489 148.609 139.563 148.831 139.694C149.18 139.894 149.484 140.166 149.722 140.491Z"
      fill="#FBBEBE" />
    <path
      d="M159.897 135.213C163.656 135.916 167.114 137.738 170.809 138.722C172.304 139.119 173.844 139.391 175.273 139.976C176.702 140.56 178.048 141.559 178.664 142.982C178.924 143.666 179.096 144.379 179.177 145.106C179.337 146.134 179.468 147.283 178.859 148.126C178.217 149.018 177.004 149.217 175.917 149.346C172.011 149.815 168.105 150.281 164.185 150.611C163.393 150.661 162.605 150.755 161.823 150.894C161.179 151.026 160.55 151.22 159.91 151.372C159.083 151.568 158.239 151.688 157.399 151.818C155.251 152.126 153.077 152.438 150.92 152.199C149.936 152.09 148.833 151.771 148.4 150.879C148.22 150.416 148.144 149.92 148.178 149.424C148.178 148.102 148.156 146.777 148.178 145.454C148.198 144.095 148.265 142.686 148.878 141.475C149.03 141.104 149.317 140.805 149.68 140.638C149.904 140.574 150.137 140.553 150.369 140.576C151.524 140.616 152.72 140.665 153.753 141.182C154.573 141.591 155.164 140.37 155.999 140.736C157.584 141.439 156.51 139.309 158.11 139.971C158.484 138.816 160.07 139.503 159.794 138.318C159.519 137.134 160.508 137.649 160.394 136.431C160.39 136.166 160.338 135.903 160.243 135.655C160.119 135.416 160.159 135.175 159.897 135.213Z"
      fill="#464353" />
    <path opacity="0.06"
      d="M47.2773 63.8459C46.4152 64.35 45.3464 64.2563 44.3421 64.234C43.4637 64.2158 42.5852 64.2613 41.7134 64.3701C41.3995 64.3921 41.0926 64.4738 40.8091 64.611C40.4399 64.85 40.1481 65.1918 39.9692 65.5947C39.6136 66.2803 39.3741 67.0206 39.2604 67.7851C39.1359 68.6439 39.1493 69.5829 38.616 70.2633C37.8894 71.189 36.7562 71.0462 35.7274 71.2291C34.8321 71.4016 33.9739 71.7308 33.1921 72.2016C32.4212 72.6689 31.7598 73.2976 31.2529 74.0447C30.746 74.7919 30.4055 75.64 30.2546 76.5312C30.2258 76.7342 30.2058 76.9349 30.1969 77.1379C30.1747 77.7134 30.2324 78.3 30.1569 78.8644C30.1386 79.0053 30.1104 79.1446 30.0724 79.2815C30.0626 79.3217 30.05 79.3612 30.0347 79.3997C30.0013 79.1387 29.9636 78.8822 29.9191 78.6257C29.2417 77.9353 28.6548 77.161 28.1726 76.3215C28.0427 76.1767 27.9382 76.0108 27.8638 75.8308C27.1439 74.1489 26.6528 72.447 26.6528 70.6045C26.6526 68.1883 27.4137 65.8339 28.827 63.8781C30.2403 61.9223 32.2335 60.4652 34.5216 59.7154C36.8097 58.9655 39.2754 58.9612 41.5661 59.7031C43.8567 60.4449 45.855 61.895 47.2751 63.8459H47.2773Z"
      fill="black" />
    <path
      d="M48.0083 59.4562C47.4373 58.129 46.2307 57.1877 44.9909 56.4493C42.5467 54.9861 39.7336 54.0671 36.8806 54.0292C35.4411 54.0296 34.0055 54.1791 32.5966 54.4753C31.2236 54.7217 29.8786 55.105 28.5815 55.6196C26.4412 56.5131 24.5493 57.9155 23.0687 59.706C22.7577 59.7297 22.4492 59.7797 22.1466 59.8554C20.9378 60.1588 19.849 60.8257 18.8558 61.5819C18.0246 62.1863 17.2864 62.9101 16.6649 63.73C15.9375 64.777 15.4344 65.9642 15.1873 67.2164C14.3407 71.1333 15.3828 75.1751 16.1472 79.1076C16.9116 83.0401 17.3582 87.3362 15.4806 90.8694C14.7718 92.2078 13.7652 93.3454 13.0097 94.648C12.2543 95.9507 11.7521 97.5188 12.1809 98.9642C12.692 100.722 14.4118 101.837 15.3095 103.419C15.8593 104.453 16.0555 105.64 15.868 106.798C15.6806 107.955 15.1198 109.019 14.2718 109.825C15.6828 110.316 17.2537 109.787 18.5247 109.002C19.5324 108.413 20.3898 107.596 21.0289 106.617C22.6265 104.021 21.9177 100.668 22.4732 97.6682C23.2131 93.7424 26.1995 90.2404 25.7884 86.2655C25.5107 83.5888 23.7508 81.3694 22.3665 79.0741C21.4432 77.5434 20.6672 75.9278 20.049 74.2494C19.6046 73.0516 19.2447 71.7645 19.4646 70.5065C19.5374 70.1224 19.6545 69.7481 19.8135 69.3912C19.8135 69.4336 19.8135 69.4759 19.8135 69.5183C19.8388 70.6737 20.0973 71.812 20.5734 72.8642C22.2266 76.2547 26.6283 77.5038 28.4926 80.7805C29.037 80.1849 29.6036 79.5604 29.8258 78.7841C30.0213 78.0927 29.9213 77.3566 29.9502 76.6383C30.028 74.6308 31.2434 72.7393 32.9454 71.7043C33.7266 71.2327 34.5851 70.9041 35.4807 70.734C36.5073 70.5488 37.6405 70.6894 38.3693 69.7637C38.9026 69.0945 38.8893 68.1443 39.0159 67.2877C39.1286 66.5222 39.3681 65.7811 39.7247 65.0951C39.903 64.6924 40.195 64.3512 40.5646 64.1136C40.8485 63.9753 41.1564 63.8935 41.4712 63.8727C42.3423 63.7638 43.22 63.7184 44.0976 63.7367C45.1131 63.7612 46.1996 63.8526 47.0706 63.3285C48.2972 62.579 48.5794 60.7945 48.0083 59.4562Z"
      fill="#464353" />
    <path opacity="0.06"
      d="M172.175 47.1433C172.175 47.1746 172.175 47.2036 172.175 47.2348C171.773 50.7145 168.44 50.5539 167.663 56.0367C167.356 58.1847 164.107 58.5818 161.972 59.1595C161.05 58.8472 160.117 58.5773 159.195 58.2405C157.061 57.4665 158.552 56.3043 159.466 55.0552C162.454 50.9643 163.021 45.3745 166.414 41.616C167.658 43.9893 169.627 45.9005 172.031 47.0697C172.078 47.101 172.127 47.1233 172.175 47.1433Z"
      fill="black" />
    <path
      d="M172.253 45.147C172.253 45.6746 172.223 46.2019 172.164 46.7262C171.755 50.3479 169.955 53.6666 167.147 55.977C164.339 58.2875 160.744 59.4076 157.126 59.0992C153.508 58.7909 150.153 57.0785 147.773 54.3258C145.393 51.5732 144.176 47.9974 144.38 44.3583C144.585 40.7192 146.196 37.3038 148.869 34.8377C151.543 32.3717 155.069 31.0496 158.699 31.1523C162.328 31.255 165.775 32.7744 168.306 35.3877C170.837 38.001 172.253 41.5021 172.253 45.147Z"
      fill="#A1616A" />
    <path
      d="M177.864 46.7128C179.461 46.6347 180.997 47.2637 182.472 47.8816C188.323 50.3352 194.222 52.8089 199.45 56.4113C202.028 58.1958 204.416 60.2212 206.801 62.2532L216.597 70.609C218.479 72.2128 220.375 73.8322 221.886 75.7951C222.775 77.0057 223.586 78.2723 224.314 79.5871L225.768 82.0742C226.363 83.0476 226.883 84.0655 227.323 85.1189C228.07 87.0394 228.347 89.2789 229.854 90.682C230.865 91.6255 232.258 92.0092 233.493 92.6315C234.729 93.2538 235.938 94.3468 235.918 95.7342C235.918 96.6265 235.38 97.4295 234.976 98.2325C234.138 99.9104 233.787 101.791 233.962 103.659L217.942 91.369C217.304 90.8805 216.637 90.3764 215.853 90.2113C214.835 89.9883 213.798 90.3741 212.816 90.7221C205.073 93.4631 196.845 94.5489 188.66 93.9096C185.041 93.6241 181.366 92.9705 178.197 91.1928C176.444 90.2113 174.893 88.9109 173.353 87.6238C171.431 86.0089 169.502 84.3895 167.798 82.5426C167.354 82.0496 166.892 81.5076 166.778 80.8473C166.694 80.37 166.798 79.8837 166.838 79.4019C167.118 76.0181 164.318 73.2009 163.465 69.9153C163.086 68.366 163.139 66.7419 163.617 65.2206C164.096 63.6993 164.982 62.3394 166.178 61.2896C168.087 62.967 168.018 65.9136 167.796 68.4498C167.496 71.8648 168.447 73.5578 168.147 76.975C169.356 76.9304 169.136 77.7111 169.651 76.6115C170.167 75.5118 170.267 74.2716 170.364 73.0604C170.721 68.6795 171.155 64.3061 171.664 59.9401C171.918 57.7564 172.207 55.5771 172.484 53.3956C172.653 52.0684 172.631 50.8282 173.329 49.6504C174.297 48.0199 175.944 46.8042 177.864 46.7128Z"
      fill="#FF3939" />
    <path
      d="M179.955 50.6921C180.972 50.3709 182.068 50.6653 183.09 50.9709C184.897 51.5092 186.694 52.078 188.48 52.6773C189.94 53.1658 191.42 53.69 192.655 54.6112C193.938 55.5659 194.877 56.8931 195.809 58.198C196.475 59.1371 197.142 60.0873 197.586 61.1535C198.164 62.5499 198.319 64.0801 198.475 65.5835C198.577 66.2322 198.569 66.8937 198.45 67.5397C198.242 68.2411 197.874 68.8846 197.377 69.4201C196.612 70.329 195.725 71.127 194.742 71.7912C192.127 73.5578 188.965 74.2939 185.885 74.943C183.136 75.5207 180.368 76.0583 177.564 76.2323C176.473 76.3014 175.206 76.2323 174.54 75.3668C174.35 75.097 174.2 74.8009 174.095 74.4879C172.457 70.1318 171.747 65.4788 172.013 60.8301C172.037 59.9828 172.168 59.1419 172.402 58.3274C172.633 57.6756 172.919 57.045 173.258 56.4425C174.1 54.8432 174.986 53.1881 176.437 52.1174C177.955 51.0022 179.921 50.6497 181.803 50.7211"
      fill="#A1616A" />
    <path opacity="0.06"
      d="M190.191 67.2342C189.318 67.8253 189.014 68.9673 188.903 70.0202C188.429 74.497 190.269 78.9291 190.147 83.4282C190.049 86.9971 188.72 90.4233 187.409 93.7535C185.174 99.4348 184.01 105.605 183.559 111.696C183.108 117.788 182.448 124.132 179.19 129.284C178.45 130.451 177.588 131.535 176.864 132.708C176.104 133.935 175.502 135.251 174.831 136.527C172.854 140.295 170.305 143.732 167.276 146.714C166.387 147.584 165.445 148.427 164.312 148.929C163.581 149.247 162.795 149.415 161.999 149.424C161.203 149.432 160.414 149.281 159.677 148.978C158.157 148.347 156.877 146.924 156.815 145.273C156.759 143.797 157.637 142.465 158.517 141.283C161.499 137.278 164.929 133.628 168.738 130.406C169.429 129.822 170.158 129.218 170.516 128.383C170.918 127.422 170.753 126.331 170.804 125.289C170.887 123.628 171.531 122.051 171.915 120.431C173.471 113.853 170.707 106.671 172.955 100.298C173.455 98.8816 174.197 97.5277 174.373 96.0354C174.497 94.9915 174.237 93.8249 173.589 93.042C172.979 92.3382 172.637 91.4405 172.624 90.5081C172.624 90.3162 172.624 90.1266 172.649 89.9393C172.92 87.0194 173.189 84.0862 173.042 81.1575C172.895 78.2287 172.315 75.2844 170.969 72.6813C170.271 71.3318 169.369 70.0693 168.938 68.6127C168.245 66.255 168.885 63.7054 169.918 61.4748C170.724 59.7305 171.8 58.0687 173.302 56.8731C176.093 54.6537 180.27 54.3972 183.325 56.233C185.578 57.5847 187.121 59.8577 188.371 62.1752C189.269 63.8682 190.216 65.3025 190.191 67.2342Z"
      fill="black" />
    <path
      d="M190.698 67.2342C189.825 67.8253 189.52 68.9673 189.409 70.0202C188.936 74.497 190.776 78.9291 190.653 83.4282C190.556 86.9971 189.227 90.4233 187.916 93.7535C185.681 99.4348 184.519 105.605 184.065 111.696C183.612 117.788 182.954 124.132 179.697 129.284C178.957 130.451 178.097 131.535 177.37 132.708C176.613 133.935 176.008 135.251 175.337 136.527C173.36 140.295 170.811 143.732 167.783 146.714C166.894 147.584 165.949 148.427 164.816 148.929C164.086 149.247 163.3 149.415 162.504 149.424C161.708 149.432 160.918 149.281 160.181 148.978C158.663 148.347 157.384 146.924 157.321 145.273C157.264 143.797 158.141 142.465 159.023 141.283C162.006 137.277 165.435 133.628 169.245 130.406C169.936 129.822 170.667 129.218 171.022 128.383C171.427 127.422 171.26 126.331 171.311 125.289C171.393 123.628 172.038 122.051 172.422 120.431C173.977 113.853 171.213 106.671 173.462 100.298C173.962 98.8816 174.706 97.5277 174.882 96.0354C175.004 94.9915 174.746 93.8249 174.097 93.042C173.477 92.343 173.125 91.4443 173.106 90.5081C173.106 90.3162 173.106 90.1266 173.131 89.9393C173.4 87.0194 173.669 84.0862 173.522 81.1575C173.375 78.2287 172.795 75.2844 171.449 72.6813C170.751 71.3318 169.849 70.0693 169.418 68.6127C168.725 66.255 169.365 63.7054 170.398 61.4748C171.207 59.7305 172.28 58.0687 173.782 56.8731C176.573 54.6537 180.75 54.3972 183.805 56.233C186.058 57.5847 187.6 59.8577 188.851 62.1752C189.771 63.8682 190.713 65.3025 190.698 67.2342Z"
      fill="#A1616A" />
    <path d="M213.17 125.481L212.978 125.539L213.17 125.481Z" fill="#464353" />
    <path d="M174.251 135.434C174.259 135.359 174.272 135.284 174.291 135.211L174.251 135.434Z"
      fill="#464353" />
    <path
      d="M221.89 120.128C222.53 119.385 223.517 119.053 224.466 118.805C225.994 118.408 227.556 118.153 229.132 118.042C230.11 117.937 231.098 117.998 232.056 118.223C233.002 118.484 233.9 119.05 234.38 119.909C234.804 120.668 234.871 121.569 234.927 122.436C235.042 124.221 235.149 126.005 234.856 127.763C234.667 128.878 234.313 129.958 234.085 131.064C233.342 134.691 233.987 138.445 233.92 142.148C233.905 142.938 233.853 143.747 233.522 144.463C233.169 145.224 232.534 145.802 231.914 146.373C231.232 146.991 230.538 147.613 229.716 148.026C228.498 148.639 227.096 148.742 225.734 148.784C224.905 148.809 224.052 148.811 223.29 148.505C222.528 148.2 221.841 147.513 221.786 146.681C221.697 145.269 223.283 144.345 223.737 143.007C224.097 141.941 223.683 140.763 223.11 139.793C222.191 138.246 220.879 136.972 219.308 136.101C218.726 135.78 218.106 135.51 217.622 135.057C217.137 134.604 216.809 133.902 217.015 133.273C217.262 132.512 218.144 132.157 218.937 132.082C219.73 132.006 220.568 132.064 221.281 131.709C221.917 131.394 222.359 130.788 222.663 130.148C223.311 128.781 223.401 127.215 222.915 125.782C222.722 125.238 222.443 124.728 222.088 124.272C221.755 123.844 221.07 123.483 220.833 123.014C220.41 122.171 221.324 120.797 221.89 120.128Z"
      fill="#FF3939" />
    <path opacity="0.06"
      d="M208.978 87.8023C205.307 84.5456 200.19 83.6601 195.391 82.672C192.918 82.1649 190.458 81.5998 188.009 80.9767C186.401 80.5663 184.787 80.1291 183.121 80.0153C181.454 79.9016 179.739 80.1358 178.313 80.9879C176.886 81.84 175.811 83.3835 175.802 85.0498C175.802 85.7189 175.959 86.3747 175.911 87.0372C175.833 88.1034 175.244 89.0447 174.842 90.0418C174.227 91.6179 174.132 93.3508 174.573 94.9848C175.284 97.5878 177.333 99.8809 177.155 102.569C176.859 107.068 176.95 111.77 177.87 116.175C178.79 120.581 179.939 125.006 179.912 129.514C179.886 134.022 178.526 138.762 175.173 141.764C177.445 143.906 180.223 145.43 183.245 146.192C185.83 146.841 188.903 146.777 190.742 144.843C191.169 144.397 191.522 143.801 191.433 143.188C191.342 142.801 191.18 142.434 190.956 142.106C189.691 139.833 189.845 137.031 190.405 134.493C190.965 131.954 191.922 129.487 192.164 126.895C192.342 125.015 192.142 123.103 192.5 121.248C192.775 119.827 193.371 118.488 193.729 117.085C194.784 112.923 193.675 108.553 192.573 104.407C193.495 106.537 195.24 108.199 197.044 109.644C199.781 111.835 203.092 113.768 206.572 113.38C209.669 113.032 212.307 110.871 214.127 108.335C214.142 105.402 215.155 102.629 214.975 99.7024C214.859 98.417 214.63 97.1443 214.291 95.8993C213.951 94.5074 213.602 93.1021 212.958 91.824C212.107 90.1266 210.396 89.0581 208.978 87.8023Z"
      fill="black" />
    <path
      d="M209.738 87.8023C206.067 84.5456 200.952 83.6601 196.151 82.672C193.678 82.1649 191.219 81.5998 188.771 80.9767C187.163 80.5663 185.547 80.1291 183.883 80.0153C182.219 79.9016 180.503 80.1358 179.077 80.9879C177.65 81.84 176.573 83.3835 176.566 85.0498C176.566 85.7189 176.722 86.3747 176.673 87.0372C176.597 88.1034 175.995 89.0447 175.604 90.0418C174.99 91.6182 174.896 93.351 175.337 94.9848C176.046 97.5879 178.095 99.8809 177.919 102.569C177.621 107.068 177.713 111.77 178.632 116.175C179.552 120.581 180.701 125.006 180.675 129.514C180.648 134.022 179.279 138.747 175.924 141.744C178.196 143.885 180.974 145.409 183.996 146.172C186.581 146.821 189.656 146.757 191.493 144.823C191.92 144.377 192.273 143.781 192.184 143.168C192.093 142.781 191.931 142.414 191.707 142.086C190.442 139.813 190.596 137.011 191.156 134.473C191.716 131.934 192.673 129.467 192.918 126.875C193.093 124.995 192.893 123.083 193.253 121.228C193.527 119.807 194.124 118.468 194.48 117.065C195.535 112.903 194.429 108.533 193.324 104.387C194.246 106.517 195.991 108.179 197.797 109.624C200.535 111.814 203.843 113.748 207.323 113.36C210.42 113.012 213.058 110.851 214.878 108.315C214.891 105.381 215.904 102.609 215.724 99.6824C215.608 98.3969 215.379 97.1242 215.04 95.8792C214.702 94.4873 214.351 93.0821 213.707 91.804C212.88 90.1266 211.156 89.0581 209.738 87.8023Z"
      fill="#A1616A" />
    <path
      d="M184.239 144.091C182.608 143.094 181.201 141.771 180.103 140.203C179.708 139.641 179.352 139.043 178.859 138.566C178.366 138.088 177.697 137.734 177.015 137.805C176.244 137.885 175.626 138.474 175.137 139.081C173.826 140.712 172.982 142.706 171.527 144.211C169.847 145.953 167.503 146.888 165.163 147.486C162.823 148.084 160.408 148.398 158.115 149.154C157.395 149.391 156.637 149.712 156.248 150.366C155.755 151.198 156.026 152.288 156.546 153.114C157.504 154.675 159.152 155.681 160.872 156.279C162.592 156.877 164.412 157.115 166.205 157.468C169.373 158.09 172.62 159.087 175.773 158.385C177.03 158.103 178.217 157.559 179.488 157.323C182.377 156.783 185.356 157.874 188.256 157.437C189.658 157.225 190.982 156.663 192.255 156.029C192.894 155.752 193.475 155.356 193.966 154.862C194.431 154.345 194.711 153.611 194.52 152.942C194.411 152.556 194.16 152.23 193.993 151.867C193.731 151.305 193.678 150.673 193.615 150.056C193.376 147.704 192.969 145.372 192.398 143.078C192.2 142.277 191.904 141.385 191.16 141.035C191.008 140.953 190.831 140.933 190.665 140.979C190.4 141.08 190.313 141.401 190.233 141.671C190.015 142.417 189.598 143.089 189.026 143.614C188.454 144.138 187.75 144.496 186.99 144.647C186.23 144.798 185.444 144.738 184.716 144.472C183.988 144.206 183.346 143.745 182.861 143.138"
      fill="#FF3939" />
    <path opacity="0.06"
      d="M172.253 45.1469C172.253 45.6746 172.223 46.2018 172.164 46.7261C171.464 46.8314 170.749 46.7693 170.077 46.5449C169.405 46.3205 168.796 45.9401 168.298 45.4346C167.829 44.935 167.478 44.3305 167.014 43.8264C166.549 43.3223 165.903 42.9029 165.236 42.9565C164.667 42.9988 164.174 43.3602 163.785 43.7795C163.279 44.3255 162.908 44.9835 162.703 45.7001C162.554 46.2064 162.481 46.7819 162.063 47.1187C161.645 47.4555 161.132 47.4332 160.637 47.4154C159.994 47.3931 159.328 47.3619 158.761 47.0585C157.695 46.4808 157.335 45.158 156.939 44.0071C156.273 42.0731 154.773 38.415 152.442 38.0246C151.331 37.8395 149.98 38.4284 149.109 39.0641C147.796 40.021 146.827 40.6411 145.129 40.6144C146.2 37.4788 148.343 34.8261 151.179 33.1279C154.014 31.4297 157.357 30.7961 160.614 31.3399C163.871 31.8838 166.831 33.5697 168.966 36.0978C171.101 38.6259 172.274 41.8324 172.275 45.1469H172.253Z"
      fill="black" />
    <path
      d="M145.109 40.1036C144.709 40.1123 144.31 40.0488 143.932 39.9162C142.854 39.4924 142.33 38.2433 142.239 37.0856C142.096 35.3212 142.683 33.5903 143.272 31.9196C143.396 31.556 143.545 31.1657 143.869 30.9627C144.132 30.8332 144.419 30.761 144.712 30.7508C146.307 30.5277 147.691 29.5485 148.869 28.4511C150.047 27.3536 151.109 26.1089 152.424 25.1944C155.913 22.7787 161.09 23.2293 164.107 26.2093C165.303 27.3871 166.329 28.9842 167.987 29.2608C168.942 29.4191 169.967 29.089 170.876 29.4459C171.542 29.7069 172.018 30.298 172.4 30.9025C173.64 32.8564 174.222 35.1718 174.415 37.4804C174.608 39.7891 174.431 42.1111 174.251 44.4198C174.261 44.7654 174.172 45.1068 173.995 45.4035C173.853 45.5746 173.675 45.7118 173.473 45.805C172.628 46.223 171.674 46.3636 170.745 46.2066C169.816 46.0497 168.96 45.6032 168.298 44.9306C167.827 44.4332 167.478 43.8287 167.014 43.3223C166.549 42.816 165.903 42.4011 165.236 42.4546C164.67 42.497 164.172 42.8584 163.785 43.2777C163.279 43.8237 162.908 44.4816 162.703 45.1982C162.556 45.7046 162.481 46.2801 162.063 46.6147C161.645 46.9492 161.132 46.9314 160.634 46.9136C159.994 46.889 159.328 46.86 158.761 46.5544C157.692 45.9789 157.332 44.6562 156.939 43.5052C156.273 41.5713 154.775 37.9109 152.442 37.5228C151.331 37.3355 149.98 37.9266 149.109 38.5623C147.776 39.5125 146.816 40.1326 145.109 40.1036Z"
      fill="#464353" />
    <path opacity="0.06"
      d="M71.5259 123.398C71.3726 124.415 70.4438 125.209 69.7883 125.999C68.0062 128.158 66.1998 130.324 64.2066 132.3C62.0735 134.413 59.7316 136.295 57.3918 138.178L54.3566 140.616C53.9821 140.959 53.5433 141.225 53.0656 141.396C52.506 141.537 51.9147 141.466 51.4035 141.198C51.448 141.109 51.4946 141.026 51.5457 140.944L55.1854 134.821C55.9008 133.621 56.3697 132.528 57.1852 131.401C58.4139 129.715 59.6538 128.02 61.167 126.59C63.0801 124.781 65.5332 123.467 67.8085 122.16C68.1373 121.17 69.515 120.895 70.446 121.364C70.791 121.543 71.1017 121.783 71.3637 122.071C71.5305 122.492 71.5863 122.949 71.5259 123.398Z"
      fill="black" />
    <path
      d="M55.4387 135.073L51.7991 141.198C51.6502 141.445 51.4969 141.727 51.5613 142.008C51.6431 142.243 51.7991 142.446 52.0057 142.585C53.4011 143.725 54.9476 144.927 55.3854 146.678C55.6987 147.928 55.3853 149.266 55.6653 150.519C56.1786 152.781 58.4428 154.155 60.5848 155.025C65.3843 156.975 70.7126 157.724 75.8121 156.81C80.9116 155.895 85.7511 153.29 89.053 149.284C90.0662 148.052 90.9328 146.705 91.8949 145.434C94.5613 141.921 97.9454 139.036 101.303 136.181C105.625 132.505 108.171 127.023 111.968 122.798C112.659 122.028 113.422 121.236 114.413 120.982C114.968 120.842 115.746 121.049 115.768 121.625C115.819 122.74 116.712 123.652 117.323 124.585C119.625 128.118 122.034 131.76 125.591 134.013C127.538 135.249 129.744 136.005 131.944 136.69C137.521 138.434 143.207 139.813 148.887 141.178C149.173 140.602 149.517 140.058 149.913 139.552C150.502 138.827 151.278 138.274 151.869 137.544C152.951 136.23 153.331 134.493 153.677 132.824C150.284 130.739 146.802 128.586 143.456 126.418C141.772 125.33 140.077 124.216 138.712 122.744C137.823 121.776 137.077 120.668 136.186 119.693C135.274 118.747 134.292 117.872 133.248 117.076L125.249 110.646C122.952 108.801 120.61 106.854 118.361 104.944C117.097 103.869 115.695 102.738 114.041 102.687C112.626 102.642 111.324 103.403 110.106 104.135C102.954 108.434 95.696 112.539 88.3308 116.452C86.8398 117.241 85.3422 118.027 83.9202 118.934C81.1532 120.701 78.6966 122.916 76.6498 125.488C76.2743 125.959 75.7988 126.494 75.2033 126.423C75.0396 126.398 74.882 126.343 74.7389 126.26C73.8212 125.767 73.259 124.814 72.7391 123.911C72.2191 123.008 71.6392 122.057 70.7082 121.589C69.7772 121.12 68.4018 121.395 68.0707 122.387C65.7843 123.732 63.3401 125.035 61.4247 126.844C59.9115 128.274 58.6717 129.967 57.4429 131.655C56.623 132.782 56.1519 133.875 55.4387 135.073Z"
      fill="#464353" />
    <path opacity="0.06"
      d="M49.4771 97.715C49.4771 97.715 53.1367 99.3455 55.7609 101.186L49.4771 97.715Z"
      fill="black" />
    <path
      d="M232.76 101.068C232.827 103.149 232.88 105.234 232.856 107.313C232.842 108.415 232.796 109.564 232.269 110.53C231.894 111.223 231.3 111.765 230.714 112.296L227.054 115.627C225.919 116.659 224.694 117.737 223.181 117.993C221.45 118.288 219.759 117.442 218.095 116.878C216.419 116.311 214.664 116.015 212.896 116.001C211.882 116.001 210.86 116.082 209.86 115.921C209.137 115.783 208.428 115.58 207.741 115.316L204.436 114.165C204.53 113.329 205.325 112.796 205.992 112.267C208.358 110.34 209.396 107.242 210.143 104.277C210.749 101.963 211.182 99.606 211.436 97.2265C211.549 96.0487 211.6 94.8509 211.354 93.6932C211.121 92.7593 210.793 91.8519 210.376 90.9853L209.214 88.3554C208.547 86.8699 207.214 86.2096 205.856 85.333C207.905 86.1137 210.403 86.4193 211.96 87.9673C212.261 88.3103 212.617 88.5999 213.013 88.8239C213.438 89.0268 213.92 89.0469 214.384 89.1228C216.697 89.4707 218.664 90.9295 220.575 92.279C222.914 93.9326 225.318 95.4859 227.787 96.9387C228.898 97.5945 230.045 98.2391 230.98 99.1336C231.916 100.028 232.649 101.219 232.709 102.515"
      fill="#464353" />
    <path opacity="0.06"
      d="M33.501 97.4139C30.5879 97.9916 29.0725 101.429 29.2436 104.402C29.408 107.058 30.4946 109.572 32.3144 111.507C33.5298 112.789 35.0452 113.78 36.1429 115.165C37.765 117.208 38.3293 119.909 39.7803 122.08C40.8335 123.654 42.3111 124.89 43.7799 126.075C47.1662 128.787 50.6629 131.354 54.2699 133.777C55.7364 134.761 57.3407 135.755 59.105 135.717C60.767 135.682 62.298 134.703 63.3823 133.436C64.4666 132.169 65.1599 130.629 65.8642 129.113C68.4018 123.559 70.9571 117.944 72.1703 111.957C72.5502 110.077 72.8058 108.139 73.6546 106.419C74.3212 105.08 75.3077 103.934 76.1876 102.725C78.2664 99.8561 79.7256 96.5832 80.4716 93.1156C80.956 90.8538 81.1182 88.4314 80.3227 86.2677C79.5273 84.1041 77.5964 82.2281 75.2966 82.0586C73.4768 81.9248 71.6903 82.8616 70.4682 84.2245C69.2461 85.5874 68.5262 87.3295 68.0351 89.0939C67.3312 91.6322 67.0607 94.2719 67.2352 96.9009C67.3774 99.0222 67.8085 101.164 67.4441 103.26C67.1863 104.739 66.5442 106.12 65.9087 107.481C64.2666 110.991 62.5979 114.547 60.116 117.518C59.3072 118.486 58.1939 119.465 56.9563 119.238C55.2453 118.926 54.7921 116.751 53.9477 115.223C52.9123 113.349 50.948 112.223 49.4082 110.735C47.2173 108.616 45.9041 105.774 44.3465 103.151C42.7889 100.528 40.7735 97.9381 37.9027 96.9321C35.0319 95.9261 31.2056 97.2176 30.4679 100.18"
      fill="black" />
    <path opacity="0.06"
      d="M35.6985 99.4503C32.7832 100.028 29.0725 100.405 29.2547 103.383C29.4173 106.039 30.5041 108.554 32.3255 110.487C33.5409 111.772 35.0563 112.762 36.154 114.148C37.776 116.191 38.3404 118.89 39.7914 121.062C40.8446 122.639 42.3222 123.875 43.791 125.057C47.1773 127.771 50.674 130.339 54.281 132.76C55.7475 133.746 57.3518 134.74 59.116 134.702C60.7781 134.667 62.309 133.685 63.3934 132.421C64.4777 131.156 65.171 129.614 65.8753 128.095C68.4128 122.541 70.9681 116.927 72.1813 110.94C72.5613 109.062 72.8168 107.121 73.6656 105.404C74.3322 104.065 75.3188 102.919 76.1987 101.708C78.2778 98.8399 79.737 95.5676 80.4827 92.1006C80.9671 89.8366 81.1293 87.4164 80.3338 85.2505C79.5384 83.0846 77.6074 81.2131 75.3077 81.0414C73.4879 80.9075 71.7014 81.8466 70.4793 83.2073C69.2572 84.5679 68.5373 86.3122 68.0462 88.0789C67.3421 90.6171 67.0716 93.2569 67.2463 95.8859C67.3885 98.0094 67.8196 100.151 67.4552 102.245C67.1974 103.726 66.5553 105.107 65.9198 106.468C64.2777 109.979 62.609 113.532 60.1271 116.505C59.3182 117.473 58.205 118.45 56.9674 118.225C55.2564 117.911 54.8032 115.736 53.9588 114.21C52.9234 112.336 50.9591 111.21 49.4193 109.722C47.2284 107.605 45.9152 104.761 44.3576 102.138C42.8 99.515 40.7846 96.9276 37.9138 95.9193C35.043 94.9111 38.6382 101.369 37.8983 104.331"
      fill="black" />
    <path
      d="M33.501 96.9031C30.5879 97.4808 29.0725 100.918 29.2436 103.892C29.4075 106.548 30.4942 109.063 32.3144 110.998C33.5298 112.281 35.0452 113.271 36.1429 114.656C37.765 116.7 38.3293 119.401 39.7803 121.571C40.8335 123.148 42.3111 124.384 43.7799 125.568C47.1662 128.281 50.6629 130.847 54.2699 133.268C55.7364 134.254 57.3407 135.249 59.105 135.211C60.767 135.175 62.298 134.196 63.3823 132.929C64.4666 131.662 65.1599 130.123 65.8642 128.606C68.4018 123.052 70.9571 117.438 72.1703 111.449C72.5502 109.571 72.8058 107.63 73.6546 105.912C74.3212 104.574 75.3077 103.428 76.1876 102.216C78.2668 99.3486 79.726 96.0763 80.4716 92.6093C80.956 90.3452 81.1182 87.925 80.3227 85.7591C79.5273 83.5933 77.5964 81.7218 75.2966 81.5523C73.4768 81.4162 71.6903 82.3553 70.4682 83.7182C69.2461 85.081 68.5262 86.8231 68.0351 88.5875C67.3312 91.1258 67.0607 93.7655 67.2352 96.3945C67.3774 98.5158 67.8085 100.657 67.4441 102.752C67.1863 104.233 66.5442 105.614 65.9087 106.974C64.2666 110.485 62.5979 114.041 60.116 117.012C59.3072 117.98 58.1939 118.957 56.9563 118.732C55.2453 118.417 54.7921 116.244 53.9477 114.717C52.9123 112.841 50.948 111.714 49.4082 110.229C47.2173 108.11 45.9041 105.268 44.3465 102.645C42.7889 100.021 40.7735 97.434 37.9027 96.428C35.0319 95.422 31.2056 96.7135 30.4679 99.6757"
      fill="#FBBEBE" />
    <g opacity="0.06">
      <path opacity="0.06"
        d="M22.3666 79.0852C21.4432 77.5544 20.6672 75.9389 20.049 74.2604L19.9735 74.0374C19.5046 73.5321 19.1102 72.962 18.8025 72.3444C18.3261 71.2922 18.0676 70.1539 18.0426 68.9985C18.0426 68.9561 18.0426 68.9137 18.0426 68.8713C17.8836 69.2283 17.7665 69.6025 17.6937 69.9866C17.4715 71.2447 17.8381 72.5295 18.2781 73.7295C18.8967 75.4078 19.6727 77.0233 20.5956 78.5543C21.9755 80.8696 23.7375 83.1002 24.0108 85.7568C24.4219 89.7317 21.4355 93.2315 20.6978 97.1596C20.1335 100.16 20.8489 103.512 19.2513 106.109C18.6127 107.088 17.7552 107.903 16.7471 108.491C16.1149 108.895 15.4226 109.197 14.6962 109.383C14.5638 109.541 14.4213 109.69 14.2696 109.829C15.6806 110.32 17.2515 109.791 18.5225 109.006C19.5302 108.417 20.3876 107.601 21.0267 106.622C22.6243 104.025 21.9155 100.673 22.471 97.6726C23.2109 93.7468 26.1973 90.2448 25.7862 86.2699C25.5107 83.5976 23.7509 81.3693 22.3666 79.0852Z"
        fill="black" />
      <path opacity="0.06"
        d="M48.0083 59.456C47.4373 58.1289 46.2307 57.1875 44.9909 56.4492C43.4191 55.5025 41.7088 54.8099 39.9225 54.3971C41.0689 54.7988 42.1721 55.3152 43.2155 55.9384C44.4554 56.679 45.6597 57.6181 46.2352 58.9475C46.8107 60.2769 46.524 62.0703 45.2886 62.8108C44.4176 63.335 43.331 63.2413 42.3156 63.219C41.438 63.1989 40.5602 63.2436 39.6892 63.3529C39.3747 63.3757 39.0672 63.4574 38.7826 63.5938C38.4119 63.8349 38.1198 64.1801 37.9427 64.5864C37.5854 65.2723 37.3451 66.0134 37.2317 66.779C37.1072 67.6356 37.1184 68.5747 36.5851 69.255C35.8607 70.1807 34.7275 70.0401 33.6965 70.2231C32.8011 70.3955 31.943 70.7247 31.1612 71.1956C29.4592 72.2283 28.2437 74.1154 28.166 76.1296C28.1393 76.8479 28.2371 77.5817 28.0437 78.2732C27.919 78.6766 27.7234 79.0543 27.466 79.3885C27.8598 79.811 28.2042 80.2773 28.4926 80.7782C29.037 80.1826 29.6036 79.558 29.8258 78.7818C30.0213 78.0903 29.9213 77.3542 29.9502 76.636C30.028 74.6284 31.2434 72.7369 32.9455 71.7019C33.7266 71.2303 34.5851 70.9018 35.4808 70.7316C36.5073 70.5465 37.6405 70.687 38.3693 69.7613C38.9026 69.0922 38.8893 68.1419 39.0159 67.2854C39.1286 66.5199 39.3682 65.7787 39.7248 65.0927C39.903 64.6901 40.195 64.3488 40.5647 64.1113C40.8485 63.973 41.1564 63.8912 41.4712 63.8704C42.3423 63.7615 43.22 63.716 44.0976 63.7343C45.1131 63.7588 46.1996 63.8503 47.0707 63.3261C48.2972 62.5789 48.5794 60.7944 48.0083 59.456Z"
        fill="black" />
    </g>
    <path opacity="0.06"
      d="M33.4587 80.7693C33.4587 80.7693 36.0829 83.0356 41.0668 81.6615C41.0668 81.6571 37.9805 82.8772 33.4587 80.7693Z"
      fill="black" />
    <path opacity="0.06"
      d="M174.202 42.5372C174.207 42.8816 174.114 43.2205 173.935 43.5142C173.793 43.6847 173.615 43.8211 173.413 43.9135C172.569 44.332 171.615 44.4729 170.686 44.3164C169.758 44.1598 168.902 43.7137 168.24 43.0413C167.769 42.5417 167.42 41.926 166.956 41.4331C166.492 40.9401 165.845 40.5096 165.178 40.5631C164.612 40.6077 164.116 40.9691 163.727 41.3862C163.224 41.934 162.854 42.5913 162.645 43.3067C162.501 43.8153 162.423 44.3886 162.008 44.7254C161.592 45.0622 161.077 45.0399 160.579 45.0221C159.937 44.9998 159.27 44.9708 158.706 44.6652C157.637 44.0897 157.277 42.7647 156.881 41.616C156.215 39.6798 154.717 36.0217 152.386 35.6313C151.275 35.4462 149.922 36.0373 149.053 36.6708C147.74 37.6277 146.771 38.2478 145.072 38.2322C144.671 38.2399 144.272 38.1765 143.894 38.0448C142.916 37.6589 142.394 36.5927 142.236 35.5354C142.176 36.02 142.163 36.5094 142.199 36.9964C142.292 38.1519 142.816 39.401 143.894 39.827C144.272 39.9587 144.671 40.0221 145.072 40.0144C146.771 40.0412 147.738 39.4211 149.053 38.4642C149.927 37.8307 151.275 37.2373 152.386 37.4247C154.708 37.8039 156.219 41.4621 156.873 43.396C157.268 44.5469 157.628 45.8719 158.697 46.4474C159.261 46.7508 159.928 46.782 160.57 46.8043C161.068 46.8221 161.614 46.8244 161.999 46.5076C162.383 46.1909 162.492 45.5953 162.636 45.089C162.844 44.3733 163.215 43.7159 163.718 43.1685C164.107 42.7513 164.607 42.39 165.169 42.3454C165.854 42.2918 166.503 42.7089 166.947 43.2153C167.391 43.7216 167.76 44.3306 168.231 44.8235C168.893 45.4959 169.749 45.9421 170.677 46.0986C171.606 46.2552 172.56 46.1142 173.404 45.6957C173.605 45.6026 173.783 45.4663 173.926 45.2964C174.106 45.002 174.198 44.6624 174.193 44.3172C174.367 42.4384 174.441 40.5516 174.415 38.6649C174.397 39.9564 174.302 41.2479 174.202 42.5372Z"
      fill="black" />
    <path
      d="M19.9557 137.694C19.9557 137.694 20.309 137.299 19.6446 137.143V136.494H20.0446C20.0437 135.709 19.7747 134.949 19.2825 134.34C18.7903 133.731 18.1047 133.31 17.3404 133.148V132.36H17.4449V131.337H14.874V132.36H14.9474V133.157C14.1902 133.327 13.5136 133.751 13.0289 134.36C12.5441 134.968 12.2804 135.724 12.281 136.503H12.6343V137.125C12.6343 137.125 11.7921 137.524 12.6343 138.24C13.4764 138.956 13.3453 139.474 13.3453 139.474C13.3453 139.474 12.992 140.812 12.2832 140.986V153.395C12.2829 153.757 12.3537 154.116 12.4916 154.451C12.6295 154.785 12.8317 155.089 13.0868 155.346C13.3419 155.602 13.6447 155.805 13.9781 155.944C14.3114 156.083 14.6687 156.154 15.0296 156.154H17.2005C17.9294 156.154 18.6285 155.863 19.144 155.346C19.6595 154.828 19.9491 154.127 19.9491 153.395V140.986C19.9491 140.986 18.707 140.051 18.9292 139.474C19.2273 138.856 19.5704 138.261 19.9557 137.694Z"
      fill="#464353" />
  </g>
</svg>
