<svg width="48" height="48" viewBox="0 0 48 48" fill="none" xmlns="http://www.w3.org/2000/svg">
<g clip-path="url(#clip0)">
<path d="M24 48C37.2548 48 48 37.2548 48 24C48 10.7451 37.2548 -3.05176e-05 24 -3.05176e-05C10.7452 -3.05176e-05 0 10.7451 0 24C0 37.2548 10.7452 48 24 48Z" fill="#DC4E41"/>
<path d="M14.0063 24.2197C13.8064 18.9574 18.4157 14.0945 23.6833 14.0314C26.368 13.8024 28.9799 14.8449 31.0117 16.5454C30.1783 17.4617 29.3303 18.3675 28.4245 19.2155C26.6358 18.1288 24.4823 17.3007 22.3918 18.0362C19.0201 18.9963 16.9782 22.9773 18.226 26.2757C19.2593 29.7207 23.4494 31.6113 26.7333 30.1641C28.4337 29.5552 29.5548 27.9863 30.0468 26.3004C28.098 26.2616 26.1487 26.2859 24.1999 26.2321C24.1951 25.0726 24.1902 23.9175 24.1951 22.758C27.445 22.7531 30.6998 22.7434 33.9546 22.7726C34.1544 25.6135 33.7353 28.6538 31.8884 30.934C29.3594 34.1888 24.687 35.144 20.886 33.8671C16.8521 32.5422 13.9185 28.4782 14.0063 24.2197Z" fill="white"/>
</g>
<defs>
<clipPath id="clip0">
<rect width="48" height="48" fill="white"/>
</clipPath>
</defs>
</svg>
